<svg width="15" height="14" viewBox="0 0 15 14" fill="none" xmlns="http://www.w3.org/2000/svg">
<path d="M8.16665 3.66671H6.83331V6.33337H4.16665V7.66671H6.83331V10.3334H8.16665V7.66671H10.8333V6.33337H8.16665V3.66671ZM7.49998 0.333374C3.81998 0.333374 0.833313 3.32004 0.833313 7.00004C0.833313 10.68 3.81998 13.6667 7.49998 13.6667C11.18 13.6667 14.1666 10.68 14.1666 7.00004C14.1666 3.32004 11.18 0.333374 7.49998 0.333374ZM7.49998 12.3334C4.55998 12.3334 2.16665 9.94004 2.16665 7.00004C2.16665 4.06004 4.55998 1.66671 7.49998 1.66671C10.44 1.66671 12.8333 4.06004 12.8333 7.00004C12.8333 9.94004 10.44 12.3334 7.49998 12.3334Z" fill="#D72323"/>
</svg>
