<svg width="49" height="49" viewBox="0 0 49 49" fill="none" xmlns="http://www.w3.org/2000/svg">
<g clip-path="url(#clip0)">
<path d="M24.152 23.6074C27.3821 23.6074 30.1791 22.4489 32.4644 20.1632C34.7498 17.8779 35.9083 15.0816 35.9083 11.8512C35.9083 8.62184 34.7498 5.82523 32.4641 3.53915C30.1783 1.25419 27.3817 0.0957031 24.152 0.0957031C20.9216 0.0957031 18.1253 1.25419 15.84 3.53953C13.5546 5.82486 12.3958 8.62147 12.3958 11.8512C12.3958 15.0816 13.5546 17.8782 15.8403 20.1636C18.126 22.4485 20.9227 23.6074 24.152 23.6074Z" fill="white"/>
<path d="M44.7225 37.627C44.6566 36.676 44.5232 35.6385 44.327 34.5429C44.1289 33.4392 43.8738 32.3958 43.5684 31.4421C43.253 30.4564 42.824 29.483 42.2938 28.5501C41.7434 27.5819 41.0969 26.7388 40.3715 26.0451C39.6129 25.3193 38.6842 24.7358 37.6102 24.3101C36.54 23.8867 35.3539 23.6722 34.0852 23.6722C33.587 23.6722 33.1051 23.8767 32.1745 24.4826C31.6018 24.8561 30.9318 25.288 30.1841 25.7658C29.5447 26.1732 28.6785 26.5549 27.6087 26.9005C26.5649 27.2382 25.5051 27.4095 24.459 27.4095C23.413 27.4095 22.3535 27.2382 21.3086 26.9005C20.2399 26.5553 19.3737 26.1736 18.7351 25.7662C17.9944 25.2929 17.3241 24.8609 16.7428 24.4822C15.8133 23.8763 15.3311 23.6719 14.8328 23.6719C13.5637 23.6719 12.378 23.8867 11.3082 24.3105C10.2349 24.7354 9.30584 25.3189 8.54654 26.0455C7.8215 26.7396 7.17467 27.5823 6.62502 28.5501C6.09512 29.483 5.66613 30.456 5.35034 31.4425C5.04536 32.3961 4.79027 33.4392 4.59216 34.5429C4.39591 35.637 4.2626 36.6748 4.19669 37.6282C4.13189 38.5621 4.09912 39.5314 4.09912 40.5104C4.09912 43.0583 4.90906 45.1209 6.50623 46.6421C8.08366 48.1432 10.1709 48.9047 12.7091 48.9047H36.2112C38.7494 48.9047 40.8359 48.1436 42.4137 46.6421C44.0112 45.122 44.8211 43.059 44.8211 40.51C44.8208 39.5266 44.7876 38.5565 44.7225 37.627Z" fill="white"/>
</g>
<defs>
<clipPath id="clip0">
<rect width="48.8095" height="48.8095" fill="white" transform="translate(0.0952148 0.0957031)"/>
</clipPath>
</defs>
</svg>
