<svg width="96" height="96" viewBox="0 0 96 96" fill="none" xmlns="http://www.w3.org/2000/svg">
<path d="M17.8125 11.4375H6.5625C2.94394 11.4375 0 14.3814 0 18V29.25C0 30.8032 1.25925 32.0625 2.8125 32.0625C4.36575 32.0625 5.625 30.8032 5.625 29.25V18C5.625 17.4831 6.04556 17.0625 6.5625 17.0625H17.8125C19.3657 17.0625 20.625 15.8033 20.625 14.25C20.625 12.6967 19.3657 11.4375 17.8125 11.4375Z" fill="#3A4750"/>
<path d="M17.8125 78.9375H6.5625C6.04556 78.9375 5.625 78.5169 5.625 78V66.75C5.625 65.1967 4.36575 63.9375 2.8125 63.9375C1.25925 63.9375 0 65.1967 0 66.75V78C0 81.6186 2.94394 84.5625 6.5625 84.5625H17.8125C19.3657 84.5625 20.625 83.3032 20.625 81.75C20.625 80.1968 19.3657 78.9375 17.8125 78.9375Z" fill="#3A4750"/>
<path d="M93.1875 63.9375C91.6343 63.9375 90.375 65.1967 90.375 66.75V78C90.375 78.5169 89.9544 78.9375 89.4375 78.9375H78.1875C76.6342 78.9375 75.375 80.1968 75.375 81.75C75.375 83.3032 76.6342 84.5625 78.1875 84.5625H89.4375C93.0561 84.5625 96 81.6186 96 78V66.75C96 65.1967 94.7407 63.9375 93.1875 63.9375Z" fill="#3A4750"/>
<path d="M89.4375 11.4375H78.1875C76.6342 11.4375 75.375 12.6967 75.375 14.25C75.375 15.8033 76.6342 17.0625 78.1875 17.0625H89.4375C89.9544 17.0625 90.375 17.4831 90.375 18V29.25C90.375 30.8032 91.6343 32.0625 93.1875 32.0625C94.7407 32.0625 96 30.8032 96 29.25V18C96 14.3814 93.0561 11.4375 89.4375 11.4375Z" fill="#3A4750"/>
<path d="M16.875 70.3125V25.6875C16.875 24.1342 15.6158 22.875 14.0625 22.875C12.5092 22.875 11.25 24.1342 11.25 25.6875V70.3125C11.25 71.8657 12.5092 73.125 14.0625 73.125C15.6158 73.125 16.875 71.8657 16.875 70.3125Z" fill="#3A4750"/>
<path d="M25.3125 22.875C23.7592 22.875 22.5 24.1342 22.5 25.6875V55.3125C22.5 56.8657 23.7592 58.125 25.3125 58.125C26.8658 58.125 28.125 56.8657 28.125 55.3125V25.6875C28.125 24.1342 26.8658 22.875 25.3125 22.875Z" fill="#3A4750"/>
<path d="M36.5625 22.875C35.0092 22.875 33.75 24.1342 33.75 25.6875V70.3125C33.75 71.8657 35.0092 73.125 36.5625 73.125C38.1158 73.125 39.375 71.8657 39.375 70.3125V25.6875C39.375 24.1342 38.1158 22.875 36.5625 22.875Z" fill="#3A4750"/>
<path d="M47.8125 22.875C46.2592 22.875 45 24.1342 45 25.6875V55.3125C45 56.8657 46.2592 58.125 47.8125 58.125C49.3658 58.125 50.625 56.8657 50.625 55.3125V25.6875C50.625 24.1342 49.3658 22.875 47.8125 22.875Z" fill="#3A4750"/>
<path d="M59.0625 22.875C57.5092 22.875 56.25 24.1342 56.25 25.6875V55.3125C56.25 56.8657 57.5092 58.125 59.0625 58.125C60.6158 58.125 61.875 56.8657 61.875 55.3125V25.6875C61.875 24.1342 60.6158 22.875 59.0625 22.875Z" fill="#3A4750"/>
<path d="M70.3125 22.875C68.7592 22.875 67.5 24.1342 67.5 25.6875V55.3125C67.5 56.8657 68.7592 58.125 70.3125 58.125C71.8658 58.125 73.125 56.8657 73.125 55.3125V25.6875C73.125 24.1342 71.8658 22.875 70.3125 22.875Z" fill="#3A4750"/>
<path d="M84.375 70.3125V25.6875C84.375 24.1342 83.1158 22.875 81.5625 22.875C80.0092 22.875 78.75 24.1342 78.75 25.6875V70.3125C78.75 71.8657 80.0092 73.125 81.5625 73.125C83.1158 73.125 84.375 71.8657 84.375 70.3125Z" fill="#3A4750"/>
<path d="M25.3125 64.3125C23.7592 64.3125 22.5 65.5717 22.5 67.125V70.3125C22.5 71.8658 23.7592 73.125 25.3125 73.125C26.8658 73.125 28.125 71.8658 28.125 70.3125V67.125C28.125 65.5717 26.8658 64.3125 25.3125 64.3125Z" fill="#3A4750"/>
<path d="M47.8125 64.3125C46.2592 64.3125 45 65.5717 45 67.125V70.3125C45 71.8658 46.2592 73.125 47.8125 73.125C49.3658 73.125 50.625 71.8658 50.625 70.3125V67.125C50.625 65.5717 49.3658 64.3125 47.8125 64.3125Z" fill="#3A4750"/>
<path d="M59.0625 64.3125C57.5092 64.3125 56.25 65.5717 56.25 67.125V70.3125C56.25 71.8658 57.5092 73.125 59.0625 73.125C60.6158 73.125 61.875 71.8658 61.875 70.3125V67.125C61.875 65.5717 60.6158 64.3125 59.0625 64.3125Z" fill="#3A4750"/>
<path d="M70.3125 64.3125C68.7592 64.3125 67.5 65.5717 67.5 67.125V70.3125C67.5 71.8658 68.7592 73.125 70.3125 73.125C71.8658 73.125 73.125 71.8658 73.125 70.3125V67.125C73.125 65.5717 71.8658 64.3125 70.3125 64.3125Z" fill="#3A4750"/>
</svg>
