<svg width="40" height="40" viewBox="0 0 40 40" fill="none" xmlns="http://www.w3.org/2000/svg">
<path d="M1.21216 9.69676L6.6667 1.21191H33.9394L38.7879 8.48464V38.1816H1.21216V9.69676Z" fill="white"/>
<path d="M39.9775 8.64C39.97 8.555 39.9525 8.475 39.9275 8.3925C39.9025 8.31 39.8725 8.235 39.8325 8.16C39.815 8.1275 39.8125 8.0875 39.79 8.055L34.79 0.555C34.5575 0.21 34.1675 0 33.75 0H6.25C5.8325 0 5.4425 0.21 5.21 0.5575L0.21 8.0575C0.1875 8.09 0.185 8.1275 0.1675 8.1625C0.1275 8.2375 0.0975 8.3125 0.0725 8.395C0.0475 8.4775 0.03 8.5575 0.0225 8.6425C0.0175 8.6775 0 8.71 0 8.75V37.5C0 38.88 1.1225 40 2.5 40H37.5C38.8775 40 40 38.88 40 37.5V8.75C40 8.71 39.9825 8.6775 39.9775 8.64ZM33.08 2.5L36.415 7.5H24.81L23.975 2.5H33.08ZM18.5575 2.5H23.975L24.81 7.5H17.725L18.5575 2.5ZM6.92 2.5H18.5575L17.725 7.5H3.585L6.92 2.5Z" fill="#D72323"/>
<path d="M20.6746 12.1211C23.9049 12.1211 26.2136 12.5826 27.6007 13.5057C28.9877 14.4287 29.5385 15.8992 29.2532 17.917C29.0558 19.3123 28.5372 20.45 27.6973 21.3302C26.8821 22.1888 25.9622 22.7147 24.9376 22.9079L24.9148 23.0689C25.5873 23.2192 26.2106 23.4875 26.7847 23.8739C27.3618 24.2388 27.7938 24.7862 28.0808 25.5161C28.3895 26.2459 28.4589 27.2119 28.2889 28.414C27.9913 30.5177 26.9786 32.1599 25.2507 33.3406C23.5444 34.5212 21.3471 35.1115 18.6588 35.1115H9.81338L13.0649 12.1211H20.6746ZM19.7618 21.1048C20.9975 21.1048 21.8951 20.8901 22.4544 20.4608C23.0168 20.01 23.3512 19.4089 23.4574 18.6576C23.6669 17.1764 22.5792 16.4358 20.1945 16.4358H17.9831L17.3228 21.1048H19.7618ZM16.7307 25.2907L15.9611 30.7324H18.7253C20.0261 30.7324 20.9623 30.4748 21.5338 29.9596C22.1269 29.4444 22.4827 28.7682 22.6011 27.9311C22.7074 27.1797 22.5353 26.5572 22.0848 26.0635C21.6373 25.5483 20.7307 25.2907 19.3649 25.2907H16.7307Z" fill="white"/>
</svg>
