<svg width="25" height="25" viewBox="0 0 25 25" fill="none" xmlns="http://www.w3.org/2000/svg">
<path d="M12.5 15.5054C14.2253 15.5054 15.6238 14.1069 15.6238 12.3816C15.6238 10.6564 14.2253 9.25781 12.5 9.25781C10.7748 9.25781 9.37622 10.6564 9.37622 12.3816C9.37622 14.1069 10.7748 15.5054 12.5 15.5054Z" fill="#868A96"/>
<path d="M9.57137 2.61914L7.78494 4.57152H4.69042C3.61661 4.57152 2.73804 5.45009 2.73804 6.5239V18.2382C2.73804 19.312 3.61661 20.1906 4.69042 20.1906H20.3095C21.3833 20.1906 22.2618 19.312 22.2618 18.2382V6.5239C22.2618 5.45009 21.3833 4.57152 20.3095 4.57152H17.2149L15.4285 2.61914H9.57137ZM12.4999 17.262C9.80566 17.262 7.61899 15.0753 7.61899 12.381C7.61899 9.68676 9.80566 7.50009 12.4999 7.50009C15.1942 7.50009 17.3809 9.68676 17.3809 12.381C17.3809 15.0753 15.1942 17.262 12.4999 17.262Z" fill="#868A96"/>
</svg>
