<svg width="218" height="253" viewBox="0 0 218 253" fill="none" xmlns="http://www.w3.org/2000/svg">
<path d="M78.7605 197H76.5027V188.297L73.8073 189.133V187.297L78.5183 185.609H78.7605V197ZM82.6745 195.891C82.6745 195.531 82.7943 195.24 83.0339 195.016C83.2787 194.792 83.5834 194.68 83.948 194.68C84.3178 194.68 84.6224 194.792 84.862 195.016C85.1068 195.24 85.2292 195.531 85.2292 195.891C85.2292 196.245 85.1094 196.534 84.8698 196.758C84.6303 196.977 84.323 197.086 83.948 197.086C83.5782 197.086 83.2735 196.977 83.0339 196.758C82.7943 196.534 82.6745 196.245 82.6745 195.891ZM95.0391 195.117H100.016V197H92.6953V185.625H95.0391V195.117ZM105.109 197.156C103.87 197.156 102.859 196.776 102.078 196.016C101.302 195.255 100.914 194.242 100.914 192.977V192.758C100.914 191.909 101.078 191.151 101.406 190.484C101.734 189.812 102.198 189.297 102.797 188.938C103.401 188.573 104.089 188.391 104.859 188.391C106.016 188.391 106.924 188.755 107.586 189.484C108.253 190.214 108.586 191.247 108.586 192.586V193.508H103.203C103.276 194.06 103.495 194.503 103.859 194.836C104.229 195.169 104.695 195.336 105.258 195.336C106.128 195.336 106.807 195.021 107.297 194.391L108.406 195.633C108.068 196.112 107.609 196.487 107.031 196.758C106.453 197.023 105.812 197.156 105.109 197.156ZM104.852 190.219C104.404 190.219 104.039 190.37 103.758 190.672C103.482 190.974 103.305 191.406 103.227 191.969H106.367V191.789C106.357 191.289 106.221 190.904 105.961 190.633C105.701 190.357 105.331 190.219 104.852 190.219ZM107.602 187.188V187.281H105.805L104.602 186.148L103.398 187.281H101.633V187.156L103.945 185H105.258L107.602 187.188ZM111.953 188.547L112.023 189.523C112.628 188.768 113.438 188.391 114.453 188.391C115.349 188.391 116.016 188.654 116.453 189.18C116.891 189.706 117.115 190.492 117.125 191.539V197H114.867V191.594C114.867 191.115 114.763 190.768 114.555 190.555C114.346 190.336 114 190.227 113.516 190.227C112.88 190.227 112.404 190.497 112.086 191.039V197H109.828V188.547H111.953ZM131.328 187.484H130.094V197H128.055L127.945 196.102C127.383 196.805 126.659 197.156 125.773 197.156C124.779 197.156 123.979 196.766 123.375 195.984C122.776 195.198 122.477 194.107 122.477 192.711C122.477 191.393 122.771 190.344 123.359 189.562C123.953 188.781 124.763 188.391 125.789 188.391C126.612 188.391 127.292 188.698 127.828 189.312V187.484H125.859V186.055H127.828V185H130.094V186.055H131.328V187.484ZM124.734 192.875C124.734 193.667 124.872 194.273 125.148 194.695C125.424 195.117 125.826 195.328 126.352 195.328C127.049 195.328 127.542 195.034 127.828 194.445V191.109C127.547 190.521 127.06 190.227 126.367 190.227C125.279 190.227 124.734 191.109 124.734 192.875ZM132.555 192.695C132.555 191.852 132.716 191.102 133.039 190.445C133.367 189.789 133.836 189.284 134.445 188.93C135.055 188.57 135.758 188.391 136.555 188.391C137.789 188.391 138.771 188.794 139.5 189.602C139.74 189.451 139.901 189.219 139.984 188.906C140.068 188.589 140.109 188.206 140.109 187.758H141.484C141.484 189.174 141.023 190.091 140.102 190.508C140.409 191.148 140.562 191.878 140.562 192.695V192.859C140.562 193.703 140.398 194.453 140.07 195.109C139.747 195.766 139.284 196.271 138.68 196.625C138.081 196.979 137.378 197.156 136.57 197.156C135.404 197.156 134.458 196.794 133.734 196.07C133.01 195.346 132.62 194.37 132.562 193.141L132.555 192.695ZM134.82 192.859C134.82 193.661 134.971 194.276 135.273 194.703C135.576 195.125 136.008 195.336 136.57 195.336C137.122 195.336 137.549 195.125 137.852 194.703C138.154 194.281 138.305 193.612 138.305 192.695C138.305 191.914 138.154 191.307 137.852 190.875C137.549 190.438 137.117 190.219 136.555 190.219C136.003 190.219 135.576 190.435 135.273 190.867C134.971 191.294 134.82 191.958 134.82 192.859ZM144.297 188.547L144.367 189.523C144.971 188.768 145.781 188.391 146.797 188.391C147.693 188.391 148.359 188.654 148.797 189.18C149.234 189.706 149.458 190.492 149.469 191.539V197H147.211V191.594C147.211 191.115 147.107 190.768 146.898 190.555C146.69 190.336 146.344 190.227 145.859 190.227C145.224 190.227 144.747 190.497 144.43 191.039V197H142.172V188.547H144.297Z" fill="#D72323"/>
<path d="M25.4443 220.372L24.2275 221.637V225H22.915V215.047H24.2275V219.969L28.6504 215.047H30.2363L26.3193 219.442L30.5439 225H28.9717L25.4443 220.372ZM32.7588 218.499C33.3193 217.811 34.0485 217.467 34.9463 217.467C36.5094 217.467 37.2979 218.349 37.3115 220.112V225H36.0469V220.105C36.0423 219.572 35.9193 219.178 35.6777 218.923C35.4408 218.668 35.0693 218.54 34.5635 218.54C34.1533 218.54 33.7933 218.649 33.4834 218.868C33.1735 219.087 32.932 219.374 32.7588 219.729V225H31.4941V214.5H32.7588V218.499ZM43.7715 225C43.6986 224.854 43.6393 224.594 43.5938 224.221C43.0059 224.831 42.304 225.137 41.4883 225.137C40.7591 225.137 40.1598 224.932 39.6904 224.521C39.2256 224.107 38.9932 223.583 38.9932 222.949C38.9932 222.179 39.2848 221.582 39.8682 221.158C40.4561 220.73 41.2809 220.516 42.3428 220.516H43.5732V219.935C43.5732 219.493 43.4411 219.142 43.1768 218.882C42.9124 218.618 42.5228 218.485 42.0078 218.485C41.5566 218.485 41.1784 218.599 40.873 218.827C40.5677 219.055 40.415 219.331 40.415 219.654H39.1436C39.1436 219.285 39.2734 218.93 39.5332 218.588C39.7975 218.242 40.153 217.968 40.5996 217.768C41.0508 217.567 41.5452 217.467 42.083 217.467C42.9352 217.467 43.6029 217.681 44.0859 218.109C44.569 218.533 44.8197 219.119 44.8379 219.866V223.271C44.8379 223.95 44.9245 224.49 45.0977 224.891V225H43.7715ZM41.6729 224.036C42.0693 224.036 42.4453 223.934 42.8008 223.729C43.1562 223.523 43.4137 223.257 43.5732 222.929V221.411H42.582C41.0326 221.411 40.2578 221.865 40.2578 222.771C40.2578 223.168 40.39 223.478 40.6543 223.701C40.9186 223.924 41.2581 224.036 41.6729 224.036ZM42.8418 214.5H44.373L42.541 216.51H41.5225L42.8418 214.5ZM49.7871 224.104C50.2383 224.104 50.6325 223.968 50.9697 223.694C51.307 223.421 51.4938 223.079 51.5303 222.669H52.7266C52.7038 223.093 52.5579 223.496 52.2891 223.879C52.0202 224.262 51.6602 224.567 51.209 224.795C50.7624 225.023 50.2884 225.137 49.7871 225.137C48.7799 225.137 47.9779 224.802 47.3809 224.132C46.7884 223.457 46.4922 222.537 46.4922 221.37V221.158C46.4922 220.438 46.6243 219.798 46.8887 219.237C47.153 218.677 47.5312 218.242 48.0234 217.932C48.5202 217.622 49.1058 217.467 49.7803 217.467C50.6097 217.467 51.2979 217.715 51.8447 218.212C52.3962 218.709 52.6901 219.354 52.7266 220.146H51.5303C51.4938 219.668 51.3115 219.276 50.9834 218.971C50.6598 218.661 50.2588 218.506 49.7803 218.506C49.1377 218.506 48.6387 218.738 48.2832 219.203C47.9323 219.663 47.7568 220.331 47.7568 221.206V221.445C47.7568 222.298 47.9323 222.954 48.2832 223.414C48.6341 223.874 49.1354 224.104 49.7871 224.104ZM55.4131 218.499C55.9736 217.811 56.7028 217.467 57.6006 217.467C59.1637 217.467 59.9521 218.349 59.9658 220.112V225H58.7012V220.105C58.6966 219.572 58.5736 219.178 58.332 218.923C58.0951 218.668 57.7236 218.54 57.2178 218.54C56.8076 218.54 56.4476 218.649 56.1377 218.868C55.8278 219.087 55.5863 219.374 55.4131 219.729V225H54.1484V214.5H55.4131V218.499ZM66.7061 225H65.4414V214.5H66.7061V225ZM71.8057 225.137C70.8031 225.137 69.9873 224.809 69.3584 224.152C68.7295 223.492 68.415 222.61 68.415 221.507V221.274C68.415 220.541 68.554 219.887 68.832 219.312C69.1146 218.734 69.5065 218.283 70.0078 217.959C70.5137 217.631 71.0605 217.467 71.6484 217.467C72.61 217.467 73.3574 217.784 73.8906 218.417C74.4238 219.05 74.6904 219.957 74.6904 221.138V221.664H69.6797C69.6979 222.393 69.9098 222.983 70.3154 223.435C70.7256 223.881 71.2451 224.104 71.874 224.104C72.3206 224.104 72.6989 224.013 73.0088 223.831C73.3187 223.649 73.5898 223.407 73.8223 223.106L74.5947 223.708C73.9749 224.66 73.0452 225.137 71.8057 225.137ZM71.6484 218.506C71.138 218.506 70.7096 218.693 70.3633 219.066C70.0169 219.436 69.8027 219.955 69.7207 220.625H73.4258V220.529C73.3893 219.887 73.2161 219.39 72.9062 219.039C72.5964 218.684 72.1771 218.506 71.6484 218.506ZM73.7129 216.373V216.441H72.667L71.6416 215.279L70.623 216.441H69.5771V216.359L71.2588 214.5H72.0244L73.7129 216.373ZM77.3564 217.604L77.3975 218.533C77.9626 217.822 78.7008 217.467 79.6123 217.467C81.1755 217.467 81.9639 218.349 81.9775 220.112V225H80.7129V220.105C80.7083 219.572 80.5853 219.178 80.3438 218.923C80.1068 218.668 79.7354 218.54 79.2295 218.54C78.8193 218.54 78.4593 218.649 78.1494 218.868C77.8395 219.087 77.598 219.374 77.4248 219.729V225H76.1602V217.604H77.3564ZM94.5762 216.571H93.291V225H92.1289L92.0674 224.207C91.5615 224.827 90.8574 225.137 89.9551 225.137C89.0983 225.137 88.3988 224.786 87.8564 224.084C87.3187 223.382 87.0498 222.466 87.0498 221.336V221.24C87.0498 220.105 87.3187 219.194 87.8564 218.506C88.3942 217.813 89.0983 217.467 89.9688 217.467C90.8346 217.467 91.5205 217.763 92.0264 218.355V216.571H90.2217V215.539H92.0264V214.5H93.291V215.539H94.5762V216.571ZM88.3145 221.384C88.3145 222.222 88.4876 222.879 88.834 223.353C89.1803 223.826 89.6589 224.063 90.2695 224.063C91.0716 224.063 91.6572 223.703 92.0264 222.983V219.586C91.6481 218.889 91.0671 218.54 90.2832 218.54C89.6634 218.54 89.1803 218.779 88.834 219.258C88.4876 219.736 88.3145 220.445 88.3145 221.384ZM95.3896 221.233C95.3896 220.509 95.5286 219.859 95.8066 219.285C96.0892 218.706 96.4857 218.26 96.9961 217.945C97.5111 217.626 98.0944 217.467 98.7461 217.467C99.6895 217.467 100.471 217.781 101.091 218.41C101.414 218.374 101.649 218.242 101.795 218.014C101.941 217.786 102.014 217.38 102.014 216.797H103.039C103.039 218.123 102.567 218.902 101.624 219.135C101.957 219.764 102.123 220.463 102.123 221.233V221.384C102.123 222.104 101.982 222.753 101.699 223.332C101.417 223.911 101.02 224.357 100.51 224.672C99.9993 224.982 99.416 225.137 98.7598 225.137C97.748 225.137 96.9323 224.788 96.3125 224.091C95.6973 223.389 95.3896 222.466 95.3896 221.322V221.233ZM96.6543 221.384C96.6543 222.204 96.8434 222.863 97.2217 223.359C97.6045 223.856 98.1172 224.104 98.7598 224.104C99.3932 224.104 99.8991 223.856 100.277 223.359C100.66 222.858 100.852 222.186 100.852 221.343V221.233C100.852 220.409 100.658 219.748 100.271 219.251C99.8877 218.754 99.3796 218.506 98.7461 218.506C98.1172 218.506 97.6113 218.754 97.2285 219.251C96.8457 219.748 96.6543 220.459 96.6543 221.384ZM104.919 217.604L104.96 218.533C105.525 217.822 106.263 217.467 107.175 217.467C108.738 217.467 109.526 218.349 109.54 220.112V225H108.275V220.105C108.271 219.572 108.148 219.178 107.906 218.923C107.669 218.668 107.298 218.54 106.792 218.54C106.382 218.54 106.022 218.649 105.712 218.868C105.402 219.087 105.16 219.374 104.987 219.729V225H103.723V217.604H104.919ZM116.636 215.812V217.604H118.017V218.581H116.636V223.168C116.636 223.464 116.697 223.688 116.82 223.838C116.943 223.984 117.153 224.057 117.449 224.057C117.595 224.057 117.796 224.029 118.051 223.975V225C117.718 225.091 117.395 225.137 117.08 225.137C116.515 225.137 116.089 224.966 115.802 224.624C115.515 224.282 115.371 223.797 115.371 223.168V218.581H114.024V217.604H115.371V215.812H116.636ZM123.075 218.738C122.884 218.706 122.676 218.69 122.453 218.69C121.624 218.69 121.061 219.044 120.765 219.75V225H119.5V217.604H120.73L120.751 218.458C121.166 217.797 121.754 217.467 122.515 217.467C122.761 217.467 122.948 217.499 123.075 217.562V218.738ZM127.177 225.137C126.174 225.137 125.358 224.809 124.729 224.152C124.101 223.492 123.786 222.61 123.786 221.507V221.274C123.786 220.541 123.925 219.887 124.203 219.312C124.486 218.734 124.878 218.283 125.379 217.959C125.885 217.631 126.432 217.467 127.02 217.467C127.981 217.467 128.729 217.784 129.262 218.417C129.795 219.05 130.062 219.957 130.062 221.138V221.664H125.051C125.069 222.393 125.281 222.983 125.687 223.435C126.097 223.881 126.616 224.104 127.245 224.104C127.692 224.104 128.07 224.013 128.38 223.831C128.69 223.649 128.961 223.407 129.193 223.106L129.966 223.708C129.346 224.66 128.416 225.137 127.177 225.137ZM127.02 218.506C126.509 218.506 126.081 218.693 125.734 219.066C125.388 219.436 125.174 219.955 125.092 220.625H128.797V220.529C128.76 219.887 128.587 219.39 128.277 219.039C127.967 218.684 127.548 218.506 127.02 218.506ZM129.084 216.373V216.441H128.038L127.013 215.279L125.994 216.441H124.948V216.359L126.63 214.5H127.396L129.084 216.373ZM132.728 217.604L132.769 218.533C133.334 217.822 134.072 217.467 134.983 217.467C136.547 217.467 137.335 218.349 137.349 220.112V225H136.084V220.105C136.079 219.572 135.956 219.178 135.715 218.923C135.478 218.668 135.106 218.54 134.601 218.54C134.19 218.54 133.83 218.649 133.521 218.868C133.211 219.087 132.969 219.374 132.796 219.729V225H131.531V217.604H132.728ZM143.993 218.499C144.554 217.811 145.283 217.467 146.181 217.467C147.744 217.467 148.532 218.349 148.546 220.112V225H147.281V220.105C147.277 219.572 147.154 219.178 146.912 218.923C146.675 218.668 146.304 218.54 145.798 218.54C145.388 218.54 145.028 218.649 144.718 218.868C144.408 219.087 144.166 219.374 143.993 219.729V225H142.729V214.5H143.993V218.499ZM153.509 225.137C152.506 225.137 151.69 224.809 151.062 224.152C150.433 223.492 150.118 222.61 150.118 221.507V221.274C150.118 220.541 150.257 219.887 150.535 219.312C150.818 218.734 151.21 218.283 151.711 217.959C152.217 217.631 152.764 217.467 153.352 217.467C154.313 217.467 155.061 217.784 155.594 218.417C156.127 219.05 156.394 219.957 156.394 221.138V221.664H151.383C151.401 222.393 151.613 222.983 152.019 223.435C152.429 223.881 152.948 224.104 153.577 224.104C154.024 224.104 154.402 224.013 154.712 223.831C155.022 223.649 155.293 223.407 155.525 223.106L156.298 223.708C155.678 224.66 154.748 225.137 153.509 225.137ZM153.352 218.506C152.841 218.506 152.413 218.693 152.066 219.066C151.72 219.436 151.506 219.955 151.424 220.625H155.129V220.529C155.092 219.887 154.919 219.39 154.609 219.039C154.299 218.684 153.88 218.506 153.352 218.506ZM155.416 216.373V216.441H154.37L153.345 215.279L152.326 216.441H151.28V216.359L152.962 214.5H153.728L155.416 216.373ZM152.572 226.675C152.572 226.47 152.634 226.297 152.757 226.155C152.884 226.014 153.071 225.943 153.317 225.943C153.563 225.943 153.75 226.014 153.878 226.155C154.006 226.297 154.069 226.47 154.069 226.675C154.069 226.88 154.006 227.051 153.878 227.188C153.75 227.324 153.563 227.393 153.317 227.393C153.071 227.393 152.884 227.324 152.757 227.188C152.634 227.051 152.572 226.88 152.572 226.675ZM163.052 215.812V217.604H164.433V218.581H163.052V223.168C163.052 223.464 163.113 223.688 163.236 223.838C163.359 223.984 163.569 224.057 163.865 224.057C164.011 224.057 164.212 224.029 164.467 223.975V225C164.134 225.091 163.811 225.137 163.496 225.137C162.931 225.137 162.505 224.966 162.218 224.624C161.931 224.282 161.787 223.797 161.787 223.168V218.581H160.44V217.604H161.787V215.812H163.052ZM167.181 218.499C167.741 217.811 168.47 217.467 169.368 217.467C170.931 217.467 171.72 218.349 171.733 220.112V225H170.469V220.105C170.464 219.572 170.341 219.178 170.1 218.923C169.863 218.668 169.491 218.54 168.985 218.54C168.575 218.54 168.215 218.649 167.905 218.868C167.595 219.087 167.354 219.374 167.181 219.729V225H165.916V214.5H167.181V218.499ZM173.292 221.233C173.292 220.509 173.433 219.857 173.716 219.278C174.003 218.7 174.399 218.253 174.905 217.938C175.416 217.624 175.997 217.467 176.648 217.467C177.656 217.467 178.469 217.815 179.089 218.513C179.713 219.21 180.025 220.137 180.025 221.295V221.384C180.025 222.104 179.886 222.751 179.608 223.325C179.335 223.895 178.941 224.339 178.426 224.658C177.915 224.977 177.327 225.137 176.662 225.137C175.66 225.137 174.846 224.788 174.222 224.091C173.602 223.394 173.292 222.471 173.292 221.322V221.233ZM174.563 221.384C174.563 222.204 174.753 222.863 175.131 223.359C175.514 223.856 176.024 224.104 176.662 224.104C177.305 224.104 177.815 223.854 178.193 223.353C178.572 222.847 178.761 222.14 178.761 221.233C178.761 220.422 178.567 219.766 178.18 219.265C177.797 218.759 177.286 218.506 176.648 218.506C176.024 218.506 175.521 218.754 175.138 219.251C174.755 219.748 174.563 220.459 174.563 221.384ZM176.088 214.712H177.127L179.109 216.51H177.763L176.607 215.423L175.445 216.51H174.092L176.088 214.712ZM179.574 213.529H180.941L179.567 215.3H178.604L179.574 213.529ZM182.808 217.604L182.849 218.533C183.414 217.822 184.152 217.467 185.063 217.467C186.627 217.467 187.415 218.349 187.429 220.112V225H186.164V220.105C186.16 219.572 186.036 219.178 185.795 218.923C185.558 218.668 185.187 218.54 184.681 218.54C184.271 218.54 183.91 218.649 183.601 218.868C183.291 219.087 183.049 219.374 182.876 219.729V225H181.611V217.604H182.808ZM189.035 221.24C189.035 220.087 189.302 219.171 189.835 218.492C190.368 217.809 191.075 217.467 191.954 217.467C192.856 217.467 193.561 217.786 194.066 218.424L194.128 217.604H195.283V224.822C195.283 225.779 194.998 226.534 194.429 227.085C193.864 227.636 193.103 227.912 192.146 227.912C191.612 227.912 191.09 227.798 190.58 227.57C190.07 227.342 189.68 227.03 189.411 226.634L190.067 225.875C190.61 226.545 191.273 226.88 192.057 226.88C192.672 226.88 193.15 226.707 193.492 226.36C193.839 226.014 194.012 225.526 194.012 224.897V224.262C193.506 224.845 192.815 225.137 191.94 225.137C191.075 225.137 190.373 224.788 189.835 224.091C189.302 223.394 189.035 222.443 189.035 221.24ZM190.307 221.384C190.307 222.218 190.478 222.874 190.819 223.353C191.161 223.826 191.64 224.063 192.255 224.063C193.052 224.063 193.638 223.701 194.012 222.977V219.6C193.624 218.893 193.043 218.54 192.269 218.54C191.653 218.54 191.173 218.779 190.826 219.258C190.48 219.736 190.307 220.445 190.307 221.384ZM89.6406 247V237.047H92.8945C93.9746 237.047 94.7858 237.27 95.3281 237.717C95.875 238.163 96.1484 238.824 96.1484 239.699C96.1484 240.164 96.0163 240.576 95.752 240.937C95.4876 241.292 95.1276 241.568 94.6719 241.764C95.2096 241.914 95.6335 242.201 95.9434 242.625C96.2578 243.044 96.415 243.546 96.415 244.129C96.415 245.022 96.1257 245.724 95.5469 246.234C94.9681 246.745 94.1501 247 93.0928 247H89.6406ZM90.9531 242.345V245.927H93.1201C93.7308 245.927 94.2116 245.77 94.5625 245.455C94.918 245.136 95.0957 244.699 95.0957 244.143C95.0957 242.944 94.444 242.345 93.1406 242.345H90.9531ZM90.9531 241.292H92.9355C93.5098 241.292 93.9678 241.148 94.3096 240.861C94.6559 240.574 94.8291 240.185 94.8291 239.692C94.8291 239.146 94.6696 238.749 94.3506 238.503C94.0316 238.252 93.5462 238.127 92.8945 238.127H90.9531V241.292ZM97.8301 243.233C97.8301 242.509 97.9714 241.857 98.2539 241.278C98.541 240.7 98.9375 240.253 99.4434 239.938C99.9538 239.624 100.535 239.467 101.187 239.467C102.194 239.467 103.007 239.815 103.627 240.513C104.251 241.21 104.563 242.137 104.563 243.295V243.384C104.563 244.104 104.424 244.751 104.146 245.325C103.873 245.895 103.479 246.339 102.964 246.658C102.453 246.977 101.866 247.137 101.2 247.137C100.198 247.137 99.3841 246.788 98.7598 246.091C98.14 245.394 97.8301 244.471 97.8301 243.322V243.233ZM99.1016 243.384C99.1016 244.204 99.2907 244.863 99.6689 245.359C100.052 245.856 100.562 246.104 101.2 246.104C101.843 246.104 102.353 245.854 102.731 245.353C103.11 244.847 103.299 244.14 103.299 243.233C103.299 242.422 103.105 241.766 102.718 241.265C102.335 240.759 101.825 240.506 101.187 240.506C100.562 240.506 100.059 240.754 99.6758 241.251C99.293 241.748 99.1016 242.459 99.1016 243.384ZM108.48 242.304L110.121 239.604H111.598L109.178 243.261L111.673 247H110.21L108.501 244.231L106.792 247H105.322L107.817 243.261L105.397 239.604H106.86L108.48 242.304ZM120.491 245.694C120.154 246.177 119.682 246.54 119.076 246.781C118.475 247.018 117.773 247.137 116.971 247.137C116.16 247.137 115.439 246.948 114.811 246.569C114.182 246.187 113.694 245.644 113.348 244.942C113.006 244.241 112.83 243.427 112.821 242.502V241.634C112.821 240.134 113.17 238.972 113.867 238.147C114.569 237.323 115.553 236.91 116.82 236.91C117.859 236.91 118.696 237.177 119.329 237.71C119.963 238.239 120.35 238.991 120.491 239.966H119.179C118.933 238.649 118.149 237.99 116.827 237.99C115.948 237.99 115.28 238.3 114.824 238.92C114.373 239.535 114.145 240.428 114.141 241.6V242.413C114.141 243.53 114.396 244.418 114.906 245.079C115.417 245.735 116.107 246.063 116.978 246.063C117.47 246.063 117.9 246.009 118.27 245.899C118.639 245.79 118.944 245.605 119.186 245.346V243.11H116.882V242.044H120.491V245.694ZM122.152 243.233C122.152 242.509 122.294 241.857 122.576 241.278C122.863 240.7 123.26 240.253 123.766 239.938C124.276 239.624 124.857 239.467 125.509 239.467C126.516 239.467 127.329 239.815 127.949 240.513C128.574 241.21 128.886 242.137 128.886 243.295V243.384C128.886 244.104 128.747 244.751 128.469 245.325C128.195 245.895 127.801 246.339 127.286 246.658C126.776 246.977 126.188 247.137 125.522 247.137C124.52 247.137 123.706 246.788 123.082 246.091C122.462 245.394 122.152 244.471 122.152 243.322V243.233ZM123.424 243.384C123.424 244.204 123.613 244.863 123.991 245.359C124.374 245.856 124.884 246.104 125.522 246.104C126.165 246.104 126.675 245.854 127.054 245.353C127.432 244.847 127.621 244.14 127.621 243.233C127.621 242.422 127.427 241.766 127.04 241.265C126.657 240.759 126.147 240.506 125.509 240.506C124.884 240.506 124.381 240.754 123.998 241.251C123.615 241.748 123.424 242.459 123.424 243.384Z" fill="#303841"/>
<rect x="82.5" y="149.5" width="51" height="17" rx="8.5" fill="white"/>
<path d="M91.2773 157.805L91.7695 153.469H96.5508V154.881H93.1582L92.9473 156.715C93.3496 156.5 93.7773 156.393 94.2305 156.393C95.043 156.393 95.6797 156.645 96.1406 157.148C96.6016 157.652 96.832 158.357 96.832 159.264C96.832 159.814 96.7148 160.309 96.4805 160.746C96.25 161.18 95.918 161.518 95.4844 161.76C95.0508 161.998 94.5391 162.117 93.9492 162.117C93.4336 162.117 92.9551 162.014 92.5137 161.807C92.0723 161.596 91.7227 161.301 91.4648 160.922C91.2109 160.543 91.0762 160.111 91.0605 159.627H92.7363C92.7715 159.982 92.8945 160.26 93.1055 160.459C93.3203 160.654 93.5996 160.752 93.9434 160.752C94.3262 160.752 94.6211 160.615 94.8281 160.342C95.0352 160.064 95.1387 159.674 95.1387 159.17C95.1387 158.686 95.0195 158.314 94.7812 158.057C94.543 157.799 94.2051 157.67 93.7676 157.67C93.3652 157.67 93.0391 157.775 92.7891 157.986L92.625 158.139L91.2773 157.805ZM102.844 158.994V162H101.086V153.469H104.414C105.055 153.469 105.617 153.586 106.102 153.82C106.59 154.055 106.965 154.389 107.227 154.822C107.488 155.252 107.619 155.742 107.619 156.293C107.619 157.129 107.332 157.789 106.758 158.273C106.188 158.754 105.396 158.994 104.385 158.994H102.844ZM102.844 157.57H104.414C104.879 157.57 105.232 157.461 105.475 157.242C105.721 157.023 105.844 156.711 105.844 156.305C105.844 155.887 105.721 155.549 105.475 155.291C105.229 155.033 104.889 154.9 104.455 154.893H102.844V157.57ZM110.373 156.352C110.822 155.812 111.387 155.543 112.066 155.543C113.441 155.543 114.139 156.342 114.158 157.939V162H112.465V157.986C112.465 157.623 112.387 157.355 112.23 157.184C112.074 157.008 111.814 156.92 111.451 156.92C110.955 156.92 110.596 157.111 110.373 157.494V162H108.68V153H110.373V156.352ZM119.232 161.355C118.814 161.863 118.236 162.117 117.498 162.117C116.818 162.117 116.299 161.922 115.939 161.531C115.584 161.141 115.402 160.568 115.395 159.814V155.66H117.088V159.756C117.088 160.416 117.389 160.746 117.99 160.746C118.564 160.746 118.959 160.547 119.174 160.148V155.66H120.873V162H119.279L119.232 161.355ZM118.477 153H120.322L118.699 154.816H117.322L118.477 153ZM124.178 154.102V155.66H125.262V156.902H124.178V160.066C124.178 160.301 124.223 160.469 124.312 160.57C124.402 160.672 124.574 160.723 124.828 160.723C125.016 160.723 125.182 160.709 125.326 160.682V161.965C124.994 162.066 124.652 162.117 124.301 162.117C123.113 162.117 122.508 161.518 122.484 160.318V156.902H121.559V155.66H122.484V154.102H124.178Z" fill="#868A96"/>
<rect x="82.5" y="149.5" width="51" height="17" rx="8.5" stroke="#F4E5E5"/>
<path d="M65.6594 92.6896C65.4081 93.2547 65.2384 93.8431 65.144 94.4411L65.0947 94.6371C64.5585 96.7674 64.8888 98.6457 65.1107 99.908C65.1401 100.075 65.1676 100.232 65.1909 100.376L65.191 100.377C65.6353 103.106 67.6022 105.5 70.4752 106.374L70.4755 106.374L113.92 119.55C113.92 119.55 113.921 119.55 113.921 119.55C115.995 120.186 118.291 119.875 120.248 118.918C122.205 117.961 123.849 116.344 124.602 114.332C124.602 114.331 124.602 114.33 124.603 114.33L158.338 27.4316C158.907 26.2949 159.307 24.9896 159.43 23.717C159.553 22.442 159.4 21.1764 158.833 20.1471L158.832 20.1438C158.579 19.6978 158.23 19.2013 157.949 18.8212C157.808 18.63 157.682 18.4661 157.591 18.3499C157.569 18.3222 157.55 18.2972 157.532 18.2752C157.513 18.251 157.497 18.2303 157.484 18.2136L157.454 18.1769L157.447 18.1672L157.444 18.1646L157.444 18.1639L157.444 18.1637L157.444 18.1637L157.437 18.169L157.444 18.1636L157.381 18.0858L157.37 18.0832C156.51 16.9965 155.31 16.1509 153.864 15.7252L153.863 15.725L111.677 3.40879C111.677 3.40873 111.677 3.40866 111.677 3.4086C108.285 2.40673 104.701 4.0768 103.279 7.25289L103.278 7.25455L65.6597 92.689C65.6596 92.6892 65.6595 92.6894 65.6594 92.6896Z" fill="#D72323" stroke="black" stroke-width="0.6"/>
<path d="M114.163 114.6L114.16 114.599L70.9618 100.844C70.9613 100.844 70.9608 100.844 70.9603 100.844C69.5981 100.39 68.5263 99.4277 67.932 98.1442C67.339 96.8438 67.3387 95.434 67.9135 94.1319L67.9138 94.1314L105.857 7.69684C106.56 6.10808 108.156 5.07637 109.928 5.07637C110.349 5.07637 110.784 5.13319 111.174 5.26134L111.174 5.2614L111.179 5.26307L153.143 18.1594L153.146 18.1602C154.349 18.5177 155.314 19.3034 155.843 20.4204L155.843 20.4204L155.846 20.4259C156.397 21.5301 156.453 22.7605 155.998 23.8996L155.998 23.8998L121.12 111.414C120.273 113.518 118.252 114.885 115.937 114.885C115.339 114.885 114.742 114.79 114.163 114.6Z" fill="#F6F3F9" stroke="black" stroke-width="0.6"/>
<path d="M140.26 17.1444L122.301 11.1645C121.594 10.9289 120.829 11.3112 120.593 12.0185C120.357 12.7264 120.74 13.4918 121.448 13.7275L139.406 19.7074C140.114 19.943 140.878 19.5607 141.114 18.8534C141.351 18.1455 140.968 17.3802 140.26 17.1444Z" stroke="black" stroke-width="0.6"/>
<rect width="66.6875" height="22.2111" rx="3" transform="matrix(0.940508 0.339773 -0.34041 0.940277 88.4377 17.5714)" fill="#C2BACC"/>
<rect width="66.6875" height="22.2111" rx="3" transform="matrix(0.940508 0.339772 -0.34041 0.940277 98.781 50.4473)" fill="#C2BACC"/>
<rect width="66.6875" height="22.2111" rx="3" transform="matrix(0.940508 0.339773 -0.34041 0.940277 66.2881 67.5306)" fill="#C2BACC"/>
<rect x="0.180029" y="0.384015" width="66.0875" height="21.6111" rx="2.7" transform="matrix(0.940508 0.339773 -0.34041 0.940277 84.6925 6.37754)" fill="white" stroke="black" stroke-width="0.6"/>
<path d="M97.0575 14.5672C93.0627 13.124 88.648 15.1915 87.2033 19.182C85.7586 23.1726 87.8283 27.5826 91.823 29.0257C95.8178 30.4689 100.232 28.4015 101.677 24.4109C103.122 20.4204 101.052 16.0104 97.0575 14.5672ZM92.3465 27.5799C89.155 26.4269 87.4965 22.893 88.6507 19.7049C89.8049 16.5168 93.3426 14.8601 96.534 16.0131C99.7255 17.166 101.384 20.6999 100.23 23.888C99.0756 27.0761 95.538 28.7329 92.3465 27.5799ZM98.9188 19.8012L92.4249 22.8423L91.2258 20.3L89.8364 20.9507L91.6843 24.8882L99.5676 21.1964L98.9188 19.8012Z" fill="#07A717" stroke="white" stroke-width="0.2"/>
<rect width="32.4888" height="3.41709" rx="1.70854" transform="matrix(0.940508 0.339772 -0.34041 0.940277 106.929 19.9501)" fill="#D72323"/>
<rect width="22.2292" height="3.41709" rx="1.70854" transform="matrix(0.940508 0.339773 -0.34041 0.940277 104.603 26.3761)" fill="#DFD9E4"/>
<rect x="0.180029" y="0.384015" width="66.0875" height="21.6111" rx="2.7" transform="matrix(0.940508 0.339773 -0.34041 0.940277 95.0357 39.2534)" fill="white" stroke="black" stroke-width="0.6"/>
<path d="M107.401 47.4431C103.406 45.9999 98.9913 48.0673 97.5466 52.0579C96.1019 56.0484 98.1715 60.4584 102.166 61.9016C106.161 63.3448 110.576 61.2773 112.02 57.2868C113.465 53.2962 111.396 48.8862 107.401 47.4431ZM102.69 60.4557C99.4983 59.3028 97.8398 55.7689 98.994 52.5808C100.148 49.3927 103.686 47.7359 106.877 48.8889C110.069 50.0419 111.727 53.5758 110.573 56.7639C109.419 59.952 105.881 61.6087 102.69 60.4557ZM109.262 52.677L102.768 55.7182L101.569 53.1759L100.18 53.8266L102.028 57.7641L109.911 54.0722L109.262 52.677Z" fill="#07A717" stroke="white" stroke-width="0.2"/>
<rect width="32.4888" height="3.41709" rx="1.70854" transform="matrix(0.940508 0.339773 -0.34041 0.940277 117.272 52.8259)" fill="#D72323"/>
<rect width="22.2292" height="3.41709" rx="1.70854" transform="matrix(0.940508 0.339773 -0.34041 0.940277 114.946 59.252)" fill="#DFD9E4"/>
<rect x="0.180029" y="0.384015" width="66.0875" height="21.6111" rx="2.7" transform="matrix(0.940508 0.339773 -0.34041 0.940277 62.543 56.3368)" fill="white" stroke="black" stroke-width="0.6"/>
<path d="M74.9081 64.5264C70.9133 63.0833 66.4986 65.1507 65.0539 69.1413C63.6092 73.1318 65.6788 77.5418 69.6736 78.985C73.6684 80.4282 78.0831 78.3607 79.5278 74.3702C80.9725 70.3796 78.9029 65.9696 74.9081 64.5264ZM70.1971 77.5391C67.0056 76.3861 65.3471 72.8523 66.5013 69.6641C67.6555 66.476 71.1931 64.8193 74.3846 65.9723C77.5761 67.1253 79.2346 70.6592 78.0804 73.8473C76.9262 77.0354 73.3886 78.6921 70.1971 77.5391ZM76.7694 69.7604L70.2755 72.8016L69.0764 70.2593L67.687 70.91L69.5349 74.8474L77.4182 71.1556L76.7694 69.7604Z" fill="#07A717" stroke="white" stroke-width="0.2"/>
<rect width="32.4888" height="3.41709" rx="1.70854" transform="matrix(0.940508 0.339773 -0.34041 0.940277 84.7798 69.9093)" fill="#D72323"/>
<rect width="22.2292" height="3.41709" rx="1.70854" transform="matrix(0.940508 0.339773 -0.34041 0.940277 82.4534 76.3353)" fill="#DFD9E4"/>
</svg>
