<svg width="218" height="259" viewBox="0 0 218 259" fill="none" xmlns="http://www.w3.org/2000/svg">
<path d="M71.6016 197.406L72.2578 191.625H78.6328V193.508H74.1094L73.8281 195.953C74.3646 195.667 74.9349 195.523 75.5391 195.523C76.6224 195.523 77.4714 195.859 78.0859 196.531C78.7005 197.203 79.0078 198.143 79.0078 199.352C79.0078 200.086 78.8516 200.745 78.5391 201.328C78.2318 201.906 77.7891 202.357 77.2109 202.68C76.6328 202.997 75.9505 203.156 75.1641 203.156C74.4766 203.156 73.8385 203.018 73.25 202.742C72.6615 202.461 72.1953 202.068 71.8516 201.562C71.513 201.057 71.3333 200.482 71.3125 199.836H73.5469C73.5938 200.31 73.7578 200.68 74.0391 200.945C74.3255 201.206 74.6979 201.336 75.1562 201.336C75.6667 201.336 76.0599 201.154 76.3359 200.789C76.612 200.419 76.75 199.898 76.75 199.227C76.75 198.581 76.5911 198.086 76.2734 197.742C75.9557 197.398 75.5052 197.227 74.9219 197.227C74.3854 197.227 73.9505 197.367 73.6172 197.648L73.3984 197.852L71.6016 197.406ZM80.6641 201.891C80.6641 201.531 80.7839 201.24 81.0234 201.016C81.2682 200.792 81.5729 200.68 81.9375 200.68C82.3073 200.68 82.612 200.792 82.8516 201.016C83.0964 201.24 83.2188 201.531 83.2188 201.891C83.2188 202.245 83.099 202.534 82.8594 202.758C82.6198 202.977 82.3125 203.086 81.9375 203.086C81.5677 203.086 81.263 202.977 81.0234 202.758C80.7839 202.534 80.6641 202.245 80.6641 201.891ZM89.5703 203V197.984H88.1641V196.555H89.5703V191.625H93.0703C94.0703 191.625 94.9635 191.852 95.75 192.305C96.5417 192.753 97.1589 193.393 97.6016 194.227C98.0443 195.055 98.2656 195.997 98.2656 197.055V197.578C98.2656 198.635 98.0469 199.576 97.6094 200.398C97.1771 201.221 96.5651 201.859 95.7734 202.312C94.9818 202.766 94.0885 202.995 93.0938 203H89.5703ZM93.625 197.984H91.9141V201.117H93.0469C93.974 201.117 94.6797 200.812 95.1641 200.203C95.6484 199.589 95.8906 198.714 95.8906 197.578V197.047C95.8906 195.891 95.651 195.016 95.1719 194.422C94.6927 193.823 93.9922 193.523 93.0703 193.523H91.9141V196.555H93.625V197.984ZM99.4766 198.695C99.4766 197.857 99.638 197.109 99.9609 196.453C100.284 195.797 100.747 195.289 101.352 194.93C101.961 194.57 102.667 194.391 103.469 194.391C104.609 194.391 105.539 194.74 106.258 195.438C106.982 196.135 107.385 197.083 107.469 198.281L107.484 198.859C107.484 200.156 107.122 201.198 106.398 201.984C105.674 202.766 104.703 203.156 103.484 203.156C102.266 203.156 101.292 202.766 100.562 201.984C99.8385 201.203 99.4766 200.141 99.4766 198.797V198.695ZM101.734 198.859C101.734 199.661 101.885 200.276 102.188 200.703C102.49 201.125 102.922 201.336 103.484 201.336C104.031 201.336 104.458 201.128 104.766 200.711C105.073 200.289 105.227 199.617 105.227 198.695C105.227 197.909 105.073 197.299 104.766 196.867C104.458 196.435 104.026 196.219 103.469 196.219C102.917 196.219 102.49 196.435 102.188 196.867C101.885 197.294 101.734 197.958 101.734 198.859ZM102.812 191.625H104.086L106.312 193.422H104.625L103.445 192.438L102.266 193.422H100.586L102.812 191.625ZM107.008 190.25H108.812L107.039 192.375H105.734L107.008 190.25ZM111.258 203H108.992V194.547H111.258V203ZM108.859 192.359C108.859 192.021 108.971 191.742 109.195 191.523C109.424 191.305 109.734 191.195 110.125 191.195C110.51 191.195 110.818 191.305 111.047 191.523C111.276 191.742 111.391 192.021 111.391 192.359C111.391 192.703 111.273 192.984 111.039 193.203C110.81 193.422 110.505 193.531 110.125 193.531C109.745 193.531 109.438 193.422 109.203 193.203C108.974 192.984 108.859 192.703 108.859 192.359ZM121.688 200.664C121.688 200.388 121.549 200.172 121.273 200.016C121.003 199.854 120.565 199.711 119.961 199.586C117.951 199.164 116.945 198.31 116.945 197.023C116.945 196.273 117.255 195.648 117.875 195.148C118.5 194.643 119.315 194.391 120.32 194.391C121.393 194.391 122.25 194.643 122.891 195.148C123.536 195.654 123.859 196.31 123.859 197.117H121.602C121.602 196.794 121.497 196.529 121.289 196.32C121.081 196.107 120.755 196 120.312 196C119.932 196 119.638 196.086 119.43 196.258C119.221 196.43 119.117 196.648 119.117 196.914C119.117 197.164 119.234 197.367 119.469 197.523C119.708 197.674 120.109 197.807 120.672 197.922C121.234 198.031 121.708 198.156 122.094 198.297C123.286 198.734 123.883 199.492 123.883 200.57C123.883 201.341 123.552 201.966 122.891 202.445C122.229 202.919 121.375 203.156 120.328 203.156C119.62 203.156 118.99 203.031 118.438 202.781C117.891 202.526 117.461 202.18 117.148 201.742C116.836 201.299 116.68 200.823 116.68 200.312H118.82C118.841 200.714 118.99 201.021 119.266 201.234C119.542 201.448 119.911 201.555 120.375 201.555C120.807 201.555 121.133 201.474 121.352 201.312C121.576 201.146 121.688 200.93 121.688 200.664ZM124.992 198.695C124.992 197.857 125.154 197.109 125.477 196.453C125.799 195.797 126.263 195.289 126.867 194.93C127.477 194.57 128.182 194.391 128.984 194.391C130.125 194.391 131.055 194.74 131.773 195.438C132.497 196.135 132.901 197.083 132.984 198.281L133 198.859C133 200.156 132.638 201.198 131.914 201.984C131.19 202.766 130.219 203.156 129 203.156C127.781 203.156 126.807 202.766 126.078 201.984C125.354 201.203 124.992 200.141 124.992 198.797V198.695ZM127.25 198.859C127.25 199.661 127.401 200.276 127.703 200.703C128.005 201.125 128.438 201.336 129 201.336C129.547 201.336 129.974 201.128 130.281 200.711C130.589 200.289 130.742 199.617 130.742 198.695C130.742 197.909 130.589 197.299 130.281 196.867C129.974 196.435 129.542 196.219 128.984 196.219C128.432 196.219 128.005 196.435 127.703 196.867C127.401 197.294 127.25 197.958 127.25 198.859ZM139.289 203C139.185 202.797 139.109 202.544 139.062 202.242C138.516 202.852 137.805 203.156 136.93 203.156C136.102 203.156 135.414 202.917 134.867 202.438C134.326 201.958 134.055 201.354 134.055 200.625C134.055 199.729 134.385 199.042 135.047 198.562C135.714 198.083 136.674 197.841 137.93 197.836H138.969V197.352C138.969 196.961 138.867 196.648 138.664 196.414C138.466 196.18 138.151 196.062 137.719 196.062C137.339 196.062 137.039 196.154 136.82 196.336C136.607 196.518 136.5 196.768 136.5 197.086H134.242C134.242 196.596 134.393 196.143 134.695 195.727C134.997 195.31 135.424 194.984 135.977 194.75C136.529 194.51 137.148 194.391 137.836 194.391C138.878 194.391 139.703 194.654 140.312 195.18C140.927 195.701 141.234 196.435 141.234 197.383V201.047C141.24 201.849 141.352 202.456 141.57 202.867V203H139.289ZM137.422 201.43C137.755 201.43 138.062 201.357 138.344 201.211C138.625 201.06 138.833 200.859 138.969 200.609V199.156H138.125C136.995 199.156 136.393 199.547 136.32 200.328L136.312 200.461C136.312 200.742 136.411 200.974 136.609 201.156C136.807 201.339 137.078 201.43 137.422 201.43ZM138.281 191H140.742L138.578 193.422H136.742L138.281 191ZM145.672 192.469V194.547H147.117V196.203H145.672V200.422C145.672 200.734 145.732 200.958 145.852 201.094C145.971 201.229 146.201 201.297 146.539 201.297C146.789 201.297 147.01 201.279 147.203 201.242V202.953C146.76 203.089 146.305 203.156 145.836 203.156C144.253 203.156 143.445 202.357 143.414 200.758V196.203H142.18V194.547H143.414V192.469H145.672Z" fill="#D72323"/>
<path d="M27.3994 231V226.447H26.0869V225.415H27.3994V221.047H30.209C31.0749 221.047 31.8405 221.238 32.5059 221.621C33.1712 222.004 33.6839 222.549 34.0439 223.255C34.4085 223.961 34.5931 224.772 34.5977 225.688V226.324C34.5977 227.263 34.4154 228.086 34.0508 228.792C33.6908 229.498 33.1735 230.041 32.499 230.419C31.8291 230.797 31.0475 230.991 30.1543 231H27.3994ZM30.4346 226.447H28.7119V229.927H30.0859C31.0977 229.927 31.8838 229.615 32.4443 228.99C33.0094 228.366 33.2943 227.486 33.2988 226.352V225.716C33.2988 224.586 33.0322 223.708 32.499 223.084C31.9704 222.455 31.2184 222.136 30.2432 222.127H28.7119V225.415H30.4346V226.447ZM36.0537 227.233C36.0537 226.509 36.195 225.857 36.4775 225.278C36.7646 224.7 37.1611 224.253 37.667 223.938C38.1774 223.624 38.7585 223.467 39.4102 223.467C40.4173 223.467 41.2308 223.815 41.8506 224.513C42.4749 225.21 42.7871 226.137 42.7871 227.295V227.384C42.7871 228.104 42.6481 228.751 42.3701 229.325C42.0967 229.895 41.7025 230.339 41.1875 230.658C40.6771 230.977 40.0892 231.137 39.4238 231.137C38.4212 231.137 37.6077 230.788 36.9834 230.091C36.3636 229.394 36.0537 228.471 36.0537 227.322V227.233ZM37.3252 227.384C37.3252 228.204 37.5143 228.863 37.8926 229.359C38.2754 229.856 38.7858 230.104 39.4238 230.104C40.0664 230.104 40.5768 229.854 40.9551 229.353C41.3333 228.847 41.5225 228.14 41.5225 227.233C41.5225 226.422 41.3288 225.766 40.9414 225.265C40.5586 224.759 40.0482 224.506 39.4102 224.506C38.7858 224.506 38.2822 224.754 37.8994 225.251C37.5166 225.748 37.3252 226.459 37.3252 227.384ZM38.8496 220.712H39.8887L41.8711 222.51H40.5244L39.3691 221.423L38.207 222.51H36.8535L38.8496 220.712ZM42.3359 219.529H43.7031L42.3291 221.3H41.3652L42.3359 219.529ZM45.7471 231H44.4824V223.604H45.7471V231ZM44.3799 221.642C44.3799 221.437 44.4414 221.263 44.5645 221.122C44.6921 220.981 44.8789 220.91 45.125 220.91C45.3711 220.91 45.5579 220.981 45.6855 221.122C45.8132 221.263 45.877 221.437 45.877 221.642C45.877 221.847 45.8132 222.018 45.6855 222.154C45.5579 222.291 45.3711 222.359 45.125 222.359C44.8789 222.359 44.6921 222.291 44.5645 222.154C44.4414 222.018 44.3799 221.847 44.3799 221.642ZM55.5566 229.038C55.5566 228.696 55.4268 228.432 55.167 228.245C54.9118 228.054 54.4629 227.89 53.8203 227.753C53.1823 227.616 52.6742 227.452 52.2959 227.261C51.9222 227.069 51.6442 226.841 51.4619 226.577C51.2842 226.313 51.1953 225.998 51.1953 225.634C51.1953 225.028 51.4505 224.515 51.9609 224.096C52.4759 223.676 53.1322 223.467 53.9297 223.467C54.7682 223.467 55.4473 223.683 55.9668 224.116C56.4909 224.549 56.7529 225.103 56.7529 225.777H55.4814C55.4814 225.431 55.3333 225.132 55.0371 224.882C54.7454 224.631 54.3763 224.506 53.9297 224.506C53.4694 224.506 53.1094 224.606 52.8496 224.807C52.5898 225.007 52.46 225.269 52.46 225.593C52.46 225.898 52.5807 226.128 52.8223 226.283C53.0638 226.438 53.499 226.586 54.1279 226.728C54.7614 226.869 55.2741 227.037 55.666 227.233C56.0579 227.429 56.3473 227.666 56.5342 227.944C56.7256 228.218 56.8213 228.553 56.8213 228.949C56.8213 229.61 56.557 230.141 56.0283 230.542C55.4997 230.938 54.8138 231.137 53.9707 231.137C53.3783 231.137 52.8542 231.032 52.3984 230.822C51.9427 230.613 51.585 230.321 51.3252 229.947C51.07 229.569 50.9424 229.161 50.9424 228.724H52.207C52.2298 229.147 52.3984 229.485 52.7129 229.735C53.0319 229.981 53.4512 230.104 53.9707 230.104C54.4492 230.104 54.832 230.009 55.1191 229.817C55.4108 229.621 55.5566 229.362 55.5566 229.038ZM58.1338 227.233C58.1338 226.509 58.2751 225.857 58.5576 225.278C58.8447 224.7 59.2412 224.253 59.7471 223.938C60.2575 223.624 60.8385 223.467 61.4902 223.467C62.4974 223.467 63.3109 223.815 63.9307 224.513C64.555 225.21 64.8672 226.137 64.8672 227.295V227.384C64.8672 228.104 64.7282 228.751 64.4502 229.325C64.1768 229.895 63.7826 230.339 63.2676 230.658C62.7572 230.977 62.1693 231.137 61.5039 231.137C60.5013 231.137 59.6878 230.788 59.0635 230.091C58.4437 229.394 58.1338 228.471 58.1338 227.322V227.233ZM59.4053 227.384C59.4053 228.204 59.5944 228.863 59.9727 229.359C60.3555 229.856 60.8659 230.104 61.5039 230.104C62.1465 230.104 62.6569 229.854 63.0352 229.353C63.4134 228.847 63.6025 228.14 63.6025 227.233C63.6025 226.422 63.4089 225.766 63.0215 225.265C62.6387 224.759 62.1283 224.506 61.4902 224.506C60.8659 224.506 60.3623 224.754 59.9795 225.251C59.5967 225.748 59.4053 226.459 59.4053 227.384ZM71.0195 231C70.9466 230.854 70.8874 230.594 70.8418 230.221C70.2539 230.831 69.5521 231.137 68.7363 231.137C68.0072 231.137 67.4079 230.932 66.9385 230.521C66.4736 230.107 66.2412 229.583 66.2412 228.949C66.2412 228.179 66.5329 227.582 67.1162 227.158C67.7041 226.73 68.529 226.516 69.5908 226.516H70.8213V225.935C70.8213 225.493 70.6891 225.142 70.4248 224.882C70.1605 224.618 69.7708 224.485 69.2559 224.485C68.8047 224.485 68.4264 224.599 68.1211 224.827C67.8158 225.055 67.6631 225.331 67.6631 225.654H66.3916C66.3916 225.285 66.5215 224.93 66.7812 224.588C67.0456 224.242 67.401 223.968 67.8477 223.768C68.2988 223.567 68.7933 223.467 69.3311 223.467C70.1833 223.467 70.8509 223.681 71.334 224.109C71.8171 224.533 72.0677 225.119 72.0859 225.866V229.271C72.0859 229.95 72.1725 230.49 72.3457 230.891V231H71.0195ZM68.9209 230.036C69.3174 230.036 69.6934 229.934 70.0488 229.729C70.4043 229.523 70.6618 229.257 70.8213 228.929V227.411H69.8301C68.2806 227.411 67.5059 227.865 67.5059 228.771C67.5059 229.168 67.638 229.478 67.9023 229.701C68.1667 229.924 68.5062 230.036 68.9209 230.036ZM70.0898 220.5H71.6211L69.7891 222.51H68.7705L70.0898 220.5ZM75.7842 221.812V223.604H77.165V224.581H75.7842V229.168C75.7842 229.464 75.8457 229.688 75.9688 229.838C76.0918 229.984 76.3014 230.057 76.5977 230.057C76.7435 230.057 76.944 230.029 77.1992 229.975V231C76.8665 231.091 76.543 231.137 76.2285 231.137C75.6634 231.137 75.2373 230.966 74.9502 230.624C74.6631 230.282 74.5195 229.797 74.5195 229.168V224.581H73.1729V223.604H74.5195V221.812H75.7842ZM83.8369 221.812V223.604H85.2178V224.581H83.8369V229.168C83.8369 229.464 83.8984 229.688 84.0215 229.838C84.1445 229.984 84.3542 230.057 84.6504 230.057C84.7962 230.057 84.9967 230.029 85.252 229.975V231C84.9193 231.091 84.5957 231.137 84.2812 231.137C83.7161 231.137 83.29 230.966 83.0029 230.624C82.7158 230.282 82.5723 229.797 82.5723 229.168V224.581H81.2256V223.604H82.5723V221.812H83.8369ZM94.5967 223.016C94.5967 223.836 94.4281 224.415 94.0908 224.752C93.7581 225.085 93.2272 225.26 92.498 225.278V231H91.2949L91.2676 230.269C90.7754 230.847 90.0531 231.137 89.1006 231.137C88.3122 231.137 87.7106 230.909 87.2959 230.453C86.8857 229.993 86.6784 229.314 86.6738 228.416V223.604H87.9385V228.382C87.9385 229.503 88.3942 230.063 89.3057 230.063C90.2718 230.063 90.9144 229.703 91.2334 228.983V223.604H92.498V224.499C92.8079 224.49 93.0404 224.447 93.1953 224.369C93.3503 224.287 93.4596 224.164 93.5234 224C93.5918 223.836 93.626 223.508 93.626 223.016H94.5967ZM88.7998 232.675C88.7998 232.47 88.8613 232.297 88.9844 232.155C89.112 232.014 89.2988 231.943 89.5449 231.943C89.791 231.943 89.9779 232.014 90.1055 232.155C90.2331 232.297 90.2969 232.47 90.2969 232.675C90.2969 232.88 90.2331 233.051 90.1055 233.188C89.9779 233.324 89.791 233.393 89.5449 233.393C89.2988 233.393 89.112 233.324 88.9844 233.188C88.8613 233.051 88.7998 232.88 88.7998 232.675ZM106.061 222.571H104.775V231H103.613L103.552 230.207C103.046 230.827 102.342 231.137 101.439 231.137C100.583 231.137 99.8831 230.786 99.3408 230.084C98.8031 229.382 98.5342 228.466 98.5342 227.336V227.24C98.5342 226.105 98.8031 225.194 99.3408 224.506C99.8786 223.813 100.583 223.467 101.453 223.467C102.319 223.467 103.005 223.763 103.511 224.355V222.571H101.706V221.539H103.511V220.5H104.775V221.539H106.061V222.571ZM99.7988 227.384C99.7988 228.222 99.972 228.879 100.318 229.353C100.665 229.826 101.143 230.063 101.754 230.063C102.556 230.063 103.142 229.703 103.511 228.983V225.586C103.132 224.889 102.551 224.54 101.768 224.54C101.148 224.54 100.665 224.779 100.318 225.258C99.972 225.736 99.7988 226.445 99.7988 227.384ZM106.874 227.233C106.874 226.509 107.015 225.857 107.298 225.278C107.585 224.7 107.981 224.253 108.487 223.938C108.998 223.624 109.579 223.467 110.23 223.467C111.238 223.467 112.051 223.815 112.671 224.513C113.295 225.21 113.607 226.137 113.607 227.295V227.384C113.607 228.104 113.468 228.751 113.19 229.325C112.917 229.895 112.523 230.339 112.008 230.658C111.497 230.977 110.91 231.137 110.244 231.137C109.242 231.137 108.428 230.788 107.804 230.091C107.184 229.394 106.874 228.471 106.874 227.322V227.233ZM108.146 227.384C108.146 228.204 108.335 228.863 108.713 229.359C109.096 229.856 109.606 230.104 110.244 230.104C110.887 230.104 111.397 229.854 111.775 229.353C112.154 228.847 112.343 228.14 112.343 227.233C112.343 226.422 112.149 225.766 111.762 225.265C111.379 224.759 110.868 224.506 110.23 224.506C109.606 224.506 109.103 224.754 108.72 225.251C108.337 225.748 108.146 226.459 108.146 227.384ZM112.254 222.373V222.441H111.208L110.183 221.279L109.164 222.441H108.118V222.359L109.8 220.5H110.565L112.254 222.373ZM109.458 232.675C109.458 232.47 109.52 232.297 109.643 232.155C109.77 232.014 109.957 231.943 110.203 231.943C110.449 231.943 110.636 232.014 110.764 232.155C110.891 232.297 110.955 232.47 110.955 232.675C110.955 232.88 110.891 233.051 110.764 233.188C110.636 233.324 110.449 233.393 110.203 233.393C109.957 233.393 109.77 233.324 109.643 233.188C109.52 233.051 109.458 232.88 109.458 232.675ZM116.39 223.604L116.431 224.533C116.996 223.822 117.734 223.467 118.646 223.467C120.209 223.467 120.997 224.349 121.011 226.112V231H119.746V226.105C119.742 225.572 119.618 225.178 119.377 224.923C119.14 224.668 118.769 224.54 118.263 224.54C117.853 224.54 117.493 224.649 117.183 224.868C116.873 225.087 116.631 225.374 116.458 225.729V231H115.193V223.604H116.39ZM122.617 227.24C122.617 226.087 122.884 225.171 123.417 224.492C123.95 223.809 124.657 223.467 125.536 223.467C126.438 223.467 127.143 223.786 127.648 224.424L127.71 223.604H128.865V230.822C128.865 231.779 128.58 232.534 128.011 233.085C127.446 233.636 126.685 233.912 125.728 233.912C125.194 233.912 124.673 233.798 124.162 233.57C123.652 233.342 123.262 233.03 122.993 232.634L123.649 231.875C124.192 232.545 124.855 232.88 125.639 232.88C126.254 232.88 126.732 232.707 127.074 232.36C127.421 232.014 127.594 231.526 127.594 230.897V230.262C127.088 230.845 126.397 231.137 125.522 231.137C124.657 231.137 123.955 230.788 123.417 230.091C122.884 229.394 122.617 228.443 122.617 227.24ZM123.889 227.384C123.889 228.218 124.06 228.874 124.401 229.353C124.743 229.826 125.222 230.063 125.837 230.063C126.634 230.063 127.22 229.701 127.594 228.977V225.6C127.206 224.893 126.625 224.54 125.851 224.54C125.235 224.54 124.755 224.779 124.408 225.258C124.062 225.736 123.889 226.445 123.889 227.384ZM130.738 232.982L130.021 232.49C130.449 231.893 130.672 231.278 130.69 230.645V229.503H131.928V230.494C131.928 230.954 131.814 231.415 131.586 231.875C131.363 232.335 131.08 232.704 130.738 232.982ZM139.967 230.104C140.418 230.104 140.812 229.968 141.149 229.694C141.487 229.421 141.674 229.079 141.71 228.669H142.906C142.883 229.093 142.738 229.496 142.469 229.879C142.2 230.262 141.84 230.567 141.389 230.795C140.942 231.023 140.468 231.137 139.967 231.137C138.96 231.137 138.158 230.802 137.561 230.132C136.968 229.457 136.672 228.537 136.672 227.37V227.158C136.672 226.438 136.804 225.798 137.068 225.237C137.333 224.677 137.711 224.242 138.203 223.932C138.7 223.622 139.285 223.467 139.96 223.467C140.789 223.467 141.478 223.715 142.024 224.212C142.576 224.709 142.87 225.354 142.906 226.146H141.71C141.674 225.668 141.491 225.276 141.163 224.971C140.84 224.661 140.438 224.506 139.96 224.506C139.317 224.506 138.818 224.738 138.463 225.203C138.112 225.663 137.937 226.331 137.937 227.206V227.445C137.937 228.298 138.112 228.954 138.463 229.414C138.814 229.874 139.315 230.104 139.967 230.104ZM145.593 224.499C146.153 223.811 146.882 223.467 147.78 223.467C149.343 223.467 150.132 224.349 150.146 226.112V231H148.881V226.105C148.876 225.572 148.753 225.178 148.512 224.923C148.275 224.668 147.903 224.54 147.397 224.54C146.987 224.54 146.627 224.649 146.317 224.868C146.007 225.087 145.766 225.374 145.593 225.729V231H144.328V220.5H145.593V224.499ZM156.605 231C156.533 230.854 156.473 230.594 156.428 230.221C155.84 230.831 155.138 231.137 154.322 231.137C153.593 231.137 152.994 230.932 152.524 230.521C152.06 230.107 151.827 229.583 151.827 228.949C151.827 228.179 152.119 227.582 152.702 227.158C153.29 226.73 154.115 226.516 155.177 226.516H156.407V225.935C156.407 225.493 156.275 225.142 156.011 224.882C155.746 224.618 155.357 224.485 154.842 224.485C154.391 224.485 154.012 224.599 153.707 224.827C153.402 225.055 153.249 225.331 153.249 225.654H151.978C151.978 225.285 152.107 224.93 152.367 224.588C152.632 224.242 152.987 223.968 153.434 223.768C153.885 223.567 154.379 223.467 154.917 223.467C155.769 223.467 156.437 223.681 156.92 224.109C157.403 224.533 157.654 225.119 157.672 225.866V229.271C157.672 229.95 157.758 230.49 157.932 230.891V231H156.605ZM154.507 230.036C154.903 230.036 155.279 229.934 155.635 229.729C155.99 229.523 156.248 229.257 156.407 228.929V227.411H155.416C153.867 227.411 153.092 227.865 153.092 228.771C153.092 229.168 153.224 229.478 153.488 229.701C153.753 229.924 154.092 230.036 154.507 230.036ZM157.104 220.773C157.104 221.325 156.915 221.769 156.537 222.106C156.163 222.439 155.671 222.605 155.061 222.605C154.45 222.605 153.955 222.437 153.577 222.1C153.199 221.762 153.01 221.32 153.01 220.773H154.042C154.042 221.092 154.129 221.343 154.302 221.525C154.475 221.703 154.728 221.792 155.061 221.792C155.38 221.792 155.628 221.703 155.806 221.525C155.988 221.348 156.079 221.097 156.079 220.773H157.104ZM153.721 232.675C153.721 232.47 153.782 232.297 153.905 232.155C154.033 232.014 154.22 231.943 154.466 231.943C154.712 231.943 154.899 232.014 155.026 232.155C155.154 232.297 155.218 232.47 155.218 232.675C155.218 232.88 155.154 233.051 155.026 233.188C154.899 233.324 154.712 233.393 154.466 233.393C154.22 233.393 154.033 233.324 153.905 233.188C153.782 233.051 153.721 232.88 153.721 232.675ZM161.37 221.812V223.604H162.751V224.581H161.37V229.168C161.37 229.464 161.432 229.688 161.555 229.838C161.678 229.984 161.887 230.057 162.184 230.057C162.329 230.057 162.53 230.029 162.785 229.975V231C162.452 231.091 162.129 231.137 161.814 231.137C161.249 231.137 160.823 230.966 160.536 230.624C160.249 230.282 160.105 229.797 160.105 229.168V224.581H158.759V223.604H160.105V221.812H161.37ZM170.674 230.104C171.125 230.104 171.519 229.968 171.856 229.694C172.194 229.421 172.381 229.079 172.417 228.669H173.613C173.59 229.093 173.445 229.496 173.176 229.879C172.907 230.262 172.547 230.567 172.096 230.795C171.649 231.023 171.175 231.137 170.674 231.137C169.667 231.137 168.865 230.802 168.268 230.132C167.675 229.457 167.379 228.537 167.379 227.37V227.158C167.379 226.438 167.511 225.798 167.775 225.237C168.04 224.677 168.418 224.242 168.91 223.932C169.407 223.622 169.993 223.467 170.667 223.467C171.496 223.467 172.185 223.715 172.731 224.212C173.283 224.709 173.577 225.354 173.613 226.146H172.417C172.381 225.668 172.198 225.276 171.87 224.971C171.547 224.661 171.146 224.506 170.667 224.506C170.024 224.506 169.525 224.738 169.17 225.203C168.819 225.663 168.644 226.331 168.644 227.206V227.445C168.644 228.298 168.819 228.954 169.17 229.414C169.521 229.874 170.022 230.104 170.674 230.104ZM176.3 224.499C176.86 223.811 177.59 223.467 178.487 223.467C180.05 223.467 180.839 224.349 180.853 226.112V231H179.588V226.105C179.583 225.572 179.46 225.178 179.219 224.923C178.982 224.668 178.61 224.54 178.104 224.54C177.694 224.54 177.334 224.649 177.024 224.868C176.715 225.087 176.473 225.374 176.3 225.729V231H175.035V220.5H176.3V224.499ZM185.815 231.137C184.813 231.137 183.997 230.809 183.368 230.152C182.739 229.492 182.425 228.61 182.425 227.507V227.274C182.425 226.541 182.564 225.887 182.842 225.312C183.124 224.734 183.516 224.283 184.018 223.959C184.523 223.631 185.07 223.467 185.658 223.467C186.62 223.467 187.367 223.784 187.9 224.417C188.434 225.05 188.7 225.957 188.7 227.138V227.664H183.689C183.708 228.393 183.92 228.983 184.325 229.435C184.735 229.881 185.255 230.104 185.884 230.104C186.33 230.104 186.709 230.013 187.019 229.831C187.328 229.649 187.6 229.407 187.832 229.106L188.604 229.708C187.985 230.66 187.055 231.137 185.815 231.137ZM185.658 224.506C185.148 224.506 184.719 224.693 184.373 225.066C184.027 225.436 183.812 225.955 183.73 226.625H187.436V226.529C187.399 225.887 187.226 225.39 186.916 225.039C186.606 224.684 186.187 224.506 185.658 224.506ZM188.078 220.719C188.078 221.211 187.937 221.61 187.654 221.915C187.376 222.22 187.028 222.373 186.608 222.373C186.422 222.373 186.26 222.35 186.123 222.305C185.986 222.259 185.806 222.166 185.583 222.024C185.364 221.883 185.205 221.799 185.104 221.771C185.009 221.74 184.897 221.724 184.77 221.724C184.583 221.724 184.423 221.797 184.291 221.942C184.159 222.084 184.093 222.266 184.093 222.489L183.245 222.441C183.245 221.954 183.382 221.55 183.655 221.231C183.933 220.912 184.284 220.753 184.708 220.753C184.868 220.753 185.011 220.776 185.139 220.821C185.266 220.867 185.439 220.956 185.658 221.088C185.877 221.22 186.043 221.307 186.157 221.348C186.276 221.389 186.406 221.409 186.547 221.409C186.743 221.409 186.905 221.332 187.032 221.177C187.164 221.022 187.23 220.842 187.23 220.637L188.078 220.719ZM190.129 232.982L189.411 232.49C189.84 231.893 190.063 231.278 190.081 230.645V229.503H191.318V230.494C191.318 230.954 191.204 231.415 190.977 231.875C190.753 232.335 190.471 232.704 190.129 232.982ZM79.332 244.571H78.0469V253H76.8848L76.8232 252.207C76.3174 252.827 75.6133 253.137 74.7109 253.137C73.8542 253.137 73.1546 252.786 72.6123 252.084C72.0745 251.382 71.8057 250.466 71.8057 249.336V249.24C71.8057 248.105 72.0745 247.194 72.6123 246.506C73.1501 245.813 73.8542 245.467 74.7246 245.467C75.5905 245.467 76.2764 245.763 76.7822 246.355V244.571H74.9775V243.539H76.7822V242.5H78.0469V243.539H79.332V244.571ZM73.0703 249.384C73.0703 250.222 73.2435 250.879 73.5898 251.353C73.9362 251.826 74.4147 252.063 75.0254 252.063C75.8275 252.063 76.4131 251.703 76.7822 250.983V247.586C76.404 246.889 75.8229 246.54 75.0391 246.54C74.4193 246.54 73.9362 246.779 73.5898 247.258C73.2435 247.736 73.0703 248.445 73.0703 249.384ZM85.0469 253C84.974 252.854 84.9147 252.594 84.8691 252.221C84.2812 252.831 83.5794 253.137 82.7637 253.137C82.0345 253.137 81.4352 252.932 80.9658 252.521C80.501 252.107 80.2686 251.583 80.2686 250.949C80.2686 250.179 80.5602 249.582 81.1436 249.158C81.7314 248.73 82.5563 248.516 83.6182 248.516H84.8486V247.935C84.8486 247.493 84.7165 247.142 84.4521 246.882C84.1878 246.618 83.7982 246.485 83.2832 246.485C82.832 246.485 82.4538 246.599 82.1484 246.827C81.8431 247.055 81.6904 247.331 81.6904 247.654H80.4189C80.4189 247.285 80.5488 246.93 80.8086 246.588C81.0729 246.242 81.4284 245.968 81.875 245.768C82.3262 245.567 82.8206 245.467 83.3584 245.467C84.2106 245.467 84.8783 245.681 85.3613 246.109C85.8444 246.533 86.0951 247.119 86.1133 247.866V251.271C86.1133 251.95 86.1999 252.49 86.373 252.891V253H85.0469ZM82.9482 252.036C83.3447 252.036 83.7207 251.934 84.0762 251.729C84.4316 251.523 84.6891 251.257 84.8486 250.929V249.411H83.8574C82.3079 249.411 81.5332 249.865 81.5332 250.771C81.5332 251.168 81.6654 251.478 81.9297 251.701C82.194 251.924 82.5335 252.036 82.9482 252.036ZM84.1172 242.5H85.6484L83.8164 244.51H82.7979L84.1172 242.5ZM89.292 245.604L89.333 246.533C89.8981 245.822 90.6364 245.467 91.5479 245.467C93.111 245.467 93.8994 246.349 93.9131 248.112V253H92.6484V248.105C92.6439 247.572 92.5208 247.178 92.2793 246.923C92.0423 246.668 91.6709 246.54 91.165 246.54C90.7549 246.54 90.3949 246.649 90.085 246.868C89.7751 247.087 89.5335 247.374 89.3604 247.729V253H88.0957V245.604H89.292ZM95.5195 249.24C95.5195 248.087 95.7861 247.171 96.3193 246.492C96.8525 245.809 97.5589 245.467 98.4385 245.467C99.3408 245.467 100.045 245.786 100.551 246.424L100.612 245.604H101.768V252.822C101.768 253.779 101.483 254.534 100.913 255.085C100.348 255.636 99.5869 255.912 98.6299 255.912C98.0967 255.912 97.5749 255.798 97.0645 255.57C96.554 255.342 96.1644 255.03 95.8955 254.634L96.5518 253.875C97.0941 254.545 97.7572 254.88 98.541 254.88C99.1562 254.88 99.6348 254.707 99.9766 254.36C100.323 254.014 100.496 253.526 100.496 252.897V252.262C99.9902 252.845 99.2998 253.137 98.4248 253.137C97.5589 253.137 96.8571 252.788 96.3193 252.091C95.7861 251.394 95.5195 250.443 95.5195 249.24ZM96.791 249.384C96.791 250.218 96.9619 250.874 97.3037 251.353C97.6455 251.826 98.124 252.063 98.7393 252.063C99.5368 252.063 100.122 251.701 100.496 250.977V247.6C100.109 246.893 99.5277 246.54 98.7529 246.54C98.1377 246.54 97.6569 246.779 97.3105 247.258C96.9642 247.736 96.791 248.445 96.791 249.384ZM108.87 243.812V245.604H110.251V246.581H108.87V251.168C108.87 251.464 108.932 251.688 109.055 251.838C109.178 251.984 109.387 252.057 109.684 252.057C109.829 252.057 110.03 252.029 110.285 251.975V253C109.952 253.091 109.629 253.137 109.314 253.137C108.749 253.137 108.323 252.966 108.036 252.624C107.749 252.282 107.605 251.797 107.605 251.168V246.581H106.259V245.604H107.605V243.812H108.87ZM113.108 253H111.844V245.604H113.108V253ZM111.741 243.642C111.741 243.437 111.803 243.263 111.926 243.122C112.053 242.981 112.24 242.91 112.486 242.91C112.732 242.91 112.919 242.981 113.047 243.122C113.174 243.263 113.238 243.437 113.238 243.642C113.238 243.847 113.174 244.018 113.047 244.154C112.919 244.291 112.732 244.359 112.486 244.359C112.24 244.359 112.053 244.291 111.926 244.154C111.803 244.018 111.741 243.847 111.741 243.642ZM116.335 245.604L116.376 246.533C116.941 245.822 117.679 245.467 118.591 245.467C120.154 245.467 120.942 246.349 120.956 248.112V253H119.691V248.105C119.687 247.572 119.564 247.178 119.322 246.923C119.085 246.668 118.714 246.54 118.208 246.54C117.798 246.54 117.438 246.649 117.128 246.868C116.818 247.087 116.576 247.374 116.403 247.729V253H115.139V245.604H116.335ZM129.303 252.104C129.754 252.104 130.148 251.968 130.485 251.694C130.823 251.421 131.009 251.079 131.046 250.669H132.242C132.219 251.093 132.074 251.496 131.805 251.879C131.536 252.262 131.176 252.567 130.725 252.795C130.278 253.023 129.804 253.137 129.303 253.137C128.296 253.137 127.493 252.802 126.896 252.132C126.304 251.457 126.008 250.537 126.008 249.37V249.158C126.008 248.438 126.14 247.798 126.404 247.237C126.669 246.677 127.047 246.242 127.539 245.932C128.036 245.622 128.621 245.467 129.296 245.467C130.125 245.467 130.813 245.715 131.36 246.212C131.912 246.709 132.206 247.354 132.242 248.146H131.046C131.009 247.668 130.827 247.276 130.499 246.971C130.175 246.661 129.774 246.506 129.296 246.506C128.653 246.506 128.154 246.738 127.799 247.203C127.448 247.663 127.272 248.331 127.272 249.206V249.445C127.272 250.298 127.448 250.954 127.799 251.414C128.15 251.874 128.651 252.104 129.303 252.104ZM138.23 253C138.158 252.854 138.098 252.594 138.053 252.221C137.465 252.831 136.763 253.137 135.947 253.137C135.218 253.137 134.619 252.932 134.149 252.521C133.685 252.107 133.452 251.583 133.452 250.949C133.452 250.179 133.744 249.582 134.327 249.158C134.915 248.73 135.74 248.516 136.802 248.516H138.032V247.935C138.032 247.493 137.9 247.142 137.636 246.882C137.371 246.618 136.982 246.485 136.467 246.485C136.016 246.485 135.637 246.599 135.332 246.827C135.027 247.055 134.874 247.331 134.874 247.654H133.603C133.603 247.285 133.732 246.93 133.992 246.588C134.257 246.242 134.612 245.968 135.059 245.768C135.51 245.567 136.004 245.467 136.542 245.467C137.394 245.467 138.062 245.681 138.545 246.109C139.028 246.533 139.279 247.119 139.297 247.866V251.271C139.297 251.95 139.383 252.49 139.557 252.891V253H138.23ZM136.132 252.036C136.528 252.036 136.904 251.934 137.26 251.729C137.615 251.523 137.873 251.257 138.032 250.929V249.411H137.041C135.492 249.411 134.717 249.865 134.717 250.771C134.717 251.168 134.849 251.478 135.113 251.701C135.378 251.924 135.717 252.036 136.132 252.036ZM138.75 244.373V244.441H137.704L136.679 243.279L135.66 244.441H134.614V244.359L136.296 242.5H137.062L138.75 244.373ZM135.346 254.675C135.346 254.47 135.407 254.297 135.53 254.155C135.658 254.014 135.845 253.943 136.091 253.943C136.337 253.943 136.524 254.014 136.651 254.155C136.779 254.297 136.843 254.47 136.843 254.675C136.843 254.88 136.779 255.051 136.651 255.188C136.524 255.324 136.337 255.393 136.091 255.393C135.845 255.393 135.658 255.324 135.53 255.188C135.407 255.051 135.346 254.88 135.346 254.675ZM143.59 251.147L145.312 245.604H146.666L143.692 254.142C143.232 255.372 142.501 255.987 141.498 255.987L141.259 255.967L140.787 255.878V254.853L141.129 254.88C141.557 254.88 141.89 254.793 142.127 254.62C142.368 254.447 142.567 254.13 142.722 253.67L143.002 252.918L140.363 245.604H141.744L143.59 251.147Z" fill="#303841"/>
<rect x="81.5" y="155.5" width="53" height="17" rx="8.5" fill="white"/>
<path d="M93.9082 168H92.2148V161.473L90.1934 162.1V160.723L93.7266 159.457H93.9082V168ZM106.793 168H105.035L101.613 162.387V168H99.8555V159.469H101.613L105.041 165.094V159.469H106.793V168ZM107.971 164.783C107.971 163.811 108.201 163.027 108.662 162.434C109.127 161.84 109.752 161.543 110.537 161.543C111.232 161.543 111.773 161.781 112.16 162.258L112.23 161.66H113.766V167.789C113.766 168.344 113.639 168.826 113.385 169.236C113.135 169.646 112.781 169.959 112.324 170.174C111.867 170.389 111.332 170.496 110.719 170.496C110.254 170.496 109.801 170.402 109.359 170.215C108.918 170.031 108.584 169.793 108.357 169.5L109.107 168.469C109.529 168.941 110.041 169.178 110.643 169.178C111.092 169.178 111.441 169.057 111.691 168.814C111.941 168.576 112.066 168.236 112.066 167.795V167.455C111.676 167.896 111.162 168.117 110.525 168.117C109.764 168.117 109.146 167.82 108.674 167.227C108.205 166.629 107.971 165.838 107.971 164.854V164.783ZM109.664 164.906C109.664 165.48 109.779 165.932 110.01 166.26C110.24 166.584 110.557 166.746 110.959 166.746C111.475 166.746 111.844 166.553 112.066 166.166V163.5C111.84 163.113 111.475 162.92 110.971 162.92C110.564 162.92 110.244 163.086 110.01 163.418C109.779 163.75 109.664 164.246 109.664 164.906ZM118.746 168C118.668 167.848 118.611 167.658 118.576 167.432C118.166 167.889 117.633 168.117 116.977 168.117C116.355 168.117 115.84 167.938 115.43 167.578C115.023 167.219 114.82 166.766 114.82 166.219C114.82 165.547 115.068 165.031 115.564 164.672C116.064 164.312 116.785 164.131 117.727 164.127H118.506V163.764C118.506 163.471 118.43 163.236 118.277 163.061C118.129 162.885 117.893 162.797 117.568 162.797C117.283 162.797 117.059 162.865 116.895 163.002C116.734 163.139 116.654 163.326 116.654 163.564H114.961C114.961 163.197 115.074 162.857 115.301 162.545C115.527 162.232 115.848 161.988 116.262 161.812C116.676 161.633 117.141 161.543 117.656 161.543C118.438 161.543 119.057 161.74 119.514 162.135C119.975 162.525 120.205 163.076 120.205 163.787V166.535C120.209 167.137 120.293 167.592 120.457 167.9V168H118.746ZM117.346 166.822C117.596 166.822 117.826 166.768 118.037 166.658C118.248 166.545 118.404 166.395 118.506 166.207V165.117H117.873C117.025 165.117 116.574 165.41 116.52 165.996L116.514 166.096C116.514 166.307 116.588 166.48 116.736 166.617C116.885 166.754 117.088 166.822 117.346 166.822ZM118.494 160.816H117.105L115.488 159H117.334L118.494 160.816ZM123.779 165.604L124.951 161.66H126.768L124.219 168.984L124.078 169.318C123.699 170.146 123.074 170.561 122.203 170.561C121.957 170.561 121.707 170.523 121.453 170.449V169.166L121.711 169.172C122.031 169.172 122.27 169.123 122.426 169.025C122.586 168.928 122.711 168.766 122.801 168.539L123 168.018L120.779 161.66H122.602L123.779 165.604Z" fill="#868A96"/>
<rect x="81.5" y="155.5" width="53" height="17" rx="8.5" stroke="#F4E5E5"/>
<g clip-path="url(#clip0)">
<path d="M154.794 65.6738L152.132 67.1599C153.844 67.6872 155.317 69.0294 155.888 70.9949L157.836 77.5622C158.692 80.3905 161.924 81.6848 164.444 80.2467L172.477 75.6448L154.794 65.6738Z" fill="#D72323"/>
<path d="M162.162 81.1096C161.544 81.1096 160.926 81.0137 160.356 80.774C158.977 80.1988 157.931 79.0962 157.504 77.6581L155.555 71.0907C155.032 69.365 153.701 68.0227 151.99 67.4475L151.847 67.3996L151.752 67.0161L151.942 66.9202L154.747 65.3383L172.952 75.6447L164.491 80.4864C163.826 80.9178 162.97 81.1096 162.162 81.1096ZM152.798 67.1119C154.414 67.831 155.65 69.1732 156.125 70.899L158.074 77.4663C158.454 78.7127 159.358 79.7194 160.593 80.2467C161.829 80.7261 163.16 80.6302 164.301 80.007L171.907 75.6447L154.842 66.0094L152.798 67.1119Z" fill="#1E1E1E"/>
<path d="M165.917 76.9391L153.083 69.4609L154.509 68.598L167.391 76.1241L165.917 76.9391Z" fill="white"/>
<path d="M165.917 77.2746L165.775 77.1788L152.465 69.4609L154.509 68.2625L154.651 68.3583L167.961 76.0762L165.917 77.2746ZM153.606 69.4609L165.917 76.6035L166.82 76.0762L154.509 68.9336L153.606 69.4609Z" fill="#1E1E1E"/>
<path d="M153.083 67.5433L147.474 64.3315V69.8923L152.94 69.0294L153.083 67.5433Z" fill="#D72323"/>
<path d="M147.188 70.2278V63.8522L153.368 67.4475L153.178 69.317L147.188 70.2278ZM147.759 64.8109V69.5567L152.655 68.7897L152.75 67.7351L147.759 64.8109Z" fill="#1E1E1E"/>
<path d="M147.474 72.9601L159.215 79.8151C159.452 79.9589 159.69 79.7193 159.595 79.4796L155.887 70.9947C154.841 67.4473 150.801 65.8175 147.616 67.687L147.474 67.7829V72.9601Z" fill="#D72323"/>
<path d="M159.357 80.1507C159.262 80.1507 159.167 80.1028 159.072 80.0549L147.188 73.104V67.5912L147.474 67.4474C149.042 66.5366 150.944 66.3928 152.655 67.0639C154.366 67.735 155.65 69.1732 156.173 70.9468L159.88 79.3838C159.975 79.6234 159.928 79.8631 159.738 80.0069C159.595 80.1028 159.5 80.1507 159.357 80.1507ZM147.759 72.8164L159.357 79.5755L155.602 71.0906C155.127 69.4608 153.938 68.1665 152.417 67.5433C150.896 66.9201 149.185 67.0639 147.759 67.8789V72.8164Z" fill="#1E1E1E"/>
<path d="M71.8931 100.04C71.2751 99.2254 70.5621 99.3692 68.7558 98.9857C67.2347 98.6502 65.6185 98.6502 64.0974 99.0337C62.5763 99.4172 61.6731 99.6568 61.0552 100.376L60.2471 100.807V102.485V102.533C60.2946 103.684 61.1978 104.738 63.0041 105.505C64.8104 106.272 66.8544 106.368 68.7558 105.889C71.4653 105.218 72.7962 103.875 72.8438 102.485V102.437V100.807L71.8931 100.04Z" fill="#D72323"/>
<path d="M66.5694 106.512C65.3335 106.512 64.0976 106.272 63.0043 105.793C61.1504 105.026 60.1047 103.875 60.0571 102.581V100.663L60.9603 100.184C61.6733 99.4171 62.6715 99.1295 64.0976 98.7939C65.6187 98.4104 67.2824 98.3625 68.851 98.746C69.3264 98.8418 69.7542 98.9377 70.0869 98.9857C70.9901 99.1295 71.5605 99.2253 72.0834 99.8485L73.1767 100.711V102.581C73.1292 104.211 71.513 105.601 68.851 106.224C68.138 106.416 67.3299 106.512 66.5694 106.512ZM60.58 100.999V102.485C60.6275 103.588 61.5307 104.546 63.1944 105.217C64.9057 105.937 66.9021 106.08 68.756 105.601C71.0852 105.026 72.6063 103.827 72.6538 102.485V102.389V100.951L71.7031 100.184C71.3228 99.7047 70.895 99.6088 70.0394 99.465C69.7067 99.4171 69.2789 99.3212 68.756 99.2253C67.2824 98.8898 65.7138 98.8898 64.2402 99.2733C62.7191 99.6568 61.911 99.8965 61.3406 100.52L61.2455 100.568L60.58 100.999Z" fill="#1E1E1E"/>
<path d="M66.617 104.546C70.1086 104.546 72.9391 102.894 72.9391 100.855C72.9391 98.8167 70.1086 97.1641 66.617 97.1641C63.1254 97.1641 60.2949 98.8167 60.2949 100.855C60.2949 102.894 63.1254 104.546 66.617 104.546Z" fill="white"/>
<path d="M66.6171 104.786C64.9534 104.786 63.2897 104.403 62.0062 103.683C60.7228 102.916 60.0098 101.91 60.0098 100.855C60.0098 99.8006 60.7228 98.7459 62.0062 98.0269C64.5256 96.5408 68.6611 96.5408 71.2279 98.0269C72.5114 98.7939 73.2244 99.8006 73.2244 100.855C73.2244 101.91 72.5114 102.964 71.2279 103.683C69.9445 104.45 68.2808 104.786 66.6171 104.786ZM66.6171 97.4516C65.0484 97.4516 63.4798 97.7872 62.2914 98.5063C61.1981 99.1294 60.5802 99.9923 60.5802 100.855C60.5802 101.718 61.1981 102.581 62.2914 103.204C64.6682 104.594 68.566 104.594 70.9427 103.204C72.036 102.581 72.654 101.718 72.654 100.855C72.654 99.9923 72.036 99.1294 70.9427 98.5063C69.7544 97.7872 68.1857 97.4516 66.6171 97.4516Z" fill="#1E1E1E"/>
<path d="M70.3722 104.019H69.9443V105.409H70.3722V104.019Z" fill="#39A1FF"/>
<path d="M65.6567 100.055C65.7313 99.9998 65.8117 99.9448 65.8979 99.8899L65.8979 99.89L65.8988 99.8894C66.0545 99.7891 66.2218 99.7026 66.4007 99.6299L66.5894 99.5532L66.5092 99.3659L66.1669 98.5659L66.0913 98.3892L65.9117 98.4578C65.5003 98.6148 65.115 98.8492 64.7558 99.1585L64.5235 98.9273L64.3817 98.7862L64.2407 98.928L63.9062 99.2642L63.7651 99.406L63.9069 99.547L64.1569 99.7958C63.9232 100.111 63.7782 100.44 63.7331 100.781C63.6787 101.185 63.8042 101.542 64.0978 101.834C64.2811 102.016 64.4843 102.144 64.7081 102.204C64.9325 102.265 65.1842 102.257 65.4556 102.194L65.4556 102.195L65.4605 102.193C65.6941 102.133 65.9664 102.036 66.2761 101.904L66.782 102.408C66.6493 102.511 66.5009 102.609 66.3364 102.703C66.0939 102.837 65.8782 102.935 65.6886 103.001L65.3862 103.106L65.6132 103.332L66.2604 103.976L66.3519 104.067L66.4725 104.021C66.6907 103.938 66.9083 103.826 67.1252 103.685L67.1252 103.685L67.1283 103.683C67.2976 103.568 67.4716 103.431 67.6502 103.272L68.0064 103.626L68.1481 103.767L68.2892 103.625L68.6237 103.289L68.7648 103.147L68.623 103.006L68.2472 102.632C68.5154 102.271 68.6698 101.913 68.6828 101.559C68.6973 101.162 68.5596 100.816 68.2764 100.535C68.054 100.313 67.8014 100.179 67.5199 100.158C67.2673 100.136 67.0088 100.176 66.7466 100.271C66.5391 100.343 66.3308 100.425 66.1217 100.517L65.6567 100.055ZM67.188 101.564L67.1881 101.565L67.2009 101.563C67.2516 101.558 67.2756 101.571 67.2955 101.591C67.3338 101.629 67.3454 101.663 67.3427 101.706C67.3423 101.714 67.3414 101.721 67.34 101.73L67.1745 101.565C67.1791 101.565 67.1837 101.564 67.188 101.564ZM65.1139 100.813C65.0846 100.784 65.0777 100.76 65.081 100.727C65.0814 100.724 65.0819 100.72 65.0825 100.717L65.2204 100.854C65.2189 100.854 65.2174 100.854 65.2159 100.854C65.176 100.856 65.1458 100.845 65.1139 100.813Z" fill="#D72323" stroke="#1E1E1E" stroke-width="0.4"/>
<path d="M79.5939 103.252C79.2611 102.245 78.5481 102.149 77.027 101.143C75.7435 100.28 74.2224 99.7046 72.6538 99.5608C71.0851 99.369 70.182 99.2732 69.3264 99.7525L68.4232 99.8484L67.8528 101.43V101.478C67.4725 102.533 67.9478 103.875 69.4214 105.217C70.8475 106.56 72.7013 107.422 74.6502 107.662C77.4073 107.998 79.166 107.231 79.6889 105.936L79.7365 105.888L80.3069 104.355L79.5939 103.252Z" fill="#D72323"/>
<path d="M75.9339 107.998C75.5061 107.998 75.0783 107.95 74.6505 107.902C72.6065 107.662 70.7051 106.751 69.2791 105.409C67.8055 104.019 67.2351 102.581 67.6629 101.334V101.287L68.3284 99.5608L69.3266 99.4649C70.2297 98.9856 71.323 99.1294 72.7491 99.2732C74.3177 99.4649 75.8864 100.04 77.2173 100.903C77.6452 101.191 77.9779 101.382 78.3106 101.574C79.1187 102.054 79.5941 102.341 79.8793 103.108L80.5923 104.307L79.9268 106.032C79.4039 107.279 77.9304 107.998 75.9339 107.998ZM68.6611 100.088L68.1382 101.478C67.8055 102.533 68.3284 103.731 69.6118 104.978C70.9428 106.272 72.7491 107.087 74.698 107.327C77.1223 107.614 78.9286 107.039 79.4515 105.793L79.499 105.697L80.0219 104.355L79.4039 103.3C79.2138 102.677 78.8811 102.485 78.073 102.054C77.7878 101.862 77.4075 101.67 76.9321 101.382C75.6487 100.52 74.1751 99.9922 72.7015 99.8484C71.1329 99.6567 70.2773 99.6087 69.5167 99.9922L69.4217 100.04L68.6611 100.088Z" fill="#1E1E1E"/>
<path d="M80.263 104.333C80.981 102.428 78.9171 99.869 75.6532 98.6183C72.3892 97.3676 69.1612 97.8985 68.4432 99.8041C67.7251 101.71 69.789 104.269 73.053 105.519C76.3169 106.77 79.545 106.239 80.263 104.333Z" fill="white"/>
<path d="M76.5519 106.464C73.8424 106.464 70.7051 105.074 69.0889 103.06C68.1382 101.91 67.853 100.711 68.2333 99.7046C68.6136 98.6979 69.6118 97.9789 71.0854 97.7392C73.985 97.2598 77.8353 98.7459 79.6891 101.047C80.6398 102.197 80.925 103.396 80.5448 104.402C80.1645 105.409 79.1663 106.128 77.6927 106.368C77.3124 106.464 76.9321 106.464 76.5519 106.464ZM72.2262 98.2186C71.8459 98.2186 71.5132 98.2665 71.1804 98.3144C69.9445 98.5062 69.0414 99.0814 68.7562 99.8964C68.4234 100.711 68.7086 101.718 69.5167 102.725C71.2755 104.882 74.8881 106.272 77.5976 105.841C78.8335 105.649 79.7367 105.074 80.0219 104.259C80.3071 103.444 80.0694 102.437 79.2613 101.43C77.7402 99.5608 74.7455 98.2186 72.2262 98.2186Z" fill="#1E1E1E"/>
<path d="M83.1117 77.9458L86.0114 77.9937C86.0589 77.9937 86.1064 77.9937 86.154 77.9458L97.2295 71.5222C97.895 71.1387 98.9408 71.0907 99.5112 71.4263L124.61 86.0471H124.657L132.976 88.8754C133.071 88.9234 133.166 89.0192 133.166 89.163V91.2723C133.213 91.5599 133.071 91.8955 132.643 92.1351L118.81 100.189C118.145 100.572 117.099 100.62 116.529 100.284L83.2543 80.9179C82.9691 80.774 82.8741 80.5344 82.8741 80.3426V78.2334C82.8265 78.0416 82.9691 77.9458 83.1117 77.9458Z" fill="#1E1E1E"/>
<path d="M116.386 100.524L83.1118 81.1575C82.779 80.9658 82.5889 80.6781 82.5889 80.3426V78.2333C82.5889 78.0895 82.6364 77.9457 82.7315 77.8498C82.8265 77.754 82.9691 77.6581 83.1118 77.706L86.0114 77.754L97.0869 71.3304C97.8475 70.899 98.9883 70.851 99.6538 71.2345L124.752 85.8553L133.071 88.6836C133.308 88.7795 133.451 88.9713 133.451 89.2109V91.2722C133.546 91.7037 133.261 92.1351 132.786 92.4227L118.953 100.428C118.525 100.668 118.002 100.812 117.527 100.812C117.099 100.764 116.719 100.668 116.386 100.524ZM97.3722 71.7618L86.2966 78.1854C86.2015 78.2333 86.1064 78.2813 86.0114 78.2813L83.1118 78.2333V77.9457V80.3426C83.1118 80.4864 83.2544 80.6302 83.3494 80.6781L116.624 100.045C117.147 100.332 118.05 100.284 118.668 99.9489L132.5 91.8954C132.785 91.7037 132.976 91.5119 132.928 91.3202V89.1151L124.61 86.2868C124.562 86.2868 124.562 86.2388 124.514 86.2388L99.4161 71.618C99.1785 71.4742 98.8933 71.4263 98.5605 71.4263C98.1327 71.4742 97.7049 71.5701 97.3722 71.7618Z" fill="#1E1E1E"/>
<path d="M83.2544 78.569L116.529 97.9356C117.099 98.2711 118.145 98.2232 118.81 97.8397L132.643 89.7863C133.308 89.4028 133.404 88.7796 132.786 88.444L99.5113 69.0774C98.9409 68.7419 97.8951 68.7898 97.2296 69.1733L83.397 77.2267C82.7316 77.6582 82.6365 78.2334 83.2544 78.569Z" fill="white"/>
<path d="M116.386 98.1752L83.1118 78.8086C82.779 78.6168 82.5889 78.3292 82.5889 77.9937C82.5889 77.6102 82.8265 77.2746 83.3019 76.987L97.1345 68.9335C97.895 68.5021 99.0359 68.4542 99.7014 68.8377L132.976 88.2043C133.308 88.396 133.499 88.6836 133.499 89.0192C133.499 89.4027 133.261 89.7383 132.785 90.0259L118.953 98.0793C118.525 98.319 118.002 98.4628 117.527 98.4628C117.099 98.4628 116.719 98.367 116.386 98.1752ZM97.3722 69.4129L83.5396 77.4664C83.2544 77.6102 83.1118 77.8019 83.1118 77.9937C83.1118 78.1375 83.2544 78.2813 83.397 78.3292L116.671 97.6958C117.194 97.9835 118.097 97.9355 118.715 97.6L132.548 89.5465C132.833 89.4027 132.976 89.211 132.976 89.0192C132.976 88.8754 132.833 88.7316 132.69 88.6836L99.4161 69.317C99.1785 69.1732 98.8933 69.1253 98.5605 69.1253C98.1327 69.1253 97.7049 69.2212 97.3722 69.4129Z" fill="#1E1E1E"/>
<path d="M131.93 90.4094H131.502V92.3748H131.93V90.4094Z" fill="#39A1FF"/>
<path d="M69.1364 1.82151C69.0888 1.77357 69.1364 1.72563 69.1364 1.72563L71.6082 0.335456C71.7508 0.239581 71.9409 0.239581 72.131 0.335456L146.713 43.7665C147.093 44.0062 147.426 44.6294 147.426 45.1567V102.729C147.426 103.017 147.331 103.209 147.236 103.304L144.621 104.743L142.007 101.579L143.005 101.147L72.0835 59.8254C71.7032 59.5858 71.3705 58.9626 71.3705 58.4353V4.93742L69.1364 1.82151Z" fill="white"/>
<path d="M141.627 101.531L142.482 101.147L71.9885 60.1131C71.5132 59.8255 71.1329 59.1064 71.1329 58.4833V5.03336L68.8988 1.96539C68.8512 1.86951 68.8037 1.77364 68.8512 1.67776C68.8512 1.58189 68.9463 1.48601 69.0414 1.43808L71.4656 0.0958378C71.7033 -0.0959108 71.9885 -0.0959108 72.2737 0.0958378L146.856 43.5269C147.331 43.8145 147.711 44.5336 147.711 45.1567V102.729C147.711 103.065 147.616 103.352 147.379 103.544L144.574 105.126L141.627 101.531ZM71.7508 0.575209L69.4692 1.86951L71.6558 4.88955V58.4833C71.6558 58.9147 71.941 59.4899 72.2737 59.6338L143.671 101.243L142.482 101.771L144.717 104.455L147.093 103.113C147.141 103.065 147.188 102.969 147.188 102.777V45.2047C147.188 44.7732 146.903 44.198 146.57 44.0542L71.9885 0.575209C71.941 0.575209 71.8935 0.527272 71.8459 0.527272C71.8459 0.527272 71.7984 0.527272 71.7508 0.575209Z" fill="#1E1E1E"/>
<path d="M69.5167 61.3596L144.146 104.791C144.526 105.03 144.859 104.791 144.859 104.215V46.6429C144.859 46.1155 144.526 45.4924 144.146 45.2527L69.5167 1.82164C69.1365 1.58195 68.8037 1.82164 68.8037 2.39688V59.9214C68.8037 60.4967 69.1365 61.1199 69.5167 61.3596Z" fill="#1E1E1E"/>
<path d="M144.003 105.03L69.4215 61.5992C68.9462 61.3116 68.5659 60.5925 68.5659 59.9693V2.34891C68.5659 1.96541 68.7085 1.67779 68.9462 1.53398C69.1839 1.39016 69.4215 1.4381 69.7068 1.58191L144.289 45.013C144.764 45.3006 145.144 46.0196 145.144 46.6428V104.215C145.144 104.599 145.002 104.886 144.764 105.03C144.669 105.078 144.574 105.126 144.431 105.126C144.289 105.126 144.146 105.078 144.003 105.03ZM69.1839 2.01335C69.1363 2.06128 69.0413 2.15716 69.0413 2.39684V59.9214C69.0413 60.3528 69.3265 60.9281 69.6592 61.0719L144.241 104.503C144.289 104.551 144.384 104.599 144.431 104.551C144.479 104.503 144.574 104.407 144.574 104.167V46.6428C144.574 46.2114 144.289 45.6361 143.956 45.4923L69.4215 2.06128C69.374 2.06128 69.3265 2.01335 69.2789 2.01335C69.2314 2.01335 69.1839 2.01335 69.1839 2.01335Z" fill="#1E1E1E"/>
<path d="M69.6595 60.2569L144.051 103.544C144.146 103.592 144.289 103.544 144.289 103.4V46.3552C144.289 46.2114 144.194 46.0196 144.051 45.9237L69.6595 2.63651C69.5645 2.58857 69.4219 2.63651 69.4219 2.78032V59.8255C69.4219 60.0173 69.5169 60.209 69.6595 60.2569Z" fill="#F6F3F9"/>
<g clip-path="url(#clip1)">
<path d="M120.581 45.9806L122.776 43.2309L134.093 49.9638L136.163 54.6719L136.401 69.0089L120.809 59.7324L120.581 45.9806Z" fill="#F1F1F1"/>
<path d="M136.658 55.0406C136.654 54.9977 136.646 54.9548 136.635 54.9088C136.624 54.8628 136.611 54.8192 136.594 54.7731C136.587 54.7531 136.585 54.7332 136.576 54.7119L134.441 49.8567C134.342 49.6328 134.178 49.4351 134.005 49.332L122.593 42.543C122.42 42.4399 122.26 42.445 122.166 42.5554L120.152 44.9418C120.143 44.952 120.142 44.9694 120.135 44.982C120.119 45.0084 120.107 45.0372 120.097 45.0708C120.088 45.1045 120.081 45.1388 120.079 45.178C120.077 45.1936 120.07 45.205 120.07 45.2243L120.3 59.1042C120.311 59.7704 120.786 60.5882 121.358 60.9283L135.881 69.5689C136.453 69.909 136.91 69.6454 136.899 68.9791L136.668 55.0993C136.668 55.08 136.661 55.06 136.658 55.0406ZM133.747 50.3736L135.171 53.6108L130.355 50.7458L129.969 48.1258L133.747 50.3736ZM127.721 46.7883L129.969 48.1258L130.355 50.7458L127.415 48.9967L127.721 46.7883ZM122.892 43.9153L127.721 46.7883L127.415 48.9967L121.548 45.5059L122.892 43.9153Z" fill="#D72323"/>
<path d="M131.877 53.3409C131.853 53.232 131.768 53.1595 131.659 53.1232C131.187 53.0264 130.692 52.9902 130.208 53.0022C128.394 53.0022 127.305 53.9697 126.495 55.2517L124.669 55.2517C124.355 55.2638 124.076 55.4452 123.919 55.7112L123.048 57.4527C123.024 57.5132 123.012 57.5737 123 57.6462C123 57.876 123.194 58.0695 123.423 58.0695L125.249 58.0695L124.862 58.4565C124.645 58.6742 124.645 59.0249 124.862 59.2547L125.757 60.1497C125.975 60.3673 126.326 60.3673 126.556 60.1497L126.955 59.7506L126.955 61.5767C126.955 61.8065 127.136 62 127.378 62C127.438 62 127.499 61.9879 127.559 61.9637L129.289 61.093C129.567 60.9357 129.736 60.6576 129.748 60.3432L129.748 58.4928C131.03 57.6825 131.998 56.5941 131.998 54.7921C132.01 54.3084 131.974 53.8246 131.877 53.3409ZM129.748 55.9531C129.361 55.9531 129.047 55.6387 129.047 55.2517C129.047 54.8647 129.361 54.5502 129.748 54.5502C130.135 54.5502 130.45 54.8647 130.45 55.2517C130.45 55.6387 130.135 55.9531 129.748 55.9531Z" fill="white"/>
</g>
<path d="M143.909 103.832L69.5168 60.4966C69.3267 60.4008 69.1841 60.1131 69.1841 59.8735V2.82826C69.1841 2.63651 69.2791 2.4927 69.3742 2.44477C69.5168 2.39683 69.6594 2.39683 69.802 2.44477L144.146 45.732C144.336 45.8279 144.479 46.1155 144.479 46.3552V103.4C144.479 103.592 144.384 103.736 144.289 103.784C144.241 103.832 144.146 103.832 144.099 103.832C144.051 103.88 143.956 103.832 143.909 103.832ZM69.707 59.8735C69.707 59.9693 69.7545 60.0173 69.802 60.0652L144.004 103.257V46.3552C144.004 46.2593 143.956 46.2114 143.909 46.1634L69.707 2.97207V59.8735Z" fill="#1E1E1E"/>
<path d="M68.8037 60.0173V56.7096L144.859 101.003V104.311C144.859 104.838 144.526 105.03 144.099 104.791L69.5643 61.3595C69.1365 61.1198 68.8037 60.4966 68.8037 60.0173Z" fill="#1E1E1E"/>
<path d="M102.143 77.9565L101.929 78.3301L111.559 83.9432L111.773 83.5697L102.143 77.9565Z" fill="#39A1FF"/>
<path d="M147.367 44.1239L144.8 45.6783L145.069 46.1305L147.637 44.5761L147.367 44.1239Z" fill="#1E1E1E"/>
<path d="M79.8023 25.2185C79.8023 25.8896 79.6121 26.321 79.2319 26.4648C78.8516 26.6086 78.3287 26.5128 77.6632 26.0813L77.1403 25.7937V28.0468L75.9995 27.3756V21L77.7583 22.0067C78.4238 22.3902 78.9467 22.8695 79.2794 23.3969C79.6597 23.9721 79.8023 24.5473 79.8023 25.2185ZM77.1879 24.6912L77.5682 24.9308C77.9484 25.1226 78.1861 25.2185 78.3762 25.1705C78.5664 25.1226 78.6615 24.9308 78.6615 24.5953C78.6615 24.2597 78.5664 24.02 78.4238 23.7803C78.2812 23.5407 78.0435 23.3489 77.7108 23.1572L77.1879 22.8695V24.6912Z" fill="#D72323"/>
<path d="M83.4151 31.6899L83.1774 30.875H83.1299C82.9398 31.0668 82.7496 31.1147 82.5119 31.1147C82.3218 31.1147 82.0366 31.0188 81.7038 30.8271C81.3236 30.5874 80.9908 30.2518 80.7532 29.8683C80.5155 29.4848 80.4204 29.0055 80.4204 28.5261C80.4204 27.9988 80.563 27.7112 80.8958 27.6632C81.2285 27.6153 81.6563 27.7591 82.3218 28.0946L83.0348 28.4781V28.2864C83.0348 27.807 82.7971 27.4235 82.3693 27.1838C82.0366 26.9921 81.6563 26.8962 81.181 26.8483L80.8007 25.7457C81.276 25.7457 81.7989 25.8895 82.4169 26.2251C82.9873 26.5607 83.4151 26.9442 83.7003 27.4235C83.9855 27.9029 84.1281 28.3823 84.1281 29.0055V32.2652L83.4151 31.6899ZM83.0824 29.2451L82.6545 29.0055C82.3218 28.8137 82.0841 28.7658 81.894 28.7658C81.7514 28.8137 81.6563 28.9575 81.6563 29.1972C81.6563 29.5807 81.8465 29.8683 82.2267 30.0601C82.5119 30.2039 82.7021 30.2518 82.8447 30.156C82.9873 30.0601 83.0824 29.8683 83.0824 29.5807V29.2451Z" fill="#D72323"/>
<path d="M84.7935 27.6154L86.0294 28.3344L86.8374 31.5462C86.885 31.8338 86.9325 32.1214 86.9801 32.457C87.0276 32.1694 87.0751 31.9297 87.1227 31.69L87.8832 29.389L89.1191 30.1081L87.3603 34.5662C87.2177 34.9977 86.98 35.2374 86.6473 35.2853C86.3621 35.3812 85.9818 35.2853 85.6015 35.0456C85.4114 34.9497 85.2213 34.8059 85.0311 34.6142V33.5596C85.1737 33.6554 85.3163 33.7992 85.4589 33.8951C85.6491 33.991 85.8392 34.0389 85.9818 33.991C86.1244 33.9431 86.267 33.7992 86.3146 33.5596L86.3621 33.3678L84.7935 27.6154Z" fill="#D72323"/>
<path d="M93.5397 37.5862L92.3989 36.9151V34.0388C92.3989 33.7033 92.3514 33.4157 92.2563 33.176C92.1612 32.9363 92.0186 32.7445 91.7809 32.6487C91.4957 32.4569 91.2581 32.4569 91.163 32.6487C91.0204 32.8404 90.9729 33.176 90.9729 33.7512V36.0522L89.832 35.3811V30.5394L90.6876 31.0667L90.8303 31.7858L90.8778 31.8337C90.9729 31.6899 91.163 31.594 91.3531 31.594C91.5433 31.594 91.8285 31.6899 92.0662 31.8337C92.6841 32.2172 93.1119 32.6966 93.3496 33.2718L93.4447 33.3198C93.5397 33.176 93.7299 33.0801 93.92 33.0801C94.1577 33.0801 94.3954 33.176 94.6806 33.3198C95.1559 33.6074 95.5362 33.943 95.7739 34.3744C96.0115 34.8058 96.1541 35.3331 96.1541 35.9563V39.1202L95.0133 38.4491V35.5728C95.0133 35.2373 94.9658 34.9497 94.8707 34.71C94.7756 34.4703 94.633 34.2785 94.3954 34.1827C94.1101 34.0388 93.92 33.9909 93.7774 34.1827C93.6348 34.3265 93.5873 34.662 93.5873 35.1893V37.5862H93.5397Z" fill="#D72323"/>
<path d="M99.1967 40.9897C98.5312 40.6062 98.0083 40.0789 97.628 39.4078C97.2478 38.7367 97.0576 38.0176 97.0576 37.2506C97.0576 36.4357 97.2478 35.9084 97.5805 35.6687C97.9132 35.429 98.4361 35.477 99.0541 35.8605C99.6245 36.196 100.1 36.6754 100.433 37.2506C100.765 37.8259 100.908 38.497 100.908 39.1681V39.7913L98.1984 38.2094C98.1984 38.5929 98.2935 38.9284 98.4837 39.264C98.6738 39.5996 98.9115 39.8393 99.2442 40.031C99.4819 40.1748 99.7196 40.2707 99.9572 40.3666C100.195 40.4145 100.433 40.4624 100.67 40.4624V41.5171C100.48 41.5171 100.242 41.4691 100.052 41.4212C99.8146 41.3253 99.5294 41.1815 99.1967 40.9897ZM99.0541 36.7713C98.8164 36.6275 98.6263 36.6275 98.4837 36.7233C98.3411 36.8192 98.246 37.011 98.246 37.3465L99.8622 38.3053C99.8622 37.9697 99.7671 37.6821 99.6245 37.3945C99.4819 37.1068 99.2917 36.9151 99.0541 36.7713Z" fill="#D72323"/>
<path d="M105.709 44.6809L104.568 44.0098V41.1336C104.568 40.798 104.52 40.4625 104.425 40.2707C104.33 40.031 104.14 39.8393 103.902 39.6955C103.57 39.5037 103.332 39.5037 103.189 39.6475C103.047 39.7913 102.999 40.1748 102.999 40.7501V43.0511L101.858 42.3799V37.4904L102.714 38.0177L102.857 38.7367L102.904 38.7847C103.047 38.6409 103.189 38.545 103.427 38.545C103.665 38.545 103.902 38.6409 104.188 38.7847C104.663 39.0723 105.043 39.4558 105.281 39.8872C105.519 40.3186 105.661 40.846 105.661 41.4212V44.6809H105.709Z" fill="#D72323"/>
<path d="M108.656 45.448C108.846 45.5438 109.084 45.6397 109.369 45.7356V46.7423C109.084 46.7423 108.751 46.5985 108.323 46.3588C107.848 46.0711 107.515 45.7835 107.325 45.3521C107.135 44.9686 106.992 44.4892 106.992 43.9619V41.613L106.422 41.2774V40.7022L107.04 40.6063L107.373 39.7914L108.086 40.2228V41.2774L109.274 41.9486V42.9552L108.086 42.2841V44.633C108.086 44.8248 108.133 44.9686 108.228 45.1124C108.418 45.2083 108.513 45.3521 108.656 45.448Z" fill="#D72323"/>
<path d="M134.972 77.754L114.057 65.578C113.487 65.2424 113.011 64.3316 113.011 63.5167C113.011 62.7018 113.487 62.3662 114.057 62.7018L134.972 74.8778C135.543 75.2134 136.018 76.1242 136.018 76.9391C136.066 77.754 135.59 78.0896 134.972 77.754Z" fill="#423852"/>
<path d="M135.4 78.1855C135.21 78.1855 135.02 78.1375 134.83 77.9937L113.914 65.8177C113.249 65.4342 112.726 64.4275 112.726 63.5167C112.726 62.9894 112.916 62.6059 113.249 62.4142C113.534 62.2703 113.867 62.2703 114.247 62.4621L135.162 74.6381C135.828 75.0216 136.351 76.0283 136.351 76.9391C136.351 77.4664 136.161 77.8499 135.828 78.0417C135.685 78.1375 135.543 78.1855 135.4 78.1855ZM113.629 62.8456C113.582 62.8456 113.534 62.8456 113.487 62.8935C113.344 62.9894 113.249 63.2291 113.249 63.5167C113.249 64.1878 113.677 65.0507 114.152 65.3383L135.067 77.5144C135.162 77.5623 135.353 77.6582 135.495 77.5623C135.638 77.4664 135.733 77.2267 135.733 76.9391C135.733 76.268 135.305 75.4051 134.83 75.1175L113.914 62.9415C113.867 62.9415 113.772 62.8456 113.629 62.8456Z" fill="#1E1E1E"/>
<path d="M133.071 75.6447L122.756 81.5889C118.81 83.8899 115.816 87.5811 114.39 91.9433L110.682 103.113C108.781 108.913 104.788 113.803 99.5113 116.823L91.1452 121.616L74.9834 112.029L83.4921 107.044C88.6259 104.023 92.5237 99.2298 94.4726 93.5732L98.3705 82.1162C99.844 77.8498 102.744 74.2066 106.642 71.9536L116.576 66.1052L133.071 75.6447Z" fill="#D72323"/>
<path d="M91.1927 122L74.4604 112.077L83.397 106.852C88.4832 103.88 92.3335 99.134 94.2349 93.5253L98.1327 82.0683C99.6063 77.7061 102.601 74.0628 106.546 71.7619L116.624 65.8656L133.641 75.6448L122.946 81.8766C119 84.1296 116.101 87.7249 114.675 92.0393L110.967 103.209C109.018 109.105 105.025 113.994 99.7014 117.11L91.1927 122ZM75.5537 112.077L91.1927 121.329L99.4162 116.583C104.645 113.563 108.543 108.769 110.444 103.017L114.152 91.8475C115.625 87.3894 118.62 83.6982 122.661 81.3493L132.5 75.5968L116.624 66.4888L106.832 72.2412C103.029 74.4943 100.129 78.0416 98.7031 82.2601L94.8053 93.7171C92.8564 99.4695 88.911 104.311 83.6822 107.331L75.5537 112.077Z" fill="#1E1E1E"/>
<path d="M87.1997 111.262C88.4831 110.639 90.5271 110.735 91.7155 111.55C92.9039 112.365 92.8563 113.515 91.5254 114.186C90.2419 114.809 88.1979 114.714 87.0096 113.899C85.8687 113.084 85.9163 111.885 87.1997 111.262Z" fill="white"/>
<path d="M86.8195 114.09C86.154 113.659 85.8213 113.084 85.8213 112.461C85.8688 111.885 86.2966 111.358 87.0097 110.975C88.4357 110.255 90.6223 110.399 91.9533 111.31C92.6187 111.742 92.9515 112.317 92.9515 112.94C92.904 113.515 92.4761 114.043 91.7631 114.426C91.1452 114.714 90.4321 114.857 89.6716 114.857C88.6258 114.857 87.5801 114.618 86.8195 114.09ZM87.1998 111.358C86.6294 111.646 86.2966 112.029 86.2491 112.509C86.2016 112.94 86.4868 113.371 87.0572 113.755C88.2456 114.57 90.2895 114.714 91.573 114.043C92.1434 113.755 92.4761 113.371 92.5237 112.892C92.5712 112.461 92.286 112.029 91.7156 111.646C91.0501 111.166 90.0519 110.927 89.1487 110.927C88.4357 110.975 87.7702 111.118 87.1998 111.358Z" fill="#1E1E1E"/>
<path d="M90.1945 112.029L90.4322 113.036C90.4322 113.132 90.4322 113.18 90.3847 113.228C90.2421 113.371 90.0044 113.419 89.7667 113.371L88.103 113.084C87.9129 113.036 87.7703 112.94 87.8178 112.796C87.8653 112.7 88.0555 112.604 88.2456 112.652L89.6241 112.892L89.434 112.077C89.3865 111.933 89.5291 111.837 89.7667 111.837C89.9569 111.837 90.147 111.933 90.1945 112.029Z" fill="#1E1E1E"/>
<path d="M123.849 78.9525L110.967 71.4743L112.441 70.6115L125.323 78.0896L123.849 78.9525Z" fill="white"/>
<path d="M123.849 79.2881L123.707 79.1922L110.397 71.4743L112.441 70.2759L112.584 70.3718L125.893 78.0896L123.849 79.2881ZM111.538 71.4743L123.849 78.6169L124.752 78.0896L112.441 70.947L111.538 71.4743Z" fill="#1E1E1E"/>
<path d="M126.702 77.2747L113.867 69.7485L115.293 68.9336L128.175 76.4118L126.702 77.2747Z" fill="white"/>
<path d="M126.701 77.5624L126.559 77.4665L113.249 69.7486L115.293 68.5502L115.436 68.646L128.745 76.3639L126.701 77.5624ZM114.39 69.7486L126.701 76.8912L127.604 76.3639L115.293 69.2213L114.39 69.7486Z" fill="#1E1E1E"/>
<path d="M120.997 80.6783L108.115 73.2002L109.588 72.3373L122.423 79.8155L120.997 80.6783Z" fill="white"/>
<path d="M120.997 81.0139L120.854 80.918L107.544 73.2001L109.588 72.0017L109.731 72.0976L123.041 79.8155L120.997 81.0139ZM108.685 73.2001L120.997 80.3428L121.9 79.8155L109.588 72.6728L108.685 73.2001Z" fill="#1E1E1E"/>
<path d="M103.98 76.0283C103.647 76.4118 103.314 76.7474 102.981 77.1309L115.911 84.6091C116.244 84.2256 116.576 83.8421 116.909 83.5065L103.98 76.0283Z" fill="white"/>
<path d="M115.958 84.9447L102.506 77.1789L102.696 76.9392C102.981 76.5557 103.314 76.1722 103.694 75.7887L103.837 75.6449L117.289 83.4107L117.051 83.6504C116.719 83.986 116.386 84.3695 116.053 84.753L115.958 84.9447ZM103.409 77.083L115.863 84.2736C116.053 84.0339 116.291 83.7942 116.481 83.6025L104.027 76.4119C103.789 76.6036 103.599 76.8433 103.409 77.083Z" fill="#1E1E1E"/>
<path d="M101.127 80.2467L114.009 87.677C114.247 87.2456 114.485 86.8141 114.77 86.4306L101.84 79.0004C101.65 79.3839 101.365 79.8153 101.127 80.2467Z" fill="white"/>
<path d="M114.152 88.0605L100.795 80.3426L100.938 80.103C101.175 79.6715 101.413 79.2401 101.698 78.8087L101.841 78.569L115.245 86.2868L115.055 86.5265C114.77 86.91 114.532 87.3415 114.295 87.7729L114.152 88.0605ZM101.508 80.1509L113.914 87.2935C114.057 87.0538 114.2 86.7662 114.39 86.5265L101.983 79.3839C101.841 79.6236 101.651 79.8633 101.508 80.1509Z" fill="#1E1E1E"/>
<path d="M98.2754 88.2522L110.872 95.5866L111.347 94.1964L98.7507 86.8141L98.2754 88.2522Z" fill="white"/>
<path d="M111.015 96.0181L97.895 88.3961L98.5605 86.4307L111.633 94.0527L111.015 96.0181ZM98.608 88.1085L110.729 95.1552L111.015 94.2924L98.8933 87.2456L98.608 88.1085Z" fill="#1E1E1E"/>
<path d="M97.1821 91.7037L109.779 99.0861L110.254 97.6479L97.6575 90.2656L97.1821 91.7037Z" fill="white"/>
<path d="M109.921 99.4696L96.8018 91.8476L97.4672 89.8822L110.539 97.5042L109.921 99.4696ZM97.5148 91.56L109.636 98.6068L109.921 97.7439L97.8475 90.6971L97.5148 91.56Z" fill="#1E1E1E"/>
<path d="M95.9463 94.9635L108.543 102.298L109.018 100.908L96.4692 93.5254L95.9463 94.9635Z" fill="white"/>
<path d="M108.733 102.729L95.6133 95.1074L96.2788 93.142L109.351 100.764L108.733 102.729ZM96.3263 94.8198L108.448 101.867L108.733 101.004L96.6115 93.9569L96.3263 94.8198Z" fill="#1E1E1E"/>
<path d="M90.6318 100.899L90.3403 101.394L106.48 111.07L106.772 110.575L90.6318 100.899Z" fill="#1E1E1E"/>
<path d="M90.4482 103.442L90.1567 103.937L99.473 109.522L99.7645 109.027L90.4482 103.442Z" fill="#1E1E1E"/>
<path d="M98.4321 82.013L98.1406 82.5074L114.281 92.1833L114.572 91.6888L98.4321 82.013Z" fill="#1E1E1E"/>
<path d="M89.0205 104.799L88.729 105.294L98.0453 110.879L98.3367 110.384L89.0205 104.799Z" fill="#1E1E1E"/>
<path d="M95.29 96.9947L94.9985 97.4891L104.315 103.074L104.606 102.58L95.29 96.9947Z" fill="#1E1E1E"/>
<path d="M110.017 115.193C109.399 114.378 108.686 114.522 106.879 114.138C105.358 113.803 103.742 113.803 102.221 114.186C100.7 114.57 99.7966 114.809 99.1787 115.528L98.3706 115.96V117.638V117.686C98.4181 118.836 99.3213 119.891 101.128 120.658C102.934 121.425 104.978 121.521 106.879 121.041C109.589 120.37 110.92 119.028 110.967 117.638V117.59V115.96L110.017 115.193Z" fill="#D72323"/>
<path d="M104.645 121.616C103.409 121.616 102.173 121.377 101.08 120.897C99.2261 120.13 98.1803 118.98 98.1328 117.686V117.638V115.768L99.036 115.289C99.749 114.522 100.747 114.234 102.173 113.899C103.694 113.515 105.358 113.467 106.927 113.851C107.402 113.946 107.83 114.042 108.163 114.09C109.066 114.234 109.636 114.33 110.159 114.953L111.252 115.816V117.686C111.205 119.315 109.589 120.706 106.927 121.329C106.214 121.521 105.453 121.616 104.645 121.616ZM98.7032 116.152V117.638C98.7508 118.74 99.6539 119.699 101.318 120.37C103.029 121.089 105.025 121.233 106.879 120.754C109.208 120.178 110.73 118.98 110.777 117.638V117.542V116.104L109.826 115.337C109.446 114.857 109.018 114.761 108.163 114.618C107.83 114.57 107.402 114.474 106.879 114.378C105.406 114.042 103.837 114.042 102.363 114.426C100.842 114.809 100.034 115.049 99.4638 115.672L99.3687 115.72L98.7032 116.152Z" fill="#1E1E1E"/>
<path d="M104.74 119.651C108.232 119.651 111.062 117.998 111.062 115.96C111.062 113.921 108.232 112.269 104.74 112.269C101.248 112.269 98.418 113.921 98.418 115.96C98.418 117.998 101.248 119.651 104.74 119.651Z" fill="white"/>
<path d="M104.74 119.939C103.076 119.939 101.413 119.555 100.129 118.836C98.8458 118.069 98.1328 117.062 98.1328 116.008C98.1328 114.905 98.8458 113.899 100.129 113.179C102.649 111.693 106.784 111.693 109.351 113.179C110.634 113.946 111.347 114.953 111.347 116.008C111.347 117.11 110.634 118.117 109.351 118.836C108.068 119.555 106.404 119.939 104.74 119.939ZM104.74 112.556C103.171 112.556 101.603 112.892 100.414 113.611C99.3212 114.234 98.7032 115.097 98.7032 115.96C98.7032 116.823 99.3212 117.686 100.414 118.309C102.791 119.699 106.689 119.699 109.066 118.309C110.159 117.686 110.777 116.823 110.777 115.96C110.777 115.097 110.159 114.234 109.066 113.611C107.83 112.94 106.309 112.556 104.74 112.556Z" fill="#1E1E1E"/>
<path d="M107.83 115.337C106.119 114.474 103.314 114.474 101.603 115.337C100.985 115.672 100.605 116.056 100.415 116.439C100.605 116.823 100.985 117.254 101.603 117.542C103.314 118.405 106.119 118.405 107.83 117.542C108.448 117.206 108.828 116.823 109.018 116.439C108.876 116.056 108.448 115.672 107.83 115.337Z" fill="white"/>
<path d="M103.029 115.097L102.506 115.912L101.46 115.528L102.173 114.426L103.124 113.899L107.973 116.727L106.879 117.35L103.029 115.097Z" fill="white"/>
<path d="M104.426 114.905C104.481 114.831 104.542 114.755 104.609 114.677L104.609 114.677L104.609 114.676C104.729 114.535 104.864 114.404 105.014 114.282L105.173 114.154L105.042 113.998L104.482 113.332L104.358 113.185L104.206 113.303C103.858 113.572 103.558 113.908 103.304 114.309L103.014 114.155L102.838 114.061L102.744 114.237L102.521 114.656L102.427 114.833L102.604 114.927L102.915 115.092C102.783 115.462 102.74 115.818 102.795 116.158C102.861 116.56 103.084 116.865 103.45 117.06C103.678 117.181 103.91 117.244 104.141 117.237C104.374 117.23 104.612 117.149 104.854 117.011L104.854 117.011L104.858 117.008C105.064 116.883 105.297 116.712 105.555 116.495L106.185 116.83C106.088 116.967 105.975 117.105 105.844 117.242C105.651 117.44 105.473 117.597 105.311 117.715L105.052 117.903L105.335 118.054L106.141 118.482L106.255 118.543L106.357 118.464C106.542 118.321 106.717 118.15 106.884 117.953L106.884 117.953L106.886 117.95C107.015 117.791 107.142 117.61 107.267 117.405L107.71 117.641L107.887 117.735L107.981 117.558L108.203 117.139L108.297 116.963L108.121 116.869L107.652 116.62C107.805 116.197 107.848 115.809 107.758 115.466C107.657 115.082 107.425 114.792 107.072 114.604C106.795 114.457 106.514 114.402 106.239 114.463C105.991 114.516 105.755 114.628 105.531 114.796C105.354 114.924 105.178 115.064 105.005 115.213L104.426 114.905ZM106.329 115.905L106.329 115.906L106.341 115.901C106.388 115.881 106.415 115.886 106.44 115.899C106.487 115.925 106.508 115.955 106.518 115.997C106.52 116.004 106.521 116.011 106.522 116.02L106.316 115.91C106.321 115.908 106.325 115.907 106.329 115.905ZM104.126 115.788C104.09 115.768 104.076 115.748 104.07 115.716C104.069 115.712 104.069 115.709 104.068 115.705L104.24 115.796C104.239 115.797 104.237 115.797 104.236 115.798C104.198 115.811 104.166 115.809 104.126 115.788Z" fill="#D72323" stroke="#1E1E1E" stroke-width="0.4"/>
<path d="M73.6572 101.055C73.7318 101 73.8121 100.945 73.8984 100.89L73.8984 100.89L73.8992 100.889C74.055 100.789 74.2222 100.702 74.4012 100.63L74.5899 100.553L74.5097 100.366L74.1674 99.5657L74.0917 99.389L73.9122 99.4575C73.5008 99.6145 73.1155 99.849 72.7563 100.158L72.524 99.9271L72.3822 99.786L72.2411 99.9278L71.9066 100.264L71.7656 100.406L71.9074 100.547L72.1574 100.796C71.9237 101.111 71.7787 101.439 71.7336 101.78C71.6792 102.185 71.8047 102.542 72.0983 102.834C72.2816 103.016 72.4848 103.144 72.7086 103.204C72.933 103.265 73.1847 103.256 73.4561 103.194L73.4561 103.194L73.461 103.193C73.6946 103.133 73.9669 103.036 74.2766 102.904L74.7825 103.407C74.6497 103.51 74.5014 103.609 74.3368 103.703C74.0944 103.836 73.8787 103.935 73.6891 104.001L73.3867 104.106L73.6136 104.331L74.2609 104.975L74.3524 105.066L74.473 105.021C74.6912 104.938 74.9088 104.825 75.1257 104.685L75.1257 104.685L75.1288 104.682C75.2981 104.568 75.472 104.431 75.6507 104.271L76.0068 104.626L76.1486 104.767L76.2897 104.625L76.6242 104.289L76.7652 104.147L76.6235 104.006L76.2477 103.632C76.5159 103.271 76.6703 102.913 76.6833 102.558C76.6978 102.162 76.5601 101.816 76.2769 101.534C76.0545 101.313 75.8019 101.179 75.5204 101.158C75.2678 101.136 75.0093 101.175 74.7471 101.271C74.5396 101.342 74.3313 101.425 74.1222 101.517L73.6572 101.055ZM75.1885 102.564L75.1885 102.564L75.2013 102.563C75.2521 102.558 75.2761 102.571 75.296 102.59C75.3343 102.629 75.3459 102.663 75.3432 102.706C75.3428 102.713 75.3419 102.721 75.3405 102.729L75.175 102.565C75.1796 102.564 75.1841 102.564 75.1885 102.564ZM73.1143 101.813C73.0851 101.783 73.0782 101.76 73.0815 101.727C73.0819 101.724 73.0823 101.72 73.083 101.716L73.2209 101.854C73.2194 101.854 73.2179 101.854 73.2164 101.854C73.1765 101.855 73.1463 101.844 73.1143 101.813Z" fill="#D72323" stroke="#1E1E1E" stroke-width="0.4"/>
</g>
<defs>
<clipPath id="clip0">
<rect width="113" height="122" fill="white" transform="translate(60)"/>
</clipPath>
<clipPath id="clip1">
<rect width="19.3137" height="19.3137" fill="white" transform="matrix(0.859406 0.511293 0.0165799 0.999863 120 41)"/>
</clipPath>
</defs>
</svg>
