<svg width="218" height="261" viewBox="0 0 218 261" fill="none" xmlns="http://www.w3.org/2000/svg">
<path d="M60.0234 198.312H61.2266C61.7995 198.312 62.224 198.169 62.5 197.883C62.776 197.596 62.9141 197.216 62.9141 196.742C62.9141 196.284 62.776 195.927 62.5 195.672C62.2292 195.417 61.8542 195.289 61.375 195.289C60.9427 195.289 60.5807 195.409 60.2891 195.648C59.9974 195.883 59.8516 196.19 59.8516 196.57H57.5938C57.5938 195.977 57.7526 195.445 58.0703 194.977C58.3932 194.503 58.8411 194.133 59.4141 193.867C59.9922 193.602 60.6276 193.469 61.3203 193.469C62.5234 193.469 63.4661 193.758 64.1484 194.336C64.8307 194.909 65.1719 195.701 65.1719 196.711C65.1719 197.232 65.013 197.711 64.6953 198.148C64.3776 198.586 63.9609 198.922 63.4453 199.156C64.0859 199.385 64.5625 199.729 64.875 200.188C65.1927 200.646 65.3516 201.188 65.3516 201.812C65.3516 202.823 64.9818 203.633 64.2422 204.242C63.5078 204.852 62.5339 205.156 61.3203 205.156C60.1849 205.156 59.2552 204.857 58.5312 204.258C57.8125 203.659 57.4531 202.867 57.4531 201.883H59.7109C59.7109 202.31 59.8698 202.659 60.1875 202.93C60.5104 203.201 60.9062 203.336 61.375 203.336C61.9115 203.336 62.3307 203.195 62.6328 202.914C62.9401 202.628 63.0938 202.25 63.0938 201.781C63.0938 200.646 62.4688 200.078 61.2188 200.078H60.0234V198.312ZM67.125 203.891C67.125 203.531 67.2448 203.24 67.4844 203.016C67.7292 202.792 68.0339 202.68 68.3984 202.68C68.7682 202.68 69.0729 202.792 69.3125 203.016C69.5573 203.24 69.6797 203.531 69.6797 203.891C69.6797 204.245 69.5599 204.534 69.3203 204.758C69.0807 204.977 68.7734 205.086 68.3984 205.086C68.0286 205.086 67.724 204.977 67.4844 204.758C67.2448 204.534 67.125 204.245 67.125 203.891ZM84.7266 201.211C84.638 202.435 84.1849 203.398 83.3672 204.102C82.5547 204.805 81.4818 205.156 80.1484 205.156C78.6901 205.156 77.5417 204.667 76.7031 203.688C75.8698 202.703 75.4531 201.354 75.4531 199.641V198.945C75.4531 197.852 75.6458 196.888 76.0312 196.055C76.4167 195.221 76.9661 194.583 77.6797 194.141C78.3984 193.693 79.2318 193.469 80.1797 193.469C81.4922 193.469 82.5495 193.82 83.3516 194.523C84.1536 195.227 84.6172 196.214 84.7422 197.484H82.3984C82.3411 196.75 82.1354 196.219 81.7812 195.891C81.4323 195.557 80.8984 195.391 80.1797 195.391C79.3984 195.391 78.8125 195.672 78.4219 196.234C78.0365 196.792 77.8385 197.659 77.8281 198.836V199.695C77.8281 200.924 78.013 201.823 78.3828 202.391C78.7578 202.958 79.3464 203.242 80.1484 203.242C80.8724 203.242 81.4115 203.078 81.7656 202.75C82.125 202.417 82.3307 201.904 82.3828 201.211H84.7266ZM88.3203 197.469C88.9193 196.75 89.6719 196.391 90.5781 196.391C92.4115 196.391 93.3411 197.456 93.3672 199.586V205H91.1094V199.648C91.1094 199.164 91.0052 198.807 90.7969 198.578C90.5885 198.344 90.2422 198.227 89.7578 198.227C89.0964 198.227 88.6172 198.482 88.3203 198.992V205H86.0625V193H88.3203V197.469ZM100.133 204.141C99.5755 204.818 98.8047 205.156 97.8203 205.156C96.9141 205.156 96.2214 204.896 95.7422 204.375C95.2682 203.854 95.026 203.091 95.0156 202.086V196.547H97.2734V202.008C97.2734 202.888 97.6745 203.328 98.4766 203.328C99.2422 203.328 99.7682 203.062 100.055 202.531V196.547H102.32V205H100.195L100.133 204.141ZM107.18 201.805L108.742 196.547H111.164L107.766 206.312L107.578 206.758C107.073 207.862 106.24 208.414 105.078 208.414C104.75 208.414 104.417 208.365 104.078 208.266V206.555L104.422 206.562C104.849 206.562 105.167 206.497 105.375 206.367C105.589 206.237 105.755 206.021 105.875 205.719L106.141 205.023L103.18 196.547H105.609L107.18 201.805ZM115.836 205.156C114.596 205.156 113.586 204.776 112.805 204.016C112.029 203.255 111.641 202.242 111.641 200.977V200.758C111.641 199.909 111.805 199.151 112.133 198.484C112.461 197.812 112.924 197.297 113.523 196.938C114.128 196.573 114.815 196.391 115.586 196.391C116.742 196.391 117.651 196.755 118.312 197.484C118.979 198.214 119.312 199.247 119.312 200.586V201.508H113.93C114.003 202.06 114.221 202.503 114.586 202.836C114.956 203.169 115.422 203.336 115.984 203.336C116.854 203.336 117.534 203.021 118.023 202.391L119.133 203.633C118.794 204.112 118.336 204.487 117.758 204.758C117.18 205.023 116.539 205.156 115.836 205.156ZM115.578 198.219C115.13 198.219 114.766 198.37 114.484 198.672C114.208 198.974 114.031 199.406 113.953 199.969H117.094V199.789C117.083 199.289 116.948 198.904 116.688 198.633C116.427 198.357 116.057 198.219 115.578 198.219ZM118.172 195.469H116.555L115.312 194.422L114.062 195.469H112.445L114.633 193.672H115.992L118.172 195.469ZM117.445 194.477L117.344 193.586C117.667 193.57 117.898 193.531 118.039 193.469C118.185 193.401 118.258 193.299 118.258 193.164C118.258 192.852 117.943 192.695 117.312 192.695L117.359 191.812C118.115 191.812 118.682 191.927 119.062 192.156C119.443 192.38 119.633 192.693 119.633 193.094C119.633 193.344 119.544 193.557 119.367 193.734C119.195 193.906 118.956 194.01 118.648 194.047L118.641 194.477H117.445ZM122.68 196.547L122.75 197.523C123.354 196.768 124.164 196.391 125.18 196.391C126.076 196.391 126.742 196.654 127.18 197.18C127.617 197.706 127.841 198.492 127.852 199.539V205H125.594V199.594C125.594 199.115 125.49 198.768 125.281 198.555C125.073 198.336 124.727 198.227 124.242 198.227C123.607 198.227 123.13 198.497 122.812 199.039V205H120.555V196.547H122.68ZM142.055 195.484H140.82V205H138.781L138.672 204.102C138.109 204.805 137.385 205.156 136.5 205.156C135.505 205.156 134.706 204.766 134.102 203.984C133.503 203.198 133.203 202.107 133.203 200.711C133.203 199.393 133.497 198.344 134.086 197.562C134.68 196.781 135.49 196.391 136.516 196.391C137.339 196.391 138.018 196.698 138.555 197.312V195.484H136.586V194.055H138.555V193H140.82V194.055H142.055V195.484ZM135.461 200.875C135.461 201.667 135.599 202.273 135.875 202.695C136.151 203.117 136.552 203.328 137.078 203.328C137.776 203.328 138.268 203.034 138.555 202.445V199.109C138.273 198.521 137.786 198.227 137.094 198.227C136.005 198.227 135.461 199.109 135.461 200.875ZM143.281 200.695C143.281 199.852 143.443 199.102 143.766 198.445C144.094 197.789 144.562 197.284 145.172 196.93C145.781 196.57 146.484 196.391 147.281 196.391C148.516 196.391 149.497 196.794 150.227 197.602C150.466 197.451 150.628 197.219 150.711 196.906C150.794 196.589 150.836 196.206 150.836 195.758H152.211C152.211 197.174 151.75 198.091 150.828 198.508C151.135 199.148 151.289 199.878 151.289 200.695V200.859C151.289 201.703 151.125 202.453 150.797 203.109C150.474 203.766 150.01 204.271 149.406 204.625C148.807 204.979 148.104 205.156 147.297 205.156C146.13 205.156 145.185 204.794 144.461 204.07C143.737 203.346 143.346 202.37 143.289 201.141L143.281 200.695ZM145.547 200.859C145.547 201.661 145.698 202.276 146 202.703C146.302 203.125 146.734 203.336 147.297 203.336C147.849 203.336 148.276 203.125 148.578 202.703C148.88 202.281 149.031 201.612 149.031 200.695C149.031 199.914 148.88 199.307 148.578 198.875C148.276 198.438 147.844 198.219 147.281 198.219C146.729 198.219 146.302 198.435 146 198.867C145.698 199.294 145.547 199.958 145.547 200.859ZM155.023 196.547L155.094 197.523C155.698 196.768 156.508 196.391 157.523 196.391C158.419 196.391 159.086 196.654 159.523 197.18C159.961 197.706 160.185 198.492 160.195 199.539V205H157.938V199.594C157.938 199.115 157.833 198.768 157.625 198.555C157.417 198.336 157.07 198.227 156.586 198.227C155.951 198.227 155.474 198.497 155.156 199.039V205H152.898V196.547H155.023Z" fill="#D72323"/>
<path d="M14.9922 233V223.047H18.2461C19.3262 223.047 20.1374 223.27 20.6797 223.717C21.2266 224.163 21.5 224.824 21.5 225.699C21.5 226.164 21.3678 226.576 21.1035 226.937C20.8392 227.292 20.4792 227.568 20.0234 227.764C20.5612 227.914 20.985 228.201 21.2949 228.625C21.6094 229.044 21.7666 229.546 21.7666 230.129C21.7666 231.022 21.4772 231.724 20.8984 232.234C20.3197 232.745 19.5016 233 18.4443 233H14.9922ZM16.3047 228.345V231.927H18.4717C19.0824 231.927 19.5632 231.77 19.9141 231.455C20.2695 231.136 20.4473 230.699 20.4473 230.143C20.4473 228.944 19.7956 228.345 18.4922 228.345H16.3047ZM16.3047 227.292H18.2871C18.8613 227.292 19.3193 227.148 19.6611 226.861C20.0075 226.574 20.1807 226.185 20.1807 225.692C20.1807 225.146 20.0212 224.749 19.7021 224.503C19.3831 224.252 18.8978 224.127 18.2461 224.127H16.3047V227.292ZM23.1816 229.233C23.1816 228.509 23.3229 227.857 23.6055 227.278C23.8926 226.7 24.2891 226.253 24.7949 225.938C25.3053 225.624 25.8864 225.467 26.5381 225.467C27.5452 225.467 28.3587 225.815 28.9785 226.513C29.6029 227.21 29.915 228.137 29.915 229.295V229.384C29.915 230.104 29.776 230.751 29.498 231.325C29.2246 231.895 28.8304 232.339 28.3154 232.658C27.805 232.977 27.2171 233.137 26.5518 233.137C25.5492 233.137 24.7357 232.788 24.1113 232.091C23.4915 231.394 23.1816 230.471 23.1816 229.322V229.233ZM24.4531 229.384C24.4531 230.204 24.6423 230.863 25.0205 231.359C25.4033 231.856 25.9137 232.104 26.5518 232.104C27.1943 232.104 27.7048 231.854 28.083 231.353C28.4613 230.847 28.6504 230.14 28.6504 229.233C28.6504 228.422 28.4567 227.766 28.0693 227.265C27.6865 226.759 27.1761 226.506 26.5381 226.506C25.9137 226.506 25.4102 226.754 25.0273 227.251C24.6445 227.748 24.4531 228.459 24.4531 229.384ZM33.832 228.304L35.4727 225.604H36.9492L34.5293 229.261L37.0244 233H35.5615L33.8525 230.231L32.1436 233H30.6738L33.1689 229.261L30.749 225.604H32.2119L33.832 228.304ZM45.8428 231.694C45.5055 232.177 45.0339 232.54 44.4277 232.781C43.8262 233.018 43.1243 233.137 42.3223 233.137C41.5111 233.137 40.791 232.948 40.1621 232.569C39.5332 232.187 39.0456 231.644 38.6992 230.942C38.3574 230.241 38.182 229.427 38.1729 228.502V227.634C38.1729 226.134 38.5215 224.972 39.2188 224.147C39.9206 223.323 40.9049 222.91 42.1719 222.91C43.2109 222.91 44.0472 223.177 44.6807 223.71C45.3141 224.239 45.7015 224.991 45.8428 225.966H44.5303C44.2842 224.649 43.5003 223.99 42.1787 223.99C41.2992 223.99 40.6315 224.3 40.1758 224.92C39.7246 225.535 39.4967 226.428 39.4922 227.6V228.413C39.4922 229.53 39.7474 230.418 40.2578 231.079C40.7682 231.735 41.4587 232.063 42.3291 232.063C42.8213 232.063 43.252 232.009 43.6211 231.899C43.9902 231.79 44.2956 231.605 44.5371 231.346V229.11H42.2334V228.044H45.8428V231.694ZM47.5039 229.233C47.5039 228.509 47.6452 227.857 47.9277 227.278C48.2148 226.7 48.6113 226.253 49.1172 225.938C49.6276 225.624 50.2087 225.467 50.8604 225.467C51.8675 225.467 52.681 225.815 53.3008 226.513C53.9251 227.21 54.2373 228.137 54.2373 229.295V229.384C54.2373 230.104 54.0983 230.751 53.8203 231.325C53.5469 231.895 53.1527 232.339 52.6377 232.658C52.1273 232.977 51.5394 233.137 50.874 233.137C49.8714 233.137 49.0579 232.788 48.4336 232.091C47.8138 231.394 47.5039 230.471 47.5039 229.322V229.233ZM48.7754 229.384C48.7754 230.204 48.9645 230.863 49.3428 231.359C49.7256 231.856 50.236 232.104 50.874 232.104C51.5166 232.104 52.027 231.854 52.4053 231.353C52.7835 230.847 52.9727 230.14 52.9727 229.233C52.9727 228.422 52.779 227.766 52.3916 227.265C52.0088 226.759 51.4984 226.506 50.8604 226.506C50.236 226.506 49.7324 226.754 49.3496 227.251C48.9668 227.748 48.7754 228.459 48.7754 229.384ZM66.5146 224.571H65.2295V233H64.0674L64.0059 232.207C63.5 232.827 62.7959 233.137 61.8936 233.137C61.0368 233.137 60.3372 232.786 59.7949 232.084C59.2572 231.382 58.9883 230.466 58.9883 229.336V229.24C58.9883 228.105 59.2572 227.194 59.7949 226.506C60.3327 225.813 61.0368 225.467 61.9072 225.467C62.7731 225.467 63.459 225.763 63.9648 226.355V224.571H62.1602V223.539H63.9648V222.5H65.2295V223.539H66.5146V224.571ZM60.2529 229.384C60.2529 230.222 60.4261 230.879 60.7725 231.353C61.1188 231.826 61.5973 232.063 62.208 232.063C63.0101 232.063 63.5957 231.703 63.9648 230.983V227.586C63.5866 226.889 63.0055 226.54 62.2217 226.54C61.6019 226.54 61.1188 226.779 60.7725 227.258C60.4261 227.736 60.2529 228.445 60.2529 229.384ZM67.3281 229.233C67.3281 228.509 67.4694 227.857 67.752 227.278C68.0391 226.7 68.4355 226.253 68.9414 225.938C69.4518 225.624 70.0329 225.467 70.6846 225.467C71.6917 225.467 72.5052 225.815 73.125 226.513C73.7493 227.21 74.0615 228.137 74.0615 229.295V229.384C74.0615 230.104 73.9225 230.751 73.6445 231.325C73.3711 231.895 72.9769 232.339 72.4619 232.658C71.9515 232.977 71.3636 233.137 70.6982 233.137C69.6956 233.137 68.8822 232.788 68.2578 232.091C67.638 231.394 67.3281 230.471 67.3281 229.322V229.233ZM68.5996 229.384C68.5996 230.204 68.7887 230.863 69.167 231.359C69.5498 231.856 70.0602 232.104 70.6982 232.104C71.3408 232.104 71.8512 231.854 72.2295 231.353C72.6077 230.847 72.7969 230.14 72.7969 229.233C72.7969 228.422 72.6032 227.766 72.2158 227.265C71.833 226.759 71.3226 226.506 70.6846 226.506C70.0602 226.506 69.5566 226.754 69.1738 227.251C68.791 227.748 68.5996 228.459 68.5996 229.384ZM71.2588 222.5H72.79L70.958 224.51H69.9395L71.2588 222.5ZM76.8438 225.604L76.8848 226.533C77.4499 225.822 78.1882 225.467 79.0996 225.467C80.6628 225.467 81.4512 226.349 81.4648 228.112V233H80.2002V228.105C80.1956 227.572 80.0726 227.178 79.8311 226.923C79.5941 226.668 79.2227 226.54 78.7168 226.54C78.3066 226.54 77.9466 226.649 77.6367 226.868C77.3268 227.087 77.0853 227.374 76.9121 227.729V233H75.6475V225.604H76.8438ZM83.0713 229.24C83.0713 228.087 83.3379 227.171 83.8711 226.492C84.4043 225.809 85.1107 225.467 85.9902 225.467C86.8926 225.467 87.5967 225.786 88.1025 226.424L88.1641 225.604H89.3193V232.822C89.3193 233.779 89.0345 234.534 88.4648 235.085C87.8997 235.636 87.1387 235.912 86.1816 235.912C85.6484 235.912 85.1266 235.798 84.6162 235.57C84.1058 235.342 83.7161 235.03 83.4473 234.634L84.1035 233.875C84.6458 234.545 85.3089 234.88 86.0928 234.88C86.708 234.88 87.1865 234.707 87.5283 234.36C87.8747 234.014 88.0479 233.526 88.0479 232.897V232.262C87.542 232.845 86.8516 233.137 85.9766 233.137C85.1107 233.137 84.4089 232.788 83.8711 232.091C83.3379 231.394 83.0713 230.443 83.0713 229.24ZM84.3428 229.384C84.3428 230.218 84.5137 230.874 84.8555 231.353C85.1973 231.826 85.6758 232.063 86.291 232.063C87.0885 232.063 87.6742 231.701 88.0479 230.977V227.6C87.6605 226.893 87.0794 226.54 86.3047 226.54C85.6895 226.54 85.2087 226.779 84.8623 227.258C84.516 227.736 84.3428 228.445 84.3428 229.384ZM94.4053 229.24C94.4053 228.087 94.6719 227.171 95.2051 226.492C95.7383 225.809 96.4447 225.467 97.3242 225.467C98.2266 225.467 98.9307 225.786 99.4365 226.424L99.498 225.604H100.653V232.822C100.653 233.779 100.368 234.534 99.7988 235.085C99.2337 235.636 98.4727 235.912 97.5156 235.912C96.9824 235.912 96.4606 235.798 95.9502 235.57C95.4398 235.342 95.0501 235.03 94.7812 234.634L95.4375 233.875C95.9798 234.545 96.6429 234.88 97.4268 234.88C98.042 234.88 98.5205 234.707 98.8623 234.36C99.2087 234.014 99.3818 233.526 99.3818 232.897V232.262C98.876 232.845 98.1855 233.137 97.3105 233.137C96.4447 233.137 95.7428 232.788 95.2051 232.091C94.6719 231.394 94.4053 230.443 94.4053 229.24ZM95.6768 229.384C95.6768 230.218 95.8477 230.874 96.1895 231.353C96.5312 231.826 97.0098 232.063 97.625 232.063C98.4225 232.063 99.0081 231.701 99.3818 230.977V227.6C98.9945 226.893 98.4134 226.54 97.6387 226.54C97.0234 226.54 96.5426 226.779 96.1963 227.258C95.8499 227.736 95.6768 228.445 95.6768 229.384ZM102.232 229.233C102.232 228.509 102.374 227.857 102.656 227.278C102.943 226.7 103.34 226.253 103.846 225.938C104.356 225.624 104.937 225.467 105.589 225.467C106.596 225.467 107.41 225.815 108.029 226.513C108.654 227.21 108.966 228.137 108.966 229.295V229.384C108.966 230.104 108.827 230.751 108.549 231.325C108.275 231.895 107.881 232.339 107.366 232.658C106.856 232.977 106.268 233.137 105.603 233.137C104.6 233.137 103.786 232.788 103.162 232.091C102.542 231.394 102.232 230.471 102.232 229.322V229.233ZM103.504 229.384C103.504 230.204 103.693 230.863 104.071 231.359C104.454 231.856 104.965 232.104 105.603 232.104C106.245 232.104 106.756 231.854 107.134 231.353C107.512 230.847 107.701 230.14 107.701 229.233C107.701 228.422 107.507 227.766 107.12 227.265C106.737 226.759 106.227 226.506 105.589 226.506C104.965 226.506 104.461 226.754 104.078 227.251C103.695 227.748 103.504 228.459 103.504 229.384ZM106.163 222.5H107.694L105.862 224.51H104.844L106.163 222.5ZM111.926 233H110.661V225.604H111.926V233ZM110.559 223.642C110.559 223.437 110.62 223.263 110.743 223.122C110.871 222.981 111.058 222.91 111.304 222.91C111.55 222.91 111.737 222.981 111.864 223.122C111.992 223.263 112.056 223.437 112.056 223.642C112.056 223.847 111.992 224.018 111.864 224.154C111.737 224.291 111.55 224.359 111.304 224.359C111.058 224.359 110.871 224.291 110.743 224.154C110.62 224.018 110.559 223.847 110.559 223.642ZM119.869 231.284L121.701 225.604H122.993L120.341 233H119.377L116.697 225.604H117.989L119.869 231.284ZM128.667 233C128.594 232.854 128.535 232.594 128.489 232.221C127.901 232.831 127.2 233.137 126.384 233.137C125.655 233.137 125.055 232.932 124.586 232.521C124.121 232.107 123.889 231.583 123.889 230.949C123.889 230.179 124.18 229.582 124.764 229.158C125.352 228.73 126.176 228.516 127.238 228.516H128.469V227.935C128.469 227.493 128.337 227.142 128.072 226.882C127.808 226.618 127.418 226.485 126.903 226.485C126.452 226.485 126.074 226.599 125.769 226.827C125.463 227.055 125.311 227.331 125.311 227.654H124.039C124.039 227.285 124.169 226.93 124.429 226.588C124.693 226.242 125.049 225.968 125.495 225.768C125.946 225.567 126.441 225.467 126.979 225.467C127.831 225.467 128.498 225.681 128.981 226.109C129.465 226.533 129.715 227.119 129.733 227.866V231.271C129.733 231.95 129.82 232.49 129.993 232.891V233H128.667ZM126.568 232.036C126.965 232.036 127.341 231.934 127.696 231.729C128.052 231.523 128.309 231.257 128.469 230.929V229.411H127.478C125.928 229.411 125.153 229.865 125.153 230.771C125.153 231.168 125.285 231.478 125.55 231.701C125.814 231.924 126.154 232.036 126.568 232.036ZM127.84 224.51H126.753L124.989 222.5H126.514L127.84 224.51ZM137.629 231.284L139.461 225.604H140.753L138.101 233H137.137L134.457 225.604H135.749L137.629 231.284ZM146.427 233C146.354 232.854 146.295 232.594 146.249 232.221C145.661 232.831 144.959 233.137 144.144 233.137C143.414 233.137 142.815 232.932 142.346 232.521C141.881 232.107 141.648 231.583 141.648 230.949C141.648 230.179 141.94 229.582 142.523 229.158C143.111 228.73 143.936 228.516 144.998 228.516H146.229V227.935C146.229 227.493 146.096 227.142 145.832 226.882C145.568 226.618 145.178 226.485 144.663 226.485C144.212 226.485 143.834 226.599 143.528 226.827C143.223 227.055 143.07 227.331 143.07 227.654H141.799C141.799 227.285 141.929 226.93 142.188 226.588C142.453 226.242 142.808 225.968 143.255 225.768C143.706 225.567 144.201 225.467 144.738 225.467C145.59 225.467 146.258 225.681 146.741 226.109C147.224 226.533 147.475 227.119 147.493 227.866V231.271C147.493 231.95 147.58 232.49 147.753 232.891V233H146.427ZM144.328 232.036C144.725 232.036 145.101 231.934 145.456 231.729C145.812 231.523 146.069 231.257 146.229 230.929V229.411H145.237C143.688 229.411 142.913 229.865 142.913 230.771C142.913 231.168 143.045 231.478 143.31 231.701C143.574 231.924 143.913 232.036 144.328 232.036ZM146.946 224.373V224.441H145.9L144.875 223.279L143.856 224.441H142.811V224.359L144.492 222.5H145.258L146.946 224.373ZM143.542 234.675C143.542 234.47 143.604 234.297 143.727 234.155C143.854 234.014 144.041 233.943 144.287 233.943C144.533 233.943 144.72 234.014 144.848 234.155C144.975 234.297 145.039 234.47 145.039 234.675C145.039 234.88 144.975 235.051 144.848 235.188C144.72 235.324 144.533 235.393 144.287 235.393C144.041 235.393 143.854 235.324 143.727 235.188C143.604 235.051 143.542 234.88 143.542 234.675ZM150.672 225.604L150.713 226.533C151.278 225.822 152.016 225.467 152.928 225.467C154.491 225.467 155.279 226.349 155.293 228.112V233H154.028V228.105C154.024 227.572 153.901 227.178 153.659 226.923C153.422 226.668 153.051 226.54 152.545 226.54C152.135 226.54 151.775 226.649 151.465 226.868C151.155 227.087 150.913 227.374 150.74 227.729V233H149.476V225.604H150.672ZM163.64 232.104C164.091 232.104 164.485 231.968 164.822 231.694C165.16 231.421 165.346 231.079 165.383 230.669H166.579C166.556 231.093 166.41 231.496 166.142 231.879C165.873 232.262 165.513 232.567 165.062 232.795C164.615 233.023 164.141 233.137 163.64 233.137C162.632 233.137 161.83 232.802 161.233 232.132C160.641 231.457 160.345 230.537 160.345 229.37V229.158C160.345 228.438 160.477 227.798 160.741 227.237C161.006 226.677 161.384 226.242 161.876 225.932C162.373 225.622 162.958 225.467 163.633 225.467C164.462 225.467 165.15 225.715 165.697 226.212C166.249 226.709 166.543 227.354 166.579 228.146H165.383C165.346 227.668 165.164 227.276 164.836 226.971C164.512 226.661 164.111 226.506 163.633 226.506C162.99 226.506 162.491 226.738 162.136 227.203C161.785 227.663 161.609 228.331 161.609 229.206V229.445C161.609 230.298 161.785 230.954 162.136 231.414C162.487 231.874 162.988 232.104 163.64 232.104ZM169.266 226.499C169.826 225.811 170.555 225.467 171.453 225.467C173.016 225.467 173.805 226.349 173.818 228.112V233H172.554V228.105C172.549 227.572 172.426 227.178 172.185 226.923C171.948 226.668 171.576 226.54 171.07 226.54C170.66 226.54 170.3 226.649 169.99 226.868C169.68 227.087 169.439 227.374 169.266 227.729V233H168.001V222.5H169.266V226.499ZM180.278 232.269C179.786 232.847 179.064 233.137 178.111 233.137C177.323 233.137 176.721 232.909 176.307 232.453C175.896 231.993 175.689 231.314 175.685 230.416V225.604H176.949V230.382C176.949 231.503 177.405 232.063 178.316 232.063C179.283 232.063 179.925 231.703 180.244 230.983V225.604H181.509V233H180.306L180.278 232.269ZM185.856 231.147L187.579 225.604H188.933L185.959 234.142C185.499 235.372 184.767 235.987 183.765 235.987L183.525 235.967L183.054 235.878V234.853L183.396 234.88C183.824 234.88 184.157 234.793 184.394 234.62C184.635 234.447 184.833 234.13 184.988 233.67L185.269 232.918L182.63 225.604H184.011L185.856 231.147ZM193.041 233.137C192.038 233.137 191.223 232.809 190.594 232.152C189.965 231.492 189.65 230.61 189.65 229.507V229.274C189.65 228.541 189.789 227.887 190.067 227.312C190.35 226.734 190.742 226.283 191.243 225.959C191.749 225.631 192.296 225.467 192.884 225.467C193.845 225.467 194.593 225.784 195.126 226.417C195.659 227.05 195.926 227.957 195.926 229.138V229.664H190.915C190.933 230.393 191.145 230.983 191.551 231.435C191.961 231.881 192.48 232.104 193.109 232.104C193.556 232.104 193.934 232.013 194.244 231.831C194.554 231.649 194.825 231.407 195.058 231.106L195.83 231.708C195.21 232.66 194.281 233.137 193.041 233.137ZM192.884 226.506C192.373 226.506 191.945 226.693 191.599 227.066C191.252 227.436 191.038 227.955 190.956 228.625H194.661V228.529C194.625 227.887 194.451 227.39 194.142 227.039C193.832 226.684 193.412 226.506 192.884 226.506ZM195.379 224.619H194.217L192.87 223.348L191.523 224.619H190.368L192.228 222.828H193.513L195.379 224.619ZM194.812 223.676L194.805 222.78C195.101 222.762 195.315 222.723 195.447 222.664C195.584 222.605 195.652 222.5 195.652 222.35C195.652 222.044 195.331 221.892 194.688 221.892L194.723 221.263C195.306 221.263 195.75 221.363 196.056 221.563C196.361 221.764 196.514 222.031 196.514 222.363C196.514 222.632 196.429 222.842 196.261 222.992C196.092 223.143 195.871 223.234 195.598 223.266L195.591 223.676H194.812ZM198.592 225.604L198.633 226.533C199.198 225.822 199.936 225.467 200.848 225.467C202.411 225.467 203.199 226.349 203.213 228.112V233H201.948V228.105C201.944 227.572 201.821 227.178 201.579 226.923C201.342 226.668 200.971 226.54 200.465 226.54C200.055 226.54 199.695 226.649 199.385 226.868C199.075 227.087 198.833 227.374 198.66 227.729V233H197.396V225.604H198.592ZM87.9385 246.571H86.6533V255H85.4912L85.4297 254.207C84.9238 254.827 84.2197 255.137 83.3174 255.137C82.4606 255.137 81.7611 254.786 81.2188 254.084C80.681 253.382 80.4121 252.466 80.4121 251.336V251.24C80.4121 250.105 80.681 249.194 81.2188 248.506C81.7565 247.813 82.4606 247.467 83.3311 247.467C84.1969 247.467 84.8828 247.763 85.3887 248.355V246.571H83.584V245.539H85.3887V244.5H86.6533V245.539H87.9385V246.571ZM81.6768 251.384C81.6768 252.222 81.8499 252.879 82.1963 253.353C82.5426 253.826 83.0212 254.063 83.6318 254.063C84.4339 254.063 85.0195 253.703 85.3887 252.983V249.586C85.0104 248.889 84.4294 248.54 83.6455 248.54C83.0257 248.54 82.5426 248.779 82.1963 249.258C81.8499 249.736 81.6768 250.445 81.6768 251.384ZM88.752 251.233C88.752 250.509 88.891 249.859 89.1689 249.285C89.4515 248.706 89.848 248.26 90.3584 247.945C90.8734 247.626 91.4567 247.467 92.1084 247.467C93.0518 247.467 93.8333 247.781 94.4531 248.41C94.7767 248.374 95.0114 248.242 95.1572 248.014C95.3031 247.786 95.376 247.38 95.376 246.797H96.4014C96.4014 248.123 95.9297 248.902 94.9863 249.135C95.319 249.764 95.4854 250.463 95.4854 251.233V251.384C95.4854 252.104 95.3441 252.753 95.0615 253.332C94.779 253.911 94.3825 254.357 93.8721 254.672C93.3617 254.982 92.7783 255.137 92.1221 255.137C91.1104 255.137 90.2946 254.788 89.6748 254.091C89.0596 253.389 88.752 252.466 88.752 251.322V251.233ZM90.0166 251.384C90.0166 252.204 90.2057 252.863 90.584 253.359C90.9668 253.856 91.4795 254.104 92.1221 254.104C92.7555 254.104 93.2614 253.856 93.6396 253.359C94.0225 252.858 94.2139 252.186 94.2139 251.343V251.233C94.2139 250.409 94.0202 249.748 93.6328 249.251C93.25 248.754 92.7419 248.506 92.1084 248.506C91.4795 248.506 90.9736 248.754 90.5908 249.251C90.208 249.748 90.0166 250.459 90.0166 251.384ZM98.2812 247.604L98.3223 248.533C98.8874 247.822 99.6257 247.467 100.537 247.467C102.1 247.467 102.889 248.349 102.902 250.112V255H101.638V250.105C101.633 249.572 101.51 249.178 101.269 248.923C101.032 248.668 100.66 248.54 100.154 248.54C99.7441 248.54 99.3841 248.649 99.0742 248.868C98.7643 249.087 98.5228 249.374 98.3496 249.729V255H97.085V247.604H98.2812ZM109.547 248.499C110.107 247.811 110.837 247.467 111.734 247.467C113.298 247.467 114.086 248.349 114.1 250.112V255H112.835V250.105C112.83 249.572 112.707 249.178 112.466 248.923C112.229 248.668 111.857 248.54 111.352 248.54C110.941 248.54 110.581 248.649 110.271 248.868C109.962 249.087 109.72 249.374 109.547 249.729V255H108.282V244.5H109.547V248.499ZM120.56 255C120.487 254.854 120.427 254.594 120.382 254.221C119.794 254.831 119.092 255.137 118.276 255.137C117.547 255.137 116.948 254.932 116.479 254.521C116.014 254.107 115.781 253.583 115.781 252.949C115.781 252.179 116.073 251.582 116.656 251.158C117.244 250.73 118.069 250.516 119.131 250.516H120.361V249.935C120.361 249.493 120.229 249.142 119.965 248.882C119.701 248.618 119.311 248.485 118.796 248.485C118.345 248.485 117.966 248.599 117.661 248.827C117.356 249.055 117.203 249.331 117.203 249.654H115.932C115.932 249.285 116.062 248.93 116.321 248.588C116.586 248.242 116.941 247.968 117.388 247.768C117.839 247.567 118.333 247.467 118.871 247.467C119.723 247.467 120.391 247.681 120.874 248.109C121.357 248.533 121.608 249.119 121.626 249.866V253.271C121.626 253.95 121.713 254.49 121.886 254.891V255H120.56ZM118.461 254.036C118.857 254.036 119.233 253.934 119.589 253.729C119.944 253.523 120.202 253.257 120.361 252.929V251.411H119.37C117.821 251.411 117.046 251.865 117.046 252.771C117.046 253.168 117.178 253.478 117.442 253.701C117.707 253.924 118.046 254.036 118.461 254.036ZM119.732 246.51H118.646L116.882 244.5H118.406L119.732 246.51ZM124.805 247.604L124.846 248.533C125.411 247.822 126.149 247.467 127.061 247.467C128.624 247.467 129.412 248.349 129.426 250.112V255H128.161V250.105C128.157 249.572 128.034 249.178 127.792 248.923C127.555 248.668 127.184 248.54 126.678 248.54C126.268 248.54 125.908 248.649 125.598 248.868C125.288 249.087 125.046 249.374 124.873 249.729V255H123.608V247.604H124.805ZM131.032 251.24C131.032 250.087 131.299 249.171 131.832 248.492C132.365 247.809 133.072 247.467 133.951 247.467C134.854 247.467 135.558 247.786 136.063 248.424L136.125 247.604H137.28V254.822C137.28 255.779 136.995 256.534 136.426 257.085C135.861 257.636 135.1 257.912 134.143 257.912C133.609 257.912 133.088 257.798 132.577 257.57C132.067 257.342 131.677 257.03 131.408 256.634L132.064 255.875C132.607 256.545 133.27 256.88 134.054 256.88C134.669 256.88 135.147 256.707 135.489 256.36C135.836 256.014 136.009 255.526 136.009 254.897V254.262C135.503 254.845 134.812 255.137 133.938 255.137C133.072 255.137 132.37 254.788 131.832 254.091C131.299 253.394 131.032 252.443 131.032 251.24ZM132.304 251.384C132.304 252.218 132.475 252.874 132.816 253.353C133.158 253.826 133.637 254.063 134.252 254.063C135.049 254.063 135.635 253.701 136.009 252.977V249.6C135.621 248.893 135.04 248.54 134.266 248.54C133.65 248.54 133.17 248.779 132.823 249.258C132.477 249.736 132.304 250.445 132.304 251.384Z" fill="#303841"/>
<rect x="67.5" y="157.5" width="78" height="17" rx="8.5" fill="white"/>
<path d="M82.5527 162.893H79.9395V170H78.1816V162.893H75.6035V161.469H82.5527V162.893ZM86.625 165.248C86.3945 165.217 86.1914 165.201 86.0156 165.201C85.375 165.201 84.9551 165.418 84.7559 165.852V170H83.0625V163.66H84.6621L84.709 164.416C85.0488 163.834 85.5195 163.543 86.1211 163.543C86.3086 163.543 86.4844 163.568 86.6484 163.619L86.625 165.248ZM86.9707 166.771C86.9707 166.143 87.0918 165.582 87.334 165.09C87.5762 164.598 87.9238 164.217 88.377 163.947C88.834 163.678 89.3633 163.543 89.9648 163.543C90.8203 163.543 91.5176 163.805 92.0566 164.328C92.5996 164.852 92.9023 165.562 92.9648 166.461L92.9766 166.895C92.9766 167.867 92.7051 168.648 92.1621 169.238C91.6191 169.824 90.8906 170.117 89.9766 170.117C89.0625 170.117 88.332 169.824 87.7852 169.238C87.2422 168.652 86.9707 167.855 86.9707 166.848V166.771ZM88.6641 166.895C88.6641 167.496 88.7773 167.957 89.0039 168.277C89.2305 168.594 89.5547 168.752 89.9766 168.752C90.3867 168.752 90.707 168.596 90.9375 168.283C91.168 167.967 91.2832 167.463 91.2832 166.771C91.2832 166.182 91.168 165.725 90.9375 165.4C90.707 165.076 90.3828 164.914 89.9648 164.914C89.5508 164.914 89.2305 165.076 89.0039 165.4C88.7773 165.721 88.6641 166.219 88.6641 166.895ZM95.5781 163.66L95.6309 164.393C96.084 163.826 96.6914 163.543 97.4531 163.543C98.125 163.543 98.625 163.74 98.9531 164.135C99.2812 164.529 99.4492 165.119 99.457 165.904V170H97.7637V165.945C97.7637 165.586 97.6855 165.326 97.5293 165.166C97.373 165.002 97.1133 164.92 96.75 164.92C96.2734 164.92 95.916 165.123 95.6777 165.529V170H93.9844V163.66H95.5781ZM100.5 166.783C100.5 165.811 100.73 165.027 101.191 164.434C101.656 163.84 102.281 163.543 103.066 163.543C103.762 163.543 104.303 163.781 104.689 164.258L104.76 163.66H106.295V169.789C106.295 170.344 106.168 170.826 105.914 171.236C105.664 171.646 105.311 171.959 104.854 172.174C104.396 172.389 103.861 172.496 103.248 172.496C102.783 172.496 102.33 172.402 101.889 172.215C101.447 172.031 101.113 171.793 100.887 171.5L101.637 170.469C102.059 170.941 102.57 171.178 103.172 171.178C103.621 171.178 103.971 171.057 104.221 170.814C104.471 170.576 104.596 170.236 104.596 169.795V169.455C104.205 169.896 103.691 170.117 103.055 170.117C102.293 170.117 101.676 169.82 101.203 169.227C100.734 168.629 100.5 167.838 100.5 166.854V166.783ZM102.193 166.906C102.193 167.48 102.309 167.932 102.539 168.26C102.77 168.584 103.086 168.746 103.488 168.746C104.004 168.746 104.373 168.553 104.596 168.166V165.5C104.369 165.113 104.004 164.92 103.5 164.92C103.094 164.92 102.773 165.086 102.539 165.418C102.309 165.75 102.193 166.246 102.193 166.906ZM117.639 170H115.881L112.459 164.387V170H110.701V161.469H112.459L115.887 167.094V161.469H117.639V170ZM118.816 166.783C118.816 165.811 119.047 165.027 119.508 164.434C119.973 163.84 120.598 163.543 121.383 163.543C122.078 163.543 122.619 163.781 123.006 164.258L123.076 163.66H124.611V169.789C124.611 170.344 124.484 170.826 124.23 171.236C123.98 171.646 123.627 171.959 123.17 172.174C122.713 172.389 122.178 172.496 121.564 172.496C121.1 172.496 120.646 172.402 120.205 172.215C119.764 172.031 119.43 171.793 119.203 171.5L119.953 170.469C120.375 170.941 120.887 171.178 121.488 171.178C121.938 171.178 122.287 171.057 122.537 170.814C122.787 170.576 122.912 170.236 122.912 169.795V169.455C122.521 169.896 122.008 170.117 121.371 170.117C120.609 170.117 119.992 169.82 119.52 169.227C119.051 168.629 118.816 167.838 118.816 166.854V166.783ZM120.51 166.906C120.51 167.48 120.625 167.932 120.855 168.26C121.086 168.584 121.402 168.746 121.805 168.746C122.32 168.746 122.689 168.553 122.912 168.166V165.5C122.686 165.113 122.32 164.92 121.816 164.92C121.41 164.92 121.09 165.086 120.855 165.418C120.625 165.75 120.51 166.246 120.51 166.906ZM129.592 170C129.514 169.848 129.457 169.658 129.422 169.432C129.012 169.889 128.479 170.117 127.822 170.117C127.201 170.117 126.686 169.938 126.275 169.578C125.869 169.219 125.666 168.766 125.666 168.219C125.666 167.547 125.914 167.031 126.41 166.672C126.91 166.312 127.631 166.131 128.572 166.127H129.352V165.764C129.352 165.471 129.275 165.236 129.123 165.061C128.975 164.885 128.738 164.797 128.414 164.797C128.129 164.797 127.904 164.865 127.74 165.002C127.58 165.139 127.5 165.326 127.5 165.564H125.807C125.807 165.197 125.92 164.857 126.146 164.545C126.373 164.232 126.693 163.988 127.107 163.812C127.521 163.633 127.986 163.543 128.502 163.543C129.283 163.543 129.902 163.74 130.359 164.135C130.82 164.525 131.051 165.076 131.051 165.787V168.535C131.055 169.137 131.139 169.592 131.303 169.9V170H129.592ZM128.191 168.822C128.441 168.822 128.672 168.768 128.883 168.658C129.094 168.545 129.25 168.395 129.352 168.207V167.117H128.719C127.871 167.117 127.42 167.41 127.365 167.996L127.359 168.096C127.359 168.307 127.434 168.48 127.582 168.617C127.73 168.754 127.934 168.822 128.191 168.822ZM129.34 162.816H127.951L126.334 161H128.18L129.34 162.816ZM134.625 167.604L135.797 163.66H137.613L135.064 170.984L134.924 171.318C134.545 172.146 133.92 172.561 133.049 172.561C132.803 172.561 132.553 172.523 132.299 172.449V171.166L132.557 171.172C132.877 171.172 133.115 171.123 133.271 171.025C133.432 170.928 133.557 170.766 133.646 170.539L133.846 170.018L131.625 163.66H133.447L134.625 167.604Z" fill="#868A96"/>
<rect x="67.5" y="157.5" width="78" height="17" rx="8.5" stroke="#F4E5E5"/>
<path d="M51 111.054C51 118.054 61.875 123.73 75.1875 123.73C88.5 123.73 99.375 118.054 99.375 111.054C99.375 104.054 88.5 98.3784 75.1875 98.3784C61.6875 98.3784 51 104.054 51 111.054Z" fill="#C2BACC"/>
<path d="M144.563 126C131.204 126 120.375 120.325 120.375 113.324C120.375 106.324 131.204 100.649 144.563 100.649C157.921 100.649 168.75 106.324 168.75 113.324C168.75 120.325 157.921 126 144.563 126Z" fill="#C2BACC"/>
<path d="M84.3748 26.1082C84.3748 26.1082 85.4998 28.1892 85.6873 30.6487C85.8748 33.1082 82.4998 33.6757 81.3748 31.7838C80.2498 30.0811 79.6873 27.4325 79.6873 27.4325L84.3748 26.1082Z" fill="white"/>
<path d="M83.4375 33.4865C83.8125 33.4865 84.1875 33.4865 84.375 33.2973C85.5 32.9189 86.0625 31.973 86.0625 30.6487C85.875 28.1892 84.75 25.9189 84.75 25.9189C84.5625 25.7297 84.375 25.5405 84.1875 25.7297L79.5 27.2432C79.3125 27.2432 79.125 27.6216 79.125 27.8108C79.125 28 79.875 30.4595 81 32.1622C81.5625 33.1081 82.5 33.4865 83.4375 33.4865ZM84 26.6757C84.375 27.4324 84.9375 28.9459 85.125 30.8378C85.3125 31.973 84.375 32.3514 84 32.5405C83.25 32.7297 82.125 32.5405 81.5625 31.7838C80.8125 30.4595 80.25 28.7568 80.0625 28L84 26.6757Z" fill="#1E1E1E"/>
<path d="M76.125 15.8919C76.125 15.8919 80.25 14.5676 82.3125 17.5946C84.375 20.8108 85.5 26.8649 85.5 26.8649C85.5 26.8649 81.5625 29.5135 77.4375 28.7568C75.9375 27.2433 73.125 17.0271 76.125 15.8919Z" fill="#E22323"/>
<path d="M78.75 29.3243C82.3125 29.3243 85.5 27.2432 85.5 27.054C85.6875 26.8649 85.6875 26.8649 85.6875 26.6757C85.6875 26.4865 84.75 20.4324 82.5 17.2162C80.25 13.8108 75.75 15.3243 75.75 15.3243C75 15.7027 74.4375 16.2703 74.25 17.4054C73.5 20.8108 75.5625 27.6216 76.875 28.9459L77.0625 29.1351C77.8125 29.1351 78.375 29.3243 78.75 29.3243ZM84.9375 26.4865C84 27.054 80.8125 28.7567 77.625 28.1892C76.5 26.8649 74.8125 20.8108 75.375 17.5946C75.5625 16.8378 75.75 16.2703 76.3125 16.0811C76.5 16.0811 80.0625 14.7567 81.9375 17.5946C83.625 20.4324 84.75 25.3513 84.9375 26.4865Z" fill="#1E1E1E"/>
<path d="M83.8125 102.541C83.8125 102.541 85.3125 104.433 88.125 105C90.75 105.757 91.5 107.081 91.5 108.216C91.5 109.351 89.625 110.297 86.25 110.297C83.625 110.297 80.25 107.649 80.25 107.649C80.25 107.649 78.75 108.595 77.0625 107.649C75.375 106.703 76.3125 102.541 76.3125 102.541H83.8125Z" fill="white"/>
<path d="M86.25 110.676C88.6875 110.676 90.5625 110.108 91.3125 109.351C91.6875 108.973 91.875 108.595 91.875 108.216C91.875 107.649 91.6875 105.378 88.125 104.432C85.6875 103.865 84.1875 102.162 84.1875 102.162C84.1875 101.973 84 101.973 83.8125 101.973H76.5C76.3125 101.973 76.125 102.162 76.125 102.351C75.9375 102.73 75.1875 106.892 77.0625 108.027C78.5625 108.973 79.875 108.405 80.4375 108.216C81 108.784 83.8125 110.676 86.25 110.676ZM83.625 102.919C84 103.297 85.6875 104.811 87.9375 105.378C90.75 106.135 91.125 107.649 91.125 108.216C91.125 108.405 91.125 108.595 90.9375 108.784C90 109.351 88.3125 109.73 86.25 109.73C83.8125 109.73 80.625 107.27 80.625 107.27C80.4375 107.081 80.25 107.081 80.0625 107.27C80.0625 107.27 78.75 108.027 77.25 107.27C76.3125 106.703 76.5 104.054 76.6875 102.919H83.625Z" fill="#1E1E1E"/>
<path d="M68.4373 112.378C68.4373 112.378 69.7498 114.459 72.3748 115.405C74.9998 116.351 75.5623 118.054 75.3748 119C75.1873 120.135 73.3123 120.703 69.9373 120.324C67.3123 119.946 64.4998 116.919 64.4998 116.919C64.4998 116.919 62.8123 117.676 61.3123 116.541C59.8123 115.405 61.3123 111.243 61.3123 111.243L68.4373 112.378Z" fill="white"/>
<path d="M71.8125 121.081C72.5625 121.081 73.3125 121.081 73.875 120.892C75.375 120.514 75.75 119.757 75.75 119.189C75.75 118.622 75.75 116.351 72.375 115.027C69.9375 114.081 68.625 112.189 68.625 112.189C68.625 112 68.4375 112 68.25 112L60.9375 111.054C60.75 111.054 60.5625 111.054 60.5625 111.243C60.375 111.622 59.0625 115.595 60.75 116.919C62.0625 118.054 63.5625 117.676 64.125 117.487C64.875 118.243 67.3125 120.514 69.75 120.703C70.6875 121.081 71.25 121.081 71.8125 121.081ZM68.25 112.946C68.625 113.514 69.9375 115.027 72.1875 115.973C75 116.919 75 118.432 75 119C75 119.378 74.4375 119.757 73.875 119.946C72.9375 120.135 71.625 120.135 70.125 119.946C67.6875 119.568 64.875 116.73 64.875 116.73C64.6875 116.541 64.5 116.541 64.3125 116.73C64.3125 116.73 62.8125 117.297 61.5 116.351C60.5625 115.595 61.125 113.135 61.5 112L68.25 112.946Z" fill="#1E1E1E"/>
<path d="M82.5 47.4865C82.5 47.4865 85.5 65.4594 85.6875 72.4594C85.6875 75.1081 85.6875 82.4864 85.6875 87.9729C85.5 96.4864 85.3125 103.297 85.3125 103.297C85.3125 103.297 83.25 105.568 80.0625 105.568C77.25 105.568 75.375 103.486 75.375 103.486C75.375 103.486 75.375 95.7297 75.375 92.5135C75.1875 83.2432 75.5625 80.027 75.1875 76.4324C74.4375 71.1351 72.5625 64.8919 71.25 60.1621C69 52.027 68.625 50.3243 68.625 50.3243L82.5 47.4865Z" fill="#353535"/>
<path d="M79.875 106.135C83.0625 106.135 85.3125 103.676 85.5 103.676L85.6875 103.487C85.6875 103.487 86.0625 96.4865 86.0625 88.1622C86.0625 82.4865 86.0625 75.2973 86.0625 72.4595C85.875 65.6487 82.875 47.6757 82.875 47.4865C82.875 47.2973 82.875 47.2973 82.6875 47.1082C82.5 47.1082 82.5 47.1082 82.3125 47.1082L68.25 50.1352C68.0625 50.1352 67.875 50.3244 67.875 50.7027C67.875 50.7027 68.0625 52.5946 70.5 60.7298L71.25 62.4325C72.5625 66.7838 74.0625 72.0811 74.625 76.6217C74.8125 78.5136 74.8125 80.4054 74.8125 83.0541C74.8125 85.3244 74.8125 88.3514 74.8125 92.5136C74.8125 95.7298 74.8125 103.487 74.8125 103.487C74.8125 103.676 74.8125 103.676 75 103.865C75 104.054 76.875 106.135 79.875 106.135ZM84.75 103.108C84.375 103.487 82.5 105.189 79.875 105.189C77.625 105.189 76.125 103.865 75.75 103.487C75.75 102.351 75.75 95.5406 75.75 92.7027C75.5625 88.5406 75.75 85.5136 75.75 83.2433C75.75 80.4054 75.75 78.7027 75.5625 76.6217C75 72.0811 73.3125 66.5946 72 62.2433L71.4375 60.3514C69.75 54.2973 69.1875 51.8379 69 50.8919L82.125 48.0541C82.5 50.8919 85.125 66.2163 85.125 72.4595C85.125 75.1081 85.125 82.4865 85.125 87.973C85.125 95.5406 84.75 101.973 84.75 103.108Z" fill="#1E1E1E"/>
<path d="M77.0629 49.3785C77.0629 49.3785 79.8754 60.3515 73.6879 62.811C73.5004 67.9191 72.7504 77.5677 72.3754 85.5137C72.0004 93.6488 70.3129 111.622 70.3129 111.622C70.3129 111.622 68.4379 114.081 65.0629 114.081C61.8754 114.081 58.8754 112 58.8754 112C58.8754 112 59.4379 105.946 59.8129 97.6218C60.0004 92.892 60.7504 86.838 60.7504 81.7299C60.7504 74.9191 61.1254 67.1623 60.7504 64.7029C59.8129 57.7028 61.5004 52.9731 62.0629 50.5137C63.5629 45.4055 77.0629 49.3785 77.0629 49.3785Z" fill="#353535"/>
<path d="M65.0627 114.649C68.6252 114.649 70.6877 112.189 70.6877 112V111.811C70.6877 111.622 72.5627 93.6487 72.7502 85.7028C72.9377 81.1622 73.3127 76.2433 73.5002 71.892C73.6877 68.4866 73.8752 65.4595 74.0627 63.1893C80.2502 60.5406 77.6252 49.7568 77.4377 49.3784C77.4377 49.1893 77.2502 49.1893 77.0627 49.0001C76.6877 48.8109 67.5002 46.1622 63.3752 48.4325C62.4377 49.0001 61.8752 49.7568 61.5002 50.7028L61.3127 51.2703C60.5627 53.7298 59.2502 58.4595 60.1877 64.892C60.3752 66.4055 60.3752 70.7568 60.1877 75.2974C60.1877 77.3784 60.1877 79.6487 60.1877 81.919C60.1877 85.1352 59.8127 88.5406 59.6252 91.946C59.4377 94.0271 59.2502 96.1082 59.2502 97.8109C58.8752 106.135 58.3127 112.189 58.3127 112.189C58.3127 112.378 58.3127 112.568 58.5002 112.568C58.6877 112.757 61.6877 114.649 65.0627 114.649ZM69.9377 111.622C69.5627 112 67.8752 113.892 65.0627 113.892C62.4377 113.892 60.0002 112.568 59.4377 112C59.6252 110.676 60.0002 105.189 60.3752 97.8109C60.3752 95.919 60.5627 94.0271 60.7502 91.946C60.9377 88.5406 61.3127 85.1352 61.3127 81.919C61.3127 79.8379 61.3127 77.5676 61.3127 75.2974C61.3127 70.5676 61.5002 66.4055 61.3127 64.892C60.5627 58.4595 61.6877 54.1082 62.4377 51.4595L62.6252 50.892C62.8127 50.1352 63.3752 49.5676 64.1252 49.1893C67.5002 47.2974 75.3752 49.3784 76.8752 49.7568C77.2502 51.2703 78.9377 60.3514 73.6877 62.4325C73.5002 62.4325 73.5002 62.6217 73.5002 62.8109C73.5002 65.0811 73.1252 68.1082 72.9377 71.7028C72.5627 76.0541 72.3752 81.1622 72.1877 85.5136C71.6252 93.2703 69.9377 109.919 69.9377 111.622Z" fill="#1E1E1E"/>
<path d="M76.8751 17.4054C79.3126 18.7298 81.7501 20.2433 82.3126 27.4325C82.8751 34.4325 82.5001 47.4865 82.5001 47.4865C82.5001 47.4865 81.1876 50.7027 73.1251 52.2162C66.1876 53.5406 62.0626 50.7027 62.0626 50.7027C62.0626 50.7027 62.4376 48.2433 61.6876 43.3244C60.9376 37.8379 58.8751 30.6487 58.6876 28C58.6876 22.5135 68.4376 12.4865 76.8751 17.4054Z" fill="#FF403A"/>
<path d="M60.7502 22.8919C61.3127 21.9459 62.0627 21 63.0002 20.2432C65.0627 20.2432 67.1252 20.4324 68.8127 21.5676C70.6877 22.8919 71.8127 24.5946 72.7502 26.6757C74.0627 29.1351 74.8127 28.7567 77.2502 27.6216C77.4377 27.6216 77.6252 27.4324 77.6252 27.054C76.8752 23.6486 76.6877 18.9189 73.8752 16.2703C75.0002 16.4595 75.9377 16.8378 77.0627 17.4054C77.2502 17.5946 77.6252 17.7838 77.8127 17.7838C79.3127 20.2432 79.6877 23.2703 80.4377 25.9189C80.8127 27.6216 81.5627 29.1351 82.1252 30.8378C82.5002 31.973 82.6877 32.9189 82.8752 34.054C83.0627 40.4865 82.6877 47.2973 82.6877 47.2973C82.6877 47.2973 81.3752 50.5135 73.3127 52.027C66.3752 53.3513 62.2502 50.5135 62.2502 50.5135C62.2502 50.5135 62.4377 48.4324 61.8752 43.5135C64.1252 43.8919 66.9377 43.8919 68.4377 42.9459C71.0627 41.4324 70.8752 38.027 71.2502 35.3784C71.8127 31.7838 71.4377 28.7567 68.8127 26.1081C66.5627 23.4595 63.7502 22.8919 60.7502 22.8919Z" fill="#353535"/>
<path d="M69.3751 53.1622C70.5001 53.1622 71.8126 52.973 73.3126 52.7838C81.5626 51.2703 82.8751 47.8649 83.0626 47.6757V47.4865C83.0626 47.2973 83.4376 34.4325 82.8751 27.2433C82.3126 19.6757 79.5001 18.1622 77.0626 16.8379C73.5001 14.946 69.5626 15.1352 65.6251 17.5946C61.5001 20.2433 58.3126 24.7838 58.5001 28C58.5001 29.3244 59.0626 31.7838 59.8126 34.4325C60.3751 37.2703 61.1251 40.4865 61.5001 43.3244C62.2501 48.2433 61.8751 50.5135 61.8751 50.7027C61.8751 50.8919 61.8751 51.0811 62.0626 51.0811C62.0626 51.2703 64.6876 53.1622 69.3751 53.1622ZM82.1251 47.2973C81.9376 47.6757 80.2501 50.3244 73.1251 51.8379C67.3126 52.973 63.5626 51.0811 62.6251 50.7027C62.6251 49.946 62.8126 47.4865 62.2501 43.5135C61.8751 40.6757 61.1251 37.4595 60.5626 34.6217C60.0001 31.973 59.4376 29.5135 59.4376 28.1892C59.2501 25.1622 62.2501 20.8108 66.1876 18.5406C68.2501 17.2163 72.5626 15.3244 76.8751 17.7838C79.1251 19.1081 81.5626 20.4325 82.1251 27.4325C82.5001 34.0541 82.1251 46.1622 82.1251 47.2973Z" fill="#1E1E1E"/>
<path d="M73.8751 14.3783L75 19.8648C75 19.8648 75.75 21.7567 74.4375 22.7026C73.125 23.6486 70.1251 23.081 66.7501 20.2432C67.5001 17.0269 67.1251 14.7567 67.1251 14.7567L73.8751 14.3783Z" fill="white"/>
<path d="M72.9377 23.6487C73.6877 23.6487 74.2502 23.4595 74.8127 23.0811C76.3127 21.9459 75.3752 19.8649 75.3752 19.6757L74.2502 14.3784C74.2502 14.1892 74.0627 14 73.8752 14L67.1252 14.3784C66.9377 14.3784 66.9377 14.3784 66.7502 14.5676C66.7502 14.5676 66.5627 14.7568 66.5627 14.9459C66.5627 14.9459 66.7502 17.4054 66.1877 20.4324C66.1877 20.6216 66.1877 20.8108 66.3752 20.8108C69.0002 22.5135 71.2502 23.6487 72.9377 23.6487ZM73.5002 14.7568L74.6252 19.8649C74.6252 19.8649 75.1877 21.5676 74.2502 22.3243C73.1252 23.0811 70.5002 22.7027 67.3127 20.0541C67.6877 17.7838 67.6877 15.8919 67.6877 15.1351L73.5002 14.7568Z" fill="#1E1E1E"/>
<path d="M65.625 44.0811C66.9375 44.0811 68.0625 43.7028 69.5625 42.3784C72.375 39.7298 72 31.5947 71.8125 29.892L79.6875 27.2433C80.25 28.5676 81.9375 32.919 81.9375 34.6217C81.9375 34.8109 82.125 35.0001 82.3125 35.0001C82.5 35.0001 82.6875 34.8109 82.6875 34.6217C82.6875 32.5406 80.25 26.6757 80.0625 26.4865C80.0625 26.2974 79.6875 26.1082 79.5 26.2974L70.875 29.1352C70.6875 29.1352 70.5 29.3244 70.5 29.5136C70.5 29.7028 71.25 38.973 68.4375 41.6217C66.5625 43.3244 65.25 43.1352 63.375 42.946C62.625 42.946 61.875 42.7568 61.125 42.7568C60.9375 42.7568 60.75 42.946 60.75 43.1352C60.75 43.3244 60.9375 43.5136 61.125 43.5136C61.875 43.5136 62.625 43.5136 63.375 43.7028C64.6875 44.0811 65.0625 44.0811 65.625 44.0811Z" fill="#1E1E1E"/>
<path d="M71.6252 29.892C72.0002 29.7028 72.1877 29.5136 72.0002 29.3244C72.0002 29.3244 68.8127 21.0001 60.7502 22.3244C60.5627 22.3244 60.3752 22.5136 60.3752 22.892C60.3752 23.0812 60.5627 23.2704 60.9377 23.2704C68.2502 21.946 71.0627 29.3244 71.2502 29.7028C71.2502 29.892 71.4377 29.892 71.6252 29.892Z" fill="#1E1E1E"/>
<path d="M73.6877 29.3244C74.0627 29.3244 74.2502 28.946 74.0627 28.7568C72.3752 22.1352 66.0002 19.1082 63.0002 19.6757C62.8127 19.6757 62.6252 19.8649 62.6252 20.2433C62.6252 20.4325 62.8127 20.6217 63.1877 20.6217C65.4377 20.2433 71.6252 22.5136 73.1252 28.946C73.3127 29.1352 73.5002 29.3244 73.6877 29.3244Z" fill="#1E1E1E"/>
<path d="M80.0627 27.0541C80.4377 27.0541 80.6252 26.8649 80.4377 26.4865C79.5002 20.4325 77.2502 17.0271 77.0627 17.0271C76.8752 16.8379 76.6877 16.8379 76.5002 16.8379C76.3127 17.0271 76.3127 17.2163 76.3127 17.4055C76.3127 17.4055 78.5627 20.6217 79.5002 26.4865C79.6877 26.8649 79.8752 27.0541 80.0627 27.0541Z" fill="#1E1E1E"/>
<path d="M77.625 28.0001C78 28.0001 78 27.8109 78 27.4325C77.4375 24.0271 75.5625 18.919 75.375 18.5406C75.375 18.3514 75 18.1622 74.8125 18.3514C74.625 18.3514 74.4375 18.7298 74.625 18.919C74.625 18.919 76.6875 24.2163 77.0625 27.6217C77.25 27.8109 77.4375 28.0001 77.625 28.0001Z" fill="#1E1E1E"/>
<path d="M77.2499 39.3513C77.6249 39.3513 78.1874 39.1622 78.5624 38.973C82.3124 37.2703 79.6874 30.6486 79.4999 30.4594C79.4999 30.2703 79.1249 30.0811 78.9374 30.2703L73.4999 32.1622C73.3124 32.1622 73.1249 32.3513 73.1249 32.5405C73.1249 32.7297 73.4999 37.4595 75.7499 38.973C76.3124 39.3513 76.6874 39.3513 77.2499 39.3513ZM78.9374 31.2162C79.4999 32.5405 80.8124 37.0811 78.3749 38.2162C77.6249 38.5946 77.0624 38.5946 76.4999 38.2162C74.9999 37.2703 74.4374 34.2432 74.2499 32.9189L78.9374 31.2162Z" fill="#1E1E1E"/>
<path d="M68.8125 49.9459C70.3125 49.9459 71.8125 49.9459 73.6875 49.5675C78.5625 48.8108 82.5 45.4054 82.6875 45.2162C82.875 45.027 82.875 44.8378 82.6875 44.6486C82.5 44.4594 82.3125 44.4594 82.125 44.6486C82.125 44.6486 78.1875 48.054 73.5 48.8108C66.75 49.7567 62.25 48.4324 62.25 48.4324C62.0625 48.4324 61.6875 48.4324 61.6875 48.8108C61.6875 49 61.6875 49.3783 62.0625 49.3783C62.25 49.1891 64.6875 49.9459 68.8125 49.9459Z" fill="#1E1E1E"/>
<path d="M65.25 10.4054C65.25 14.7568 68.8125 18.5406 72.375 19.4865C73.6875 19.8649 75.9375 19.4865 76.875 18.1622C78.5625 16.0811 79.125 13.6216 79.125 10.027C79.125 5.10813 76.125 1.32434 72.375 1.32434C68.8125 1.51353 65.25 5.67569 65.25 10.4054Z" fill="white"/>
<path d="M73.5 20.2433C74.8125 20.2433 76.3125 19.6758 77.25 18.5406C78.9375 16.4596 79.5 14.0001 79.5 10.2163C79.5 5.10821 76.3125 0.946045 72.375 0.946045C68.25 0.946045 64.875 5.2974 64.875 10.4055C64.875 15.1352 68.625 18.919 72.375 20.0542C72.5625 20.2433 73.125 20.2433 73.5 20.2433ZM72.375 1.89199C75.9375 1.89199 78.75 5.67577 78.75 10.2163C78.75 13.8109 78.1875 16.0812 76.6875 17.9731C75.75 19.2974 73.6875 19.4866 72.5625 19.1082C69.1875 18.1623 65.625 14.7569 65.625 10.4055C65.625 6.05415 68.8125 1.89199 72.375 1.89199Z" fill="#1E1E1E"/>
<path d="M79.125 6.62167C79.125 6.62167 76.875 9.45951 72.375 10.2163C70.125 10.5946 65.25 10.4055 65.25 10.4055C65.25 10.4055 63.375 2.4595 70.3125 0.756802C78.375 -1.32428 79.125 6.62167 79.125 6.62167Z" fill="#FF403A"/>
<path d="M68.0625 10.973C69.5625 10.973 71.4375 10.973 72.5625 10.7838C77.0625 9.83786 79.5 7.18921 79.5 7.00003C79.5 7.00003 79.6875 6.81084 79.6875 6.62165C79.6875 6.43246 79.3125 3.02705 76.6875 1.13516C75 2.52053e-05 72.9375 -0.189164 70.3125 0.378404C63.1875 2.2703 64.875 10.5946 65.0625 10.5946C65.0625 10.7838 65.25 10.973 65.4375 10.973C65.4375 10.973 66.5625 10.973 68.0625 10.973ZM78.5625 6.43246C78 7.00003 75.9375 9.08111 72.1875 9.83786C70.3125 10.2162 66.5625 10.0271 65.4375 10.0271C65.25 8.51354 64.5 2.64867 70.125 1.13516C72.375 0.567593 74.25 0.756782 75.75 1.70273C78 3.21624 78.5625 5.86489 78.5625 6.43246Z" fill="#1E1E1E"/>
<path d="M69 10.5945C69 10.5945 75.5625 5.29722 78.75 6.05397C81.9375 6.81073 84.5625 8.89181 84.5625 8.89181C84.5625 8.89181 82.125 8.70262 79.875 10.0269C77.625 11.3513 77.25 12.2972 74.4375 12.108C71.4375 11.9188 69 10.5945 69 10.5945Z" fill="#E22323"/>
<path d="M75 12.4864C76.6875 12.4864 77.4375 11.9189 78.5625 11.1621C78.9375 10.9729 79.3125 10.5945 79.875 10.2162C82.125 8.89184 84.375 9.08103 84.375 9.08103C84.5625 9.08103 84.75 8.89184 84.75 8.70265C84.75 8.51346 84.75 8.32427 84.5625 8.13508C84.375 8.13508 81.75 6.054 78.5625 5.29725C75.1875 4.3513 68.8125 9.6486 68.4375 10.027C68.25 10.027 68.25 10.2162 68.25 10.4054C68.25 10.5945 68.4375 10.5945 68.4375 10.7837C68.625 10.7837 71.0625 12.1081 73.875 12.2972C74.625 12.4864 74.8125 12.4864 75 12.4864ZM83.25 8.32427C82.3125 8.51346 81 8.70265 79.6875 9.45941C79.125 9.83779 78.75 10.027 78.1875 10.4054C76.875 11.1621 76.3125 11.7297 74.4375 11.5405C72.5625 11.3513 70.875 10.7837 69.9375 10.4054C72 8.70265 76.5 5.86481 78.75 6.43238C80.4375 6.81076 82.125 7.75671 83.25 8.32427Z" fill="#1E1E1E"/>
<path d="M69 10.973C69.1875 10.973 69.1875 10.973 69 10.973C69.375 10.7838 69.5625 10.5946 69.375 10.4054C69.375 10.4054 67.6875 4.9189 70.5 1.13512C70.6875 0.945929 70.6875 0.75674 70.5 0.567551C70.3125 0.378362 70.125 0.378362 69.9375 0.567551C66.75 4.72971 68.625 10.4054 68.625 10.7838C68.625 10.7838 68.8125 10.973 69 10.973Z" fill="#1E1E1E"/>
<path d="M66.75 15.3243C66.9375 15.3243 66.9375 15.3243 67.125 15.1351C67.3125 14.9459 69.75 12.6756 69.5625 10.4054C69.5625 10.2162 69.375 10.027 69.1875 10.027C69 10.027 68.8125 10.2162 68.8125 10.4054C69 12.2972 66.75 14.3783 66.75 14.3783C66.5625 14.5675 66.5625 14.7567 66.75 14.9459C66.5625 15.3243 66.75 15.3243 66.75 15.3243Z" fill="#1E1E1E"/>
<path d="M109.875 52.7838L105.938 55.0541V49.5676L109.875 47.1082V52.7838Z" fill="white"/>
<path d="M77.0625 35.3784L97.5 47.1081L87.9375 52.5946L67.6875 40.8649L77.0625 35.3784Z" fill="#E2AF7D"/>
<path d="M81.75 32.5406L90.5625 27.4325L110.812 39.3514L102.188 44.4595L81.75 32.5406Z" fill="#E2AF7D"/>
<path d="M98.25 46.7298L78 34.8109L81 33.1082L101.25 44.8379L98.25 46.7298Z" fill="#565656"/>
<path d="M78.375 54.865L81 56.3785V61.6758L78.375 60.1623V54.865Z" fill="#353535"/>
<path d="M101.625 49.3784L98.8125 51.0811V47.4865L101.625 45.7838V49.3784Z" fill="#353535"/>
<path d="M97.875 51.8379C97.875 52.0271 97.875 52.2163 98.0625 52.2163H98.25H98.4375L102.188 49.946C102.375 49.946 102.375 49.7568 102.375 49.5676V45.2163L111.188 40.1082V53.919L88.3125 67.1622V53.3514L97.6875 47.8649V51.8379H97.875ZM105 55.8109C105 56 105 56.1892 105.187 56.1892H105.375H105.563L110.438 53.3514C110.625 53.3514 110.625 53.1622 110.625 52.973V46.3514C110.625 46.1622 110.625 45.973 110.438 45.973C110.25 45.973 110.063 45.973 110.063 45.973L105.187 48.8109C105 48.8109 105 49 105 49.1892V55.8109Z" fill="#CE996A"/>
<path d="M87.5625 67.1622L67.3125 55.2433V41.6217L87.5625 53.5406V67.1622ZM81.9375 56.0001C81.9375 55.8109 81.9375 55.6217 81.75 55.6217L78.1875 53.5406C78 53.5406 77.8125 53.5406 77.8125 53.5406C77.625 53.5406 77.625 53.7298 77.625 53.919V60.3514C77.625 60.5406 77.625 60.7298 77.8125 60.7298L81.375 62.8109H81.5625H81.75C81.9375 62.8109 81.9375 62.6217 81.9375 62.4325V56.0001ZM86.8125 58.8379C86.8125 58.6487 86.8125 58.4595 86.625 58.4595L83.0625 56.3785C82.875 56.3785 82.6875 56.3785 82.6875 56.3785C82.5 56.3785 82.5 56.5676 82.5 56.7568V63.1893C82.5 63.3785 82.5 63.5676 82.6875 63.5676L86.25 65.6487H86.4375H86.625C86.8125 65.6487 86.8125 65.4595 86.8125 65.2704V58.8379Z" fill="#BF8558"/>
<path d="M83.4375 57.7028L86.0625 59.2163V64.5136L83.4375 63.0001V57.7028Z" fill="#353535"/>
<path d="M66.5625 40.4866L90.375 26.4866C90.5625 26.4866 90.75 26.4866 90.75 26.4866L111.938 38.7839C111.938 38.7839 111.938 38.7839 112.125 38.9731V39.1622V53.919L88.3125 67.7298H88.125H87.9375L66.75 55.4325V40.6758C66.375 40.6758 66.375 40.6758 66.5625 40.4866C66.375 40.6758 66.375 40.4866 66.5625 40.4866ZM78 34.8109L98.25 46.7298L101.25 44.8379L81 32.919L78 34.8109ZM98.8125 47.4866V51.0812L101.812 49.3785V45.7839L98.8125 47.4866ZM90.5625 27.4325L81.75 32.5406L102 44.4595L110.812 39.3514L90.5625 27.4325ZM88.5 67.1623L111.375 53.919V40.1082L102.563 45.2163V49.5677C102.563 49.7568 102.562 49.946 102.375 49.946L98.625 52.2163H98.4375H98.25C98.0625 52.2163 98.0625 52.0271 98.0625 51.8379V47.865L88.6875 53.3514V67.1623H88.5ZM87.9375 52.5947L97.3125 47.1082L77.0625 35.1893L67.6875 40.6758L87.9375 52.5947ZM67.3125 55.4325L87.5625 67.3514V53.5406L67.3125 41.6217V55.4325Z" fill="#1E1E1E"/>
<path d="M86.4375 65.8379H86.25L82.6875 63.7568C82.5 63.7568 82.5 63.5676 82.5 63.3784V56.946C82.5 56.7568 82.5 56.5676 82.6875 56.5676C82.875 56.5676 83.0625 56.5676 83.0625 56.5676L86.625 58.6487C86.8125 58.6487 86.8125 58.8379 86.8125 59.0271V65.4595C86.8125 65.6487 86.8125 65.8379 86.625 65.8379H86.4375ZM86.0625 59.2163L83.4375 57.7028V63.0001L86.0625 64.5136V59.2163Z" fill="#1E1E1E"/>
<path d="M81.375 62.8109H81.1875L77.625 60.7298C77.4375 60.7298 77.4375 60.5406 77.4375 60.3515V53.919C77.4375 53.7298 77.4375 53.5406 77.625 53.5406C77.8125 53.5406 78 53.5406 78 53.5406L81.5625 55.6217C81.75 55.6217 81.75 55.8109 81.75 56.0001V62.4325C81.75 62.6217 81.75 62.8109 81.5625 62.8109C81.5625 62.8109 81.5625 62.8109 81.375 62.8109ZM81 56.3785L78.375 54.865V60.1623L81 61.6758V56.3785Z" fill="#1E1E1E"/>
<path d="M110.063 45.9731C110.25 45.9731 110.438 45.9731 110.438 45.9731C110.625 45.9731 110.625 46.1623 110.625 46.3515V52.9731C110.625 53.1623 110.625 53.3515 110.438 53.3515L105.562 56.1894H105.375H105.187C105 56.1894 105 56.0002 105 55.811V49.1894C105 49.0002 105 48.811 105.187 48.811L110.063 45.9731ZM105.938 55.0542L109.875 52.784V47.2975L105.938 49.5677V55.0542Z" fill="#1E1E1E"/>
<path d="M58.8751 32.5405C58.8751 32.5405 57.7501 35 57.9376 38.7838C58.1251 42.5676 59.4376 45.7838 60.7501 49C61.6876 51.0811 72.5626 53.5405 74.0626 53.7297C75.5626 53.9189 76.3126 56.1892 78.0001 57.8919C79.5001 59.4054 83.2501 59.4054 83.8126 57.8919C84.7501 55.8108 79.1251 53.3513 79.1251 53.3513C79.1251 53.3513 80.8126 52.7838 81.3751 52.4054C82.5001 51.6486 81.3751 50.8919 79.1251 51.0811C78.1876 51.2703 76.5001 51.2703 75.0001 50.3243C71.8126 48.054 67.8751 45.7838 65.2501 44.6486C65.2501 42.7567 65.0626 34.054 65.0626 34.054L58.8751 32.5405Z" fill="white"/>
<path d="M81.1875 59.2163C81.5625 59.2163 81.9375 59.2163 82.125 59.2163C83.0625 59.0271 83.8125 58.4595 84.1875 57.892C84.9375 56.0001 81.9375 54.1082 80.25 53.1622C80.8125 52.973 81.375 52.7838 81.75 52.4055C82.5 51.8379 82.3125 51.2703 82.3125 51.0811C82.125 50.3244 80.8125 50.1352 79.125 50.3244C78.5625 50.3244 76.6875 50.7028 75.375 49.5676C72.1875 47.2974 68.4375 45.0271 65.8125 43.892C65.8125 41.4325 65.625 33.6757 65.625 33.6757C65.625 33.4866 65.4375 33.2974 65.25 33.2974L59.0625 32.1622C58.875 32.1622 58.6875 32.1622 58.5 32.3514C58.5 32.5406 57.1875 34.8109 57.5625 38.7839C57.75 42.7568 59.25 46.3514 60.5625 49.0001C61.6875 51.6487 74.0625 53.919 74.25 53.919C75 54.1082 75.5625 54.8649 76.3125 56.0001C76.6875 56.5676 77.25 57.3244 77.8125 58.0811C78.5625 58.8379 79.875 59.2163 81.1875 59.2163ZM81.375 51.4595C81.375 51.4595 81.375 51.4595 81.1875 51.6487C80.625 52.0271 79.5 52.4055 78.9375 52.5947C78.75 52.5947 78.5625 52.7838 78.5625 52.973C78.5625 53.1622 78.5625 53.3514 78.75 53.3514C80.4375 54.1082 83.8125 56.1893 83.25 57.3244C83.0625 57.7028 82.5 58.0811 81.9375 58.0811C80.8125 58.2703 79.125 58.0811 78.1875 57.1352C77.625 56.5676 77.25 56.0001 76.6875 55.2433C75.9375 54.1082 75.1875 52.973 74.0625 52.7838C71.625 52.4055 61.875 50.1352 61.125 48.4325C59.8125 45.5947 58.5 42.3784 58.3125 38.4055C58.125 35.5676 58.875 33.4866 59.0625 32.7298L64.6875 34.0541C64.6875 35.7568 64.875 42.5676 64.875 44.2703C64.875 44.4595 65.0625 44.6487 65.0625 44.6487C67.6875 45.7839 71.625 48.0541 74.8125 50.3244C76.5 51.4595 78.5625 51.2703 79.3125 51.0811C80.625 51.0811 81.375 51.2703 81.375 51.4595Z" fill="#1E1E1E"/>
<path d="M65.2502 23.0811C68.4377 25.1622 67.3127 31.5946 67.3127 35.1892C64.5002 37.2703 58.6877 37.4595 56.6252 34.8108C55.8752 24.973 60.7502 19.8649 65.2502 23.0811Z" fill="#E22323"/>
<path d="M61.875 37.2703C63.9375 37.2703 66.1875 36.7027 67.6875 35.5676C67.875 35.5676 67.875 35.3784 67.875 35.1892C67.875 34.6216 67.875 33.8649 67.875 33.1081C68.0625 29.3243 68.25 24.7838 65.4375 22.8919C63.75 21.7567 61.875 21.5676 60.1875 22.5135C57.1875 24.2162 55.6875 29.1351 56.25 35C56.25 35 56.25 35.1892 56.4375 35.1892C57.5625 36.5135 59.8125 37.2703 61.875 37.2703ZM66.9375 35C64.3125 36.7027 59.0625 36.8919 57 34.6216C56.625 29.1351 57.9375 24.5946 60.5625 23.0811C61.875 22.3243 63.375 22.3243 64.875 23.4595C67.3125 25.1622 67.125 29.5135 66.9375 32.9189C67.125 33.6757 66.9375 34.4324 66.9375 35Z" fill="#1E1E1E"/>
<path d="M136.5 25.1621C136.5 25.1621 134.062 31.2162 132.562 34.9999C130.875 38.7837 129.75 41.4324 130.687 43.5135C131.625 45.4054 133.5 46.9189 137.812 40.1081C142.125 33.2972 142.688 27.2432 142.688 27.2432L136.5 25.1621Z" fill="white"/>
<path d="M132.75 45.7838C134.25 45.7838 136.125 44.0811 138.375 40.4865C142.687 33.6757 143.25 27.6217 143.25 27.4325C143.25 27.2433 143.063 27.0541 142.875 27.0541L136.688 24.7838C136.5 24.7838 136.313 24.7838 136.125 24.973C136.125 24.973 133.688 31.0271 132.188 34.8108C130.5 38.5946 129.375 41.4325 130.5 43.7027C130.875 45.0271 131.625 45.7838 132.75 45.7838C132.563 45.7838 132.75 45.7838 132.75 45.7838ZM142.313 27.6217C142.125 28.946 141.188 34.2433 137.625 39.9189C135 43.8919 133.5 44.8379 132.75 44.6487C132.188 44.6487 131.625 44.0811 131.25 43.3244C130.313 41.4325 131.438 38.7838 133.125 35.1892C134.625 31.973 136.5 27.0541 137.063 25.7298L142.313 27.6217Z" fill="#1E1E1E"/>
<path d="M144.375 16.6486C144.375 16.6486 140.812 14.7567 138 19.2972C135.937 22.5134 135.187 27.6215 135.187 27.6215C135.187 27.6215 139.125 30.2702 143.25 29.5134C144.562 27.9999 147.375 17.7837 144.375 16.6486Z" fill="#E22323"/>
<path d="M141.75 30.0811C142.313 30.0811 142.875 30.0811 143.25 29.8919C143.25 29.8919 143.438 29.8919 143.438 29.7027C144.75 28.3784 146.625 21.7568 146.063 18.1622C145.875 17.027 145.313 16.2703 144.563 16.0811C144.188 15.8919 140.438 14.1892 137.625 18.7297C135.563 21.946 134.813 27.0541 134.625 27.2433C134.625 27.4324 134.625 27.6216 134.813 27.6216C135 28 138.188 30.0811 141.75 30.0811ZM142.875 28.946C139.688 29.5135 136.313 27.6216 135.563 27.2433C135.75 26.1081 136.688 21.946 138.375 19.2973C141 15.3243 144.188 16.8378 144.188 16.8378C144.563 17.027 144.938 17.5946 145.125 18.3514C145.875 21.5676 144 27.8108 142.875 28.946Z" fill="#1E1E1E"/>
<path d="M136.688 103.297C136.688 103.297 135.188 105.189 132.375 105.757C129.75 106.514 129 107.838 129 108.973C129 110.108 130.875 111.054 134.25 111.054C136.875 111.054 140.25 108.405 140.25 108.405C140.25 108.405 141.75 109.351 143.438 108.405C145.125 107.46 144.188 103.297 144.188 103.297H136.688Z" fill="white"/>
<path d="M134.25 111.432C136.687 111.432 139.5 109.541 140.25 108.973C140.812 109.162 142.125 109.73 143.625 108.784C145.5 107.649 144.563 103.676 144.563 103.108C144.563 102.919 144.375 102.73 144.187 102.73H136.875C136.688 102.73 136.687 102.73 136.5 102.919C136.5 102.919 135 104.622 132.563 105.189C129 106.135 128.813 108.216 128.813 108.973C128.813 109.351 129 109.73 129.375 110.108C129.938 110.865 131.812 111.432 134.25 111.432ZM140.25 108.027C140.062 108.027 140.063 108.027 140.063 108.027C140.063 108.027 136.875 110.486 134.438 110.486C132.188 110.486 130.5 110.108 129.938 109.351C129.75 109.162 129.75 108.973 129.75 108.784C129.75 108.216 130.125 106.703 132.938 105.946C135 105.568 136.5 104.054 136.875 103.676H143.625C143.813 104.811 144.187 107.459 143.062 108.027C141.562 108.784 140.437 108.027 140.25 108.027C140.25 108.027 140.437 108.027 140.25 108.027Z" fill="#1E1E1E"/>
<path d="M152.062 113.135C152.062 113.135 150.75 115.216 148.125 116.162C145.5 117.108 144.937 118.811 145.125 119.757C145.312 120.892 147.187 121.459 150.562 121.081C153.187 120.703 156 117.676 156 117.676C156 117.676 157.687 118.432 159.187 117.297C160.687 116.162 159.187 112 159.187 112L152.062 113.135Z" fill="white"/>
<path d="M148.688 121.838C149.25 121.838 150 121.838 150.75 121.649C153.188 121.27 155.625 119 156.375 118.432C156.938 118.622 158.438 119 159.75 117.865C161.438 116.541 160.125 112.568 159.938 112.189C159.938 112 159.75 111.811 159.563 112L152.25 112.946C152.063 112.946 152.063 112.946 151.875 113.135C151.875 113.135 150.563 115.027 148.125 115.973C144.75 117.297 144.75 119.568 144.75 120.135C144.75 120.514 145.125 121.27 146.625 121.838C147.188 121.649 147.75 121.838 148.688 121.838ZM156 117.486C155.813 117.486 155.813 117.486 155.625 117.676C155.625 117.676 152.813 120.514 150.375 120.892C148.875 121.081 147.563 121.081 146.625 120.892C145.875 120.703 145.5 120.324 145.5 119.946C145.5 119.378 145.5 117.865 148.313 116.73C150.563 115.784 151.875 114.27 152.25 113.703L159 112.757C159.375 113.892 159.938 116.351 159 117.108C157.688 118.243 156.375 117.486 156 117.486C156.188 117.486 156.188 117.486 156 117.486Z" fill="#1E1E1E"/>
<path d="M138 48.2433C138 48.2433 135 66.2163 134.813 73.2163C134.813 75.8649 134.813 83.2433 134.813 88.7298C135 97.2433 135.375 104.054 135.375 104.054C135.375 104.054 137.438 106.324 140.625 106.324C143.438 106.324 145.313 104.243 145.313 104.243C145.313 104.243 145.313 96.4865 145.313 93.2703C145.5 84 145.125 80.7838 145.5 77.1892C146.25 71.8919 148.125 65.6487 149.438 60.919C151.688 52.7838 152.062 51.0811 152.062 51.0811L138 48.2433Z" fill="#353535"/>
<path d="M140.625 106.892C143.625 106.892 145.5 104.811 145.5 104.622C145.5 104.622 145.688 104.432 145.688 104.243C145.688 104.243 145.688 96.4865 145.688 93.2702C145.875 89.1081 145.688 86.0811 145.688 83.8108C145.688 80.9729 145.687 79.2703 145.875 77.3784C146.437 72.8378 148.125 67.5405 149.25 63.1892L149.813 61.2973C152.063 53.3513 152.438 51.4594 152.438 51.2703C152.438 51.0811 152.25 50.8919 152.063 50.7027L138 47.6757C137.812 47.6757 137.812 47.6757 137.625 47.6757C137.437 47.6757 137.437 47.8648 137.437 48.054C137.437 48.2432 134.437 66.2162 134.25 73.027C134.25 75.6757 134.25 83.054 134.25 88.7297C134.437 97.054 134.625 104.054 134.625 104.054C134.625 104.243 134.625 104.243 134.813 104.243C135 104.432 137.25 106.892 140.625 106.892ZM144.75 104.243C144.375 104.622 142.875 105.946 140.625 105.946C138.188 105.946 136.312 104.243 135.75 103.865C135.75 102.73 135.375 96.2973 135.375 88.7297C135.375 83.054 135.375 75.8648 135.375 73.2162C135.562 66.973 138 51.6486 138.375 48.8108L151.5 51.6486C151.312 52.5946 150.75 55.054 149.063 61.1081L148.5 63C147.188 67.3513 145.688 72.6486 145.125 77.3784C144.937 79.2703 144.937 81.1621 144.937 84C144.937 86.2703 144.937 89.2973 144.937 93.4594C144.75 96.2973 144.75 102.919 144.75 104.243Z" fill="#1E1E1E"/>
<path d="M143.438 50.1352C143.438 50.1352 140.625 61.1082 146.812 63.5677C147 68.6758 147.75 78.3244 148.125 86.2704C148.5 94.4055 150.188 112.378 150.188 112.378C150.188 112.378 152.062 114.838 155.437 114.838C158.625 114.838 161.625 112.757 161.625 112.757C161.625 112.757 161.063 106.703 160.688 98.3785C160.5 93.6487 159.75 87.5947 159.75 82.4866C159.75 75.6758 159.375 67.919 159.75 65.4596C160.688 58.4596 159 53.7298 158.437 51.2704C156.937 46.1623 143.438 50.1352 143.438 50.1352Z" fill="#353535"/>
<path d="M155.437 115.405C158.812 115.405 161.812 113.324 161.812 113.324C162 113.324 162 113.135 162 112.946C162 112.946 161.437 106.892 161.062 98.5676C161.062 96.6757 160.875 94.7838 160.688 92.7027C160.5 89.2973 160.125 85.8919 160.125 82.6757C160.125 80.5946 160.125 78.3243 160.125 76.0541C160.125 71.5135 159.937 67.3514 160.125 65.6487C161.062 59.0271 159.75 54.4865 159 52.0271L158.813 51.4595C158.625 50.5135 157.875 49.7568 156.938 49.1892C152.812 46.9189 143.625 49.5676 143.25 49.7568C143.062 49.7568 143.062 49.946 142.875 50.1352C142.687 50.5135 140.062 61.2973 146.25 63.946C146.25 66.2162 146.625 69.0541 146.812 72.6487C147.187 77 147.375 82.1081 147.562 86.4595C147.937 94.4054 149.625 112.378 149.625 112.568V112.757C150 112.946 151.875 115.405 155.437 115.405ZM161.25 112.757C160.5 113.135 158.062 114.649 155.625 114.649C152.812 114.649 151.125 112.946 150.75 112.378C150.562 110.676 148.875 94.0271 148.687 86.4595C148.5 81.9189 148.125 77 147.937 72.4595C147.75 68.8649 147.562 65.8379 147.375 63.5676C147.375 63.3784 147.187 63.1892 147.187 63.1892C141.937 61.1081 143.625 52.0271 144 50.5135C145.5 50.1352 153.375 48.0541 156.75 49.946C157.5 50.3243 157.875 50.8919 158.25 51.6487L158.437 52.2162C159.187 54.8649 160.5 59.2162 159.563 65.6487C159.375 67.3514 159.375 71.3243 159.563 76.0541C159.563 78.1352 159.563 80.4054 159.563 82.6757C159.563 85.8919 159.937 89.2973 160.125 92.7027C160.312 94.7838 160.5 96.6757 160.5 98.5676C160.688 105.946 161.063 111.622 161.25 112.757Z" fill="#1E1E1E"/>
<path d="M143.625 18.1623C141.188 19.4866 138.75 21.0001 138.188 28.1893C137.625 35.3785 138 48.2434 138 48.2434C138 48.2434 139.312 51.4596 147.375 52.9731C154.313 54.2974 158.438 51.4596 158.438 51.4596C158.438 51.4596 158.063 49.0001 158.813 44.0812C159.563 38.5947 161.625 31.4055 161.812 28.7569C161.812 23.2704 152.063 13.2434 143.625 18.1623Z" fill="#FF403A"/>
<path d="M138.562 31.5947C139.125 30.0812 139.875 28.7569 140.437 27.2434C141 25.3515 141 23.0812 141.937 21.1893C142.5 19.865 143.437 18.9191 144.375 17.7839C146.437 16.838 148.687 16.6488 150.75 17.2164C148.312 17.9731 146.062 19.865 144.937 21.9461C144.187 23.2704 142.687 26.6758 143.062 28.3785C143.625 28.7569 145.125 29.3245 146.437 29.5136C146.812 29.5136 147 29.3245 147.187 28.9461C148.312 24.0272 152.25 20.6218 157.125 20.6218C158.062 21.5677 159 22.5136 159.562 23.4596C153.75 22.5136 148.312 27.8109 148.687 33.865C148.875 36.892 148.875 41.0542 151.312 43.1353C153.187 44.6488 156 44.6488 158.437 44.4596C157.875 49.3785 158.25 51.6488 158.25 51.6488C158.25 51.6488 154.125 54.4866 147.187 53.1623C139.125 51.6488 137.812 48.4326 137.812 48.4326C137.812 48.4326 137.625 40.2974 137.625 33.2974C138.187 32.5407 138.375 32.1623 138.562 31.5947Z" fill="#353535"/>
<path d="M151.125 53.9191C155.812 53.9191 158.437 52.2163 158.625 52.0272C158.812 51.838 158.812 51.838 158.812 51.6488C158.812 51.6488 158.437 49.1893 159.187 44.2704C159.562 41.4326 160.312 38.2163 160.875 35.3785C161.437 32.5407 162 30.2704 162.187 28.9461C162.375 25.5407 159.187 21.0001 155.062 18.5407C151.125 16.0812 147 15.892 143.625 17.7839C141.187 19.1082 138.562 20.6218 137.812 28.1893C137.25 35.1893 137.625 48.2434 137.625 48.4326V48.6218C137.625 48.8109 139.125 52.0272 147.375 53.7299C148.687 53.7299 150 53.9191 151.125 53.9191ZM157.875 51.4596C156.937 52.0272 153.187 53.7299 147.375 52.5947C140.25 51.2704 138.562 48.6218 138.375 48.0542C138.375 46.9191 138 34.8109 138.562 28.1893C139.125 21.1893 141.562 19.865 143.812 18.5407C148.125 16.0812 152.25 17.9731 154.5 19.2974C158.437 21.7569 161.25 25.9191 161.25 28.9461C161.25 30.2704 160.687 32.5407 160.125 35.3785C159.562 38.2163 158.812 41.4326 158.437 44.2704C157.687 48.2434 157.875 50.5136 157.875 51.4596Z" fill="#1E1E1E"/>
<path d="M146.625 15.1353L145.5 20.6217C145.5 20.6217 144.75 22.5136 146.062 23.4596C147.375 24.4055 150.375 23.838 153.75 21.0001C153.187 17.7839 153.375 15.5136 153.375 15.5136L146.625 15.1353Z" fill="white"/>
<path d="M147.562 24.4055C149.25 24.4055 151.687 23.2703 153.937 21.3784C154.125 21.1893 154.125 21.1893 154.125 21.0001C153.562 17.973 153.75 15.5136 153.75 15.5136C153.75 15.3244 153.75 15.3244 153.75 15.1352C153.75 15.1352 153.562 14.946 153.375 14.946L146.625 14.5676C146.438 14.5676 146.25 14.7568 146.25 14.946L145.125 20.4325C145.125 20.4325 144.188 22.5136 145.688 23.6487C146.062 24.2163 146.812 24.4055 147.562 24.4055ZM153.188 20.8109C149.812 23.4595 147.187 23.8379 146.25 23.0811C145.312 22.3244 145.875 20.8109 145.875 20.8109L147 15.7028L153 15.892C152.812 16.6487 152.812 18.5406 153.188 20.8109Z" fill="#1E1E1E"/>
<path d="M154.875 44.8379C155.438 44.8379 156 44.8379 156.563 44.6487C157.313 44.6487 157.875 44.4595 158.813 44.4595C159 44.4595 159.188 44.2703 159.188 44.0811C159.188 43.8919 159 43.7027 158.813 43.7027C157.875 43.7027 157.125 43.7027 156.563 43.8919C154.688 44.0811 153.375 44.2703 151.5 42.5676C148.687 39.919 149.438 30.4595 149.438 30.4595C149.438 30.2703 149.25 30.0811 149.062 30.0811L140.437 27.2433C140.25 27.2433 140.062 27.2433 139.875 27.4325C139.687 27.6217 137.25 33.4865 137.25 35.5676C137.25 35.7568 137.437 35.946 137.625 35.946C137.812 35.946 138 35.7568 138 35.5676C138 34.0541 139.5 30.0811 140.25 28.1892L148.125 30.8379C147.937 32.7298 147.563 40.6757 150.375 43.3244C152.25 44.4595 153.563 44.8379 154.875 44.8379Z" fill="#1E1E1E"/>
<path d="M148.875 30.6487C149.062 30.6487 149.25 30.4595 149.25 30.4595C149.437 30.0811 152.25 22.7028 159.563 24.0271C159.75 24.0271 159.937 23.8379 160.125 23.6487C160.125 23.4595 159.938 23.2703 159.75 23.0811C151.688 21.7568 148.5 30.0811 148.5 30.0811C148.5 30.4595 148.5 30.6487 148.875 30.6487Z" fill="#1E1E1E"/>
<path d="M146.812 30.0811C147 30.0811 147.187 29.8919 147.187 29.7027C148.687 23.6487 154.687 20.8108 157.125 21.3784C157.312 21.3784 157.5 21.1892 157.688 21C157.688 20.8108 157.5 20.6216 157.312 20.4324C154.312 19.8649 147.937 22.8919 146.25 29.5135C146.437 29.7027 146.625 29.8919 146.812 30.0811Z" fill="#1E1E1E"/>
<path d="M140.437 27.8108C140.625 27.8108 140.812 27.6217 140.812 27.4325C141.75 21.5676 144 18.3514 144 18.3514C144.187 18.1622 144.187 17.973 143.812 17.7838C143.625 17.5946 143.437 17.5946 143.25 17.973C143.062 18.1622 140.812 21.3784 139.875 27.4325C139.875 27.6217 140.062 27.8108 140.437 27.8108Z" fill="#1E1E1E"/>
<path d="M142.875 28.7568C143.062 28.7568 143.25 28.5676 143.25 28.3784C143.812 24.973 145.688 19.8649 145.688 19.6757C145.688 19.4865 145.687 19.1082 145.5 19.1082C145.312 19.1082 144.937 19.1082 144.937 19.2973C144.937 19.4865 142.875 24.5946 142.312 28.1892C142.5 28.3784 142.687 28.5676 142.875 28.7568Z" fill="#1E1E1E"/>
<path d="M143.25 40.1081C143.625 40.1081 144.188 39.9189 144.563 39.7297C146.813 38.4054 147.188 33.4864 147.188 33.2972C147.188 33.1081 147 32.9189 146.812 32.9189L141.375 31.027C141.188 31.027 141 31.027 140.813 31.2162C140.625 31.4054 138 38.2162 141.75 39.7297C142.5 40.1081 142.875 40.1081 143.25 40.1081ZM146.25 33.6756C146.063 35.1891 145.5 38.2162 144 38.9729C143.437 39.3513 142.875 39.3513 142.125 38.9729C139.688 37.8378 141 33.2972 141.563 31.9729L146.25 33.6756Z" fill="#1E1E1E"/>
<path d="M151.687 50.7027C155.812 50.7027 158.437 49.946 158.437 49.946C158.625 49.946 158.812 49.5676 158.812 49.3784C158.812 49.1892 158.437 49 158.25 49C158.25 49 153.562 50.3243 147 49.3784C142.312 48.8108 138.375 45.4054 138.375 45.2162C138.187 45.027 138 45.027 137.812 45.2162C137.625 45.4054 137.625 45.5946 137.812 45.7838C138 45.973 141.937 49.3784 146.812 50.1352C148.5 50.5135 150.187 50.7027 151.687 50.7027Z" fill="#1E1E1E"/>
<path d="M155.25 11.1621C155.25 15.5135 151.688 19.2973 148.125 20.2432C146.812 20.6216 144.562 20.2432 143.625 18.9189C141.937 16.8378 141.375 14.3784 141.375 10.7838C141.375 5.86484 144.375 2.08105 148.125 2.08105C151.688 2.27024 155.25 6.43241 155.25 11.1621Z" fill="white"/>
<path d="M147 21.0001C147.563 21.0001 147.938 21.0001 148.313 20.8109C151.875 19.6757 155.813 15.8919 155.813 11.1622C155.813 6.2433 152.25 1.70276 148.313 1.70276C144.375 1.70276 141.188 5.86492 141.188 10.973C141.188 14.7568 141.938 17.2163 143.438 19.2974C144.188 20.4325 145.688 21.0001 147 21.0001ZM148.125 2.6487C151.688 2.6487 154.875 6.62168 154.875 11.1622C154.875 15.5136 151.313 18.919 148.125 19.8649C147 20.2433 144.938 20.0541 144 18.7298C142.5 16.8379 141.938 14.3784 141.938 10.973C141.75 6.43249 144.563 2.6487 148.125 2.6487Z" fill="#1E1E1E"/>
<path d="M141.375 7.37838C141.375 7.37838 143.625 10.2162 148.125 10.973C150.375 11.3514 155.25 11.1622 155.25 11.1622C155.25 11.1622 157.125 3.21622 150.188 1.51352C142.125 -0.567566 141.375 7.37838 141.375 7.37838Z" fill="#FF403A"/>
<path d="M152.438 11.7298C153.938 11.7298 155.063 11.7298 155.25 11.7298C155.438 11.7298 155.625 11.5406 155.625 11.3514C155.625 11.3514 157.5 3.02706 150.375 1.13516C147.75 0.378408 145.688 0.756786 144 1.89192C141.375 3.78381 141 7.18922 141 7.37841C141 7.5676 141 7.5676 141.188 7.75679C141.375 7.94598 143.625 10.5946 148.125 11.5406C149.063 11.7298 150.938 11.7298 152.438 11.7298ZM154.875 10.7838C153.75 10.7838 150 10.973 148.125 10.5946C144.375 9.83787 142.313 7.75679 141.75 7.18922C141.938 6.43246 142.5 3.78381 144.375 2.45949C145.875 1.51354 147.75 1.32435 150 1.89192C155.813 3.40544 155.063 9.2703 154.875 10.7838Z" fill="#1E1E1E"/>
<path d="M151.5 11.3514C151.5 11.3514 144.938 6.05405 141.75 6.81081C138.563 7.56757 135.938 9.45946 135.938 9.45946C135.938 9.45946 138.375 9.27027 140.625 10.7838C142.875 12.1081 143.25 13.0541 146.063 12.8649C149.063 12.6757 151.5 11.3514 151.5 11.3514Z" fill="#E22323"/>
<path d="M145.5 13.2432C145.688 13.2432 146.063 13.2432 146.25 13.2432C149.063 13.0541 151.5 11.7297 151.687 11.7297C151.687 11.5405 151.875 11.5405 151.875 11.3514C151.875 11.1622 151.875 10.973 151.687 10.973C151.5 10.7838 144.938 5.48649 141.563 6.24325C138.375 7.00001 135.75 9.08109 135.562 9.08109C135.375 9.27028 135.375 9.45947 135.375 9.64865C135.375 9.83784 135.563 10.027 135.75 10.027C135.75 10.027 138 9.83784 140.25 11.1622C140.812 11.5405 141.188 11.7297 141.563 12.1081C143.063 12.6757 143.813 13.2432 145.5 13.2432ZM150.562 11.1622C149.625 11.5405 147.937 12.1081 146.062 12.2973C144.188 12.4865 143.438 12.1081 142.313 11.1622C141.938 10.973 141.375 10.5946 140.813 10.2162C139.5 9.45947 138.188 9.08109 137.25 9.08109C138.375 8.51352 139.875 7.56757 141.75 7.1892C144 6.62163 148.5 9.64866 150.562 11.1622Z" fill="#1E1E1E"/>
<path d="M151.5 11.7298C151.688 11.7298 151.875 11.5406 151.875 11.3514C151.875 11.1622 153.75 5.48653 150.563 1.13518C150.375 0.945989 150.188 0.945989 150 1.13518C149.813 1.32437 149.813 1.51356 150 1.70275C153 5.48653 151.125 10.973 151.125 10.973C150.938 11.3514 151.125 11.5406 151.5 11.7298C151.313 11.7298 151.313 11.7298 151.5 11.7298Z" fill="#1E1E1E"/>
<path d="M153.75 16.0811C153.937 16.0811 153.937 16.0811 154.125 15.8919C154.313 15.7028 154.313 15.5136 154.125 15.3244C154.125 15.3244 151.875 13.2433 152.062 11.3514C152.062 11.1622 151.875 10.973 151.687 10.973C151.5 10.973 151.312 11.1622 151.312 11.3514C151.125 13.6217 153.562 16.0811 153.75 16.0811C153.375 16.0811 153.562 16.0811 153.75 16.0811Z" fill="#1E1E1E"/>
<path d="M162.375 28.3784C162.375 28.3784 169.312 35.3784 172.5 38.5946C175.687 41.8109 179.625 45.0271 183 48.2433C186.375 51.4595 191.437 56.3784 193.687 58.0811C195.937 59.7838 192.937 60.3514 191.812 59.5946C190.687 58.8379 189.187 57.1352 189.187 57.1352C189.187 57.1352 186.937 58.8379 184.875 57.7027C182.812 56.5676 182.625 53.5406 182.625 53.5406C182.625 53.5406 174.562 49.7568 169.875 43.7027C164.812 41.2433 157.125 33.8649 157.125 33.8649L162.375 28.3784Z" fill="white"/>
<path d="M193.125 60.5405C193.875 60.5405 194.438 60.3513 194.813 59.973C195 59.5946 195.188 58.8378 194.063 57.8919C192.375 56.5676 189.375 53.5405 186.563 50.8919C185.438 49.7567 184.313 48.8108 183.375 47.8648C182.063 46.5405 180.563 45.4054 179.25 44.0811C177 42.1892 174.75 40.1081 172.875 38.2162L162.75 28C162.75 28 162.563 27.8108 162.375 27.8108C162.188 27.8108 162.188 27.8108 162 28L156.938 33.6757C156.75 33.8648 156.75 34.054 156.938 34.2432C157.313 34.6216 164.625 41.6216 169.688 44.0811C174 49.5675 180.938 53.1621 182.25 53.9189C182.438 54.6757 182.813 57.1351 184.688 58.0811C186.375 59.027 188.25 58.0811 189 57.7027C189.563 58.2703 190.688 59.4054 191.438 59.973C192.188 60.3513 192.563 60.5405 193.125 60.5405ZM162.375 29.1351L172.125 38.973C174 40.8648 176.25 42.9459 178.5 44.8378C180 46.1621 181.313 47.2973 182.625 48.6216C183.563 49.5676 184.688 50.5135 185.813 51.6486C188.813 54.4865 191.813 57.3243 193.5 58.6486C194.063 59.027 194.25 59.4054 194.063 59.4054C193.875 59.7838 192.75 59.7838 192.188 59.4054C191.063 58.6486 189.563 56.9459 189.563 56.9459C189.375 56.7567 189.188 56.7567 189 56.9459C189 56.9459 186.938 58.4594 185.25 57.5135C183.563 56.5675 183.188 53.7297 183.188 53.7297C183.188 53.5405 183 53.3513 183 53.3513C183 53.3513 174.938 49.5675 170.438 43.7027C170.438 43.7027 170.438 43.5135 170.25 43.5135C165.938 41.4324 159.375 35.3784 157.875 34.054L162.375 29.1351Z" fill="#1E1E1E"/>
<path d="M155.25 23.8379C151.125 27.4325 155.25 35.946 160.5 39.3514C163.313 36.3244 166.687 33.2974 168.562 32.1622C165.562 27.8109 164.437 26.6757 162.75 25.1622C159.75 22.5136 157.687 21.5676 155.25 23.8379Z" fill="#E22323"/>
<path d="M160.5 39.919C160.688 39.919 160.687 39.919 160.875 39.7298C164.437 36.1352 167.25 33.4865 168.75 32.7298C168.937 32.7298 168.938 32.5406 168.938 32.3514C168.938 32.1622 168.938 32.1622 168.938 31.973C165.938 27.6217 164.812 26.4865 163.125 24.7838C160.125 22.1352 157.875 21.0001 155.063 23.4595C153.75 24.5947 153.187 26.2974 153.375 28.3784C153.562 32.3514 156.75 37.2703 160.5 39.7298C160.313 39.7298 160.313 39.919 160.5 39.919ZM167.812 32.1622C165.562 33.4865 162.375 36.892 160.312 38.973C156.938 36.5136 154.125 31.973 153.938 28.3784C153.75 26.6757 154.312 25.1622 155.437 24.2163C157.5 22.3244 159.188 22.7028 162.375 25.5406C164.063 27.0541 165 28.0001 167.812 32.1622Z" fill="#1E1E1E"/>
<path d="M123.938 29.1353L134.438 35.1893L138 54.1082L127.313 48.0542L123.938 29.1353Z" fill="#C2BACC"/>
<path d="M138 54.4865H138.188C138.375 54.2974 138.375 54.2974 138.375 54.1082L134.813 35.1892C134.813 35.0001 134.625 35.0001 134.625 34.8109L123.937 28.5676C123.75 28.5676 123.563 28.5676 123.375 28.5676C123.188 28.7568 123.188 28.7568 123.188 28.946L126.75 47.8649C126.75 48.0541 126.938 48.0541 126.938 48.2433L137.625 54.4865C137.813 54.4865 137.813 54.4865 138 54.4865ZM134.063 35.5676L137.438 53.3514L127.875 47.6757L124.5 29.892L134.063 35.5676Z" fill="#1E1E1E"/>
<path d="M125.25 36.5135C127.5 37.4595 130.313 40.1081 129 41.6216C127.688 43.1352 124.5 42.3784 123.75 40.2973C122.813 37.4595 123.375 35.7568 125.25 36.5135Z" fill="white"/>
<path d="M127.125 42.7568C128.063 42.7568 128.813 42.3784 129.375 41.8109C129.75 41.4325 129.938 40.8649 129.75 40.1082C129.375 38.4055 127.125 36.7028 125.438 35.946C124.5 35.5676 123.75 35.7568 123.563 36.1352C122.813 36.8919 122.813 38.2163 123.563 40.2973C123.938 41.4325 125.063 42.3784 126.375 42.5676C126.563 42.7568 126.938 42.7568 127.125 42.7568ZM124.5 36.7027C124.688 36.7027 124.875 36.7028 125.063 36.8919C126.563 37.4595 128.625 39.1622 129 40.4865C129 40.8649 129 41.0541 128.813 41.4325C128.25 42 127.5 42.1892 126.563 42C125.438 41.8109 124.688 41.0541 124.313 40.2973C123.563 38.4055 123.75 37.2703 124.125 37.0811C124.125 36.8919 124.313 36.7027 124.5 36.7027Z" fill="#1E1E1E"/>
</svg>
