<svg width="218" height="223" viewBox="0 0 218 223" fill="none" xmlns="http://www.w3.org/2000/svg">
<path d="M76.2656 189H68.4688V187.453L72.1484 183.531C72.6536 182.979 73.026 182.497 73.2656 182.086C73.5104 181.674 73.6328 181.284 73.6328 180.914C73.6328 180.409 73.5052 180.013 73.25 179.727C72.9948 179.435 72.6302 179.289 72.1562 179.289C71.6458 179.289 71.2422 179.466 70.9453 179.82C70.6536 180.169 70.5078 180.63 70.5078 181.203H68.2422C68.2422 180.51 68.4062 179.878 68.7344 179.305C69.0677 178.732 69.5365 178.284 70.1406 177.961C70.7448 177.633 71.4297 177.469 72.1953 177.469C73.3672 177.469 74.276 177.75 74.9219 178.312C75.5729 178.875 75.8984 179.669 75.8984 180.695C75.8984 181.258 75.7526 181.831 75.4609 182.414C75.1693 182.997 74.6693 183.677 73.9609 184.453L71.375 187.18H76.2656V189ZM77.8672 187.891C77.8672 187.531 77.987 187.24 78.2266 187.016C78.4714 186.792 78.776 186.68 79.1406 186.68C79.5104 186.68 79.8151 186.792 80.0547 187.016C80.2995 187.24 80.4219 187.531 80.4219 187.891C80.4219 188.245 80.3021 188.534 80.0625 188.758C79.8229 188.977 79.5156 189.086 79.1406 189.086C78.7708 189.086 78.4661 188.977 78.2266 188.758C77.987 188.534 77.8672 188.245 77.8672 187.891ZM88.8828 187.117H93.8594V189H86.5391V177.625H88.8828V187.117ZM99.9609 189C99.8568 188.797 99.7812 188.544 99.7344 188.242C99.1875 188.852 98.4766 189.156 97.6016 189.156C96.7734 189.156 96.0859 188.917 95.5391 188.438C94.9974 187.958 94.7266 187.354 94.7266 186.625C94.7266 185.729 95.0573 185.042 95.7188 184.562C96.3854 184.083 97.3464 183.841 98.6016 183.836H99.6406V183.352C99.6406 182.961 99.5391 182.648 99.3359 182.414C99.138 182.18 98.8229 182.062 98.3906 182.062C98.0104 182.062 97.7109 182.154 97.4922 182.336C97.2786 182.518 97.1719 182.768 97.1719 183.086H94.9141C94.9141 182.596 95.0651 182.143 95.3672 181.727C95.6693 181.31 96.0964 180.984 96.6484 180.75C97.2005 180.51 97.8203 180.391 98.5078 180.391C99.5495 180.391 100.375 180.654 100.984 181.18C101.599 181.701 101.906 182.435 101.906 183.383V187.047C101.911 187.849 102.023 188.456 102.242 188.867V189H99.9609ZM98.0938 187.43C98.4271 187.43 98.7344 187.357 99.0156 187.211C99.2969 187.06 99.5052 186.859 99.6406 186.609V185.156H98.7969C97.6667 185.156 97.0651 185.547 96.9922 186.328L96.9844 186.461C96.9844 186.742 97.0833 186.974 97.2812 187.156C97.4792 187.339 97.75 187.43 98.0938 187.43ZM97.8516 177.625H99.125L101.352 179.422H99.6641L98.4844 178.438L97.3047 179.422H95.625L97.8516 177.625ZM102.047 176.25H103.852L102.078 178.375H100.773L102.047 176.25ZM106.672 185.805L108.234 180.547H110.656L107.258 190.312L107.07 190.758C106.565 191.862 105.732 192.414 104.57 192.414C104.242 192.414 103.909 192.365 103.57 192.266V190.555L103.914 190.562C104.341 190.562 104.659 190.497 104.867 190.367C105.081 190.237 105.247 190.021 105.367 189.719L105.633 189.023L102.672 180.547H105.102L106.672 185.805ZM117.734 181.469C118.333 180.75 119.086 180.391 119.992 180.391C121.826 180.391 122.755 181.456 122.781 183.586V189H120.523V183.648C120.523 183.164 120.419 182.807 120.211 182.578C120.003 182.344 119.656 182.227 119.172 182.227C118.51 182.227 118.031 182.482 117.734 182.992V189H115.477V177H117.734V181.469ZM129.383 189C129.279 188.797 129.203 188.544 129.156 188.242C128.609 188.852 127.898 189.156 127.023 189.156C126.195 189.156 125.508 188.917 124.961 188.438C124.419 187.958 124.148 187.354 124.148 186.625C124.148 185.729 124.479 185.042 125.141 184.562C125.807 184.083 126.768 183.841 128.023 183.836H129.062V183.352C129.062 182.961 128.961 182.648 128.758 182.414C128.56 182.18 128.245 182.062 127.812 182.062C127.432 182.062 127.133 182.154 126.914 182.336C126.701 182.518 126.594 182.768 126.594 183.086H124.336C124.336 182.596 124.487 182.143 124.789 181.727C125.091 181.31 125.518 180.984 126.07 180.75C126.622 180.51 127.242 180.391 127.93 180.391C128.971 180.391 129.797 180.654 130.406 181.18C131.021 181.701 131.328 182.435 131.328 183.383V187.047C131.333 187.849 131.445 188.456 131.664 188.867V189H129.383ZM127.516 187.43C127.849 187.43 128.156 187.357 128.438 187.211C128.719 187.06 128.927 186.859 129.062 186.609V185.156H128.219C127.089 185.156 126.487 185.547 126.414 186.328L126.406 186.461C126.406 186.742 126.505 186.974 126.703 187.156C126.901 187.339 127.172 187.43 127.516 187.43ZM129.047 179.422H127.195L125.039 177H127.5L129.047 179.422ZM135.141 180.547L135.211 181.523C135.815 180.768 136.625 180.391 137.641 180.391C138.536 180.391 139.203 180.654 139.641 181.18C140.078 181.706 140.302 182.492 140.312 183.539V189H138.055V183.594C138.055 183.115 137.951 182.768 137.742 182.555C137.534 182.336 137.188 182.227 136.703 182.227C136.068 182.227 135.591 182.497 135.273 183.039V189H133.016V180.547H135.141ZM141.703 184.711C141.703 183.414 142.01 182.37 142.625 181.578C143.245 180.786 144.078 180.391 145.125 180.391C146.052 180.391 146.773 180.708 147.289 181.344L147.383 180.547H149.43V188.719C149.43 189.458 149.26 190.102 148.922 190.648C148.589 191.195 148.117 191.612 147.508 191.898C146.898 192.185 146.185 192.328 145.367 192.328C144.747 192.328 144.143 192.203 143.555 191.953C142.966 191.708 142.521 191.391 142.219 191L143.219 189.625C143.781 190.255 144.464 190.57 145.266 190.57C145.865 190.57 146.331 190.409 146.664 190.086C146.997 189.768 147.164 189.315 147.164 188.727V188.273C146.643 188.862 145.958 189.156 145.109 189.156C144.094 189.156 143.271 188.76 142.641 187.969C142.016 187.172 141.703 186.117 141.703 184.805V184.711ZM143.961 184.875C143.961 185.641 144.115 186.242 144.422 186.68C144.729 187.112 145.151 187.328 145.688 187.328C146.375 187.328 146.867 187.07 147.164 186.555V183C146.862 182.484 146.375 182.227 145.703 182.227C145.161 182.227 144.734 182.448 144.422 182.891C144.115 183.333 143.961 183.995 143.961 184.875Z" fill="#D72323"/>
<path d="M15.915 212.563C14.7894 212.24 13.9691 211.843 13.4541 211.374C12.9437 210.9 12.6885 210.317 12.6885 209.624C12.6885 208.84 13.0007 208.193 13.625 207.683C14.2539 207.168 15.0697 206.91 16.0723 206.91C16.7559 206.91 17.3643 207.042 17.8975 207.307C18.4352 207.571 18.8499 207.936 19.1416 208.4C19.4378 208.865 19.5859 209.373 19.5859 209.925H18.2666C18.2666 209.323 18.0752 208.852 17.6924 208.51C17.3096 208.163 16.7695 207.99 16.0723 207.99C15.4251 207.99 14.9193 208.134 14.5547 208.421C14.1947 208.703 14.0146 209.098 14.0146 209.604C14.0146 210.009 14.1855 210.353 14.5273 210.636C14.8737 210.914 15.4593 211.169 16.2842 211.401C17.1136 211.634 17.7607 211.891 18.2256 212.174C18.695 212.452 19.0413 212.778 19.2646 213.151C19.4925 213.525 19.6064 213.965 19.6064 214.471C19.6064 215.277 19.292 215.924 18.6631 216.412C18.0342 216.895 17.1934 217.137 16.1406 217.137C15.457 217.137 14.819 217.007 14.2266 216.747C13.6341 216.483 13.1761 216.123 12.8525 215.667C12.5335 215.211 12.374 214.694 12.374 214.115H13.6934C13.6934 214.717 13.9144 215.193 14.3564 215.544C14.8031 215.89 15.3978 216.063 16.1406 216.063C16.8333 216.063 17.3643 215.922 17.7334 215.64C18.1025 215.357 18.2871 214.972 18.2871 214.484C18.2871 213.997 18.1162 213.621 17.7744 213.356C17.4326 213.088 16.8128 212.823 15.915 212.563ZM22.3613 210.499C22.9219 209.811 23.651 209.467 24.5488 209.467C26.112 209.467 26.9004 210.349 26.9141 212.112V217H25.6494V212.105C25.6449 211.572 25.5218 211.178 25.2803 210.923C25.0433 210.668 24.6719 210.54 24.166 210.54C23.7559 210.54 23.3958 210.649 23.0859 210.868C22.776 211.087 22.5345 211.374 22.3613 211.729V217H21.0967V206.5H22.3613V210.499ZM30.1816 217H28.917V209.604H30.1816V217ZM28.8145 207.642C28.8145 207.437 28.876 207.263 28.999 207.122C29.1266 206.981 29.3135 206.91 29.5596 206.91C29.8057 206.91 29.9925 206.981 30.1201 207.122C30.2477 207.263 30.3115 207.437 30.3115 207.642C30.3115 207.847 30.2477 208.018 30.1201 208.154C29.9925 208.291 29.8057 208.359 29.5596 208.359C29.3135 208.359 29.1266 208.291 28.999 208.154C28.876 208.018 28.8145 207.847 28.8145 207.642ZM38.46 213.384C38.46 214.509 38.2025 215.416 37.6875 216.104C37.1725 216.793 36.4753 217.137 35.5957 217.137C34.6979 217.137 33.9915 216.852 33.4766 216.282V219.844H32.2119V209.604H33.3672L33.4287 210.424C33.9437 209.786 34.6592 209.467 35.5752 209.467C36.4639 209.467 37.1657 209.802 37.6807 210.472C38.2002 211.142 38.46 212.074 38.46 213.268V213.384ZM37.1953 213.24C37.1953 212.406 37.0176 211.748 36.6621 211.265C36.3066 210.782 35.819 210.54 35.1992 210.54C34.4336 210.54 33.8594 210.88 33.4766 211.559V215.093C33.8548 215.767 34.4336 216.104 35.2129 216.104C35.819 216.104 36.2998 215.865 36.6553 215.387C37.0153 214.904 37.1953 214.188 37.1953 213.24ZM46.3213 213.384C46.3213 214.509 46.0638 215.416 45.5488 216.104C45.0339 216.793 44.3366 217.137 43.457 217.137C42.5592 217.137 41.8529 216.852 41.3379 216.282V219.844H40.0732V209.604H41.2285L41.29 210.424C41.805 209.786 42.5205 209.467 43.4365 209.467C44.3252 209.467 45.027 209.802 45.542 210.472C46.0615 211.142 46.3213 212.074 46.3213 213.268V213.384ZM45.0566 213.24C45.0566 212.406 44.8789 211.748 44.5234 211.265C44.168 210.782 43.6803 210.54 43.0605 210.54C42.2949 210.54 41.7207 210.88 41.3379 211.559V215.093C41.7161 215.767 42.2949 216.104 43.0742 216.104C43.6803 216.104 44.1611 215.865 44.5166 215.387C44.8766 214.904 45.0566 214.188 45.0566 213.24ZM51.0039 217.137C50.0013 217.137 49.1855 216.809 48.5566 216.152C47.9277 215.492 47.6133 214.61 47.6133 213.507V213.274C47.6133 212.541 47.7523 211.887 48.0303 211.312C48.3128 210.734 48.7048 210.283 49.2061 209.959C49.7119 209.631 50.2588 209.467 50.8467 209.467C51.8083 209.467 52.5557 209.784 53.0889 210.417C53.6221 211.05 53.8887 211.957 53.8887 213.138V213.664H48.8779C48.8962 214.393 49.1081 214.983 49.5137 215.435C49.9238 215.881 50.4434 216.104 51.0723 216.104C51.5189 216.104 51.8971 216.013 52.207 215.831C52.5169 215.649 52.7881 215.407 53.0205 215.106L53.793 215.708C53.1732 216.66 52.2435 217.137 51.0039 217.137ZM50.8467 210.506C50.3363 210.506 49.9079 210.693 49.5615 211.066C49.2152 211.436 49.001 211.955 48.9189 212.625H52.624V212.529C52.5876 211.887 52.4144 211.39 52.1045 211.039C51.7946 210.684 51.3753 210.506 50.8467 210.506ZM58.9336 210.738C58.7422 210.706 58.5348 210.69 58.3115 210.69C57.4821 210.69 56.9193 211.044 56.623 211.75V217H55.3584V209.604H56.5889L56.6094 210.458C57.0241 209.797 57.612 209.467 58.373 209.467C58.6191 209.467 58.806 209.499 58.9336 209.562V210.738ZM63.7734 217V207.047H67.0273C68.1074 207.047 68.9186 207.27 69.4609 207.717C70.0078 208.163 70.2812 208.824 70.2812 209.699C70.2812 210.164 70.1491 210.576 69.8848 210.937C69.6204 211.292 69.2604 211.568 68.8047 211.764C69.3424 211.914 69.7663 212.201 70.0762 212.625C70.3906 213.044 70.5479 213.546 70.5479 214.129C70.5479 215.022 70.2585 215.724 69.6797 216.234C69.1009 216.745 68.2829 217 67.2256 217H63.7734ZM65.0859 212.345V215.927H67.2529C67.8636 215.927 68.3444 215.77 68.6953 215.455C69.0508 215.136 69.2285 214.699 69.2285 214.143C69.2285 212.944 68.5768 212.345 67.2734 212.345H65.0859ZM65.0859 211.292H67.0684C67.6426 211.292 68.1006 211.148 68.4424 210.861C68.7887 210.574 68.9619 210.185 68.9619 209.692C68.9619 209.146 68.8024 208.749 68.4834 208.503C68.1644 208.252 67.679 208.127 67.0273 208.127H65.0859V211.292ZM71.9629 213.233C71.9629 212.509 72.1042 211.857 72.3867 211.278C72.6738 210.7 73.0703 210.253 73.5762 209.938C74.0866 209.624 74.6676 209.467 75.3193 209.467C76.3265 209.467 77.14 209.815 77.7598 210.513C78.3841 211.21 78.6963 212.137 78.6963 213.295V213.384C78.6963 214.104 78.5573 214.751 78.2793 215.325C78.0059 215.895 77.6117 216.339 77.0967 216.658C76.5863 216.977 75.9984 217.137 75.333 217.137C74.3304 217.137 73.5169 216.788 72.8926 216.091C72.2728 215.394 71.9629 214.471 71.9629 213.322V213.233ZM73.2344 213.384C73.2344 214.204 73.4235 214.863 73.8018 215.359C74.1846 215.856 74.695 216.104 75.333 216.104C75.9756 216.104 76.486 215.854 76.8643 215.353C77.2425 214.847 77.4316 214.14 77.4316 213.233C77.4316 212.422 77.238 211.766 76.8506 211.265C76.4678 210.759 75.9574 210.506 75.3193 210.506C74.695 210.506 74.1914 210.754 73.8086 211.251C73.4258 211.748 73.2344 212.459 73.2344 213.384ZM82.6133 212.304L84.2539 209.604H85.7305L83.3105 213.261L85.8057 217H84.3428L82.6338 214.231L80.9248 217H79.4551L81.9502 213.261L79.5303 209.604H80.9932L82.6133 212.304ZM94.624 215.694C94.2868 216.177 93.8151 216.54 93.209 216.781C92.6074 217.018 91.9056 217.137 91.1035 217.137C90.2923 217.137 89.5723 216.948 88.9434 216.569C88.3145 216.187 87.8268 215.644 87.4805 214.942C87.1387 214.241 86.9632 213.427 86.9541 212.502V211.634C86.9541 210.134 87.3027 208.972 88 208.147C88.7018 207.323 89.6862 206.91 90.9531 206.91C91.9922 206.91 92.8285 207.177 93.4619 207.71C94.0954 208.239 94.4827 208.991 94.624 209.966H93.3115C93.0654 208.649 92.2816 207.99 90.96 207.99C90.0804 207.99 89.4128 208.3 88.957 208.92C88.5059 209.535 88.278 210.428 88.2734 211.6V212.413C88.2734 213.53 88.5286 214.418 89.0391 215.079C89.5495 215.735 90.2399 216.063 91.1104 216.063C91.6025 216.063 92.0332 216.009 92.4023 215.899C92.7715 215.79 93.0768 215.605 93.3184 215.346V213.11H91.0146V212.044H94.624V215.694ZM96.2852 213.233C96.2852 212.509 96.4264 211.857 96.709 211.278C96.9961 210.7 97.3926 210.253 97.8984 209.938C98.4089 209.624 98.9899 209.467 99.6416 209.467C100.649 209.467 101.462 209.815 102.082 210.513C102.706 211.21 103.019 212.137 103.019 213.295V213.384C103.019 214.104 102.88 214.751 102.602 215.325C102.328 215.895 101.934 216.339 101.419 216.658C100.909 216.977 100.321 217.137 99.6553 217.137C98.6527 217.137 97.8392 216.788 97.2148 216.091C96.5951 215.394 96.2852 214.471 96.2852 213.322V213.233ZM97.5566 213.384C97.5566 214.204 97.7458 214.863 98.124 215.359C98.5068 215.856 99.0173 216.104 99.6553 216.104C100.298 216.104 100.808 215.854 101.187 215.353C101.565 214.847 101.754 214.14 101.754 213.233C101.754 212.422 101.56 211.766 101.173 211.265C100.79 210.759 100.28 210.506 99.6416 210.506C99.0173 210.506 98.5137 210.754 98.1309 211.251C97.748 211.748 97.5566 212.459 97.5566 213.384ZM112.384 215.038C112.384 214.696 112.254 214.432 111.994 214.245C111.739 214.054 111.29 213.89 110.647 213.753C110.009 213.616 109.501 213.452 109.123 213.261C108.749 213.069 108.471 212.841 108.289 212.577C108.111 212.313 108.022 211.998 108.022 211.634C108.022 211.028 108.278 210.515 108.788 210.096C109.303 209.676 109.959 209.467 110.757 209.467C111.595 209.467 112.274 209.683 112.794 210.116C113.318 210.549 113.58 211.103 113.58 211.777H112.309C112.309 211.431 112.16 211.132 111.864 210.882C111.573 210.631 111.203 210.506 110.757 210.506C110.297 210.506 109.937 210.606 109.677 210.807C109.417 211.007 109.287 211.269 109.287 211.593C109.287 211.898 109.408 212.128 109.649 212.283C109.891 212.438 110.326 212.586 110.955 212.728C111.589 212.869 112.101 213.037 112.493 213.233C112.885 213.429 113.174 213.666 113.361 213.944C113.553 214.218 113.648 214.553 113.648 214.949C113.648 215.61 113.384 216.141 112.855 216.542C112.327 216.938 111.641 217.137 110.798 217.137C110.205 217.137 109.681 217.032 109.226 216.822C108.77 216.613 108.412 216.321 108.152 215.947C107.897 215.569 107.77 215.161 107.77 214.724H109.034C109.057 215.147 109.226 215.485 109.54 215.735C109.859 215.981 110.278 216.104 110.798 216.104C111.276 216.104 111.659 216.009 111.946 215.817C112.238 215.621 112.384 215.362 112.384 215.038ZM119.862 217C119.789 216.854 119.73 216.594 119.685 216.221C119.097 216.831 118.395 217.137 117.579 217.137C116.85 217.137 116.251 216.932 115.781 216.521C115.316 216.107 115.084 215.583 115.084 214.949C115.084 214.179 115.376 213.582 115.959 213.158C116.547 212.73 117.372 212.516 118.434 212.516H119.664V211.935C119.664 211.493 119.532 211.142 119.268 210.882C119.003 210.618 118.614 210.485 118.099 210.485C117.647 210.485 117.269 210.599 116.964 210.827C116.659 211.055 116.506 211.331 116.506 211.654H115.234C115.234 211.285 115.364 210.93 115.624 210.588C115.888 210.242 116.244 209.968 116.69 209.768C117.142 209.567 117.636 209.467 118.174 209.467C119.026 209.467 119.694 209.681 120.177 210.109C120.66 210.533 120.91 211.119 120.929 211.866V215.271C120.929 215.95 121.015 216.49 121.188 216.891V217H119.862ZM117.764 216.036C118.16 216.036 118.536 215.934 118.892 215.729C119.247 215.523 119.505 215.257 119.664 214.929V213.411H118.673C117.123 213.411 116.349 213.865 116.349 214.771C116.349 215.168 116.481 215.478 116.745 215.701C117.009 215.924 117.349 216.036 117.764 216.036ZM124.107 209.604L124.148 210.533C124.714 209.822 125.452 209.467 126.363 209.467C127.926 209.467 128.715 210.349 128.729 212.112V217H127.464V212.105C127.459 211.572 127.336 211.178 127.095 210.923C126.858 210.668 126.486 210.54 125.98 210.54C125.57 210.54 125.21 210.649 124.9 210.868C124.59 211.087 124.349 211.374 124.176 211.729V217H122.911V209.604H124.107ZM130.335 213.24C130.335 212.087 130.602 211.171 131.135 210.492C131.668 209.809 132.374 209.467 133.254 209.467C134.156 209.467 134.86 209.786 135.366 210.424L135.428 209.604H136.583V216.822C136.583 217.779 136.298 218.534 135.729 219.085C135.163 219.636 134.402 219.912 133.445 219.912C132.912 219.912 132.39 219.798 131.88 219.57C131.369 219.342 130.98 219.03 130.711 218.634L131.367 217.875C131.91 218.545 132.573 218.88 133.356 218.88C133.972 218.88 134.45 218.707 134.792 218.36C135.138 218.014 135.312 217.526 135.312 216.897V216.262C134.806 216.845 134.115 217.137 133.24 217.137C132.374 217.137 131.673 216.788 131.135 216.091C130.602 215.394 130.335 214.443 130.335 213.24ZM131.606 213.384C131.606 214.218 131.777 214.874 132.119 215.353C132.461 215.826 132.939 216.063 133.555 216.063C134.352 216.063 134.938 215.701 135.312 214.977V211.6C134.924 210.893 134.343 210.54 133.568 210.54C132.953 210.54 132.472 210.779 132.126 211.258C131.78 211.736 131.606 212.445 131.606 213.384ZM143.166 209.604L143.207 210.533C143.772 209.822 144.51 209.467 145.422 209.467C146.985 209.467 147.773 210.349 147.787 212.112V217H146.522V212.105C146.518 211.572 146.395 211.178 146.153 210.923C145.916 210.668 145.545 210.54 145.039 210.54C144.629 210.54 144.269 210.649 143.959 210.868C143.649 211.087 143.408 211.374 143.234 211.729V217H141.97V209.604H143.166ZM150.959 210.499C151.52 209.811 152.249 209.467 153.146 209.467C154.71 209.467 155.498 210.349 155.512 212.112V217H154.247V212.105C154.243 211.572 154.119 211.178 153.878 210.923C153.641 210.668 153.27 210.54 152.764 210.54C152.354 210.54 151.993 210.649 151.684 210.868C151.374 211.087 151.132 211.374 150.959 211.729V217H149.694V206.5H150.959V210.499ZM161.972 217C161.899 216.854 161.84 216.594 161.794 216.221C161.206 216.831 160.504 217.137 159.688 217.137C158.959 217.137 158.36 216.932 157.891 216.521C157.426 216.107 157.193 215.583 157.193 214.949C157.193 214.179 157.485 213.582 158.068 213.158C158.656 212.73 159.481 212.516 160.543 212.516H161.773V211.935C161.773 211.493 161.641 211.142 161.377 210.882C161.113 210.618 160.723 210.485 160.208 210.485C159.757 210.485 159.379 210.599 159.073 210.827C158.768 211.055 158.615 211.331 158.615 211.654H157.344C157.344 211.285 157.474 210.93 157.733 210.588C157.998 210.242 158.353 209.968 158.8 209.768C159.251 209.567 159.745 209.467 160.283 209.467C161.135 209.467 161.803 209.681 162.286 210.109C162.769 210.533 163.02 211.119 163.038 211.866V215.271C163.038 215.95 163.125 216.49 163.298 216.891V217H161.972ZM159.873 216.036C160.27 216.036 160.646 215.934 161.001 215.729C161.356 215.523 161.614 215.257 161.773 214.929V213.411H160.782C159.233 213.411 158.458 213.865 158.458 214.771C158.458 215.168 158.59 215.478 158.854 215.701C159.119 215.924 159.458 216.036 159.873 216.036ZM162.491 208.373V208.441H161.445L160.42 207.279L159.401 208.441H158.355V208.359L160.037 206.5H160.803L162.491 208.373ZM159.087 218.675C159.087 218.47 159.148 218.297 159.271 218.155C159.399 218.014 159.586 217.943 159.832 217.943C160.078 217.943 160.265 218.014 160.393 218.155C160.52 218.297 160.584 218.47 160.584 218.675C160.584 218.88 160.52 219.051 160.393 219.188C160.265 219.324 160.078 219.393 159.832 219.393C159.586 219.393 159.399 219.324 159.271 219.188C159.148 219.051 159.087 218.88 159.087 218.675ZM166.217 209.604L166.258 210.533C166.823 209.822 167.561 209.467 168.473 209.467C170.036 209.467 170.824 210.349 170.838 212.112V217H169.573V212.105C169.569 211.572 169.446 211.178 169.204 210.923C168.967 210.668 168.596 210.54 168.09 210.54C167.68 210.54 167.32 210.649 167.01 210.868C166.7 211.087 166.458 211.374 166.285 211.729V217H165.021V209.604H166.217ZM177.482 210.499C178.043 209.811 178.772 209.467 179.67 209.467C181.233 209.467 182.021 210.349 182.035 212.112V217H180.771V212.105C180.766 211.572 180.643 211.178 180.401 210.923C180.164 210.668 179.793 210.54 179.287 210.54C178.877 210.54 178.517 210.649 178.207 210.868C177.897 211.087 177.656 211.374 177.482 211.729V217H176.218V206.5H177.482V210.499ZM188.495 217C188.422 216.854 188.363 216.594 188.317 216.221C187.729 216.831 187.028 217.137 186.212 217.137C185.483 217.137 184.883 216.932 184.414 216.521C183.949 216.107 183.717 215.583 183.717 214.949C183.717 214.179 184.008 213.582 184.592 213.158C185.18 212.73 186.005 212.516 187.066 212.516H188.297V211.935C188.297 211.493 188.165 211.142 187.9 210.882C187.636 210.618 187.246 210.485 186.731 210.485C186.28 210.485 185.902 210.599 185.597 210.827C185.291 211.055 185.139 211.331 185.139 211.654H183.867C183.867 211.285 183.997 210.93 184.257 210.588C184.521 210.242 184.877 209.968 185.323 209.768C185.774 209.567 186.269 209.467 186.807 209.467C187.659 209.467 188.326 209.681 188.81 210.109C189.293 210.533 189.543 211.119 189.562 211.866V215.271C189.562 215.95 189.648 216.49 189.821 216.891V217H188.495ZM186.396 216.036C186.793 216.036 187.169 215.934 187.524 215.729C187.88 215.523 188.137 215.257 188.297 214.929V213.411H187.306C185.756 213.411 184.981 213.865 184.981 214.771C184.981 215.168 185.114 215.478 185.378 215.701C185.642 215.924 185.982 216.036 186.396 216.036ZM187.668 208.51H186.581L184.817 206.5H186.342L187.668 208.51ZM192.74 209.604L192.781 210.533C193.346 209.822 194.085 209.467 194.996 209.467C196.559 209.467 197.348 210.349 197.361 212.112V217H196.097V212.105C196.092 211.572 195.969 211.178 195.728 210.923C195.491 210.668 195.119 210.54 194.613 210.54C194.203 210.54 193.843 210.649 193.533 210.868C193.223 211.087 192.982 211.374 192.809 211.729V217H191.544V209.604H192.74ZM198.968 213.24C198.968 212.087 199.234 211.171 199.768 210.492C200.301 209.809 201.007 209.467 201.887 209.467C202.789 209.467 203.493 209.786 203.999 210.424L204.061 209.604H205.216V216.822C205.216 217.779 204.931 218.534 204.361 219.085C203.796 219.636 203.035 219.912 202.078 219.912C201.545 219.912 201.023 219.798 200.513 219.57C200.002 219.342 199.613 219.03 199.344 218.634L200 217.875C200.542 218.545 201.205 218.88 201.989 218.88C202.604 218.88 203.083 218.707 203.425 218.36C203.771 218.014 203.944 217.526 203.944 216.897V216.262C203.438 216.845 202.748 217.137 201.873 217.137C201.007 217.137 200.305 216.788 199.768 216.091C199.234 215.394 198.968 214.443 198.968 213.24ZM200.239 213.384C200.239 214.218 200.41 214.874 200.752 215.353C201.094 215.826 201.572 216.063 202.188 216.063C202.985 216.063 203.571 215.701 203.944 214.977V211.6C203.557 210.893 202.976 210.54 202.201 210.54C201.586 210.54 201.105 210.779 200.759 211.258C200.412 211.736 200.239 212.445 200.239 213.384Z" fill="#303841"/>
<rect x="80.5" y="141.5" width="53" height="17" rx="8.5" fill="white"/>
<path d="M92.9082 154H91.2148V147.473L89.1934 148.1V146.723L92.7266 145.457H92.9082V154ZM105.793 154H104.035L100.613 148.387V154H98.8555V145.469H100.613L104.041 151.094V145.469H105.793V154ZM106.971 150.783C106.971 149.811 107.201 149.027 107.662 148.434C108.127 147.84 108.752 147.543 109.537 147.543C110.232 147.543 110.773 147.781 111.16 148.258L111.23 147.66H112.766V153.789C112.766 154.344 112.639 154.826 112.385 155.236C112.135 155.646 111.781 155.959 111.324 156.174C110.867 156.389 110.332 156.496 109.719 156.496C109.254 156.496 108.801 156.402 108.359 156.215C107.918 156.031 107.584 155.793 107.357 155.5L108.107 154.469C108.529 154.941 109.041 155.178 109.643 155.178C110.092 155.178 110.441 155.057 110.691 154.814C110.941 154.576 111.066 154.236 111.066 153.795V153.455C110.676 153.896 110.162 154.117 109.525 154.117C108.764 154.117 108.146 153.82 107.674 153.227C107.205 152.629 106.971 151.838 106.971 150.854V150.783ZM108.664 150.906C108.664 151.48 108.779 151.932 109.01 152.26C109.24 152.584 109.557 152.746 109.959 152.746C110.475 152.746 110.844 152.553 111.066 152.166V149.5C110.84 149.113 110.475 148.92 109.971 148.92C109.564 148.92 109.244 149.086 109.01 149.418C108.779 149.75 108.664 150.246 108.664 150.906ZM117.746 154C117.668 153.848 117.611 153.658 117.576 153.432C117.166 153.889 116.633 154.117 115.977 154.117C115.355 154.117 114.84 153.938 114.43 153.578C114.023 153.219 113.82 152.766 113.82 152.219C113.82 151.547 114.068 151.031 114.564 150.672C115.064 150.312 115.785 150.131 116.727 150.127H117.506V149.764C117.506 149.471 117.43 149.236 117.277 149.061C117.129 148.885 116.893 148.797 116.568 148.797C116.283 148.797 116.059 148.865 115.895 149.002C115.734 149.139 115.654 149.326 115.654 149.564H113.961C113.961 149.197 114.074 148.857 114.301 148.545C114.527 148.232 114.848 147.988 115.262 147.812C115.676 147.633 116.141 147.543 116.656 147.543C117.438 147.543 118.057 147.74 118.514 148.135C118.975 148.525 119.205 149.076 119.205 149.787V152.535C119.209 153.137 119.293 153.592 119.457 153.9V154H117.746ZM116.346 152.822C116.596 152.822 116.826 152.768 117.037 152.658C117.248 152.545 117.404 152.395 117.506 152.207V151.117H116.873C116.025 151.117 115.574 151.41 115.52 151.996L115.514 152.096C115.514 152.307 115.588 152.48 115.736 152.617C115.885 152.754 116.088 152.822 116.346 152.822ZM117.494 146.816H116.105L114.488 145H116.334L117.494 146.816ZM122.779 151.604L123.951 147.66H125.768L123.219 154.984L123.078 155.318C122.699 156.146 122.074 156.561 121.203 156.561C120.957 156.561 120.707 156.523 120.453 156.449V155.166L120.711 155.172C121.031 155.172 121.27 155.123 121.426 155.025C121.586 154.928 121.711 154.766 121.801 154.539L122 154.018L119.779 147.66H121.602L122.779 151.604Z" fill="#868A96"/>
<rect x="80.5" y="141.5" width="53" height="17" rx="8.5" stroke="#F4E5E5"/>
<g clip-path="url(#clip0)">
<path d="M88.1871 111.64L155.939 72.4758C156.835 71.9356 156.745 71.0352 155.67 70.495L129.77 55.4597C128.695 54.8294 127.171 54.8294 126.275 55.2796L58.613 94.5336C57.7168 95.0738 57.8064 95.9741 58.8818 96.5143L84.7816 111.55C85.7674 112.18 87.2909 112.18 88.1871 111.64Z" fill="#C2BACC"/>
<path d="M85.857 102.816C85.5882 102.636 85.1401 102.636 84.8712 102.816L83.1685 103.807V106.238C83.1685 106.868 83.3477 107.318 83.7062 107.498C83.975 107.678 84.3335 107.588 84.692 107.408L86.3947 106.418V103.717C86.3947 103.267 86.2155 102.997 85.857 102.816Z" fill="#9C93AA"/>
<path d="M100.644 82.4695C100.734 82.5595 100.823 82.4695 100.913 82.4695L103.333 81.029C103.691 80.8489 103.96 80.2187 103.96 79.7685C103.96 79.5885 103.87 79.4084 103.781 79.3184H103.691C103.601 79.3184 103.512 79.3184 103.512 79.4084L101.092 80.8489C100.734 81.029 100.465 81.6592 100.465 82.1094C100.465 82.2894 100.465 82.3795 100.644 82.4695Z" fill="white"/>
<path d="M92.7576 101.376C92.7576 95.7943 94.9085 91.8329 99.479 89.222L105.752 85.5307V62.3024C105.752 61.7622 105.573 61.4021 105.304 61.222C105.215 61.132 105.125 61.132 105.035 61.132C104.856 61.132 104.677 61.222 104.498 61.312L91.1445 69.0548C90.1587 69.685 89.2625 71.0355 88.904 72.566L83.5269 97.9551C83.2581 99.0355 83.1685 100.116 83.1685 101.106V103.357L84.6024 102.547C85.0504 102.277 85.5882 102.277 86.0362 102.547C86.4843 102.817 86.7532 103.267 86.7532 103.807V106.238L89.8002 104.437V86.431L89.4417 86.2509L88.5456 86.7911C88.3663 86.8812 88.1871 86.9712 87.9182 86.9712C87.739 86.9712 87.5598 86.8812 87.4701 86.7911C87.1117 86.521 86.9324 85.8008 87.1117 85.0805L89.621 73.0162C89.8002 72.2059 90.3379 71.3956 90.8756 71.0355L103.601 63.6529C103.96 63.4728 104.318 63.3828 104.587 63.5628C104.946 63.7429 105.125 64.1931 105.125 64.7332V75.267C105.125 76.2574 104.587 77.3377 103.781 77.7879L92.9369 84.0902V85.8908C92.9369 86.2509 92.7576 86.431 92.5784 86.6111C92.5784 86.6111 92.5784 86.6111 92.4888 86.7011L91.7718 87.0612C91.6822 87.0612 91.5926 87.1513 91.503 87.1513C91.4134 87.1513 91.2341 87.1512 91.1445 87.0612L90.2483 86.521V103.987L92.7576 102.457V101.376ZM100.913 80.3988L103.333 78.9583C103.601 78.7783 103.87 78.7783 104.05 78.9583C104.318 79.1384 104.408 79.4085 104.408 79.7686C104.408 80.3988 104.05 81.1191 103.512 81.3892L101.092 82.8297C100.913 82.9197 100.823 82.9197 100.644 82.9197C100.554 82.9197 100.465 82.9197 100.375 82.8297C100.106 82.6496 100.017 82.3795 100.017 82.0194C100.017 81.3892 100.375 80.6689 100.913 80.3988Z" fill="#C2BACC"/>
<path d="M157.373 17.5562L127.799 0.450073L81.5555 27.2797L78.9565 28.8102L108.441 45.9163L157.373 17.5562Z" fill="#F23A3A"/>
<path d="M90.9655 68.6945L104.319 60.9517C104.408 60.8617 104.498 60.8617 104.587 60.7717L79.4047 46.1865C79.2255 46.0964 78.9566 46.1865 78.6877 46.2765L65.3346 54.1093C64.3488 54.7395 63.4526 56.09 63.0941 57.6205L62.0187 63.0225C62.0187 63.0225 62.0187 63.0225 62.0187 63.1125V63.2025L57.8066 82.9196C57.8066 83.0096 57.8066 83.0096 57.8066 83.0996L83.1687 97.7749L88.5458 72.3858C88.8146 70.7652 89.8004 69.3247 90.9655 68.6945ZM86.4845 67.7942C86.5742 67.7041 86.6638 67.7041 86.7534 67.7041L87.2015 67.9742C87.2911 68.0643 87.2911 68.1543 87.2911 68.2443C87.2911 68.3344 87.2015 68.3344 87.1119 68.3344H87.0223L86.5742 68.0643C86.3949 68.0643 86.3949 67.8842 86.4845 67.7942ZM85.0507 66.9839C85.1403 66.8939 85.2299 66.8939 85.3195 66.8939L85.7676 67.1639C85.8572 67.254 85.8572 67.344 85.8572 67.434C85.8572 67.5241 85.7676 67.5241 85.678 67.5241H85.5884L85.1403 67.254C85.0507 67.254 84.961 67.0739 85.0507 66.9839ZM83.6168 66.1736C83.7064 66.0836 83.796 66.0836 83.8856 66.0836L84.3337 66.3537C84.4233 66.4437 84.4233 66.5337 84.4233 66.6238C84.4233 66.7138 84.3337 66.7138 84.2441 66.7138H84.1545L83.7064 66.4437C83.6168 66.3537 83.5271 66.2636 83.6168 66.1736ZM82.1829 65.3633C82.2725 65.2733 82.3621 65.1832 82.4517 65.2733L82.8998 65.5434C82.9894 65.6334 82.9894 65.7234 82.9894 65.8135C82.9894 65.9035 82.8998 65.9035 82.8102 65.9035H82.7206L82.2725 65.6334C82.1829 65.5434 82.0932 65.4533 82.1829 65.3633ZM80.749 64.553C80.8386 64.463 80.9282 64.3729 81.0178 64.463L81.4659 64.7331C81.5555 64.8231 81.5555 64.9131 81.5555 65.0032C81.5555 65.0932 81.4659 65.0932 81.3763 65.0932H81.2867L80.8386 64.8231C80.749 64.7331 80.749 64.643 80.749 64.553ZM79.3151 63.6527C79.4047 63.5627 79.4943 63.5627 79.5839 63.5627L80.032 63.8328C80.1216 63.9228 80.1216 64.0128 80.1216 64.1029C80.1216 64.1929 80.032 64.1929 79.9424 64.1929H79.8528L79.4047 64.0128C79.3151 63.9228 79.3151 63.7427 79.3151 63.6527ZM77.8812 62.8424C77.9708 62.7524 78.0604 62.7524 78.15 62.7524L78.5981 63.0225C78.6877 63.1125 78.6877 63.2025 78.6877 63.2926C78.6877 63.3826 78.5981 63.3826 78.5085 63.3826H78.4189L77.9708 63.1125C77.8812 63.1125 77.8812 62.9324 77.8812 62.8424ZM76.4473 62.0321C76.5369 61.9421 76.6265 61.9421 76.7161 61.9421L77.1642 62.2122C77.2538 62.3022 77.2538 62.3922 77.2538 62.4823C77.2538 62.5723 77.1642 62.5723 77.0746 62.5723H76.985L76.5369 62.3022C76.4473 62.3022 76.4473 62.1221 76.4473 62.0321ZM75.103 61.2218C75.1926 61.1318 75.2822 61.0418 75.3719 61.1318L75.82 61.4019C75.9096 61.4919 75.9096 61.582 75.9096 61.672C75.9096 61.762 75.82 61.762 75.7303 61.762H75.6407L75.1926 61.4919C75.0134 61.4019 75.0134 61.3119 75.103 61.2218ZM73.6691 60.4115C73.7587 60.3215 73.8483 60.2315 73.938 60.3215L74.3861 60.5916C74.4757 60.6816 74.4757 60.7717 74.4757 60.8617C74.4757 60.9517 74.3861 60.9517 74.2964 60.9517H74.2068L73.7587 60.6816C73.5795 60.5916 73.5795 60.5016 73.6691 60.4115ZM72.2352 59.6012C72.3248 59.5112 72.4144 59.4212 72.5041 59.5112L72.9522 59.7813C73.0418 59.8713 73.0418 59.9614 73.0418 60.0514C73.0418 60.1414 72.9522 60.1414 72.8625 60.1414H72.7729L72.3248 59.8713C72.2352 59.7813 72.1456 59.6913 72.2352 59.6012ZM70.8013 58.7009C70.8909 58.6109 70.9806 58.6109 71.0702 58.6109L71.5183 58.881C71.6079 58.971 71.6079 59.0611 71.6079 59.1511C71.6079 59.2411 71.5183 59.2411 71.4286 59.2411H71.339L70.8909 58.971C70.8013 58.971 70.7117 58.791 70.8013 58.7009ZM69.3674 57.8906C69.457 57.8006 69.5467 57.8006 69.6363 57.8006L70.0844 58.0707C70.174 58.1607 70.174 58.2508 70.174 58.3408C70.174 58.4308 70.0844 58.4308 69.9948 58.4308H69.9051L69.457 58.1607C69.3674 58.1607 69.2778 57.9807 69.3674 57.8906ZM67.9335 57.0804C68.0231 56.9903 68.1128 56.9903 68.2024 56.9903L68.6505 57.2604C68.7401 57.3504 68.7401 57.4405 68.7401 57.5305C68.7401 57.6205 68.6505 57.6205 68.5609 57.6205H68.4712L68.0231 57.3504C67.9335 57.3504 67.9335 57.1704 67.9335 57.0804ZM66.4996 56.2701C66.5893 56.18 66.6789 56.09 66.7685 56.18L67.2166 56.4501C67.3062 56.5402 67.3062 56.6302 67.3062 56.7202C67.3062 56.8103 67.2166 56.8103 67.127 56.8103H67.0373L66.5893 56.5402C66.4996 56.4501 66.4996 56.3601 66.4996 56.2701ZM65.3346 55.5498C65.4242 55.4598 65.5138 55.3697 65.6034 55.4598L65.8723 55.6398C65.9619 55.6398 65.9619 55.8199 65.9619 55.9099C65.9619 56 65.8723 56 65.7827 56H65.6931L65.4242 55.8199C65.3346 55.8199 65.245 55.6398 65.3346 55.5498ZM88.0081 72.7459L85.0507 86.4308C84.961 86.791 84.6922 87.1511 84.3337 87.2411C84.1545 87.3311 83.9752 87.3311 83.8856 87.3311C83.7064 87.3311 83.4375 87.2411 83.2583 87.1511L60.9433 74.2765C60.4952 74.0064 60.2263 73.4662 60.4056 73.016L63.4526 58.791C63.5422 58.5209 63.6318 58.3408 63.9007 58.2508C64.1696 58.1607 64.4384 58.1607 64.6176 58.2508L87.3807 71.4855C87.8288 71.7556 88.0977 72.2958 88.0081 72.7459ZM88.2769 69.0546H88.1873L87.9184 68.8746C87.8288 68.7845 87.8288 68.6945 87.8288 68.6045C87.9184 68.5144 88.0081 68.4244 88.0977 68.5144L88.3665 68.6945C88.4562 68.7845 88.4562 68.8746 88.4562 68.9646C88.4562 69.0546 88.3665 69.0546 88.2769 69.0546Z" fill="#DFD9E4"/>
<path d="M103.602 77.4275C104.229 77.0674 104.677 76.077 104.677 75.2667V64.733C104.677 64.3728 104.588 64.0127 104.319 63.9227C104.139 63.8326 103.871 63.9227 103.691 64.0127L91.0552 71.3053C90.6071 71.5754 90.159 72.2957 89.9798 72.9259L88.7251 78.778L89.5317 78.3278C89.6213 78.3278 89.6213 78.3278 89.7109 78.3278C89.8005 78.3278 89.9798 78.3278 90.159 78.4179L92.041 79.4982C92.4891 79.7683 92.8475 80.4886 92.8475 81.1188V83.5497L103.602 77.4275Z" fill="#353535"/>
<path d="M89.5314 85.6205L91.4134 86.7009C91.503 86.7009 91.5926 86.7909 91.6822 86.7009C91.7719 86.6109 91.8615 86.5208 91.8615 86.2507V81.479C91.8615 81.0289 91.5926 80.3986 91.2341 80.2186L89.2625 79.2282C89.2625 79.2282 89.1729 79.1382 89.0833 79.1382H88.9937C88.9041 79.2282 88.8145 79.3182 88.8145 79.5883V84.36C88.8145 84.8102 89.1729 85.3504 89.5314 85.6205Z" fill="white"/>
<path d="M99.479 90.1223C100.286 89.6721 101.092 89.402 101.809 89.402L100.823 88.8618L99.6582 89.5821C95.2669 92.103 93.2057 95.9744 93.2057 101.376V102.637C93.2057 102.727 93.2057 102.817 93.1161 102.817L92.668 103.087L94.7292 104.257C94.1915 103.357 93.833 102.187 93.833 100.746C93.9226 96.6946 96.4319 91.9229 99.479 90.1223Z" fill="#2D2D2D"/>
<path d="M87.2015 71.8456L64.4384 58.6109C64.3488 58.6109 64.3488 58.5209 64.2592 58.5209C64.1695 58.5209 64.1695 58.5209 64.0799 58.5209C63.9903 58.6109 63.9007 58.7009 63.9007 58.791L60.764 73.1061C60.6744 73.4662 60.8537 73.7363 61.1225 73.9164L83.4375 86.881C83.6167 86.971 83.8856 87.0611 84.1545 86.881C84.4233 86.791 84.5129 86.6109 84.6025 86.3408L87.56 72.6559C87.6496 72.3858 87.4703 72.0257 87.2015 71.8456Z" fill="#494949"/>
<path d="M92.22 86.3409L92.3096 86.2509C92.4889 86.1608 92.5785 86.0708 92.5785 85.8007V81.029C92.5785 80.5788 92.3096 79.9486 91.9512 79.7686L90.0692 78.6882C89.9796 78.5981 89.8899 78.5981 89.8899 78.5981L89.6211 78.7782L91.4135 79.8586C91.8616 80.1287 92.22 80.8489 92.22 81.4792V86.2509C92.22 86.3409 92.22 86.3409 92.22 86.3409Z" fill="#DFD9E4"/>
<path d="M87.56 84.9905C87.4704 85.6208 87.56 86.0709 87.8288 86.251C88.0081 86.431 88.2769 86.341 88.4562 86.251L89.1731 85.8008C88.8146 85.4407 88.5458 84.9005 88.5458 84.3603V80.759L87.56 84.9905Z" fill="#353535"/>
<path d="M61.2122 63.5627V64.7331L61.5707 63.0225C61.5707 62.5723 61.3018 62.0321 60.9434 61.8521L59.0614 60.7717C58.9718 60.6816 58.8821 60.6816 58.8821 60.6816L58.6133 60.8617L60.4057 61.9421C60.8537 62.2122 61.2122 62.9324 61.2122 63.5627Z" fill="#DFD9E4"/>
<path d="M76.4473 99.5756L77.0746 99.0354L63.4526 91.1125L63.9903 92.373L76.4473 99.5756Z" fill="#494949"/>
<path d="M78.2396 98.225L62.4668 89.0417L63.1837 90.4823L77.4331 98.7652L78.2396 98.225Z" fill="#494949"/>
<path d="M79.4943 45.8262C79.5839 45.8262 79.5839 45.8262 79.4943 45.8262L105.484 60.8616C105.932 61.1317 106.111 61.6718 106.111 62.3021V85.6204C106.111 85.7104 106.111 85.8005 106.021 85.8005L105.215 86.2506L108.262 88.0513V46.1863L78.7773 29.0802V45.8262C79.0462 45.7362 79.3151 45.7362 79.4943 45.8262Z" fill="#D72323"/>
<path d="M100.734 94.984C100.644 94.8939 100.465 94.8939 100.285 94.8939C100.106 94.8939 99.8374 94.984 99.5685 95.074C98.4931 95.7042 97.6865 97.3248 97.6865 98.6753C97.6865 99.3955 97.8658 99.9357 98.3139 100.116C98.5827 100.296 99.0308 100.206 99.3893 100.026C100.465 99.3955 101.271 97.7749 101.271 96.4245C101.361 95.7942 101.182 95.254 100.734 94.984Z" fill="white"/>
<path d="M79.3153 97.4147L61.5708 87.151L62.1981 88.4114L78.5983 97.9549L79.3153 97.4147Z" fill="#494949"/>
<path d="M60.7638 66.6237V63.4726C60.7638 63.0224 60.4949 62.3922 60.1365 62.2121L58.2545 61.2218C58.1649 61.2218 58.0752 61.1317 57.9856 61.2218C57.896 61.2218 57.896 61.4018 57.896 61.5819V66.3536C57.896 66.8038 58.1649 67.434 58.5233 67.6141L60.4053 68.6944L60.7638 66.6237Z" fill="white"/>
<path d="M80.301 96.6045L60.7642 85.2605L61.3019 86.4309L79.6737 97.1447L80.301 96.6045Z" fill="#494949"/>
<path d="M76.8955 99.7555L82.8103 103.177V100.926C82.8103 100.026 82.8999 99.1253 83.0792 98.1349L80.7491 96.7844L76.8955 99.7555Z" fill="white"/>
<path d="M101.271 88.5916L103.243 89.762L103.333 89.8521C103.691 90.0321 103.96 90.3022 104.139 90.6623L107.993 88.4115L104.677 86.5209L101.271 88.5916Z" fill="#494949"/>
<path d="M82.8103 103.717L76.4474 100.026C76.4474 100.026 76.3577 100.026 76.3577 99.9356L57.4482 89.0417V91.2926C57.4482 91.8327 57.6275 92.2829 57.8963 92.553L82.8999 107.048C82.8103 106.778 82.8103 106.508 82.8103 106.238V103.717Z" fill="#C2BACC"/>
<path d="M60.1366 84.9005L57.6273 83.46C57.448 84.3603 57.3584 85.1706 57.3584 86.0709V88.5018L63.2732 91.923L60.1366 84.9005Z" fill="white"/>
<path d="M142.496 74.6366C142.765 74.8167 143.213 74.7267 143.571 74.5466C144.647 73.9164 145.453 72.2958 145.453 70.9453C145.453 70.3151 145.274 69.8649 145.005 69.5948L142.406 71.1254C142.048 71.8456 141.869 72.5659 141.869 73.2862C141.869 73.9164 142.048 74.3665 142.496 74.6366Z" fill="white"/>
<path d="M108.62 88.5915L104.498 91.0224C104.677 91.3825 104.856 91.8326 105.035 92.2828L140.255 71.8455L144.915 69.1446L155.49 63.0224V61.4918L108.62 88.5915Z" fill="#353535"/>
<path d="M140.524 72.2058C140.345 72.926 140.255 73.5563 140.255 74.1865C140.255 75.537 140.703 76.5273 141.42 76.9775C142.048 77.3376 142.765 77.2476 143.571 76.7974C145.543 75.627 147.066 72.6559 147.066 70.045C147.066 69.5048 146.977 69.0547 146.887 68.6045L145.364 69.5048C145.632 69.8649 145.812 70.4051 145.812 71.0354C145.812 72.5659 144.826 74.3666 143.75 75.0868C143.482 75.2669 143.123 75.3569 142.854 75.3569C142.675 75.3569 142.406 75.2669 142.227 75.1768C141.689 74.9067 141.42 74.1865 141.42 73.3762C141.42 72.836 141.51 72.2058 141.779 71.5756L140.524 72.2058ZM146.439 69.8649C146.618 69.7749 146.798 69.8649 146.798 70.135C146.798 70.4051 146.618 70.7653 146.439 70.8553C146.26 70.9453 146.081 70.8553 146.081 70.5852C146.081 70.3151 146.26 70.045 146.439 69.8649ZM145.364 73.2862C145.543 73.0161 145.722 72.836 145.901 73.0161C146.081 73.1061 146.081 73.4662 145.901 73.7363C145.722 74.0064 145.543 74.1865 145.364 74.0064C145.184 73.9164 145.184 73.5563 145.364 73.2862ZM143.661 75.2669C143.84 75.1768 144.019 75.2669 144.019 75.537C144.019 75.8071 143.84 76.1672 143.661 76.2572C143.482 76.3473 143.302 76.2572 143.302 75.9871C143.302 75.717 143.482 75.3569 143.661 75.2669ZM140.883 74.1865C140.703 74.2765 140.524 74.1865 140.524 73.9164C140.524 73.6463 140.703 73.2862 140.883 73.1961C141.062 73.1061 141.241 73.1961 141.241 73.4662C141.241 73.7363 141.062 74.0064 140.883 74.1865ZM141.958 75.2669C142.137 75.3569 142.137 75.717 141.958 75.9871C141.779 76.2572 141.6 76.4373 141.42 76.2572C141.241 76.1672 141.241 75.8071 141.42 75.537C141.6 75.3569 141.779 75.1768 141.958 75.2669Z" fill="white"/>
<path d="M138.105 73.5565L134.52 75.6273C134.789 76.1675 135.237 76.6176 135.685 76.8877L138.822 78.6884C138.284 77.788 137.926 76.6176 137.926 75.1771C138.015 74.6369 138.015 74.0967 138.105 73.5565Z" fill="#2D2D2D"/>
<path d="M147.246 68.2443C147.425 68.6944 147.515 69.3246 147.515 69.8648C147.515 72.5658 145.812 75.807 143.751 76.9774C143.213 77.2475 142.675 77.4275 142.227 77.4275C141.869 77.4275 141.51 77.3375 141.152 77.1574C140.256 76.6172 139.807 75.5369 139.807 74.0063C139.807 73.4661 139.897 72.9259 139.987 72.2957L138.553 73.2861C138.463 73.9163 138.374 74.5465 138.374 75.1767C138.374 77.2475 139.001 78.778 140.166 79.4082C141.062 79.9484 142.317 79.8584 143.571 79.1381C146.529 77.4275 148.949 72.7459 148.949 68.7845C148.949 68.2443 148.859 67.7941 148.769 67.2539L147.246 68.2443Z" fill="#353535"/>
<path d="M155.939 56.6301L153.071 58.2507V60.1414L155.939 58.5208V56.6301Z" fill="white"/>
<path d="M108.71 81.2091L157.552 52.8489V50.7782L108.71 79.1383V81.2091Z" fill="white"/>
<path d="M108.71 88.0514L155.491 60.8617C155.491 60.7716 155.58 60.7716 155.67 60.7716L157.552 59.6912V53.299L108.71 81.6591V88.0514ZM152.623 58.1607C152.623 58.0707 152.623 57.9806 152.713 57.9806L156.028 56.0899C156.118 56.0899 156.208 56.0899 156.208 56.0899C156.297 56.0899 156.297 56.18 156.297 56.27V58.7009C156.297 58.7909 156.297 58.8809 156.208 58.8809L152.892 60.7716H152.802H152.713C152.623 60.7716 152.623 60.6816 152.623 60.5916V58.1607ZM110.413 82.6495C110.413 82.5594 110.413 82.4694 110.502 82.4694L113.818 80.5787C113.908 80.5787 113.997 80.5787 113.997 80.5787C114.087 80.5787 114.087 80.6687 114.087 80.7588V83.1896C114.087 83.2797 114.087 83.3697 113.997 83.3697L110.771 85.2604H110.682H110.592C110.502 85.2604 110.502 85.1704 110.502 85.0803V82.6495H110.413Z" fill="#D61914"/>
<path d="M124.214 53.479C124.124 53.479 124.124 53.389 124.124 53.299V49.8778L118.747 60.3215L124.124 64.463V60.5916C124.124 60.5015 124.124 60.4115 124.214 60.4115L157.552 41.0546V34.2122L124.483 53.479C124.393 53.479 124.303 53.479 124.214 53.479Z" fill="white"/>
<path d="M108.71 78.6881L157.552 50.328V41.4148L124.572 60.5916V64.8231C124.572 64.9132 124.483 65.0032 124.483 65.0032H124.393H124.304L118.389 60.5016C118.299 60.4116 118.299 60.3215 118.299 60.2315L124.214 48.8875C124.214 48.7974 124.393 48.7974 124.483 48.7974C124.572 48.7974 124.662 48.8875 124.662 48.9775V52.9389L157.642 33.762V17.9164L108.71 46.2765V78.6881Z" fill="#A30909"/>
<path d="M83.6166 87.1511C83.8855 87.3312 84.6024 87.0611 84.7817 86.791C85.0505 86.0707 85.409 84.6302 85.4986 82.8296L68.2023 72.6559C66.4995 71.6656 63.9902 71.5755 62.4667 72.3858L60.6743 73.4662C60.6743 73.4662 60.9432 74.0064 61.0328 74.0964C67.3957 77.9678 77.8811 83.9099 83.6166 87.1511Z" fill="#353535"/>
<path d="M103.064 90.2121C102.705 89.942 102.257 89.8519 101.72 89.8519C101.092 89.8519 100.375 90.032 99.6584 90.4822C96.7009 92.1928 94.2812 96.8744 94.2812 100.836C94.2812 102.907 94.9086 104.437 96.0736 105.067C96.9698 105.608 98.2245 105.518 99.4791 104.797C102.437 103.087 104.856 98.405 104.856 94.4436C104.856 92.3728 104.229 90.8423 103.064 90.2121ZM99.6584 102.636C99.1206 102.907 98.5829 103.087 98.1348 103.087C97.7764 103.087 97.4179 102.997 97.0594 102.817C96.1632 102.276 95.7151 101.196 95.7151 99.6654C95.7151 96.9645 97.4179 93.7233 99.4791 92.5529C100.375 92.0127 101.361 91.9227 102.078 92.3728C102.974 92.913 103.422 93.9934 103.422 95.5239C103.422 98.2249 101.72 101.466 99.6584 102.636Z" fill="#353535"/>
<path d="M113.729 81.1191L110.861 82.7397V84.7204L113.729 83.0098V81.1191Z" fill="white"/>
<path d="M101.809 92.733C101.54 92.553 101.271 92.553 101.002 92.553C100.554 92.553 100.106 92.733 99.6582 93.0031C97.6866 94.1736 96.1631 97.1446 96.1631 99.7555C96.1631 101.106 96.6112 102.096 97.3281 102.547C97.9555 102.907 98.6724 102.817 99.479 102.366C101.451 101.196 102.974 98.225 102.974 95.6141C102.974 94.1736 102.616 93.1832 101.809 92.733ZM99.5686 93.3633C99.7478 93.2732 99.9271 93.3633 99.9271 93.6334C99.9271 93.9035 99.7478 94.2636 99.5686 94.3536C99.3893 94.4437 99.2101 94.3536 99.2101 94.0835C99.2101 93.8134 99.3893 93.4533 99.5686 93.3633ZM97.3281 95.8842C97.5074 95.6141 97.6866 95.434 97.8658 95.6141C98.0451 95.7041 98.0451 96.0642 97.8658 96.3343C97.6866 96.6044 97.5074 96.7845 97.3281 96.6044C97.1489 96.5144 97.1489 96.1543 97.3281 95.8842ZM96.7904 99.7555C96.6112 99.8456 96.4319 99.7555 96.4319 99.4854C96.4319 99.2154 96.6112 98.8552 96.7904 98.7652C96.9697 98.6752 97.1489 98.7652 97.1489 99.0353C97.1489 99.3054 96.9697 99.5755 96.7904 99.7555ZM97.8658 101.646C97.6866 101.916 97.5074 102.096 97.3281 101.916C97.1489 101.826 97.1489 101.466 97.3281 101.196C97.5074 100.926 97.6866 100.746 97.8658 100.926C98.0451 101.016 98.0451 101.286 97.8658 101.646ZM99.5686 101.826C99.3893 101.916 99.2101 101.826 99.2101 101.556C99.2101 101.286 99.3893 100.926 99.5686 100.836C99.7478 100.746 99.9271 100.836 99.9271 101.106C99.9271 101.376 99.7478 101.736 99.5686 101.826ZM99.6582 100.476C99.3893 100.656 99.0309 100.746 98.762 100.746C98.5828 100.746 98.3139 100.656 98.1347 100.566C97.597 100.296 97.3281 99.5755 97.3281 98.7652C97.3281 97.2346 98.2243 95.434 99.3893 94.7137C99.9271 94.3536 100.465 94.3536 100.913 94.6237C101.451 94.8938 101.719 95.6141 101.719 96.4244C101.809 97.9549 100.823 99.7555 99.6582 100.476ZM101.809 99.3054C101.63 99.5755 101.451 99.7555 101.271 99.5755C101.092 99.4854 101.092 99.1253 101.271 98.8552C101.451 98.5851 101.63 98.4051 101.809 98.5851C101.988 98.6752 101.988 99.0353 101.809 99.3054ZM101.809 93.9935C101.63 94.2636 101.451 94.4436 101.271 94.2636C101.092 94.1736 101.092 93.8134 101.271 93.5433C101.451 93.2732 101.63 93.0932 101.809 93.2732C101.988 93.4533 101.988 93.7234 101.809 93.9935ZM102.347 95.524C102.526 95.434 102.705 95.524 102.705 95.7941C102.705 96.0642 102.526 96.4244 102.347 96.5144C102.168 96.6044 101.988 96.5144 101.988 96.2443C101.988 95.9742 102.168 95.6141 102.347 95.524Z" fill="white"/>
<path d="M158 17.4662C157.91 17.4662 157.91 17.4662 158 17.4662C157.91 17.4662 157.91 17.4662 158 17.4662C157.91 17.4662 157.91 17.4662 158 17.4662C157.91 17.4662 157.91 17.4662 158 17.4662C158 17.3762 158 17.3762 157.91 17.3762L127.888 0H127.799H127.709L78.4188 28.5402C78.3292 28.5402 78.3292 28.6302 78.3292 28.7203V46.0064L65.1553 53.7492C64.0799 54.3794 63.0941 55.91 62.7356 57.5306L61.7498 62.2122C61.5705 61.9421 61.3913 61.672 61.1224 61.582L59.2405 60.5016C59.1508 60.3215 58.9716 60.3215 58.882 60.3215C58.7924 60.3215 58.7924 60.3215 58.7028 60.3215L57.8066 60.7717C57.8066 60.7717 57.7169 60.7717 57.7169 60.8617C57.5377 61.0418 57.4481 61.2219 57.4481 61.582V66.3537C57.4481 66.9839 57.8066 67.7042 58.2547 67.9743L60.2263 69.1447L57.3585 82.8296C57.3585 82.9196 57.3585 83.0097 57.2689 83.0997C57.0896 84.1801 57 85.1704 57 86.0707V91.2026C57 91.9228 57.2689 92.5531 57.6273 92.8232L83.4374 107.768C83.6167 107.859 83.7959 107.949 83.9752 107.949C84.244 107.949 84.5129 107.859 84.7817 107.678L92.1304 103.267L95.6256 105.338C95.6256 105.338 95.6256 105.338 95.7152 105.338C95.7152 105.338 95.8048 105.338 95.8048 105.428C96.2529 105.698 96.7906 105.788 97.3283 105.788C98.0453 105.788 98.8518 105.518 99.5688 105.068C102.616 103.267 105.125 98.4952 105.125 94.3537C105.125 93.7235 105.035 93.1833 104.946 92.6431L133.982 75.8071C134.341 76.4373 134.699 76.8875 135.237 77.1576C135.237 77.1576 135.237 77.1576 135.327 77.1576L139.807 79.7685H139.897C140.345 80.0386 140.793 80.1286 141.331 80.1286C142.048 80.1286 142.854 79.8585 143.571 79.4084C146.618 77.6077 149.128 72.836 149.128 68.6945C149.128 68.0643 149.038 67.5241 148.949 66.9839L155.58 63.1125C155.67 63.1125 155.67 63.0225 155.67 62.9325V61.2219L157.642 60.0514C157.731 60.0514 157.731 59.9614 157.731 59.8714L158 17.4662C158 17.5563 158 17.5563 158 17.4662C158 17.5563 158 17.4662 158 17.4662ZM81.5555 27.2797L127.799 0.450161L157.283 17.5563L108.441 45.9164L78.9565 28.8103L81.5555 27.2797ZM78.7773 29.1704L108.262 46.2765V88.1415L105.215 86.3408L106.021 85.8907C106.111 85.8907 106.111 85.8006 106.111 85.7106V62.3023C106.111 61.582 105.842 61.0418 105.484 60.8617L79.5839 45.8264C79.315 45.7363 79.0461 45.7363 78.7773 45.8264V29.1704ZM108.083 88.4116L104.229 90.6624C103.96 90.3023 103.691 90.1222 103.422 89.8521C103.422 89.8521 103.422 89.7621 103.333 89.7621L101.361 88.5916L104.856 86.5209L108.083 88.4116ZM58.7924 60.7717C58.882 60.7717 58.9716 60.7717 58.9716 60.8617L60.8536 61.9421C61.2121 62.1222 61.4809 62.6624 61.4809 63.1125L61.1224 64.8232V63.6527C61.1224 63.0225 60.764 62.3023 60.3159 62.0322L58.5235 60.9518L58.7924 60.7717ZM58.5235 67.6142C58.165 67.4341 57.8962 66.8039 57.8962 66.3537V61.582C57.8962 61.4019 57.8962 61.2219 57.9858 61.2219C58.0754 61.2219 58.165 61.2219 58.2547 61.2219L60.1366 62.3023C60.4951 62.4823 60.764 63.0225 60.764 63.5627V66.6238L60.3159 68.6945L58.5235 67.6142ZM57.4481 86.0707C57.4481 85.2605 57.5377 84.3601 57.7169 83.4598L60.2263 84.9003L63.4525 91.9228L57.5377 88.5016V86.0707H57.4481ZM63.1837 90.4823L62.5563 89.0418L78.3292 98.2251L77.5226 98.8553L63.1837 90.4823ZM77.0745 99.0354L76.4472 99.4855L63.9902 92.283L63.4525 91.1125L77.0745 99.0354ZM62.1979 88.4116L61.5705 87.1511L79.315 97.4148L78.598 97.955L62.1979 88.4116ZM61.3017 86.4309L60.764 85.2605L80.3008 96.6045L79.6735 97.0547L61.3017 86.4309ZM57.8962 92.463C57.6273 92.283 57.4481 91.8328 57.4481 91.2026V88.9518L76.3576 99.9357C76.3576 99.9357 76.4472 99.9357 76.4472 100.026L82.8101 103.717V106.148C82.8101 106.418 82.8997 106.688 82.8997 106.958L57.8962 92.463ZM82.8101 101.016V103.267L76.8953 99.8457L80.7489 96.9646L83.079 98.3151C82.8997 99.2154 82.8101 100.116 82.8101 101.016ZM83.1686 97.7749L57.7169 83.0997C57.7169 83.0097 57.7169 83.0097 57.7169 82.9196L61.929 63.2026V63.1125C61.929 63.1125 61.929 63.1125 61.929 63.0225L63.0941 57.5306C63.4525 56 64.2591 54.6495 65.3345 54.0193L78.6877 46.2765C78.9565 46.0965 79.2254 46.0965 79.4046 46.1865L104.587 60.7717C104.498 60.7717 104.408 60.8617 104.319 60.9518L90.9654 68.6945C89.89 69.3248 88.9042 70.8553 88.5457 72.4759L83.1686 97.7749ZM86.3949 106.328L84.6921 107.318C84.3336 107.498 83.9752 107.588 83.7063 107.408C83.3478 107.228 83.1686 106.778 83.1686 106.148V103.717L84.8713 102.727C85.1402 102.547 85.5883 102.547 85.8571 102.727C86.126 102.907 86.3949 103.267 86.3949 103.627V106.328ZM90.2484 103.987V86.5209L91.1446 87.0611C91.2342 87.1511 91.4135 87.1511 91.5031 87.1511C91.5927 87.1511 91.6823 87.1511 91.772 87.0611L92.4889 86.701C92.4889 86.701 92.5785 86.701 92.5785 86.6109C92.7578 86.4309 92.937 86.2508 92.937 85.8907V84.09L103.781 77.7878C104.498 77.3376 105.125 76.2572 105.125 75.2669V64.7331C105.125 64.1929 104.946 63.7428 104.587 63.5627C104.319 63.3826 103.96 63.3826 103.602 63.6527L90.9654 70.9453C90.4277 71.3055 89.89 72.0257 89.7107 72.926L87.2014 84.9904C87.0222 85.7106 87.2014 86.4309 87.5599 86.701C87.7391 86.791 87.8287 86.881 88.008 86.881C88.1872 86.881 88.3665 86.791 88.6353 86.701L89.5315 86.1608L89.89 86.3408V104.347L86.8429 106.148V103.717C86.8429 103.177 86.5741 102.727 86.126 102.457C85.6779 102.187 85.1402 102.187 84.6921 102.457L83.2582 103.267V101.016C83.2582 100.026 83.3478 98.9453 83.6167 97.865L88.9938 72.4759C89.3523 70.9453 90.1588 69.5949 91.2342 68.9646L104.587 61.2219C104.767 61.1318 104.946 61.0418 105.125 61.0418C105.215 61.0418 105.304 61.0418 105.394 61.1318C105.663 61.3119 105.842 61.672 105.842 62.2122V85.5306L99.5688 89.2219C95.0878 91.8328 92.8474 95.7942 92.8474 101.376V102.547L90.2484 103.987ZM89.0834 85.8007L88.3665 86.2508C88.1872 86.3408 87.9184 86.4309 87.7391 86.2508C87.4703 86.0707 87.3807 85.5306 87.4703 84.9904L88.3665 80.7588V84.3601C88.4561 84.9003 88.7249 85.4405 89.0834 85.8007ZM92.1304 79.4984L90.2484 78.418C90.1588 78.328 89.9796 78.328 89.89 78.328C89.8004 78.328 89.8004 78.328 89.7107 78.328L88.9042 78.7781L90.1588 72.926C90.3381 72.2058 90.7862 71.5756 91.2342 71.3055L103.87 64.0129C104.05 63.9228 104.229 63.8328 104.498 63.9228C104.677 64.0129 104.856 64.373 104.856 64.7331V75.2669C104.856 76.0772 104.319 77.0675 103.781 77.4277L93.2059 83.5499V81.119C93.0266 80.4887 92.5785 79.7685 92.1304 79.4984ZM91.3239 79.9486L89.5315 78.8682L89.8004 78.6881C89.89 78.6881 89.9796 78.6881 89.9796 78.7781L91.8616 79.8585C92.2201 80.0386 92.4889 80.6688 92.4889 81.119V85.8907C92.4889 86.1608 92.3993 86.2508 92.2201 86.3408L92.1304 86.4309V86.3408V81.5691C92.2201 80.8489 91.8616 80.2187 91.3239 79.9486ZM88.8146 84.3601V79.5884C88.8146 79.4084 88.9042 79.2283 88.9938 79.1383H89.0834C89.173 79.1383 89.2626 79.1383 89.2626 79.2283L91.1446 80.3087C91.5031 80.4887 91.772 81.119 91.772 81.5691V86.3408C91.772 86.5209 91.6823 86.701 91.5927 86.791C91.5031 86.791 91.4135 86.791 91.3239 86.791L89.4419 85.7106C89.173 85.3505 88.8146 84.8103 88.8146 84.3601ZM92.6681 103.087L93.1162 102.817C93.2059 102.817 93.2059 102.727 93.2059 102.637V101.376C93.2059 95.9743 95.3567 92.1029 99.6584 89.582L100.823 88.8617L101.809 89.4019C101.092 89.4019 100.286 89.582 99.4791 90.1222C96.4321 91.9228 93.9228 96.6945 93.9228 100.836C93.9228 102.277 94.1917 103.447 94.819 104.347L92.6681 103.087ZM99.4791 104.797C98.2245 105.518 97.0594 105.608 96.0736 105.068C94.9086 104.437 94.2813 102.817 94.2813 100.836C94.2813 96.8746 96.701 92.1929 99.6584 90.4823C100.375 90.0322 101.092 89.8521 101.72 89.8521C102.168 89.8521 102.616 89.9421 103.064 90.2122C104.229 90.8424 104.856 92.463 104.856 94.4437C104.856 98.4052 102.437 103.087 99.4791 104.797ZM135.685 76.8875C135.147 76.6174 134.789 76.1672 134.52 75.627L138.105 73.5563C138.015 74.0965 137.925 74.6367 137.925 75.1769C137.925 76.6174 138.284 77.8778 138.822 78.6881L135.685 76.8875ZM143.571 79.1383C142.317 79.8585 141.152 79.9486 140.166 79.4084C139.001 78.7781 138.374 77.1576 138.374 75.1769C138.374 74.5466 138.463 73.9164 138.553 73.2862L139.987 72.4759C139.897 73.0161 139.807 73.6463 139.807 74.1865C139.807 75.717 140.345 76.7974 141.152 77.3376C141.51 77.5177 141.779 77.6077 142.227 77.6077C142.675 77.6077 143.213 77.4277 143.751 77.1576C145.812 75.9871 147.515 72.746 147.515 70.045C147.515 69.4148 147.425 68.8746 147.246 68.4244L148.769 67.5241C148.859 67.9743 148.949 68.5145 148.949 69.0547C148.949 72.836 146.529 77.4277 143.571 79.1383ZM142.227 74.9968C142.406 75.0868 142.586 75.1769 142.854 75.1769C143.123 75.1769 143.482 75.0868 143.751 74.9068C144.916 74.2765 145.812 72.4759 145.812 70.8553C145.812 70.2251 145.633 69.6849 145.364 69.3248L146.887 68.4244C147.067 68.8746 147.067 69.3248 147.067 69.865C147.067 72.4759 145.453 75.537 143.571 76.6174C142.765 77.0675 141.958 77.1576 141.421 76.7974C140.704 76.3473 140.256 75.3569 140.256 74.0064C140.256 73.3762 140.345 72.746 140.524 72.0257L141.869 71.3055C141.6 71.9357 141.51 72.4759 141.51 73.1061C141.421 74.0064 141.779 74.7267 142.227 74.9968ZM141.869 73.1962C141.869 72.4759 142.048 71.7556 142.406 71.0354L145.005 69.5048C145.274 69.7749 145.453 70.2251 145.453 70.8553C145.453 72.2958 144.647 73.9164 143.571 74.4566C143.123 74.7267 142.765 74.7267 142.496 74.5466C142.048 74.3666 141.869 73.9164 141.869 73.1962ZM155.491 63.0225L144.916 69.1447L140.256 71.8457L105.035 92.283C104.946 91.8328 104.767 91.3826 104.498 91.0225L108.62 88.5916L155.491 61.4019V63.0225ZM157.552 59.7814L155.67 60.8617C155.58 60.8617 155.58 60.8617 155.491 60.9518L108.71 88.0515V81.6592L157.552 53.299V59.7814ZM157.552 52.8489L108.71 81.209V79.1383L157.552 50.7781V52.8489ZM157.552 40.9646L124.214 60.2315C124.124 60.2315 124.124 60.3215 124.124 60.4116V64.283L118.747 60.1415L124.124 49.6978V53.119C124.124 53.209 124.124 53.299 124.214 53.299C124.303 53.299 124.393 53.299 124.393 53.299L157.552 34.2122V40.9646ZM157.552 33.7621L124.572 52.9389V48.9775C124.572 48.8875 124.483 48.7974 124.393 48.7974C124.303 48.7974 124.214 48.7974 124.124 48.8875L118.209 60.2315C118.12 60.3215 118.209 60.4116 118.299 60.5016L124.214 65.0032H124.303H124.393C124.483 65.0032 124.483 64.9132 124.483 64.8232V60.5916L157.552 41.4148V50.328L108.71 78.6881V46.2765L157.552 17.9164V33.7621Z" fill="#1E1E1E"/>
<path d="M152.713 60.7716H152.802H152.892L156.208 58.881C156.297 58.881 156.297 58.7909 156.297 58.7009V56.27C156.297 56.18 156.297 56.09 156.208 56.09C156.118 56.09 156.029 56.09 156.029 56.09L152.713 57.9806C152.623 57.9806 152.623 58.0707 152.623 58.1607V60.5916C152.623 60.5916 152.713 60.6816 152.713 60.7716ZM153.071 58.2507L155.939 56.6302V58.5208L153.071 60.1414V58.2507Z" fill="#1E1E1E"/>
<path d="M110.502 85.2605H110.592H110.681L113.997 83.3699C114.087 83.3699 114.087 83.2798 114.087 83.1898V80.7589C114.087 80.6689 114.087 80.5789 113.997 80.5789C113.908 80.5789 113.818 80.5789 113.818 80.5789L110.502 82.4695C110.413 82.4695 110.413 82.5596 110.413 82.6496V85.0805C110.413 85.1705 110.502 85.1705 110.502 85.2605ZM110.861 82.7396L113.728 81.119V83.0097L110.861 84.6303V82.7396Z" fill="#1E1E1E"/>
<path d="M100.376 82.8297C100.465 82.9197 100.555 82.9197 100.644 82.9197C100.734 82.9197 100.913 82.9197 101.093 82.8297L103.512 81.3892C103.96 81.1191 104.408 80.3988 104.408 79.7686C104.408 79.4084 104.319 79.1383 104.05 78.9583C103.871 78.8682 103.602 78.8682 103.333 78.9583L100.913 80.3988C100.465 80.6689 100.017 81.3891 100.017 82.0194C100.017 82.3795 100.196 82.7396 100.376 82.8297ZM101.093 80.7589L103.512 79.3184C103.602 79.3184 103.602 79.2284 103.691 79.2284H103.781C103.871 79.3184 103.96 79.4084 103.96 79.6785C103.96 80.1287 103.691 80.7589 103.333 80.939L100.913 82.4695C100.824 82.4695 100.734 82.5596 100.644 82.4695C100.555 82.3795 100.465 82.2895 100.465 82.0194C100.465 81.5692 100.734 80.939 101.093 80.7589Z" fill="#1E1E1E"/>
<path d="M101.003 94.6237C100.555 94.3536 100.017 94.4436 99.4792 94.7137C98.3142 95.3439 97.418 97.1445 97.418 98.7651C97.418 99.5754 97.6868 100.296 98.2245 100.566C98.4038 100.656 98.583 100.746 98.8519 100.746C99.1207 100.746 99.4792 100.656 99.748 100.476C100.913 99.8455 101.809 98.0449 101.809 96.4243C101.809 95.614 101.451 94.9838 101.003 94.6237ZM99.4792 100.116C99.0311 100.386 98.6726 100.386 98.4038 100.206C98.0453 100.026 97.7764 99.4854 97.7764 98.7651C97.7764 97.3246 98.583 95.704 99.6584 95.1638C99.9273 94.9838 100.107 94.9838 100.375 94.9838C100.555 94.9838 100.644 94.9838 100.823 95.0738C101.182 95.2539 101.451 95.7941 101.451 96.5143C101.361 97.8648 100.555 99.4854 99.4792 100.116Z" fill="#1E1E1E"/>
<path d="M102.078 92.3729C101.361 91.9228 100.465 92.0128 99.4793 92.553C97.4181 93.7234 95.7153 96.9646 95.7153 99.6656C95.7153 101.196 96.253 102.276 97.0596 102.817C97.4181 102.997 97.6869 103.087 98.135 103.087C98.5831 103.087 99.1208 102.907 99.6585 102.637C101.72 101.466 103.423 98.225 103.423 95.5241C103.423 93.9935 102.885 92.9131 102.078 92.3729ZM99.4793 102.276C98.6727 102.727 97.8662 102.817 97.3285 102.457C96.6115 102.006 96.1634 101.016 96.1634 99.6656C96.1634 97.0546 97.7766 93.9935 99.6585 92.9131C100.107 92.643 100.555 92.463 101.003 92.463C101.272 92.463 101.541 92.553 101.809 92.643C102.526 93.0932 102.974 94.0836 102.974 95.434C102.974 98.135 101.451 101.196 99.4793 102.276Z" fill="#1E1E1E"/>
<path d="M99.5689 94.3535C99.7482 94.2634 99.9274 93.9033 99.9274 93.6332C99.9274 93.3631 99.7482 93.2731 99.5689 93.3631C99.3897 93.4531 99.2104 93.8133 99.2104 94.0834C99.2104 94.3535 99.3897 94.5335 99.5689 94.3535Z" fill="#1E1E1E"/>
<path d="M99.5689 100.836C99.3897 100.926 99.2104 101.286 99.2104 101.556C99.2104 101.826 99.3897 101.916 99.5689 101.826C99.7482 101.736 99.9274 101.376 99.9274 101.106C99.9274 100.836 99.7482 100.746 99.5689 100.836Z" fill="#1E1E1E"/>
<path d="M96.7906 98.7652C96.6114 98.8553 96.4321 99.2154 96.4321 99.4855C96.4321 99.7556 96.6114 99.8456 96.7906 99.7556C96.9698 99.6656 97.1491 99.3054 97.1491 99.0353C97.1491 98.7652 96.9698 98.5852 96.7906 98.7652Z" fill="#1E1E1E"/>
<path d="M102.347 96.5146C102.526 96.4246 102.705 96.0644 102.705 95.7943C102.705 95.5242 102.526 95.4342 102.347 95.5242C102.168 95.6143 101.988 95.9744 101.988 96.2445C101.988 96.5146 102.168 96.6046 102.347 96.5146Z" fill="#1E1E1E"/>
<path d="M97.866 96.3345C98.0452 96.0644 98.0452 95.7042 97.866 95.6142C97.6868 95.5242 97.5075 95.6142 97.3283 95.8843C97.149 96.1544 97.149 96.5145 97.3283 96.6046C97.5075 96.6946 97.6868 96.6046 97.866 96.3345Z" fill="#1E1E1E"/>
<path d="M101.272 98.9452C101.092 99.2153 101.092 99.5754 101.272 99.6655C101.451 99.7555 101.63 99.6655 101.809 99.3954C101.989 99.1253 101.989 98.7652 101.809 98.6751C101.63 98.4951 101.451 98.6751 101.272 98.9452Z" fill="#1E1E1E"/>
<path d="M97.3283 101.196C97.149 101.466 97.149 101.826 97.3283 101.916C97.5075 102.006 97.6868 101.916 97.866 101.646C98.0452 101.376 98.0452 101.016 97.866 100.926C97.6868 100.746 97.5075 100.926 97.3283 101.196Z" fill="#1E1E1E"/>
<path d="M101.272 93.6335C101.092 93.9036 101.092 94.2637 101.272 94.3537C101.451 94.4438 101.63 94.3537 101.809 94.0836C101.989 93.8135 101.989 93.4534 101.809 93.3634C101.63 93.1833 101.451 93.3634 101.272 93.6335Z" fill="#1E1E1E"/>
<path d="M143.661 76.2573C143.84 76.1672 144.02 75.8071 144.02 75.537C144.02 75.2669 143.84 75.1769 143.661 75.2669C143.482 75.3569 143.303 75.7171 143.303 75.9872C143.303 76.2573 143.482 76.3473 143.661 76.2573Z" fill="#1E1E1E"/>
<path d="M140.883 73.1061C140.704 73.1962 140.524 73.5563 140.524 73.8264C140.524 74.0965 140.704 74.1866 140.883 74.0965C141.062 74.0065 141.241 73.6464 141.241 73.3763C141.241 73.1062 141.062 73.0161 140.883 73.1061Z" fill="#1E1E1E"/>
<path d="M146.439 70.9453C146.618 70.8552 146.798 70.4951 146.798 70.225C146.798 69.9549 146.618 69.8649 146.439 69.9549C146.26 70.0449 146.081 70.4051 146.081 70.6752C146.081 70.8552 146.26 71.0353 146.439 70.9453Z" fill="#1E1E1E"/>
<path d="M145.902 73.7363C146.081 73.4662 146.081 73.1061 145.902 73.0161C145.722 72.926 145.543 73.0161 145.364 73.2862C145.185 73.5562 145.185 73.9164 145.364 74.0064C145.543 74.0964 145.722 74.0064 145.902 73.7363Z" fill="#1E1E1E"/>
<path d="M141.421 76.3475C141.6 76.4375 141.779 76.3475 141.958 76.0774C142.138 75.8073 142.138 75.4472 141.958 75.3571C141.779 75.2671 141.6 75.3571 141.421 75.6272C141.241 75.8973 141.241 76.1674 141.421 76.3475Z" fill="#1E1E1E"/>
<path d="M87.3804 71.4857L64.6173 58.2509C64.438 58.1609 64.1692 58.0709 63.9003 58.2509C63.6315 58.341 63.5419 58.521 63.4522 58.7911L60.4052 73.0162C60.3156 73.5564 60.4948 74.0066 60.9429 74.2767L83.2579 87.2413C83.4372 87.3313 83.6164 87.4214 83.8853 87.4214C84.0645 87.4214 84.2437 87.4214 84.3333 87.3313C84.6918 87.1513 84.9607 86.8812 85.0503 86.521L88.0077 72.8362C88.0973 72.296 87.8285 71.7558 87.3804 71.4857ZM87.5596 72.6561L84.6022 86.431C84.5126 86.7011 84.423 86.8812 84.1541 86.9712C83.8853 87.0612 83.706 87.0612 83.4372 86.9712L61.1222 73.9165C60.8533 73.7365 60.6741 73.3763 60.7637 73.1062L63.8107 58.8812C63.8107 58.7911 63.9003 58.7011 63.99 58.6111C64.0796 58.6111 64.0796 58.6111 64.1692 58.6111C64.2588 58.6111 64.2588 58.6111 64.3484 58.7011L87.1115 71.9358C87.47 72.0259 87.6492 72.386 87.5596 72.6561Z" fill="#1E1E1E"/>
<path d="M65.4241 55.8199L65.693 56H65.7826C65.8722 56 65.9618 56 65.9618 55.9099C66.0514 55.8199 65.9618 55.6398 65.8722 55.6398L65.6033 55.4598C65.5137 55.3697 65.3345 55.4598 65.3345 55.5498C65.2449 55.6398 65.3345 55.8199 65.4241 55.8199Z" fill="#1E1E1E"/>
<path d="M68.0232 57.3505L68.4713 57.6206H68.5609C68.6505 57.6206 68.7402 57.6206 68.7402 57.5306C68.8298 57.4406 68.7402 57.2605 68.6505 57.2605L68.2024 56.9904C68.1128 56.9004 67.9336 56.9904 67.9336 57.0805C67.9336 57.1705 67.9336 57.3505 68.0232 57.3505Z" fill="#1E1E1E"/>
<path d="M66.5891 56.5404L67.0372 56.8104H67.1268C67.2165 56.8104 67.3061 56.8104 67.3061 56.7204C67.3957 56.6304 67.3061 56.4503 67.2165 56.4503L66.7684 56.1802C66.6787 56.0902 66.4995 56.1802 66.4995 56.2703C66.4995 56.3603 66.4995 56.4503 66.5891 56.5404Z" fill="#1E1E1E"/>
<path d="M77.9705 63.1126L78.4186 63.3827H78.5082C78.5978 63.3827 78.6874 63.3827 78.6874 63.2927C78.777 63.2027 78.6874 63.0226 78.5978 63.0226L78.1497 62.7525C78.0601 62.6625 77.8809 62.7525 77.8809 62.8425C77.8809 62.9326 77.8809 63.1126 77.9705 63.1126Z" fill="#1E1E1E"/>
<path d="M83.7063 66.4436L84.1544 66.7136H84.244C84.3337 66.7136 84.4233 66.7136 84.4233 66.6236C84.5129 66.5336 84.4233 66.3535 84.3337 66.3535L83.8856 66.0834C83.7959 65.9934 83.6167 66.0834 83.6167 66.1735C83.5271 66.2635 83.6167 66.3535 83.7063 66.4436Z" fill="#1E1E1E"/>
<path d="M79.4046 64.0129L79.8527 64.283H79.9423C80.0319 64.283 80.1215 64.283 80.1215 64.193C80.2111 64.1029 80.1215 63.9229 80.0319 63.9229L79.5838 63.6528C79.4942 63.5627 79.3149 63.6528 79.3149 63.7428C79.3149 63.7428 79.3149 63.9229 79.4046 64.0129Z" fill="#1E1E1E"/>
<path d="M86.5743 68.0643L87.0224 68.3344H87.112C87.2016 68.3344 87.2912 68.3344 87.2912 68.2444C87.3808 68.1543 87.2912 67.9743 87.2016 67.9743L86.7535 67.7042C86.6639 67.6141 86.4846 67.7042 86.4846 67.7942C86.395 67.8842 86.395 68.0643 86.5743 68.0643Z" fill="#1E1E1E"/>
<path d="M85.1404 67.254L85.5885 67.5241H85.6781C85.7677 67.5241 85.8574 67.5241 85.8574 67.434C85.947 67.344 85.8574 67.164 85.7677 67.164L85.3196 66.8939C85.23 66.8038 85.0508 66.8939 85.0508 66.9839C84.9612 67.0739 85.0508 67.254 85.1404 67.254Z" fill="#1E1E1E"/>
<path d="M80.8386 64.823L81.2867 65.0931H81.3764C81.466 65.0931 81.5556 65.0931 81.5556 65.003C81.6452 64.913 81.5556 64.7329 81.466 64.7329L81.0179 64.4628C80.9283 64.3728 80.749 64.4628 80.749 64.5529C80.749 64.6429 80.749 64.7329 80.8386 64.823Z" fill="#1E1E1E"/>
<path d="M82.2722 65.6334L82.7203 65.9035H82.81C82.8996 65.9035 82.9892 65.9035 82.9892 65.8135C83.0788 65.7234 82.9892 65.5434 82.8996 65.5434L82.4515 65.2733C82.3619 65.1832 82.1826 65.2733 82.1826 65.3633C82.093 65.4533 82.1826 65.5434 82.2722 65.6334Z" fill="#1E1E1E"/>
<path d="M75.1028 61.4919L75.5509 61.762H75.6405C75.7301 61.762 75.8197 61.762 75.8197 61.672C75.9094 61.5819 75.8197 61.4019 75.7301 61.4019L75.282 61.1318C75.1924 61.0417 75.0132 61.1318 75.0132 61.2218C75.0132 61.3118 75.0132 61.4019 75.1028 61.4919Z" fill="#1E1E1E"/>
<path d="M73.7588 60.6816L74.2069 60.9517H74.2965C74.3862 60.9517 74.4758 60.9517 74.4758 60.8617C74.5654 60.7716 74.4758 60.5916 74.3862 60.5916L73.9381 60.3215C73.8485 60.2314 73.6692 60.3215 73.6692 60.4115C73.5796 60.5015 73.5796 60.5916 73.7588 60.6816Z" fill="#1E1E1E"/>
<path d="M72.325 59.8713L72.7731 60.1414H72.8627C72.9523 60.1414 73.0419 60.1414 73.0419 60.0514C73.1315 59.9613 73.0419 59.7813 72.9523 59.7813L72.5042 59.5112C72.4146 59.4211 72.2354 59.4211 72.2354 59.6012C72.1457 59.6912 72.2354 59.7813 72.325 59.8713Z" fill="#1E1E1E"/>
<path d="M70.8909 59.0611L71.339 59.3312H71.4286C71.5182 59.3312 71.6078 59.3312 71.6078 59.2412C71.6975 59.1512 71.6078 58.9711 71.5182 58.9711L71.0701 58.701C70.9805 58.611 70.8013 58.701 70.8013 58.791C70.7117 58.791 70.8013 58.9711 70.8909 59.0611Z" fill="#1E1E1E"/>
<path d="M76.5369 62.3024L76.985 62.5725H77.0746C77.1642 62.5725 77.2538 62.5725 77.2538 62.4825C77.3434 62.3925 77.2538 62.2124 77.1642 62.2124L76.7161 61.9423C76.6265 61.8523 76.4473 61.9423 76.4473 62.0324C76.4473 62.1224 76.4473 62.3024 76.5369 62.3024Z" fill="#1E1E1E"/>
<path d="M69.4568 58.1606L69.9049 58.4307H69.9945C70.0841 58.4307 70.1738 58.4307 70.1738 58.3407C70.2634 58.2506 70.1738 58.0706 70.0841 58.0706L69.6361 57.8005C69.5464 57.7104 69.3672 57.8005 69.3672 57.8905C69.2776 57.9805 69.3672 58.1606 69.4568 58.1606Z" fill="#1E1E1E"/>
<path d="M88.3663 68.6944L88.0975 68.5143C88.0079 68.4243 87.8286 68.5143 87.8286 68.6044C87.739 68.6944 87.8286 68.8745 87.9182 68.8745L88.1871 69.0545H88.2767C88.3663 69.0545 88.4559 69.0545 88.4559 68.9645C88.5456 68.8745 88.5456 68.7844 88.3663 68.6944Z" fill="#1E1E1E"/>
<path d="M64.9761 69.5949C64.8865 69.5949 64.7969 69.5949 64.7969 69.5049C64.7073 69.4148 64.7969 69.2348 64.8865 69.2348L72.5937 64.8232C72.6833 64.7331 72.8625 64.8232 72.8625 64.9132C72.9522 65.0032 72.8625 65.1833 72.7729 65.1833L65.0657 69.5949H64.9761Z" fill="white"/>
<path d="M66.4996 70.7654C66.4099 70.7654 66.3203 70.7654 66.3203 70.6753C66.2307 70.5853 66.3203 70.4052 66.4099 70.4052L72.2351 67.074C72.3248 66.984 72.504 67.074 72.504 67.1641C72.5936 67.2541 72.504 67.4342 72.4144 67.4342L66.5892 70.7654C66.5892 70.7654 66.5892 70.7654 66.4996 70.7654Z" fill="white"/>
</g>
<defs>
<clipPath id="clip0">
<rect width="101" height="112" fill="white" transform="translate(57)"/>
</clipPath>
</defs>
</svg>
