<svg width="12" height="12" viewBox="0 0 12 12" fill="none" xmlns="http://www.w3.org/2000/svg">
<path d="M11.6933 1.48667L10.7667 0.366667C10.5867 0.14 10.3133 0 10 0H2C1.68667 0 1.41333 0.14 1.22667 0.366667L0.306667 1.48667C0.113333 1.71333 0 2.01333 0 2.33333V10.6667C0 11.4 0.6 12 1.33333 12H10.6667C11.4 12 12 11.4 12 10.6667V2.33333C12 2.01333 11.8867 1.71333 11.6933 1.48667ZM2.16 1.33333H9.84L10.38 1.98H1.62667L2.16 1.33333ZM1.33333 10.6667V3.33333H10.6667V10.6667H1.33333Z" fill="white"/>
</svg>
