<svg width="10" height="3" viewBox="0 0 10 3" fill="none" xmlns="http://www.w3.org/2000/svg">
<path d="M0.447266 1.33691C0.447266 1.11816 0.511068 0.935872 0.638672 0.790039C0.770833 0.644206 0.966797 0.571289 1.22656 0.571289C1.48633 0.571289 1.68229 0.644206 1.81445 0.790039C1.95117 0.935872 2.01953 1.11816 2.01953 1.33691C2.01953 1.54655 1.95117 1.72201 1.81445 1.86328C1.68229 2.00456 1.48633 2.0752 1.22656 2.0752C0.966797 2.0752 0.770833 2.00456 0.638672 1.86328C0.511068 1.72201 0.447266 1.54655 0.447266 1.33691ZM4.13867 1.33691C4.13867 1.11816 4.20247 0.935872 4.33008 0.790039C4.46224 0.644206 4.6582 0.571289 4.91797 0.571289C5.17773 0.571289 5.3737 0.644206 5.50586 0.790039C5.64258 0.935872 5.71094 1.11816 5.71094 1.33691C5.71094 1.54655 5.64258 1.72201 5.50586 1.86328C5.3737 2.00456 5.17773 2.0752 4.91797 2.0752C4.6582 2.0752 4.46224 2.00456 4.33008 1.86328C4.20247 1.72201 4.13867 1.54655 4.13867 1.33691ZM7.83008 1.33691C7.83008 1.11816 7.89388 0.935872 8.02148 0.790039C8.15365 0.644206 8.34961 0.571289 8.60938 0.571289C8.86914 0.571289 9.0651 0.644206 9.19727 0.790039C9.33398 0.935872 9.40234 1.11816 9.40234 1.33691C9.40234 1.54655 9.33398 1.72201 9.19727 1.86328C9.0651 2.00456 8.86914 2.0752 8.60938 2.0752C8.34961 2.0752 8.15365 2.00456 8.02148 1.86328C7.89388 1.72201 7.83008 1.54655 7.83008 1.33691Z" fill="#303841"/>
</svg>
