<svg width="128" height="128" viewBox="0 0 128 128" fill="none" xmlns="http://www.w3.org/2000/svg">
<path d="M120.51 67.9487C120.388 66.5102 119.462 65.3289 118.094 64.8657L106.997 61.1077L117.801 48.7126C118.518 47.8898 118.818 46.8018 118.624 45.7278C118.43 44.6538 117.768 43.7396 116.809 43.2196L102.87 35.6678C101.96 35.1745 100.822 35.5125 100.328 36.423C99.835 37.3335 100.173 38.4715 101.084 38.9648L114.83 46.4128L103.317 59.6217L66.9516 39.9183L73.6994 32.177C74.4759 32.462 75.3144 32.6175 76.1884 32.6175C78.9022 32.6175 81.2709 31.1167 82.5117 28.9025L92.9315 34.548C93.2155 34.7018 93.5212 34.7748 93.823 34.7748C94.489 34.7748 95.1338 34.4193 95.4735 33.7925C95.9668 32.882 95.6285 31.744 94.718 31.2507L83.4269 25.1334C83.2997 21.2497 80.1029 18.1289 76.1887 18.1289C72.1941 18.1289 68.9444 21.3787 68.9444 25.3732C68.9444 27.132 69.5749 28.7457 70.6209 30.002L63.9998 37.598L52.2695 24.1407C51.162 22.8699 49.3537 22.5432 47.871 23.3462L43.2857 25.8305C42.7485 21.5817 39.1142 18.2842 34.7219 18.2842C29.9609 18.2842 26.0874 22.1577 26.0874 26.919C26.0874 29.5515 27.2731 31.9112 29.1369 33.4962L11.1908 43.2196C10.2313 43.7396 9.56976 44.6536 9.37551 45.7278C9.18175 46.8018 9.48176 47.8898 10.199 48.7123L21.0026 61.1074L9.90526 64.8652C8.5375 65.3284 7.61175 66.5097 7.48925 67.9482C7.36674 69.3867 8.07925 70.7077 9.34876 71.3955L22.3806 78.456V85.5333C22.3806 86.5688 23.2198 87.4083 24.2556 87.4083C25.2913 87.4083 26.1306 86.5688 26.1306 85.5333V80.4878L44.3627 90.3658C45.1405 90.7873 46.0082 91.0016 46.8792 91.0016C47.4487 91.0016 48.02 90.9098 48.568 90.7243L62.1251 86.1341V123.44L26.9296 104.37C26.4369 104.103 26.1309 103.589 26.1309 103.029V94.7896C26.1309 93.7541 25.2916 92.9146 24.2558 92.9146C23.2201 92.9146 22.3808 93.7541 22.3808 94.7896V103.029C22.3808 104.967 23.4391 106.744 25.1431 107.667L61.4868 127.359C62.2738 127.786 63.1371 127.999 64.0003 127.999C64.8636 127.999 65.7268 127.785 66.5138 127.359L102.858 107.667C104.561 106.744 105.62 104.967 105.62 103.029V78.4558L118.651 71.3952C119.92 70.7082 120.633 69.3875 120.51 67.9487ZM68.1449 53.4431C74.7084 55.2881 79.2924 61.3407 79.2924 68.1619C79.2924 70.0615 78.9512 71.905 78.2767 73.6517L63.9998 81.387L49.723 73.6517C49.0487 71.905 48.7072 70.0615 48.7072 68.1619C48.7072 61.3197 53.3088 55.2619 59.8978 53.4306C60.8953 53.1534 61.4793 52.1196 61.2021 51.1221C60.9251 50.1244 59.8908 49.5406 58.8935 49.8176C50.6882 52.0984 44.9575 59.6416 44.9575 68.1619C44.9575 69.1895 45.0407 70.2037 45.2007 71.2017L28.1916 61.9859L64.0003 42.5843L99.8088 61.9862L82.7997 71.202C82.9597 70.204 83.0429 69.1897 83.0429 68.1622C83.0429 59.6679 77.3342 52.1309 69.1601 49.8331C68.1631 49.5526 67.1278 50.1341 66.8478 51.1306C66.5668 52.1276 67.1476 53.1629 68.1449 53.4431ZM76.1884 21.8794C78.1152 21.8794 79.6829 23.4469 79.6829 25.3737C79.6829 27.3005 78.1152 28.8682 76.1884 28.8682C74.2616 28.8682 72.6941 27.3005 72.6941 25.3737C72.6941 23.4469 74.2616 21.8794 76.1884 21.8794ZM34.7219 22.0347C37.4152 22.0347 39.6067 24.2259 39.6067 26.9195C39.6067 29.6127 37.4152 31.8042 34.7219 31.8042C32.0286 31.8042 29.8374 29.613 29.8374 26.9195C29.8374 24.2259 32.0286 22.0347 34.7219 22.0347ZM33.3989 35.4528C33.8304 35.5195 34.2722 35.5543 34.7219 35.5543C38.2164 35.5543 41.2302 33.4665 42.588 30.474L49.5345 26.7105L61.0476 39.9188L24.6821 59.6222L13.1688 46.4133L33.3989 35.4528ZM47.365 87.1731C46.964 87.3091 46.5205 87.2708 46.149 87.0693L25.1571 75.696C25.1516 75.693 25.1458 75.69 25.1403 75.687L11.4868 68.2895L24.0813 64.0247L59.329 83.1223L47.365 87.1731ZM101.869 103.029C101.869 103.59 101.563 104.104 101.07 104.371L65.8748 123.441V86.1348L79.4319 90.7251C79.9799 90.9106 80.5512 91.0023 81.1209 91.0023C81.9914 91.0023 82.8594 90.7878 83.6372 90.3666L101.869 80.4885V103.029H101.869ZM81.8504 87.0693C81.4789 87.2708 81.0354 87.3091 80.6344 87.1731L68.6706 83.1223L103.918 64.0247L116.513 68.2895L81.8504 87.0693ZM116.892 68.4177C116.891 68.4177 116.891 68.4175 116.891 68.4175L116.892 68.4177Z" fill="#DCE0EA"/>
<path d="M78.0222 106.172L73.7209 108.503C72.8104 108.996 72.4724 110.134 72.9657 111.044C73.3052 111.671 73.9502 112.027 74.6162 112.027C74.9177 112.027 75.224 111.954 75.5077 111.8L79.809 109.469C80.7195 108.976 81.0575 107.838 80.5642 106.928C80.071 106.017 78.9335 105.679 78.0222 106.172Z" fill="#DCE0EA"/>
<path d="M41.9232 15.7899C42.2895 16.1559 42.7695 16.3392 43.2492 16.3392C43.729 16.3392 44.209 16.1562 44.5752 15.7899L46.122 14.2432L47.6687 15.7899C48.035 16.1559 48.515 16.3392 48.9947 16.3392C49.4745 16.3392 49.9545 16.1562 50.3207 15.7899C51.053 15.0577 51.053 13.8704 50.3207 13.1384L48.7737 11.5914L50.3207 10.0444C51.053 9.31219 51.053 8.12494 50.3207 7.39294C49.5882 6.66069 48.4012 6.66069 47.669 7.39294L46.1222 8.93969L44.5755 7.39294C43.843 6.66069 42.656 6.66069 41.9237 7.39294C41.1915 8.12519 41.1915 9.31244 41.9237 10.0444L43.4707 11.5914L41.9237 13.1384C41.191 13.8704 41.191 15.0577 41.9232 15.7899Z" fill="#DCE0EA"/>
<path d="M97.4339 28.0731C97.8002 28.4391 98.2802 28.6224 98.7599 28.6224C99.2397 28.6224 99.7197 28.4394 100.086 28.0731L101.633 26.5264L103.179 28.0731C103.546 28.4391 104.026 28.6224 104.505 28.6224C104.985 28.6224 105.465 28.4394 105.831 28.0731C106.564 27.3409 106.564 26.1536 105.831 25.4216L104.284 23.8746L105.831 22.3276C106.564 21.5954 106.564 20.4081 105.831 19.6761C105.099 18.9439 103.912 18.9439 103.18 19.6761L101.633 21.2229L100.086 19.6761C99.3537 18.9439 98.1667 18.9439 97.4344 19.6761C96.7022 20.4084 96.7022 21.5956 97.4344 22.3276L98.9814 23.8746L97.4344 25.4216C96.7017 26.1536 96.7017 27.3409 97.4339 28.0731Z" fill="#DCE0EA"/>
<path d="M87.0822 16.3377C91.5867 16.3377 95.2512 12.6733 95.2512 8.169C95.2509 3.6645 91.5864 0 87.0822 0C82.5779 0 78.9132 3.6645 78.9132 8.169C78.9132 12.6733 82.5777 16.3377 87.0822 16.3377ZM87.0822 3.75C89.5187 3.75 91.5012 5.73225 91.5012 8.169C91.5012 10.6055 89.5187 12.5878 87.0822 12.5878C84.6457 12.5878 82.6632 10.6055 82.6632 8.169C82.6632 5.73225 84.6457 3.75 87.0822 3.75Z" fill="#DCE0EA"/>
<path d="M63.7881 70.1294C61.9816 70.1294 60.2766 70.7284 58.9846 71.8179C58.1931 72.4854 58.0924 73.6684 58.7601 74.4599C59.4274 75.2517 60.6104 75.3522 61.4021 74.6847C62.0096 74.1724 62.8786 73.8792 63.7884 73.8792H63.8009C64.7151 73.8819 65.5874 74.1807 66.1946 74.6989C66.5479 75.0004 66.9806 75.1477 67.4109 75.1477C67.9406 75.1477 68.4671 74.9244 68.8379 74.4899C69.5101 73.7024 69.4166 72.5187 68.6291 71.8464C67.3381 70.7444 65.6271 70.1344 63.8116 70.1289C63.8039 70.1294 63.7959 70.1294 63.7881 70.1294Z" fill="#DCE0EA"/>
<path d="M55.8553 64.5764H55.8378C54.8013 64.5611 53.966 65.4031 53.9585 66.4384C53.9515 67.4739 54.7938 68.3191 55.8293 68.3264H55.8425C56.8718 68.3264 57.71 67.4954 57.7173 66.4644C57.7245 65.4289 56.891 64.5836 55.8553 64.5764Z" fill="#DCE0EA"/>
<path d="M71.7946 68.2877C71.8011 68.2889 71.8079 68.2897 71.8144 68.2909C71.8684 68.3014 71.9231 68.3102 71.9786 68.3159C71.9966 68.3177 72.0149 68.3177 72.0329 68.3189C72.0746 68.3219 72.1164 68.3259 72.1591 68.3262H72.1724C72.2369 68.3262 72.3006 68.3229 72.3636 68.3164C73.3103 68.2217 74.0493 67.4227 74.0493 66.4509C74.0493 65.4919 73.3291 64.7027 72.4004 64.5909C72.3919 64.5899 72.3836 64.5879 72.3751 64.5872C72.3324 64.5827 72.2886 64.5814 72.2449 64.5797C72.2249 64.5789 72.2054 64.5764 72.1851 64.5762H72.1754C72.1751 64.5762 72.1746 64.5762 72.1744 64.5762H72.1676H72.1566C72.1559 64.5762 72.1551 64.5762 72.1544 64.5762C71.1251 64.5762 70.2956 65.4072 70.2884 66.4382C70.2821 67.3489 70.9331 68.1119 71.7946 68.2877Z" fill="#DCE0EA"/>
</svg>
