<svg width="156" height="46" viewBox="0 0 156 46" fill="none" xmlns="http://www.w3.org/2000/svg">
<path d="M38.5252 1.7251H7.47512L1.7251 9.20012V44.8502H43.7002V9.20012L38.5252 1.7251Z" fill="white"/>
<path fill-rule="evenodd" clip-rule="evenodd" d="M45.9741 9.936C45.9655 9.83825 45.9454 9.74625 45.9166 9.65137C45.8879 9.5565 45.8534 9.47025 45.8074 9.384C45.7986 9.36767 45.7931 9.3497 45.7875 9.33151C45.7803 9.30808 45.7731 9.2843 45.7585 9.26325L40.0085 0.63825C39.7411 0.2415 39.2926 0 38.8125 0H7.1875C6.70738 0 6.25888 0.2415 5.9915 0.641125L0.2415 9.26612C0.226561 9.2877 0.219289 9.3112 0.211937 9.33495C0.206555 9.35234 0.201131 9.36986 0.192625 9.38687C0.146625 9.47312 0.112125 9.55937 0.083375 9.65425C0.054625 9.74913 0.0345 9.84112 0.025875 9.93887C0.0235651 9.95504 0.0189353 9.97075 0.0142223 9.98674L0.0142214 9.98674L0.0142206 9.98674C0.00720222 10.0105 0 10.035 0 10.0625V43.125C0 44.712 1.29087 46 2.875 46H43.125C44.7091 46 46 44.712 46 43.125V10.0625C46 10.0356 45.9931 10.0116 45.9862 9.98773C45.9814 9.9708 45.9765 9.95389 45.9741 9.936ZM21.3411 2.875H27.5712H38.042L41.8773 8.625H28.5315H20.3837H4.12275L7.958 2.875H21.3411ZM12.6355 33.1241C11.5382 34.2214 10.0086 39.2424 9.84232 39.8077C9.77582 40.0737 9.90882 40.373 10.2081 40.4395C10.2247 40.4395 10.2496 40.4478 10.2745 40.4561L10.2746 40.4561C10.2995 40.4645 10.3245 40.4728 10.3411 40.4728C10.3744 40.4728 10.4409 40.4728 10.4741 40.4395C11.0394 40.2733 16.0604 38.7437 17.1577 37.6464C18.4213 36.3828 18.4213 34.3544 17.1577 33.1241C15.9274 31.8938 13.8991 31.8938 12.6355 33.1241ZM35.4793 14.2375C35.7786 14.3373 36.0114 14.5368 36.0779 14.8361C36.3439 16.1661 36.4436 17.4962 36.4104 18.8263C36.4104 23.7808 33.7502 26.7735 30.2255 29.0014V34.0889C30.1923 34.9535 29.7267 35.7183 28.9619 36.1506L24.2069 38.5447C24.0407 38.6112 23.8744 38.6445 23.7081 38.6445C23.0431 38.6445 22.5443 38.1124 22.5443 37.4806V32.4596L21.447 33.5569C20.8152 34.1554 19.8509 34.1554 19.2524 33.5569L16.7917 31.0963C16.1932 30.4645 16.1932 29.5002 16.7917 28.9016L17.8558 27.8376H12.8347C12.203 27.8376 11.6709 27.3055 11.6709 26.6737C11.7042 26.4742 11.7374 26.308 11.8039 26.1417L14.1981 21.3534C14.6304 20.6219 15.3951 20.1231 16.2597 20.0899H21.2807C23.5086 16.5652 26.5013 13.905 31.4891 13.905C32.8192 13.8717 34.1825 13.9715 35.4793 14.2375ZM28.2969 20.0899C28.2969 21.1539 29.1615 22.0185 30.2255 22.0185C31.2896 22.0185 32.1541 21.1539 32.1541 20.0899C32.1541 19.0258 31.2896 18.1612 30.2255 18.1612C29.1615 18.1612 28.2969 19.0258 28.2969 20.0899Z" fill="#D72323"/>
<path d="M70.1113 16.6495C71.2533 16.8929 72.1707 17.4639 72.8633 18.3625C73.556 19.2424 73.9024 20.2533 73.9024 21.3953C73.9024 23.0428 73.322 24.3533 72.1613 25.3268C71.0193 26.2816 69.4186 26.759 67.3593 26.759H58.1765V7.04547H67.0504C69.0536 7.04547 70.6168 7.50414 71.7401 8.42148C72.8821 9.33882 73.4531 10.5838 73.4531 12.1564C73.4531 13.3171 73.1442 14.2812 72.5264 15.0488C71.9273 15.8164 71.1223 16.3499 70.1113 16.6495ZM62.9785 15.0207H66.1237C66.91 15.0207 67.5091 14.8522 67.9209 14.5153C68.3515 14.1595 68.5668 13.6447 68.5668 12.9707C68.5668 12.2968 68.3515 11.7819 67.9209 11.4262C67.5091 11.0705 66.91 10.8927 66.1237 10.8927H62.9785V15.0207ZM66.5168 22.8837C67.3219 22.8837 67.9397 22.7058 68.3702 22.3501C68.8196 21.9757 69.0442 21.4421 69.0442 20.7494C69.0442 20.0567 68.8102 19.5138 68.3422 19.1207C67.8929 18.7275 67.2657 18.531 66.4607 18.531H62.9785V22.8837H66.5168Z" fill="white"/>
<path d="M85.5181 26.9555C83.6647 26.9555 81.961 26.5249 80.4072 25.6638C78.872 24.8026 77.6458 23.6044 76.7284 22.0693C75.8298 20.5154 75.3805 18.7743 75.3805 16.846C75.3805 14.9178 75.8298 13.186 76.7284 11.6509C77.6458 10.1158 78.872 8.91759 80.4072 8.05642C81.961 7.19524 83.6647 6.76465 85.5181 6.76465C87.3715 6.76465 89.0657 7.19524 90.6009 8.05642C92.1547 8.91759 93.3716 10.1158 94.2515 11.6509C95.1502 13.186 95.5995 14.9178 95.5995 16.846C95.5995 18.7743 95.1502 20.5154 94.2515 22.0693C93.3529 23.6044 92.136 24.8026 90.6009 25.6638C89.0657 26.5249 87.3715 26.9555 85.5181 26.9555ZM85.5181 22.5748C87.0906 22.5748 88.345 22.0506 89.281 21.0022C90.2358 19.9538 90.7132 18.5684 90.7132 16.846C90.7132 15.105 90.2358 13.7196 89.281 12.6899C88.345 11.6415 87.0906 11.1173 85.5181 11.1173C83.9267 11.1173 82.6537 11.6322 81.6989 12.6618C80.7629 13.6915 80.2948 15.0863 80.2948 16.846C80.2948 18.5871 80.7629 19.9819 81.6989 21.0303C82.6537 22.0599 83.9267 22.5748 85.5181 22.5748Z" fill="white"/>
<path d="M108.628 26.759L104.612 20.7214L101.074 26.759H95.626L101.944 16.7337L95.4856 7.04547H101.074L105.033 12.9988L108.516 7.04547H113.963L107.701 16.9865L114.216 26.759H108.628Z" fill="white"/>
<path d="M127.742 13.2796C127.387 12.6244 126.872 12.1283 126.198 11.7913C125.543 11.4356 124.766 11.2578 123.867 11.2578C122.313 11.2578 121.068 11.7726 120.132 12.8023C119.196 13.8132 118.728 15.1705 118.728 16.8741C118.728 18.6901 119.215 20.1129 120.188 21.1426C121.181 22.1535 122.538 22.659 124.26 22.659C125.44 22.659 126.432 22.3595 127.237 21.7604C128.061 21.1613 128.66 20.3001 129.034 19.1768H122.94V15.6385H133.387V20.1035C133.031 21.3017 132.423 22.4156 131.562 23.4453C130.719 24.475 129.643 25.3081 128.332 25.9446C127.022 26.5811 125.543 26.8994 123.895 26.8994C121.948 26.8994 120.207 26.4781 118.672 25.6357C117.155 24.7745 115.967 23.5857 115.106 22.0693C114.263 20.5529 113.842 18.8211 113.842 16.8741C113.842 14.9271 114.263 13.1954 115.106 11.679C115.967 10.1438 117.155 8.95504 118.672 8.11258C120.188 7.2514 121.92 6.82081 123.867 6.82081C126.226 6.82081 128.21 7.39181 129.82 8.53381C131.449 9.67581 132.526 11.2578 133.05 13.2796H127.742Z" fill="white"/>
<path d="M145.111 26.9555C143.258 26.9555 141.554 26.5249 140.001 25.6638C138.465 24.8026 137.239 23.6044 136.322 22.0693C135.423 20.5154 134.974 18.7743 134.974 16.846C134.974 14.9178 135.423 13.186 136.322 11.6509C137.239 10.1158 138.465 8.91759 140.001 8.05642C141.554 7.19524 143.258 6.76465 145.111 6.76465C146.965 6.76465 148.659 7.19524 150.194 8.05642C151.748 8.91759 152.965 10.1158 153.845 11.6509C154.744 13.186 155.193 14.9178 155.193 16.846C155.193 18.7743 154.744 20.5154 153.845 22.0693C152.946 23.6044 151.729 24.8026 150.194 25.6638C148.659 26.5249 146.965 26.9555 145.111 26.9555ZM145.111 22.5748C146.684 22.5748 147.938 22.0506 148.874 21.0022C149.829 19.9538 150.307 18.5684 150.307 16.846C150.307 15.105 149.829 13.7196 148.874 12.6899C147.938 11.6415 146.684 11.1173 145.111 11.1173C143.52 11.1173 142.247 11.6322 141.292 12.6618C140.356 13.6915 139.888 15.0863 139.888 16.846C139.888 18.5871 140.356 19.9819 141.292 21.0303C142.247 22.0599 143.52 22.5748 145.111 22.5748Z" fill="white"/>
<path d="M64.6413 37.136C64.4549 36.7943 64.1986 36.5341 63.8724 36.3555C63.5463 36.1769 63.1658 36.0876 62.7309 36.0876C62.2494 36.0876 61.8223 36.1963 61.4495 36.4138C61.0768 36.6312 60.7856 36.9418 60.5759 37.3456C60.3662 37.7495 60.2614 38.2154 60.2614 38.7435C60.2614 39.2871 60.3662 39.7608 60.5759 40.1646C60.7933 40.5684 61.0923 40.8791 61.4728 41.0965C61.8534 41.3139 62.296 41.4227 62.8008 41.4227C63.422 41.4227 63.9307 41.2596 64.3267 40.9334C64.7228 40.5995 64.9829 40.1374 65.1072 39.5472H62.3115V38.3008H66.7147V39.722C66.606 40.2889 66.373 40.813 66.0158 41.2945C65.6586 41.776 65.1965 42.1643 64.6296 42.4594C64.0705 42.7467 63.4414 42.8904 62.7425 42.8904C61.9582 42.8904 61.2476 42.7156 60.6108 42.3662C59.9818 42.009 59.4848 41.5158 59.1198 40.8868C58.7626 40.2578 58.584 39.5433 58.584 38.7435C58.584 37.9436 58.7626 37.2292 59.1198 36.6001C59.4848 35.9633 59.9818 35.4702 60.6108 35.1208C61.2476 34.7635 61.9543 34.5849 62.7309 34.5849C63.6472 34.5849 64.4432 34.8101 65.1188 35.2605C65.7945 35.7032 66.2604 36.3283 66.5167 37.136H64.6413Z" fill="white"/>
<path d="M70.7868 42.9253C70.1655 42.9253 69.6064 42.7894 69.1094 42.5176C68.6124 42.2381 68.2202 41.8459 67.9329 41.3411C67.6533 40.8363 67.5135 40.2539 67.5135 39.5938C67.5135 38.9337 67.6572 38.3513 67.9445 37.8465C68.2396 37.3418 68.6396 36.9535 69.1443 36.6817C69.6491 36.4021 70.2121 36.2623 70.8334 36.2623C71.4546 36.2623 72.0177 36.4021 72.5224 36.6817C73.0272 36.9535 73.4233 37.3418 73.7106 37.8465C74.0057 38.3513 74.1532 38.9337 74.1532 39.5938C74.1532 40.2539 74.0018 40.8363 73.6989 41.3411C73.4038 41.8459 73 42.2381 72.4875 42.5176C71.9827 42.7894 71.4158 42.9253 70.7868 42.9253ZM70.7868 41.5042C71.0819 41.5042 71.3576 41.4343 71.6138 41.2945C71.8779 41.147 72.0875 40.9295 72.2429 40.6422C72.3982 40.3549 72.4758 40.0054 72.4758 39.5938C72.4758 38.9803 72.3128 38.5105 71.9866 38.1843C71.6682 37.8504 71.276 37.6835 70.8101 37.6835C70.3441 37.6835 69.952 37.8504 69.6336 38.1843C69.323 38.5105 69.1676 38.9803 69.1676 39.5938C69.1676 40.2073 69.3191 40.681 69.6219 41.015C69.9326 41.3411 70.3208 41.5042 70.7868 41.5042Z" fill="white"/>
<path d="M82.738 38.6503C83.1961 38.7357 83.5728 38.9648 83.8679 39.3376C84.163 39.7103 84.3105 40.1374 84.3105 40.6189C84.3105 41.0538 84.2018 41.4382 83.9844 41.7721C83.7747 42.0983 83.4679 42.3545 83.0641 42.5409C82.6603 42.7273 82.1827 42.8205 81.6314 42.8205H78.1251V34.6898H81.4799C82.0313 34.6898 82.505 34.7791 82.901 34.9577C83.3049 35.1363 83.6077 35.3848 83.8096 35.7032C84.0193 36.0216 84.1241 36.3827 84.1241 36.7865C84.1241 37.2602 83.996 37.6563 83.7397 37.9747C83.4912 38.2931 83.1573 38.5183 82.738 38.6503ZM79.7559 38.0446H81.2469C81.6352 38.0446 81.9342 37.9591 82.1439 37.7883C82.3536 37.6097 82.4584 37.3573 82.4584 37.0311C82.4584 36.705 82.3536 36.4526 82.1439 36.274C81.9342 36.0954 81.6352 36.0061 81.2469 36.0061H79.7559V38.0446ZM81.3984 41.4925C81.7944 41.4925 82.1012 41.3994 82.3186 41.213C82.5438 41.0266 82.6564 40.7626 82.6564 40.4209C82.6564 40.0714 82.5399 39.7996 82.307 39.6055C82.074 39.4036 81.7595 39.3026 81.3634 39.3026H79.7559V41.4925H81.3984Z" fill="white"/>
<path d="M86.4373 35.5984C86.15 35.5984 85.9092 35.5091 85.7151 35.3304C85.5287 35.1441 85.4355 34.915 85.4355 34.6432C85.4355 34.3714 85.5287 34.1462 85.7151 33.9676C85.9092 33.7812 86.15 33.688 86.4373 33.688C86.7246 33.688 86.9615 33.7812 87.1479 33.9676C87.342 34.1462 87.4391 34.3714 87.4391 34.6432C87.4391 34.915 87.342 35.1441 87.1479 35.3304C86.9615 35.5091 86.7246 35.5984 86.4373 35.5984ZM87.2411 36.3672V42.8205H85.6103V36.3672H87.2411Z" fill="white"/>
<path d="M91.38 36.2623C91.8615 36.2623 92.2847 36.3594 92.6497 36.5535C93.0147 36.7399 93.3021 36.9845 93.5117 37.2874V36.3672H95.1542V42.8671C95.1542 43.465 95.0338 43.997 94.7931 44.4629C94.5523 44.9366 94.1912 45.3094 93.7098 45.5812C93.2283 45.8608 92.6458 46.0005 91.9625 46.0005C91.0461 46.0005 90.2928 45.787 89.7026 45.3599C89.1202 44.9328 88.7902 44.3503 88.7125 43.6126H90.3317C90.4171 43.9077 90.5996 44.1407 90.8791 44.3115C91.1665 44.4901 91.5121 44.5794 91.9159 44.5794C92.3896 44.5794 92.774 44.4358 93.0691 44.1484C93.3642 43.8689 93.5117 43.4417 93.5117 42.8671V41.8653C93.3021 42.1682 93.0108 42.4205 92.6381 42.6225C92.2731 42.8244 91.8537 42.9253 91.38 42.9253C90.8364 42.9253 90.3394 42.7855 89.889 42.506C89.4386 42.2264 89.0814 41.8342 88.8173 41.3295C88.5611 40.8169 88.4329 40.2306 88.4329 39.5705C88.4329 38.9182 88.5611 38.3397 88.8173 37.8349C89.0814 37.3301 89.4347 36.9418 89.8774 36.67C90.3278 36.3982 90.8287 36.2623 91.38 36.2623ZM93.5117 39.5938C93.5117 39.1978 93.4341 38.86 93.2788 38.5804C93.1234 38.2931 92.9138 38.0756 92.6497 37.9281C92.3857 37.7728 92.1022 37.6951 91.7994 37.6951C91.4965 37.6951 91.217 37.7689 90.9607 37.9164C90.7044 38.064 90.4947 38.2814 90.3317 38.5687C90.1763 38.8483 90.0987 39.1822 90.0987 39.5705C90.0987 39.9588 90.1763 40.3005 90.3317 40.5956C90.4947 40.8829 90.7044 41.1043 90.9607 41.2596C91.2247 41.4149 91.5043 41.4925 91.7994 41.4925C92.1022 41.4925 92.3857 41.4188 92.6497 41.2712C92.9138 41.1159 93.1234 40.8985 93.2788 40.6189C93.4341 40.3316 93.5117 39.9899 93.5117 39.5938Z" fill="white"/>
<path d="M105.056 34.6898V36.0061H102.889V42.8205H101.258V36.0061H99.0916V34.6898H105.056Z" fill="white"/>
<path d="M109.111 42.9253C108.49 42.9253 107.931 42.7894 107.434 42.5176C106.937 42.2381 106.545 41.8459 106.257 41.3411C105.978 40.8363 105.838 40.2539 105.838 39.5938C105.838 38.9337 105.982 38.3513 106.269 37.8465C106.564 37.3418 106.964 36.9535 107.469 36.6817C107.973 36.4021 108.536 36.2623 109.158 36.2623C109.779 36.2623 110.342 36.4021 110.847 36.6817C111.352 36.9535 111.748 37.3418 112.035 37.8465C112.33 38.3513 112.478 38.9337 112.478 39.5938C112.478 40.2539 112.326 40.8363 112.023 41.3411C111.728 41.8459 111.324 42.2381 110.812 42.5176C110.307 42.7894 109.74 42.9253 109.111 42.9253ZM109.111 41.5042C109.406 41.5042 109.682 41.4343 109.938 41.2945C110.202 41.147 110.412 40.9295 110.567 40.6422C110.722 40.3549 110.8 40.0054 110.8 39.5938C110.8 38.9803 110.637 38.5105 110.311 38.1843C109.993 37.8504 109.6 37.6835 109.134 37.6835C108.668 37.6835 108.276 37.8504 107.958 38.1843C107.647 38.5105 107.492 38.9803 107.492 39.5938C107.492 40.2073 107.643 40.681 107.946 41.015C108.257 41.3411 108.645 41.5042 109.111 41.5042Z" fill="white"/>
<path d="M116.202 36.2623C116.683 36.2623 117.106 36.3594 117.471 36.5535C117.836 36.7399 118.124 36.9845 118.333 37.2874V36.3672H119.976V42.8671C119.976 43.465 119.855 43.997 119.615 44.4629C119.374 44.9366 119.013 45.3094 118.531 45.5812C118.05 45.8608 117.467 46.0005 116.784 46.0005C115.868 46.0005 115.114 45.787 114.524 45.3599C113.942 44.9328 113.612 44.3503 113.534 43.6126H115.153C115.239 43.9077 115.421 44.1407 115.701 44.3115C115.988 44.4901 116.334 44.5794 116.737 44.5794C117.211 44.5794 117.595 44.4358 117.891 44.1484C118.186 43.8689 118.333 43.4417 118.333 42.8671V41.8653C118.124 42.1682 117.832 42.4205 117.46 42.6225C117.095 42.8244 116.675 42.9253 116.202 42.9253C115.658 42.9253 115.161 42.7855 114.711 42.506C114.26 42.2264 113.903 41.8342 113.639 41.3295C113.383 40.8169 113.254 40.2306 113.254 39.5705C113.254 38.9182 113.383 38.3397 113.639 37.8349C113.903 37.3301 114.256 36.9418 114.699 36.67C115.149 36.3982 115.65 36.2623 116.202 36.2623ZM118.333 39.5938C118.333 39.1978 118.256 38.86 118.1 38.5804C117.945 38.2931 117.735 38.0756 117.471 37.9281C117.207 37.7728 116.924 37.6951 116.621 37.6951C116.318 37.6951 116.038 37.7689 115.782 37.9164C115.526 38.064 115.316 38.2814 115.153 38.5687C114.998 38.8483 114.92 39.1822 114.92 39.5705C114.92 39.9588 114.998 40.3005 115.153 40.5956C115.316 40.8829 115.526 41.1043 115.782 41.2596C116.046 41.4149 116.326 41.4925 116.621 41.4925C116.924 41.4925 117.207 41.4188 117.471 41.2712C117.735 41.1159 117.945 40.8985 118.1 40.6189C118.256 40.3316 118.333 39.9899 118.333 39.5938Z" fill="white"/>
<path d="M127.567 39.454C127.567 39.687 127.552 39.8967 127.521 40.0831H122.803C122.842 40.549 123.005 40.914 123.292 41.178C123.58 41.4421 123.933 41.5741 124.352 41.5741C124.958 41.5741 125.389 41.3139 125.645 40.7936H127.404C127.218 41.4149 126.861 41.9274 126.333 42.3312C125.805 42.7273 125.156 42.9253 124.387 42.9253C123.766 42.9253 123.207 42.7894 122.71 42.5176C122.221 42.2381 121.836 41.8459 121.557 41.3411C121.285 40.8363 121.149 40.2539 121.149 39.5938C121.149 38.926 121.285 38.3397 121.557 37.8349C121.829 37.3301 122.209 36.9418 122.698 36.67C123.188 36.3982 123.751 36.2623 124.387 36.2623C125.001 36.2623 125.548 36.3943 126.03 36.6584C126.519 36.9224 126.896 37.2991 127.16 37.7883C127.432 38.2698 127.567 38.825 127.567 39.454ZM125.878 38.9881C125.871 38.5687 125.719 38.2348 125.424 37.9863C125.129 37.73 124.768 37.6019 124.341 37.6019C123.937 37.6019 123.595 37.7262 123.316 37.9747C123.044 38.2154 122.877 38.5532 122.815 38.9881H125.878Z" fill="white"/>
<path d="M130.657 37.7068V40.8286C130.657 41.046 130.707 41.2052 130.808 41.3062C130.917 41.3994 131.095 41.4459 131.344 41.4459H132.101V42.8205H131.076C129.701 42.8205 129.014 42.1526 129.014 40.8169V37.7068H128.245V36.3672H129.014V34.7713H130.657V36.3672H132.101V37.7068H130.657Z" fill="white"/>
<path d="M136.908 36.274C137.398 36.274 137.832 36.3827 138.213 36.6001C138.593 36.8098 138.889 37.1243 139.098 37.5437C139.316 37.9553 139.424 38.4523 139.424 39.0347V42.8205H137.794V39.256C137.794 38.7435 137.665 38.3513 137.409 38.0795C137.153 37.7999 136.803 37.6602 136.361 37.6602C135.91 37.6602 135.553 37.7999 135.289 38.0795C135.033 38.3513 134.905 38.7435 134.905 39.256V42.8205H133.274V34.2005H134.905V37.1709C135.114 36.8913 135.394 36.6739 135.743 36.5186C136.093 36.3555 136.481 36.274 136.908 36.274Z" fill="white"/>
<path d="M146.974 39.454C146.974 39.687 146.959 39.8967 146.928 40.0831H142.21C142.249 40.549 142.412 40.914 142.699 41.178C142.986 41.4421 143.34 41.5741 143.759 41.5741C144.365 41.5741 144.796 41.3139 145.052 40.7936H146.811C146.625 41.4149 146.268 41.9274 145.739 42.3312C145.211 42.7273 144.563 42.9253 143.794 42.9253C143.173 42.9253 142.614 42.7894 142.117 42.5176C141.627 42.2381 141.243 41.8459 140.964 41.3411C140.692 40.8363 140.556 40.2539 140.556 39.5938C140.556 38.926 140.692 38.3397 140.964 37.8349C141.235 37.3301 141.616 36.9418 142.105 36.67C142.594 36.3982 143.157 36.2623 143.794 36.2623C144.408 36.2623 144.955 36.3943 145.437 36.6584C145.926 36.9224 146.302 37.2991 146.566 37.7883C146.838 38.2698 146.974 38.825 146.974 39.454ZM145.285 38.9881C145.277 38.5687 145.126 38.2348 144.831 37.9863C144.536 37.73 144.175 37.6019 143.748 37.6019C143.344 37.6019 143.002 37.7262 142.722 37.9747C142.451 38.2154 142.284 38.5532 142.222 38.9881H145.285Z" fill="white"/>
<path d="M149.795 37.3689C150.005 37.0273 150.277 36.7593 150.611 36.5652C150.952 36.371 151.341 36.274 151.776 36.274V37.9863H151.345C150.832 37.9863 150.444 38.1067 150.18 38.3474C149.923 38.5882 149.795 39.0075 149.795 39.6055V42.8205H148.165V36.3672H149.795V37.3689Z" fill="white"/>
</svg>
