<svg width="67" height="38" viewBox="0 0 67 38" fill="none" xmlns="http://www.w3.org/2000/svg">
<g opacity="0.3">
<path d="M24.269 18.7906C24.269 22.7159 23.8594 26.0952 23.0402 28.9283C22.221 31.7272 20.9239 33.8776 19.149 35.3795C17.374 36.8814 15.0188 37.6323 12.0833 37.6323C7.95314 37.6323 4.89818 35.9768 2.91843 32.6659C0.972809 29.3208 0 24.6957 0 18.7906C0 14.8311 0.392537 11.4518 1.17761 8.65287C1.99682 5.85392 3.2939 3.72057 5.06884 2.25282C6.84379 0.750939 9.18195 0 12.0833 0C16.1793 0 19.2343 1.65548 21.2482 4.96644C23.2621 8.24327 24.269 12.8513 24.269 18.7906ZM4.50564 18.7906C4.50564 23.8082 5.06884 27.5629 6.19525 30.0547C7.3558 32.5464 9.31848 33.7923 12.0833 33.7923C14.814 33.7923 16.7596 32.5635 17.9202 30.1059C19.1148 27.6141 19.7122 23.8423 19.7122 18.7906C19.7122 13.8071 19.1148 10.0694 17.9202 7.57767C16.7596 5.08591 14.814 3.84003 12.0833 3.84003C9.31848 3.84003 7.3558 5.08591 6.19525 7.57767C5.06884 10.0694 4.50564 13.8071 4.50564 18.7906Z" fill="#D9D9D9"/>
<path d="M55.0541 28.8259H49.7292V37.1203H45.3772V28.8259H27.8666V24.9858L45.07 0.358402H49.7292V24.781H55.0541V28.8259ZM45.3772 13.2609C45.3772 11.486 45.4113 9.98409 45.4796 8.75528C45.5479 7.49233 45.5991 6.29766 45.6332 5.17125H45.4284C45.1553 5.81978 44.814 6.51952 44.4044 7.27046C43.9948 8.0214 43.6022 8.65287 43.2268 9.16488L32.2699 24.781H45.3772V13.2609Z" fill="#D9D9D9"/>
<path d="M59.7781 34.3555C59.7781 33.0926 60.0853 32.2051 60.6997 31.6931C61.3141 31.1811 62.048 30.9251 62.9013 30.9251C63.7888 30.9251 64.5398 31.1811 65.1542 31.6931C65.8027 32.2051 66.127 33.0926 66.127 34.3555C66.127 35.5843 65.8027 36.4718 65.1542 37.0179C64.5398 37.5641 63.7888 37.8371 62.9013 37.8371C62.048 37.8371 61.3141 37.5641 60.6997 37.0179C60.0853 36.4718 59.7781 35.5843 59.7781 34.3555Z" fill="#D9D9D9"/>
</g>
</svg>
