<svg width="62" height="64" viewBox="0 0 62 64" fill="none" xmlns="http://www.w3.org/2000/svg">
<path d="M59.7977 57.4589V43.1292C59.7977 38.3371 56.1557 34.3956 51.4887 33.9217C51.1776 33.8901 50.8618 33.9669 50.5424 33.9669C45.4308 33.9669 41.4973 38.0814 41.4973 43.1931L41.4976 57.3986L59.7977 57.4589Z" fill="#855B51"/>
<path d="M51.5424 33.9287C46.9011 34.4275 43.2874 38.3563 43.2874 43.13V57.3538L41.2874 57.4V43.13C41.2874 38.0188 45.4311 33.875 50.5424 33.875C50.8799 33.875 51.2136 33.8925 51.5424 33.9287Z" fill="#724D44"/>
<path d="M53.1252 62.6729V52.9754L52.7419 51.8423L53.1252 48.5137H47.9592L48.178 53.7792L47.9592 55.5292V62.6729L50.5414 63.0617L53.1252 62.6729Z" fill="#C48958"/>
<path d="M47.8586 54.0234L42.7815 56.0333L43.398 63.0619H50.541L50.1682 62.6518C48.3889 60.6938 48.0421 58.1647 47.9749 55.5294C47.9602 54.9497 47.8586 54.6087 47.8586 54.0234Z" fill="#FFD163"/>
<path d="M47.976 55.5293L47.9597 55.5355L42.9197 57.6068L42.771 55.9118L47.9597 53.7793L48.1779 54.6509L47.976 55.5293Z" fill="#FFB65F"/>
<path d="M58.427 55.9639L53.1251 53.7793C53.1251 56.9808 53.0905 60.2734 50.8966 62.6733L50.5413 63.062H59.1123C59.8034 63.062 60.3635 62.5018 60.3635 61.8108V58.8563C60.3635 57.5888 59.5989 56.4467 58.427 55.9639Z" fill="#FFD163"/>
<path d="M47.9597 48.5138H47.9587C47.9587 48.5138 47.9594 52.9679 47.9597 52.968C47.9597 52.968 47.961 54.9488 47.976 55.5288L49.2749 54.9949C49.4624 54.9178 49.5847 54.7352 49.5847 54.5324V53.9773C49.5847 53.8225 49.724 53.7062 49.8766 53.7319C50.0991 53.7695 50.3206 53.7887 50.54 53.7887C51.4275 53.7887 52.3037 53.4887 53.1237 52.9749V48.5137H47.9597V48.5138Z" fill="#B27A49"/>
<path d="M44.997 44.2469C45.0082 44.6972 44.8352 45.0451 44.9298 45.5049C45.6135 48.8265 48.3063 52.1645 50.5413 52.1645C53.1251 52.1645 56.3166 47.709 56.3166 43.9707C56.3166 41.6569 55.5363 39.6143 54.0551 38.3935C53.7469 38.1395 53.4933 38.163 53.1251 37.9851C53.0091 37.929 52.8726 37.9943 52.8414 38.1193C52.1506 40.8789 49.8095 43.1427 46.9545 43.7363L45.1552 44.048C45.0619 44.0679 44.997 44.2469 44.997 44.2469Z" fill="#C48958"/>
<path d="M47.3306 44.9724C50.628 44.2614 53.2903 41.5867 54.0543 38.3942C53.7461 38.1402 53.4083 37.9208 53.0402 37.7429C52.9242 37.6869 52.7877 37.752 52.7565 37.877C52.0657 40.6367 49.7665 42.9177 46.9116 43.5112L44.926 43.936C44.8328 43.9559 44.7667 44.0389 44.7678 44.134V44.1349C44.779 44.5852 44.8358 45.0447 44.9305 45.5044L47.3306 44.9724Z" fill="#B27A49"/>
<path d="M21.2787 56.7617L14.0404 54.1828C12.6777 55.7557 10.3166 55.5753 8.95461 54.002L3.72961 56.1733C2.55786 56.6562 1.76099 57.5887 1.76099 58.8561V61.6856C1.76099 62.3767 2.32124 62.9368 3.01224 62.9368L3.26099 63.0618H8.87349L11.3747 62.7413L14.0397 63.0618H18.6572L21.2787 62.5977V56.7617Z" fill="#BAE6EF"/>
<path d="M13.8588 49.7656H9.12476L9.14601 53.5238C9.59576 54.0429 9.89213 54.6487 10.4993 54.8251C11.7306 55.1829 13.1261 54.8354 14.0388 53.7827L14.0404 53.7809V51.7961L13.8588 49.7656Z" fill="#F2D1A5"/>
<path d="M10.0184 54.8425L4.57499 57.3061L4.19111 57.4668C3.62611 57.6993 3.26111 58.2443 3.26111 58.8556V63.0618H2.88724C2.19599 63.0618 1.63599 62.5018 1.63599 61.8106V58.8556C1.63599 57.5893 2.40099 56.4468 3.57224 55.9643L8.63536 54.002C8.98824 54.3546 10.0184 54.8425 10.0184 54.8425Z" fill="#94D8E6"/>
<path d="M19.9422 56.2105L14.0397 63.0618H8.87345L4.5752 57.3058L3.7417 56.0339L6.57145 55.0499L8.8747 53.7793C10.2359 55.353 12.6772 55.353 14.0397 53.7805V53.7793L19.9422 56.2105Z" fill="#F8F7F7"/>
<path d="M10.4998 49.7656H8.87476V51.7969V53.7819V54.0352L10.166 54.8385C10.166 54.8385 10.4576 54.8046 10.4998 54.8219V52.7327C10.4998 52.5794 10.6366 52.4632 10.7881 52.4867C11.0109 52.5214 11.2338 52.5394 11.456 52.5394C12.3223 52.5394 13.201 52.2694 14.0398 51.7956V49.7656H10.4998Z" fill="#F2BB88"/>
<path d="M10.4997 54.823V54.8243L4.57474 57.3055L3.57349 55.9643L8.87473 53.7793C8.96086 53.822 9.30411 54.444 10.4997 54.823Z" fill="#E8E8E8"/>
<path d="M17.4057 42.7571C17.4057 38.8254 15.3882 36.4277 11.4566 36.4277C7.52495 36.4277 5.50732 38.8254 5.50732 42.7571C5.50732 43.5874 5.53207 44.4309 5.79395 45.2447C6.77207 48.2851 9.31432 50.9145 11.4564 50.9145C13.5806 50.9145 16.0952 48.3327 17.0921 45.3277C17.3707 44.4882 17.4057 43.6156 17.4057 42.7571Z" fill="#F2D1A5"/>
<path d="M14.8132 37.2159C14.3948 37.2627 14.004 37.3672 13.6747 37.5096L13.6699 37.5222C13.6401 37.2127 13.5602 36.9229 13.4283 36.6632C12.8318 36.5086 12.1743 36.4277 11.4564 36.4277C7.5247 36.4277 5.38232 38.8254 5.38232 42.7571C5.38232 43.5874 5.53345 44.4304 5.79532 45.2444C5.88245 45.1652 5.9767 45.0766 6.07945 44.9717C6.85807 44.177 8.16732 42.8586 9.71157 42.1845C10.6559 41.7722 11.4552 41.6585 12.0731 41.1209C12.1937 41.0159 12.3767 41.0441 12.4572 41.1822C12.7389 41.6657 13.3654 42.3306 14.6302 43.082C15.7084 43.7226 16.6248 44.6299 17.0921 45.3277C17.3706 44.4882 17.5307 43.6157 17.5307 42.7572C17.5306 40.1532 16.5899 38.2232 14.8132 37.2159Z" fill="#F2BB88"/>
<path d="M13.6848 36.0216C14.1289 35.829 14.6774 35.5697 15.2635 35.5646C16.1653 35.5567 17.1336 35.829 17.8561 36.5606C20.2211 38.9552 18.9794 42.6479 18.071 44.2687C17.9864 44.4196 17.7796 44.4431 17.6651 44.3135C17.2106 43.7992 16.092 42.6229 14.5906 41.6617C14.1021 41.349 13.6809 40.9816 13.3368 40.5842C12.9363 40.1219 12.8108 39.519 12.6353 39.015L13.6848 36.0216Z" fill="#8E868E"/>
<path d="M15.0121 37.9107C14.6759 38.9045 14.0971 39.8157 13.3384 40.5832C12.9359 40.122 12.6396 39.6195 12.4646 39.1157L13.6746 35.8857C14.1196 35.6932 14.6771 35.5695 15.2634 35.5645C15.3659 36.3045 15.2834 37.1082 15.0121 37.9107Z" fill="#766D78"/>
<path d="M13.3289 34.8621C12.9154 34.2163 12.1764 33.8089 11.2694 33.6644C9.81736 33.4331 8.00373 34.1039 6.33761 35.3216C3.19661 37.6173 3.83911 42.1147 4.82436 44.1115C4.90848 44.2821 5.14148 44.3031 5.25298 44.149C5.42473 43.9119 5.69711 43.7372 6.07948 43.3469C6.85811 42.5521 8.08911 41.5706 9.83661 40.9346C12.9872 39.788 14.4041 36.5419 13.3289 34.8621Z" fill="#8E868E"/>
<path d="M11.2835 33.6673C10.1835 33.8248 8.99099 34.291 7.89349 35.0935C5.16849 37.0848 5.34224 41.0323 6.07974 43.3473C5.69724 43.7373 5.42349 44.0823 5.25224 44.3198C5.14099 44.4735 4.90724 44.4523 4.82349 44.2823C3.83849 42.2848 3.12724 37.3898 6.26849 35.0935C7.94099 33.871 9.82974 33.4298 11.2835 33.6673Z" fill="#766D78"/>
<path d="M17.7522 25.1614L14.8479 25.1453C14.4961 25.1453 14.1584 25.2835 13.9075 25.5303L11.9512 27.4529C11.689 27.7109 11.2679 27.7094 11.0075 27.4495L9.09086 25.537C8.83949 25.2861 8.49886 25.1453 8.14374 25.1453H5.12749C3.79461 25.1453 2.71411 24.0648 2.71411 22.7319V14.2825C2.71411 13.2256 3.26849 12.2024 4.21436 11.8758C4.46136 11.7905 4.72661 11.7441 5.00261 11.7441H20.3665V22.857C20.3665 23.1333 20.3201 23.3988 20.2346 23.6459C19.9076 24.5913 18.8089 25.1614 17.7522 25.1614Z" fill="#F8F7F7"/>
<path d="M20.2336 23.6477C19.9073 24.5927 19.0098 25.2727 17.9536 25.2727H14.9736C14.6211 25.2727 14.2836 25.4114 14.0323 25.6577L11.9511 27.7052C11.6898 27.9627 11.2686 27.9614 11.0073 27.7014L8.96609 25.6639C8.71484 25.4139 8.37359 25.2727 8.01859 25.2727H5.00234C3.66984 25.2727 2.58984 24.1914 2.58984 22.8589V14.1602C2.58984 13.1027 3.26859 12.2039 4.21484 11.8789V22.8589C4.21484 23.2939 4.56734 23.6477 5.00234 23.6477H8.01859C8.80984 23.6477 9.55359 23.9552 10.1136 24.5139L11.1348 25.5339C11.3298 25.7277 11.6436 25.7289 11.8398 25.5364L12.8936 24.4989C13.4473 23.9539 14.1948 23.6477 14.9736 23.6477H20.2336Z" fill="#E8E8E8"/>
<path d="M11.2805 16.6689C11.3919 16.7739 11.5666 16.7708 11.6786 16.6664C12.0775 16.2945 12.6176 16.0667 13.2082 16.0684C14.4197 16.072 15.4084 17.0668 15.3911 18.2624C15.3685 19.8412 13.6839 21.192 12.5326 21.9323C12.1259 22.1938 11.7866 22.2155 11.6097 22.3078C11.5272 22.3508 11.4291 22.3518 11.3457 22.3107C10.6565 21.9705 7.69074 20.4599 7.73511 18.2574C7.75299 17.3695 8.18736 16.6263 8.95323 16.2893C9.03261 16.2544 9.11224 16.174 9.19874 16.1494C9.37861 16.098 9.56711 16.0698 9.76098 16.0684C10.3517 16.0643 10.8854 16.2964 11.2805 16.6689Z" fill="#DF646E"/>
<path d="M12.5322 21.9309C12.1259 22.1922 11.7847 22.3772 11.6084 22.4697C11.5259 22.5134 11.4284 22.5147 11.3447 22.4734C10.6547 22.1334 7.51969 20.4634 7.56469 18.2609C7.58469 17.2809 8.27719 16.4122 9.19844 16.1484C8.88969 16.5272 8.70094 17.0047 8.68969 17.5109C8.65344 19.2947 11.1972 21.1197 12.5322 21.9309Z" fill="#DC4955"/>
<path d="M56.8453 25.1454H53.8652C53.5134 25.1454 53.1757 25.2836 52.9248 25.5304L50.9686 27.578C50.7063 27.836 50.2852 27.8345 50.0248 27.5746L48.1082 25.5371C47.8568 25.2863 47.5162 25.1454 47.1611 25.1454H44.1448C42.8119 25.1454 41.7314 24.0649 41.7314 22.732L41.8908 11.9913L44.3248 11.7441H56.9703C58.3032 11.7441 59.3837 12.8246 59.3837 14.1575V22.8569C59.3837 23.1331 59.3373 23.3985 59.2518 23.6458C58.9251 24.5914 57.9019 25.1454 56.8453 25.1454Z" fill="#F8F7F7"/>
<path d="M50.2981 16.6689C50.4094 16.7739 50.5842 16.7708 50.6962 16.6664C51.0951 16.2945 51.6352 16.0667 52.2258 16.0684C53.4373 16.072 54.4259 17.0668 54.4087 18.2624C54.386 19.8412 52.7014 21.192 51.5502 21.9323C51.1434 22.1938 50.8042 22.2155 50.6273 22.3078C50.5448 22.3508 50.4467 22.3518 50.3633 22.3107C49.6741 21.9705 46.7083 20.4599 46.7527 18.2574C46.7706 17.3695 47.2049 16.6263 47.9708 16.2893C48.0502 16.2544 48.1298 16.174 48.2163 16.1494C48.3962 16.098 48.5847 16.0698 48.7786 16.0684C49.3693 16.0643 49.9029 16.2964 50.2981 16.6689Z" fill="#DF646E"/>
<path d="M51.5498 21.9309C51.1435 22.1922 50.8023 22.3772 50.626 22.4697C50.5435 22.5134 50.446 22.5147 50.3623 22.4734C49.6723 22.1334 46.5373 20.4634 46.5823 18.2609C46.6023 17.2809 47.2948 16.4122 48.216 16.1484C47.9073 16.5272 47.7185 17.0047 47.7073 17.5109C47.671 19.2947 50.2148 21.1197 51.5498 21.9309Z" fill="#DC4955"/>
<path d="M53.9897 23.6455C53.2072 23.6455 52.4685 23.948 51.9097 24.4968L50.6797 25.708C50.5822 25.8043 50.4247 25.803 50.3272 25.7068L49.131 24.5118C48.5747 23.9568 47.8222 23.6455 47.036 23.6455H44.0197C43.5841 23.6455 43.231 23.2924 43.231 22.8568V18.4808C43.231 18.4213 43.2531 18.3643 43.2916 18.3189C43.4112 18.1779 43.5191 18.0293 43.6135 17.8729C44.0785 17.0991 44.3247 16.2116 44.3247 15.3066V11.7441H41.606V22.8566C41.606 24.1898 42.6866 25.2704 44.0197 25.2704H47.036C47.391 25.2704 47.7322 25.4116 47.9835 25.6616L50.0247 27.6991C50.2847 27.9591 50.706 27.9604 50.9685 27.7029L53.0497 25.6554C53.301 25.4091 53.6385 25.2704 53.9897 25.2704H56.9697C58.0272 25.2704 58.9247 24.5904 59.251 23.6454H53.9897V23.6455Z" fill="#E8E8E8"/>
<path d="M38.9652 18.3644L35.3524 18.4868C34.7801 18.4868 34.235 18.7305 33.8535 19.1569L31.7555 21.4658C31.3804 21.885 30.7232 21.8824 30.3515 21.4601L28.411 19.1105C28.0291 18.6768 27.4792 18.4283 26.9014 18.4283L22.7597 18.66C20.9085 18.66 19.4072 17.1588 19.4072 15.3075V4.29C19.4072 3.07063 20.0586 2.00275 21.0322 1.41625C21.5367 1.11238 22.1277 0.9375 22.7595 0.9375H39.3475C41.1987 0.9375 42.6995 2.43825 42.6995 4.2895V15.3076C42.6995 15.9394 42.5247 16.5304 42.2209 17.0349C41.6344 18.0085 40.1847 18.3644 38.9652 18.3644Z" fill="#F8F7F7"/>
<path d="M42.2212 17.0348C41.6337 18.0085 40.5662 18.6598 39.3475 18.6598H35.3512C34.7787 18.6598 34.2337 18.9035 33.8512 19.3298L31.7587 21.6685C31.3837 22.0885 30.7262 22.086 30.355 21.6635L28.3112 19.3423C27.93 18.9085 27.38 18.6598 26.8012 18.6598H22.76C20.9087 18.6598 19.4075 17.1585 19.4075 15.3073V4.28977C19.4075 3.07102 20.0587 2.00352 21.0325 1.41602V15.3073C21.0325 16.261 21.8062 17.0348 22.76 17.0348H26.8012C27.8462 17.0348 28.8412 17.4835 29.5312 18.2685L30.785 19.6923C30.9325 19.861 31.195 19.861 31.345 19.6935L32.6412 18.246C33.33 17.4748 34.3162 17.0348 35.3512 17.0348H42.2212Z" fill="#E8E8E8"/>
<path d="M30.7511 6.41541C30.922 6.57641 31.1901 6.57166 31.3619 6.41166C31.9739 5.84116 32.8025 5.49153 33.7086 5.49416C35.5672 5.49966 37.084 7.02578 37.0576 8.86016C37.0211 11.3992 34.183 13.554 32.4224 14.6482C31.9101 14.9665 31.5272 15.0538 31.293 15.1759C31.1665 15.2419 31.016 15.2435 30.8879 15.1803C29.8304 14.6585 25.2136 12.4315 25.2818 9.05266C25.311 7.60216 26.0705 6.11603 27.4094 5.66441C27.7291 5.55653 28.0686 5.49666 28.4197 5.49428C29.3262 5.48766 30.1449 5.84403 30.7511 6.41541Z" fill="#DF646E"/>
<path d="M32.4223 14.6485C31.9098 14.9673 31.4885 15.196 31.2548 15.3173C31.1285 15.3835 30.9773 15.3848 30.8498 15.3223C29.7923 14.7998 24.9823 12.2398 25.0498 8.86101C25.0785 7.40977 26.0698 6.11602 27.4098 5.66602C26.816 6.27727 26.4423 7.10227 26.4248 7.98602C26.3673 10.8748 30.5473 13.5935 32.4223 14.6485Z" fill="#DC4955"/>
<path d="M34.2812 44.7383H27.7744L28.082 49.0765L27.7744 51.3701L27.7754 51.3714C28.0689 51.7101 28.274 52.1108 28.6404 52.3531C30.033 53.2745 31.9733 53.3554 33.3479 52.5286C33.7259 52.3013 33.9723 51.7263 34.2792 51.3724L34.2812 51.3701V48.6144L34.0182 48.1829L34.2812 44.7383Z" fill="#E3A76F"/>
<path d="M41.0745 54.1695L37.671 52.7671L34.281 51.7363C32.5646 53.7175 29.4903 53.8962 27.7747 51.9146L21.2315 54.1695C19.8253 54.7488 18.9077 56.1195 18.9077 57.6402L19.0327 62.8121L20.2822 63.0621H28.4947L31.153 62.4597L33.5085 63.0621H43.3982V57.6402C43.3982 56.1195 42.4806 54.749 41.0745 54.1695Z" fill="#CCF49F"/>
<path d="M29.3997 44.7383H27.7747V48.6145V51.3708C27.9787 51.6064 27.8869 52.0034 28.1247 52.183C28.3954 52.3875 29 52.3665 29.3022 52.4983H29.3034L29.3023 49.4132C29.3023 49.252 29.4522 49.133 29.609 49.1697C30.061 49.275 30.5683 49.3859 31.0272 49.3859C32.2172 49.3859 33.3059 49.1084 34.2809 48.6147V44.7384H29.3997V44.7383Z" fill="#D6995C"/>
<path d="M29.1596 52.4989L25.3965 54.1087L21.6012 55.6727C20.8 56.0027 20.2825 56.7752 20.2825 57.6402V63.0627H18.6575V57.6402C18.6575 56.1202 19.575 54.7489 20.9812 54.1702L24.3675 52.7752L25.9122 52.2981L27.7075 51.4922C28.1436 51.9959 28.5921 52.2514 29.1596 52.4989Z" fill="#B3E59F"/>
<path d="M37.6711 52.7673C37.5898 52.8623 37.5348 52.9248 37.5298 52.9311C35.1636 55.7498 33.7548 59.2498 33.5086 62.9236V63.0623H28.4948V62.9723C28.2961 59.7782 27.2184 56.713 25.3963 54.1085C25.0871 53.6663 24.8968 53.2791 24.5453 52.8651L24.5078 52.8163L27.7747 51.4998C28.2112 52.0041 28.7357 52.2512 29.3034 52.4988C30.9664 53.2241 33.0003 52.8485 34.2798 51.3723L34.2811 51.3711L37.6711 52.7673Z" fill="#F8F7F7"/>
<path d="M29.3022 52.4986L25.3959 54.1086C25.0872 53.6661 24.7559 53.2373 24.4047 52.8236L24.3672 52.7748L27.7747 51.3711C28.0747 51.7173 28.4159 52.0036 28.7847 52.2286C28.8184 52.2498 28.8522 52.2698 28.8859 52.2886C29.0222 52.3673 29.1609 52.4361 29.3022 52.4986Z" fill="#E8E8E8"/>
<path d="M38.1035 37.3956C38.1035 32.6871 35.7354 28.9141 31.0269 28.9141C26.3184 28.9141 24.1835 32.7197 24.1835 37.4283C24.1835 38.2143 23.8242 39.0367 23.9652 39.8427C24.6689 43.8653 27.1043 47.7601 31.0269 47.7601C35.2037 47.7601 37.6943 43.3442 38.2036 39.0601C38.2684 38.5147 38.1035 37.9273 38.1035 37.3956Z" fill="#E3A76F"/>
<path d="M38.301 37.4396C38.301 33.9966 36.9275 31.0323 34.3491 29.6866C34.2675 29.7888 34.0997 29.7244 34.1278 29.5748C33.2301 29.1498 32.1946 28.9141 31.0267 28.9141C26.3182 28.9141 23.7524 32.7311 23.7524 37.4396C23.7524 38.2256 23.8243 39.0366 23.9653 39.8426C24.0747 39.6974 24.2246 39.5913 24.3673 39.4571C25.5991 38.2981 27.3663 38.2566 27.5546 37.0446C27.5781 36.8932 27.7213 36.7943 27.8689 36.8353C29.2701 37.2242 31.545 36.3366 32.3058 34.7959C32.3792 34.6473 32.5717 34.6127 32.6963 34.7219C33.4077 35.3458 34.3446 35.3297 34.7513 35.2867C34.8678 35.2744 34.9776 35.3436 35.0155 35.4543C35.7228 37.5221 37.6622 36.7634 38.203 39.0601C38.268 38.5146 38.301 37.9713 38.301 37.4396Z" fill="#D6995C"/>
<path d="M38.9448 31.0371C38.8793 31.0182 38.7568 30.995 38.6552 30.9772C38.5752 30.9632 38.5282 30.8772 38.5628 30.8037C38.7541 30.3977 38.8447 29.935 38.8012 29.4474C38.6894 28.195 37.6751 27.182 36.4224 27.0728C35.6084 27.0017 34.8635 27.3029 34.3379 27.8246C34.2664 27.8956 34.1466 27.8603 34.1272 27.7614C33.8413 26.2946 32.5501 25.1875 30.9996 25.1875C30.2412 25.1875 29.5452 25.4529 28.998 25.8953C28.9436 25.9391 28.8662 25.9313 28.8213 25.8778C28.3401 25.3039 27.6196 24.9375 26.812 24.9375C25.4817 24.9375 24.3835 25.9272 24.2113 27.2104C24.2032 27.2707 24.1547 27.3164 24.0938 27.3199C23.8003 27.3368 23.5157 27.3874 23.2441 27.4679C21.6932 27.9275 20.7307 29.4304 20.7307 31.1304C20.7307 32.0953 21.0895 32.8275 21.6882 33.4921C21.7102 33.5165 21.7216 33.5475 21.7196 33.5802C21.7035 33.8346 21.6321 35.0256 21.8372 36.1198C22.2122 38.1198 23.7523 38.6702 23.7523 38.6702C23.7523 38.0807 24.0381 37.855 24.3673 37.5829C25.1317 36.951 26.4516 36.837 26.7845 35.6719C26.8018 35.6111 26.8598 35.5715 26.922 35.5824C27.1232 35.6176 27.554 35.6875 27.812 35.6875C29.7286 35.6875 31.3645 34.4887 32.013 32.8005C32.0463 32.7136 32.1618 32.6982 32.2196 32.7714C32.7805 33.4816 33.6492 33.9376 34.6244 33.9376C34.9119 33.9376 35.1899 33.8975 35.4537 33.8234C35.5182 33.8053 35.5851 33.8418 35.6047 33.9058C36.3719 36.4119 38.2913 35.6033 38.2913 37.9424C39.5484 37.3746 40.2999 35.434 40.6583 34.1444C41.0344 32.7906 40.2461 31.4131 38.9448 31.0371Z" fill="#855B51"/>
<path d="M24.3673 37.5825C24.0385 37.855 23.8241 38.2345 23.8241 38.8245C23.8241 38.8245 22.0623 38.1875 21.6873 36.1875C21.4823 35.0938 21.541 33.9137 21.5573 33.6587C21.5598 33.6262 21.5473 33.595 21.526 33.5713C20.9273 32.9063 20.5623 32.0275 20.5623 31.0625C20.5623 29.3625 21.6935 27.9275 23.2448 27.4688C22.4435 28.1562 21.9373 29.175 21.9373 30.3125C21.9373 31.2775 22.3023 32.1563 22.901 32.8213C22.9223 32.845 22.9348 32.8762 22.9323 32.9087C22.916 33.1637 22.8573 34.3438 23.0623 35.4375C23.2635 36.5087 23.8585 37.185 24.3673 37.5825Z" fill="#724D44"/>
<path d="M49.9475 23.315C50.1183 23.3994 50.3047 23.4415 50.4913 23.4415C50.6868 23.4415 50.8823 23.3952 51.0597 23.3029C52.0558 22.7836 55.3086 20.8865 55.346 18.2762C55.3992 16.7117 53.9796 15.1025 52.2191 15.1312C51.6013 15.1312 51.0062 15.3082 50.4973 15.6375C49.9923 15.308 49.4042 15.1312 48.7938 15.1312C47.1678 15.114 45.6816 16.542 45.6447 18.2437C45.59 20.9526 48.9243 22.8102 49.9475 23.315ZM48.7848 17.0062H48.7936C49.1128 17.0062 49.4183 17.1286 49.6547 17.3515C49.6548 17.3516 49.655 17.3517 49.6551 17.3519C50.1241 17.7935 50.8622 17.7937 51.3351 17.3526C51.5748 17.1292 51.8886 17.0062 52.2188 17.0062C52.721 17.0146 53.4385 17.4145 53.4711 18.2492C53.4533 19.4847 51.7028 20.7932 50.4837 21.4821C49.2515 20.8189 47.4937 19.5412 47.5191 18.2816C47.5328 17.6069 48.1243 17.0109 48.7848 17.0062Z" fill="#303841"/>
<path d="M10.9306 23.3151C11.1015 23.3994 11.2877 23.4415 11.4742 23.4415C11.6697 23.4415 11.8652 23.3952 12.0426 23.3029C13.0386 22.7836 16.2914 20.8865 16.3289 18.2761C16.382 16.7119 14.9622 15.1025 13.2019 15.1312C12.5841 15.1312 11.9891 15.3082 11.4801 15.6375C10.9691 15.304 10.3711 15.1266 9.75449 15.1312C8.06462 15.1432 6.66174 16.5396 6.62737 18.2437C6.57287 20.9526 9.90712 22.8102 10.9306 23.3151ZM9.76787 17.0062H9.77662C10.0959 17.0062 10.4014 17.1286 10.6376 17.3515C10.6377 17.3516 10.6379 17.3517 10.638 17.3519C11.1069 17.7934 11.8449 17.7939 12.318 17.3526C12.5576 17.1292 12.8715 17.0062 13.2017 17.0062C13.7039 17.0146 14.4214 17.4145 14.454 18.2492C14.4362 19.4847 12.6857 20.7932 11.4665 21.4821C10.2344 20.8189 8.47662 19.5412 8.50212 18.2816C8.51574 17.6067 9.10724 17.0109 9.76787 17.0062Z" fill="#303841"/>
<path d="M5.00261 26.2086H8.01886C8.12636 26.2086 8.22761 26.2505 8.30374 26.3264L10.3455 28.3641C10.6579 28.6757 11.0695 28.8318 11.4812 28.8318C11.8892 28.8318 12.2972 28.6786 12.6087 28.372L14.69 26.3244C14.7659 26.2496 14.8664 26.2085 14.9729 26.2085H17.953C19.8007 26.2085 21.304 24.7054 21.304 22.8575V19.3425C21.7587 19.507 22.2487 19.5971 22.7595 19.5971H26.8015C27.1099 19.5971 27.4036 19.73 27.6074 19.9613L29.651 22.2829C30.0051 22.6852 30.5157 22.9171 31.0517 22.9193H31.0592C31.5925 22.9193 32.1017 22.6917 32.4575 22.2941L34.5504 19.9549C34.7537 19.7275 35.0454 19.5971 35.3505 19.5971H39.3476C39.8086 19.5971 40.2524 19.5231 40.6689 19.388V22.8576C40.6689 24.7054 42.172 26.2086 44.0199 26.2086H47.0361C47.1436 26.2086 47.2449 26.2505 47.321 26.3264L49.3627 28.3641C49.6751 28.6757 50.0869 28.8318 50.4986 28.8318C50.9065 28.8318 51.3145 28.6786 51.6261 28.372L53.7075 26.3242C53.7834 26.2496 53.8839 26.2085 53.9904 26.2085H56.9705C58.8181 26.2085 60.3214 24.7054 60.3214 22.8575V14.1581C60.3214 12.3104 58.8182 10.8071 56.9705 10.8071H43.637V4.28937C43.637 1.92425 41.7127 0 39.3475 0H31.71C31.1921 0 30.7725 0.419625 30.7725 0.9375C30.7725 1.45537 31.1921 1.875 31.71 1.875H39.3475C40.6787 1.875 41.7619 2.95812 41.7619 4.28937V15.3076C41.7619 16.639 40.6787 17.7221 39.3475 17.7221H35.3504C34.5125 17.7221 33.7115 18.0802 33.1527 18.7046L31.0584 21.044L29.0149 18.7224C28.4552 18.0868 27.6485 17.7221 26.8015 17.7221H22.7595C21.4281 17.7221 20.345 16.639 20.345 15.3076V4.28937C20.345 2.95812 21.4281 1.875 22.7595 1.875H27.335C27.8527 1.875 28.2725 1.45537 28.2725 0.9375C28.2725 0.419625 27.8527 0 27.335 0H22.7595C20.3942 0 18.47 1.92425 18.47 4.28937V10.8074H5.00261C3.15486 10.8074 1.65161 12.3105 1.65161 14.1584V22.8577C1.65161 24.7055 3.15486 26.2086 5.00261 26.2086ZM56.9704 12.6824C57.7841 12.6824 58.4462 13.3445 58.4462 14.1584V22.8577C58.4462 23.6716 57.7841 24.3337 56.9704 24.3337H53.9902C53.3886 24.3337 52.8211 24.566 52.3925 24.9879L50.4996 26.8499L48.6454 24.9993C48.2154 24.57 47.6437 24.3336 47.036 24.3336H44.0197C43.2059 24.3336 42.5437 23.6715 42.5437 22.8576V18.1642C43.2229 17.4051 43.6369 16.4039 43.6369 15.3075V12.6823H56.9704V12.6824ZM3.52661 14.1584C3.52661 13.3445 4.18874 12.6824 5.00261 12.6824H18.47V15.3076C18.47 16.3299 18.83 17.2693 19.429 18.007V22.8576C19.429 23.6715 18.7669 24.3336 17.953 24.3336H14.9729C14.3714 24.3336 13.804 24.5659 13.3751 24.9877L11.4824 26.8498L9.62811 24.9991C9.19799 24.5699 8.62649 24.3335 8.01874 24.3335H5.00249C4.18861 24.3335 3.52649 23.6714 3.52649 22.8575V14.1584H3.52661Z" fill="#303841"/>
<path d="M24.1125 8.84191C24.0346 12.7027 28.932 15.4217 30.4344 16.1628C30.627 16.2579 30.8373 16.3054 31.0475 16.3054C31.2679 16.3054 31.488 16.2533 31.688 16.1492C33.154 15.3852 37.9411 12.6022 37.9948 8.87429C38.0741 6.68366 36.0759 4.50978 33.698 4.55741C32.7344 4.55741 31.8113 4.87003 31.0554 5.44566C30.297 4.86328 29.3751 4.55378 28.4129 4.55741C26.089 4.57378 24.1599 6.49579 24.1125 8.84191ZM28.4264 6.43241C28.4321 6.43229 28.4379 6.43229 28.4436 6.43229C29.0615 6.43229 29.652 6.66854 30.1079 7.09829V7.09841C30.6356 7.59579 31.4671 7.59566 32.0009 7.09816C32.4616 6.66854 33.064 6.43241 33.698 6.43241C34.8491 6.41241 36.1518 7.45454 36.12 8.84741C36.0901 10.9228 33.415 13.0879 31.0418 14.3695C28.6334 13.1352 25.9442 11.0053 25.987 8.87979C26.0137 7.56229 27.1306 6.44154 28.4264 6.43241Z" fill="#303841"/>
<path d="M60.7351 56.786V43.1304C60.7351 37.51 56.1626 32.9375 50.5422 32.9375C48.9269 32.9375 47.3184 33.3253 45.8906 34.0588C45.43 34.2954 45.2485 34.8605 45.4851 35.321C45.7217 35.7816 46.287 35.9631 46.7474 35.7265C47.9279 35.12 49.2046 34.8125 50.5422 34.8125C55.1287 34.8125 58.8601 38.5439 58.8601 43.1304V55.1323C58.8345 55.1211 58.8101 55.1083 58.7842 55.0976H58.7844L54.0629 53.152V51.3192C55.8671 49.5177 57.2544 46.6288 57.2544 43.9711C57.2544 40.5484 55.7306 37.859 53.1781 36.7767C52.9462 36.6785 52.6845 36.678 52.4515 36.7747C52.29 36.8517 51.9949 37.0296 51.8961 37.4398C51.331 40.019 49.2976 42.0425 46.7157 42.595L44.57 43.0542C44.2096 43.1239 43.8331 43.5564 43.831 44.1586C43.8959 46.7905 45.26 49.5802 47.0219 51.3309V53.152L43.2921 54.6889C42.9914 54.3176 42.6322 53.9923 42.2246 53.7248V43.1302C42.2246 41.4117 42.744 39.7626 43.7266 38.3611C44.0239 37.9371 43.9212 37.3526 43.4972 37.0554C43.0731 36.7581 42.4887 36.8609 42.1915 37.2848C40.9865 39.0033 40.3497 41.0246 40.3497 43.1304V52.857L35.2192 50.743V47.1816C37.568 45.2791 38.9596 41.8564 39.2185 38.4891C40.4476 37.6071 41.1654 35.8232 41.5621 34.3952C41.8337 33.4175 41.6675 32.3738 41.1057 31.5316C40.7507 30.9993 40.2604 30.5833 39.6937 30.3201C39.75 30.0076 39.7644 29.6867 39.7357 29.3644C39.5825 27.6454 38.2236 26.2889 36.5045 26.1389C35.8621 26.083 35.2265 26.2019 34.6607 26.47C33.9695 25.1406 32.5806 24.25 30.9999 24.25C30.3 24.25 29.617 24.428 29.0122 24.7609C28.3924 24.2704 27.6252 24 26.8124 24C25.231 24 23.8872 25.0146 23.4234 26.4591C21.242 26.8713 19.6249 28.7671 19.6249 31.0625C19.6249 32.1084 19.9707 33.1127 20.6062 33.932C20.5895 34.4584 20.5912 35.429 20.7659 36.3602C21.0941 38.1107 22.2556 39.0281 22.9547 39.4326C23.0382 40.0444 23.1567 40.6535 23.3127 41.2484C23.4226 41.6017 23.8791 42.0745 24.4572 41.9176C24.9581 41.7864 25.2577 41.274 25.1265 40.7731C24.9597 40.1365 24.8387 39.4813 24.7671 38.8256C24.7257 38.4631 24.8611 38.3038 25.6831 37.9026C26.2392 37.6365 26.9492 37.2969 27.3907 36.598C29.2586 36.8061 31.3455 35.7664 32.3597 34.1721C32.9989 34.5881 33.9657 34.9611 34.9684 34.8605C35.4466 35.8822 36.1215 36.3475 36.6409 36.7055C37.1994 37.0904 37.3714 37.2101 37.3746 37.9176C37.1805 42.299 34.7565 46.8234 31.027 46.8234C28.966 46.8234 27.5822 45.5137 26.7844 44.4152C26.48 43.9962 25.8937 43.9031 25.4749 44.2076C25.056 44.512 24.963 45.0981 25.2672 45.5171C25.7449 46.1746 26.2706 46.7336 26.8372 47.1915V50.7431C25.2929 51.3794 22.1402 52.6785 20.6245 53.303C19.8722 53.6129 19.235 54.1012 18.7497 54.7062L14.978 53.1521V50.2695C16.2992 49.097 17.4267 47.3816 18.0215 45.5013C18.2897 45.4626 18.5302 45.3106 18.6779 45.0799C19.6525 43.5574 21.5246 38.9405 18.5232 35.9012C17.3436 34.7069 15.6841 34.4558 14.3149 34.7178C14.2574 34.5925 14.1921 34.4719 14.1185 34.3568C12.8524 32.3786 9.57999 32.1012 6.66849 33.7255C6.21636 33.9777 6.05424 34.5487 6.30649 35.0009C6.55874 35.4531 7.12974 35.6154 7.58199 35.3629C9.76574 34.145 11.9084 34.3818 12.5394 35.3675C12.8006 35.7756 12.8174 36.4029 12.5854 37.0889C12.2409 38.1074 11.2536 39.4211 9.51586 40.0536C7.51324 40.7825 6.12899 41.9272 5.27886 42.827C4.92624 41.5906 4.72324 39.8239 5.20736 38.2184C5.35686 37.7226 5.07611 37.1996 4.58036 37.0501C4.08436 36.9008 3.56161 37.1812 3.41211 37.6771C2.54711 40.5461 3.39461 43.8365 4.23999 45.157C4.39236 45.395 4.64249 45.5491 4.91874 45.582C5.52049 47.4246 6.63611 49.1052 7.93686 50.2617V53.152C7.85099 53.1898 3.25386 55.0771 3.16274 55.1216C1.66436 55.7636 0.698486 57.2225 0.698486 58.8568V61.8111C0.698486 63.018 1.68036 64 2.88724 64H59.1122C60.3191 64 61.301 63.0182 61.301 61.8112V58.8566C61.3011 58.1091 61.0976 57.399 60.7351 56.786ZM36.4735 33.5353C36.4046 33.2894 36.2385 33.0822 36.0135 32.9616C35.7885 32.841 35.5241 32.8175 35.2814 32.8963C35.0691 32.9651 34.8482 33 34.6249 33C33.9191 33 33.2609 32.6505 32.864 32.065C32.6635 31.7692 32.3126 31.6131 31.9579 31.6625C31.6037 31.7121 31.3087 31.9589 31.1972 32.2988C30.7161 33.7649 29.3559 34.75 27.8124 34.75C27.6385 34.75 27.2176 34.6852 26.9882 34.6416C26.4896 34.5466 26.0062 34.8652 25.8969 35.3607C25.816 35.7277 25.5376 35.8936 24.8739 36.2111C24.3787 36.448 23.7261 36.7601 23.3035 37.3582C23.009 37.0577 22.7227 36.6226 22.6087 36.0149C22.404 34.923 22.4944 33.6939 22.4952 33.6824C22.5156 33.4216 22.4261 33.1642 22.2485 32.9724C21.7657 32.451 21.4997 31.7726 21.4997 31.0626C21.4997 29.5321 22.6979 28.2977 24.2274 28.2526C24.7005 28.2386 25.089 27.8741 25.1331 27.4028C25.2146 26.5317 25.9365 25.875 26.8124 25.875C27.342 25.875 27.8312 26.119 28.1547 26.5444C28.312 26.7512 28.5481 26.8836 28.8067 26.9097C29.0652 26.9359 29.3231 26.8535 29.5187 26.6822C29.929 26.3229 30.455 26.125 30.9999 26.125C32.1454 26.125 33.1062 26.9819 33.2347 28.1181C33.277 28.4915 33.5381 28.8036 33.8982 28.9111C34.2591 29.0191 34.648 28.9005 34.8879 28.6114C35.2474 28.1779 35.7764 27.9573 36.3415 28.0068C37.1405 28.0765 37.7967 28.7316 37.8679 29.5309C37.8981 29.8699 37.8287 30.2042 37.6674 30.498C37.5161 30.7731 37.5126 31.1058 37.6581 31.384C37.8036 31.6623 38.0787 31.8492 38.391 31.8819C38.8034 31.9169 39.2185 32.1216 39.5456 32.5719C39.8044 32.9599 39.8809 33.4415 39.7552 33.8932C39.4921 34.8407 39.162 35.6315 38.804 36.1976C38.4889 35.7017 38.061 35.4069 37.7049 35.1615C37.1676 34.7911 36.7431 34.4985 36.4735 33.5353ZM47.1079 44.4287C49.9929 43.8114 52.3419 41.7569 53.3691 39.0469C54.644 40.042 55.3792 41.805 55.3792 43.9712C55.3792 47.3355 52.4515 51.2276 50.5414 51.2276C48.7712 51.2276 46.1277 47.9144 45.7492 44.7196L47.1079 44.4287ZM29.363 62.125C29.0189 58.8965 27.8017 55.7781 25.8726 53.1685L27.554 52.4757C28.5064 53.3197 29.7384 53.7948 31.0271 53.7949H31.028C32.3195 53.7949 33.5544 53.318 34.503 52.476L36.1577 53.1579C34.2174 55.7669 32.9889 58.8915 32.6382 62.125H29.363ZM37.9541 53.898L40.7174 55.0366C41.7766 55.473 42.4609 56.4951 42.4609 57.6406V62.125H34.5282C34.8904 59.1359 36.0855 56.2601 37.9541 53.898ZM31.027 48.6982C31.8569 48.6982 32.63 48.5477 33.344 48.2746V50.9964C32.7216 51.5868 31.8944 51.9198 31.0281 51.9198C31.028 51.9198 31.0277 51.9198 31.0276 51.9198C30.16 51.9196 29.3315 51.5854 28.7124 50.9971V48.2769C29.4434 48.5544 30.2177 48.6982 31.027 48.6982ZM17.7204 62.125H16.0854L17.7204 60.2269V62.125ZM17.7315 57.341L13.6106 62.125H9.34436L5.04649 56.3711L8.66086 54.8819C9.43886 55.5342 10.4264 55.8987 11.4567 55.899H11.4575C12.4876 55.899 13.4749 55.5347 14.2539 54.8817L17.8937 56.3815C17.8079 56.6914 17.7522 57.0121 17.7315 57.341ZM17.1892 37.2189C18.8211 38.8714 18.3072 41.3776 17.6637 42.9481C17.0487 42.3382 16.1656 41.5564 15.0961 40.8719C14.4244 40.4419 13.8807 39.871 13.5527 39.2621C13.8979 38.7749 14.1731 38.2469 14.3615 37.6899C14.4882 37.315 14.5675 36.9415 14.601 36.578C15.3807 36.4184 16.4606 36.4813 17.1892 37.2189ZM6.49724 44.2682C7.16249 43.5269 8.35236 42.4728 10.1571 41.8159C10.915 41.54 11.6106 41.1479 12.217 40.667C12.6865 41.3507 13.3232 41.9631 14.0852 42.451C15.053 43.0705 15.857 43.7936 16.3992 44.337C15.6761 47.4153 13.1554 49.9776 11.4565 49.9776C9.75674 49.9775 7.19974 47.3715 6.49724 44.2682ZM11.4566 51.8525C11.998 51.8525 12.5534 51.7248 13.103 51.491V53.3991C12.6522 53.7994 12.068 54.0239 11.4575 54.0239C11.4574 54.0239 11.4572 54.0239 11.457 54.0239C10.8477 54.0238 10.2646 53.8 9.81199 53.3985V51.4881C10.3619 51.7234 10.9169 51.8525 11.4566 51.8525ZM2.57361 61.8111V58.8568C2.57361 58.2081 2.85661 57.6114 3.32774 57.2033L7.00399 62.125H2.88736C2.71436 62.125 2.57361 61.9843 2.57361 61.8111ZM19.5954 57.6406C19.5954 56.4951 20.2797 55.4729 21.3389 55.0366L24.0789 53.9076C25.9357 56.2714 27.1185 59.1415 27.4736 62.125H19.5955V57.6406H19.5954ZM44.3359 62.125V57.6406C44.3359 57.1995 44.2724 56.7703 44.1569 56.3606L47.0291 55.177C47.0655 57.539 47.2842 60.0211 48.5982 62.125H44.3359ZM48.8967 53.7779V52.6959C49.4441 52.9561 49.9991 53.1026 50.5414 53.1026C51.084 53.1026 51.6396 52.9569 52.1877 52.6941C52.1879 52.6965 52.1875 53.6849 52.1879 53.7822C52.1879 56.5957 52.187 59.499 50.5424 61.6384C48.8975 59.5025 48.8967 56.5961 48.8967 53.7799C48.8969 53.7791 48.8967 53.7785 48.8967 53.7779ZM59.4261 61.8112C59.4261 61.9842 59.2854 62.125 59.1124 62.125H52.4856C53.8002 60.0191 54.019 57.538 54.0555 55.1771L58.0699 56.8312H58.07C58.8937 57.1706 59.4261 57.9656 59.4261 58.8566V61.8112Z" fill="#303841"/>
</svg>
