<svg width="495" height="277" viewBox="0 0 495 277" fill="none" xmlns="http://www.w3.org/2000/svg">
<g opacity="0.3">
<path d="M155.346 121L155.989 120.235L155.437 119.77L154.822 120.148L155.346 121ZM177.924 140L177.28 140.765L177.798 141.2L178.394 140.883L177.924 140ZM273.657 89L274.399 88.3298L273.876 87.7504L273.187 88.1174L273.657 89ZM306.622 125.5L305.88 126.17L306.494 126.851L307.226 126.297L306.622 125.5ZM401.991 54.1366C402.066 53.5895 401.684 53.0848 401.137 53.0094L392.221 51.7797C391.674 51.7043 391.169 52.0866 391.094 52.6337C391.018 53.1808 391.401 53.6855 391.948 53.761L399.873 54.854L398.78 62.779C398.704 63.3261 399.087 63.8308 399.634 63.9062C400.181 63.9817 400.686 63.5993 400.761 63.0522L401.991 54.1366ZM56.5233 182.852L155.869 121.852L154.822 120.148L55.4767 181.148L56.5233 182.852ZM154.702 121.765L177.28 140.765L178.568 139.235L155.989 120.235L154.702 121.765ZM178.394 140.883L274.127 89.8826L273.187 88.1174L177.454 139.117L178.394 140.883ZM272.915 89.6702L305.88 126.17L307.364 124.83L274.399 88.3298L272.915 89.6702ZM307.226 126.297L401.604 54.7971L400.396 53.2029L306.018 124.703L307.226 126.297Z" fill="#D72323"/>
<path d="M148.172 199.316L148.312 200.306L148.506 200.279L148.676 200.18L148.172 199.316ZM192.465 173.5L192.359 172.506L192.147 172.528L191.962 172.636L192.465 173.5ZM262.874 166L262.792 165.003L262.78 165.004L262.768 165.006L262.874 166ZM324.304 161L324.385 161.997L324.665 161.974L324.893 161.808L324.304 161ZM493.999 59.9506C493.971 59.399 493.502 58.9739 492.951 59.0012L483.962 59.446C483.41 59.4733 482.985 59.9426 483.012 60.4942C483.04 61.0458 483.509 61.4709 484.06 61.4436L492.051 61.0482L492.446 69.0384C492.473 69.59 492.943 70.0151 493.494 69.9878C494.046 69.9605 494.471 69.4912 494.444 68.9396L493.999 59.9506ZM388.096 114.5L387.991 113.506L387.724 113.534L387.507 113.692L388.096 114.5ZM449.526 108L449.632 108.994L450.011 108.954L450.268 108.671L449.526 108ZM37.1397 215.99L148.312 200.306L148.033 198.326L36.8603 214.01L37.1397 215.99ZM148.676 200.18L192.969 174.364L191.962 172.636L147.669 198.452L148.676 200.18ZM192.571 174.494L262.979 166.994L262.768 165.006L192.359 172.506L192.571 174.494ZM262.955 166.997L324.385 161.997L324.223 160.003L262.792 165.003L262.955 166.997ZM324.893 161.808L388.685 115.308L387.507 113.692L323.715 160.192L324.893 161.808ZM388.202 115.494L449.632 108.994L449.421 107.006L387.991 113.506L388.202 115.494ZM450.268 108.671L493.741 60.6713L492.259 59.3287L448.785 107.329L450.268 108.671Z" fill="#07A717"/>
<path d="M129.172 200.316L129.312 201.306L129.612 201.264L129.838 201.062L129.172 200.316ZM166.5 167L166.438 166.002L166.092 166.023L165.834 166.254L166.5 167ZM223 163.5L223.062 164.498L223.176 164.491L223.285 164.458L223 163.5ZM293.5 142.5L293.695 141.519L293.452 141.471L293.215 141.542L293.5 142.5ZM459.989 45.6455C460.07 45.0991 459.692 44.591 459.146 44.5106L450.241 43.2012C449.695 43.1208 449.187 43.4987 449.106 44.0451C449.026 44.5915 449.404 45.0996 449.95 45.1799L457.865 46.3439L456.701 54.2587C456.621 54.8051 456.999 55.3132 457.545 55.3936C458.091 55.4739 458.6 55.0961 458.68 54.5497L459.989 45.6455ZM366.5 157L366.305 157.981L367.053 158.129L367.394 157.447L366.5 157ZM400.5 89L399.903 88.1975L399.712 88.3397L399.606 88.5528L400.5 89ZM18.1397 216.99L129.312 201.306L129.033 199.326L17.8603 215.01L18.1397 216.99ZM129.838 201.062L167.166 167.746L165.834 166.254L128.507 199.57L129.838 201.062ZM166.562 167.998L223.062 164.498L222.938 162.502L166.438 166.002L166.562 167.998ZM223.285 164.458L293.785 143.458L293.215 141.542L222.715 162.542L223.285 164.458ZM293.305 143.481L366.305 157.981L366.695 156.019L293.695 141.519L293.305 143.481ZM367.394 157.447L401.394 89.4472L399.606 88.5528L365.606 156.553L367.394 157.447ZM401.097 89.8025L459.597 46.3025L458.403 44.6975L399.903 88.1975L401.097 89.8025Z" fill="#072AA7"/>
<rect y="90.9971" width="378" height="191" transform="rotate(-13.9298 0 90.9971)" fill="url(#paint0_linear)"/>
</g>
<defs>
<linearGradient id="paint0_linear" x1="128.395" y1="206.815" x2="380.475" y2="187.429" gradientUnits="userSpaceOnUse">
<stop stop-color="white"/>
<stop offset="1" stop-color="white" stop-opacity="0"/>
</linearGradient>
</defs>
</svg>
