<svg width="16" height="16" viewBox="0 0 16 16" fill="none" xmlns="http://www.w3.org/2000/svg">
<path d="M4.9375 14.75H1.875C1.53038 14.75 1.25 14.4696 1.25 14.125V11.1562C1.25 10.8111 0.970187 10.5312 0.625 10.5312C0.279813 10.5312 0 10.8111 0 11.1562V14.125C0 15.1589 0.841125 16 1.875 16H4.9375C5.28269 16 5.5625 15.7202 5.5625 15.375C5.5625 15.0298 5.28269 14.75 4.9375 14.75Z" fill="white"/>
<path d="M4.59684 4.77546C4.35203 4.53214 3.95628 4.53333 3.71297 4.77814C3.46962 5.02296 3.47084 5.41871 3.71566 5.66202L5.4705 7.40624H0.625C0.279813 7.40624 0 7.68605 0 8.03124C0 8.37643 0.279813 8.65624 0.625 8.65624H5.42209L3.71347 10.3714C3.46984 10.6159 3.47063 11.0117 3.71516 11.2553C3.83713 11.3768 3.99669 11.4375 4.15625 11.4375C4.31659 11.4375 4.47694 11.3762 4.59903 11.2536L6.51331 9.33199C6.86747 8.97784 7.0625 8.50699 7.0625 8.00615C7.0625 7.50533 6.86747 7.03446 6.51197 6.67899L4.59684 4.77546Z" fill="white"/>
<path d="M0.625 5.5C0.970187 5.5 1.25 5.22019 1.25 4.875V1.875C1.25 1.53038 1.53038 1.25 1.875 1.25H4.9375C5.28269 1.25 5.5625 0.970187 5.5625 0.625C5.5625 0.279813 5.28269 0 4.9375 0H1.875C0.841125 0 0 0.841125 0 1.875V4.875C0 5.22019 0.279813 5.5 0.625 5.5Z" fill="white"/>
<path d="M15.375 7.40625H10.5295L12.2843 5.66203C12.5292 5.41869 12.5304 5.02297 12.287 4.77816C12.0437 4.53334 11.648 4.53212 11.4032 4.77547L9.48669 6.68034C9.13253 7.0345 8.9375 7.50534 8.9375 8.00616C8.9375 8.507 9.13253 8.97784 9.48584 9.33115L11.401 11.2536C11.5231 11.3762 11.6834 11.4375 11.8438 11.4375C12.0033 11.4375 12.1629 11.3768 12.2848 11.2553C12.5294 11.0117 12.5302 10.6159 12.2865 10.3714L10.5779 8.65625H15.375C15.7202 8.65625 16 8.37644 16 8.03125C16 7.68606 15.7202 7.40625 15.375 7.40625Z" fill="white"/>
<path d="M14.125 0H11.0625C10.7173 0 10.4375 0.279813 10.4375 0.625C10.4375 0.970187 10.7173 1.25 11.0625 1.25H14.125C14.4696 1.25 14.75 1.53038 14.75 1.875V4.875C14.75 5.22019 15.0298 5.5 15.375 5.5C15.7202 5.5 16 5.22019 16 4.875V1.875C16 0.841125 15.1589 0 14.125 0Z" fill="white"/>
<path d="M15.375 10.5312C15.0298 10.5312 14.75 10.8111 14.75 11.1562V14.125C14.75 14.4696 14.4696 14.75 14.125 14.75H11.0625C10.7173 14.75 10.4375 15.0298 10.4375 15.375C10.4375 15.7202 10.7173 16 11.0625 16H14.125C15.1589 16 16 15.1589 16 14.125V11.1562C16 10.8111 15.7202 10.5312 15.375 10.5312Z" fill="white"/>
</svg>
