<svg width="101" height="79" viewBox="0 0 101 79" fill="none" xmlns="http://www.w3.org/2000/svg">
<path d="M48.4777 24.633C48.478 23.5994 49.3162 22.7613 50.3497 22.7609L98.5052 22.7446C99.5388 22.7443 100.376 23.5818 100.376 24.6154L100.371 38.3264C100.371 39.36 99.5328 40.1981 98.4993 40.1984L48.4724 40.2154L48.4777 24.633Z" fill="white"/>
<path d="M48.4725 44.2649L53.4628 40.2103H50.9677H48.4725L48.4725 44.2649Z" fill="white"/>
<path fill-rule="evenodd" clip-rule="evenodd" d="M47.8486 40.8394L47.8489 39.5865L47.8541 24.6328C47.8546 23.2549 48.9718 22.1376 50.3497 22.1372L98.5052 22.1208C99.8835 22.1204 101 23.2374 101 24.6156L100.995 38.3266C100.995 39.7045 99.8776 40.8218 98.4997 40.8222L53.6804 40.8374L47.8489 45.5755L47.8486 40.8394ZM48.4727 44.2649L53.4589 40.2137L98.4995 40.1985C99.5331 40.1981 100.371 39.36 100.372 38.3264L100.376 24.6154C100.377 23.5819 99.539 22.7443 98.5054 22.7446L50.3499 22.761C49.3164 22.7613 48.4783 23.5994 48.4779 24.633L48.4726 40.2154L48.4727 44.2649Z" fill="black"/>
<rect width="15.8505" height="2.65928" rx="1.32964" transform="matrix(1 -0.000338971 -0.000339247 1 53.4636 25.2474)" fill="#D72323"/>
<rect width="24.7179" height="2.65928" rx="1.32964" transform="matrix(1 -0.000338971 -0.000339247 1 71.5537 25.2474)" fill="#D72323"/>
<rect width="42.6736" height="2.65928" rx="1.32964" transform="matrix(1 -0.000338817 -0.000339093 1 53.4636 30.408)" fill="#DFD9E4"/>
<rect width="15.8023" height="2.65928" rx="1.32964" transform="matrix(1 -0.000338817 -0.000339093 1 53.4636 35.5682)" fill="#DFD9E4"/>
<rect width="24.5798" height="2.65928" rx="1.32964" transform="matrix(1 -0.000338817 -0.000339093 1 71.5537 35.5682)" fill="#DFD9E4"/>
<g clip-path="url(#clip0)">
<mask id="path-8-inside-1" fill="white">
<path d="M15.6986 39.5229L11.2531 41.8425C8.30797 43.3613 6.1408 46.0122 5.22393 49.1878L0.222774 66.4742C-0.555182 69.1527 0.695105 72.0246 3.19568 73.3224L7.66893 75.6144H26.2565L28.9516 42.6433"/>
</mask>
<path d="M15.6986 39.5229L11.2531 41.8425C8.30797 43.3613 6.1408 46.0122 5.22393 49.1878L0.222774 66.4742C-0.555182 69.1527 0.695105 72.0246 3.19568 73.3224L7.66893 75.6144H26.2565L28.9516 42.6433" fill="#9C93AA"/>
<path d="M11.2531 41.8425L11.7114 42.7313L11.7157 42.7291L11.2531 41.8425ZM5.22393 49.1878L6.18453 49.4657L6.18468 49.4652L5.22393 49.1878ZM0.222774 66.4742L1.18309 66.7531L1.18338 66.7521L0.222774 66.4742ZM3.19568 73.3224L2.735 74.21L2.73968 74.2124L3.19568 73.3224ZM7.66893 75.6144L7.21293 76.5044L7.42766 76.6144H7.66893V75.6144ZM26.2565 75.6144V76.6144H27.1781L27.2532 75.6959L26.2565 75.6144ZM15.236 38.6364L10.7905 40.956L11.7157 42.7291L16.1612 40.4095L15.236 38.6364ZM10.7948 40.9537C7.60381 42.5993 5.25589 45.4722 4.26317 48.9104L6.18468 49.4652C7.02572 46.5523 9.01213 44.1233 11.7114 42.7313L10.7948 40.9537ZM4.26332 48.9099L-0.737831 66.1962L1.18338 66.7521L6.18453 49.4657L4.26332 48.9099ZM-0.737542 66.1953C-1.65107 69.3406 -0.181133 72.6965 2.73501 74.21L3.65635 72.4349C1.57134 71.3527 0.540708 68.9648 1.18309 66.7531L-0.737542 66.1953ZM2.73968 74.2124L7.21293 76.5044L8.12493 74.7244L3.65168 72.4324L2.73968 74.2124ZM7.66893 76.6144H26.2565V74.6144H7.66893V76.6144ZM27.2532 75.6959L29.9483 42.7248L27.9549 42.5619L25.2599 75.5329L27.2532 75.6959Z" fill="black" mask="url(#path-8-inside-1)"/>
<mask id="path-10-inside-2" fill="white">
<path d="M37.1751 39.5229L41.6206 41.8425C44.5657 43.3613 46.7329 46.0122 47.6497 49.1878L52.6509 66.4742C53.4289 69.1527 52.1786 72.0246 49.678 73.3224L45.2047 75.6144H19.9211L23.9221 42.6157"/>
</mask>
<path d="M37.1751 39.5229L41.6206 41.8425C44.5657 43.3613 46.7329 46.0122 47.6497 49.1878L52.6509 66.4742C53.4289 69.1527 52.1786 72.0246 49.678 73.3224L45.2047 75.6144H19.9211L23.9221 42.6157" fill="#9C93AA"/>
<path d="M41.6206 41.8425L41.158 42.7291L41.1622 42.7313L41.6206 41.8425ZM47.6497 49.1878L46.689 49.4652L46.6891 49.4657L47.6497 49.1878ZM52.6509 66.4742L51.6903 66.7521L51.6906 66.7531L52.6509 66.4742ZM49.678 73.3224L50.134 74.2124L50.1387 74.21L49.678 73.3224ZM45.2047 75.6144V76.6144H45.446L45.6607 76.5044L45.2047 75.6144ZM19.9211 75.6144L18.9284 75.494L18.7926 76.6144H19.9211V75.6144ZM36.7125 40.4095L41.158 42.7291L42.0832 40.956L37.6377 38.6364L36.7125 40.4095ZM41.1622 42.7313C43.8615 44.1233 45.848 46.5523 46.689 49.4652L48.6105 48.9104C47.6178 45.4722 45.2699 42.5993 42.0789 40.9537L41.1622 42.7313ZM46.6891 49.4657L51.6903 66.7521L53.6115 66.1962L48.6103 48.9099L46.6891 49.4657ZM51.6906 66.7531C52.333 68.9648 51.3023 71.3527 49.2173 72.4349L50.1387 74.21C53.0548 72.6965 54.5247 69.3406 53.6112 66.1953L51.6906 66.7531ZM49.222 72.4324L44.7487 74.7244L45.6607 76.5044L50.134 74.2124L49.222 72.4324ZM45.2047 74.6144H19.9211V76.6144H45.2047V74.6144ZM20.9139 75.7347L24.9148 42.7361L22.9293 42.4953L18.9284 75.494L20.9139 75.7347Z" fill="black" mask="url(#path-10-inside-2)"/>
<mask id="path-12-inside-3" fill="white">
<path d="M20.977 35.5465C20.977 35.5465 18.8376 36.0159 15.698 39.5229L16.1148 48.0832L18.921 49.0773L16.9205 50.9275C16.9205 50.9275 20.8659 62.3044 26.6727 65.0382C26.7005 49.7677 26.256 42.6433 26.256 42.6433"/>
</mask>
<path d="M20.977 35.5465C20.977 35.5465 18.8376 36.0159 15.698 39.5229L16.1148 48.0832L18.921 49.0773L16.9205 50.9275C16.9205 50.9275 20.8659 62.3044 26.6727 65.0382C26.7005 49.7677 26.256 42.6433 26.256 42.6433" fill="#746886"/>
<path d="M15.698 39.5229L14.9529 38.8559L14.6792 39.1617L14.6992 39.5715L15.698 39.5229ZM16.1148 48.0832L15.1159 48.1319L15.1486 48.8019L15.7808 49.0258L16.1148 48.0832ZM18.921 49.0773L19.5999 49.8115L20.8153 48.6875L19.2549 48.1347L18.921 49.0773ZM16.9205 50.9275L16.2415 50.1933L15.7615 50.6373L15.9757 51.2551L16.9205 50.9275ZM26.6727 65.0382L26.2468 65.943L27.6699 66.6129L27.6727 65.04L26.6727 65.0382ZM20.977 35.5465C20.7627 34.5697 20.7621 34.5699 20.7614 34.57C20.7612 34.5701 20.7606 34.5702 20.7602 34.5703C20.7593 34.5705 20.7584 34.5707 20.7575 34.5709C20.7556 34.5713 20.7536 34.5718 20.7515 34.5723C20.7473 34.5732 20.7425 34.5743 20.7372 34.5756C20.7267 34.5782 20.714 34.5813 20.6994 34.5851C20.6701 34.5928 20.6327 34.6032 20.5876 34.6169C20.4972 34.6444 20.3758 34.6854 20.2256 34.7448C19.9251 34.8638 19.5108 35.0562 19.0008 35.3618C17.9801 35.9736 16.5838 37.0342 14.9529 38.8559L16.443 40.1899C17.9518 38.5047 19.195 37.5771 20.0289 37.0774C20.4462 36.8272 20.763 36.6831 20.9617 36.6045C21.0612 36.5651 21.1314 36.542 21.1703 36.5301C21.1898 36.5242 21.2014 36.5211 21.205 36.5202C21.2068 36.5197 21.2066 36.5198 21.2043 36.5203C21.2032 36.5206 21.2015 36.521 21.1994 36.5215C21.1983 36.5217 21.1971 36.522 21.1957 36.5223C21.1951 36.5224 21.1944 36.5226 21.1936 36.5228C21.1932 36.5228 21.1927 36.523 21.1925 36.523C21.1919 36.5231 21.1913 36.5233 20.977 35.5465ZM14.6992 39.5715L15.1159 48.1319L17.1136 48.0346L16.6968 39.4743L14.6992 39.5715ZM15.7808 49.0258L18.587 50.0199L19.2549 48.1347L16.4487 47.1406L15.7808 49.0258ZM18.242 48.3432L16.2415 50.1933L17.5995 51.6616L19.5999 49.8115L18.242 48.3432ZM16.9205 50.9275C15.9757 51.2551 15.9758 51.2553 15.9759 51.2556C15.9759 51.2557 15.976 51.2561 15.9761 51.2563C15.9763 51.2569 15.9766 51.2577 15.9769 51.2586C15.9776 51.2605 15.9784 51.263 15.9796 51.2662C15.9818 51.2727 15.985 51.2818 15.9892 51.2936C15.9976 51.3172 16.0097 51.3513 16.0256 51.3954C16.0574 51.4835 16.1042 51.6114 16.1656 51.7742C16.2882 52.0998 16.4691 52.5653 16.7041 53.1313C17.1736 54.262 17.8622 55.8012 18.7382 57.4311C19.6125 59.0578 20.6844 60.7958 21.925 62.3131C23.1585 63.8217 24.6059 65.1704 26.2468 65.943L27.0987 64.1334C25.8362 63.5391 24.6127 62.4406 23.4733 61.0471C22.341 59.6623 21.3378 58.0435 20.4999 56.4843C19.6636 54.9282 19.003 53.4523 18.5512 52.3644C18.3257 51.8211 18.1529 51.3764 18.0372 51.0691C17.9793 50.9155 17.9357 50.7963 17.9068 50.7164C17.8924 50.6765 17.8817 50.6464 17.8748 50.6268C17.8713 50.617 17.8688 50.6098 17.8672 50.6052C17.8664 50.603 17.8658 50.6014 17.8655 50.6005C17.8654 50.6 17.8653 50.5998 17.8652 50.5996C17.8652 50.5996 17.8652 50.5996 17.8652 50.5996C17.8653 50.5997 17.8653 50.5998 16.9205 50.9275ZM27.6727 65.04C27.6867 57.3948 27.5823 51.7857 27.4744 48.0851C27.4204 46.2348 27.3655 44.8617 27.324 43.9496C27.3032 43.4936 27.2858 43.1529 27.2736 42.9255C27.2675 42.8117 27.2626 42.7263 27.2593 42.669C27.2576 42.6404 27.2563 42.6187 27.2554 42.6041C27.255 42.5967 27.2547 42.5911 27.2544 42.5873C27.2543 42.5854 27.2542 42.5839 27.2542 42.5829C27.2541 42.5823 27.2541 42.5819 27.2541 42.5816C27.2541 42.5815 27.2541 42.5813 27.2541 42.5812C27.254 42.5811 27.254 42.581 26.256 42.6433C25.2579 42.7056 25.2579 42.7055 25.2579 42.7055C25.2579 42.7056 25.2579 42.7056 25.2579 42.7056C25.2579 42.7058 25.2579 42.706 25.258 42.7063C25.258 42.707 25.2581 42.7082 25.2582 42.7097C25.2584 42.7129 25.2587 42.7177 25.2591 42.7243C25.2599 42.7376 25.2611 42.7578 25.2627 42.785C25.2658 42.8395 25.2705 42.9221 25.2765 43.033C25.2884 43.2549 25.3055 43.59 25.326 44.0405C25.367 44.9415 25.4215 46.3039 25.4752 48.1435C25.5826 51.8227 25.6866 57.4111 25.6727 65.0364L27.6727 65.04Z" fill="black" mask="url(#path-12-inside-3)"/>
<mask id="path-14-inside-4" fill="white">
<path d="M32.1462 35.5465C32.1462 35.5465 34.2856 36.0159 37.4252 39.5229L37.0084 48.0832L34.2022 49.0773L36.2027 50.9275C36.2027 50.9275 32.2574 62.3044 26.4505 65.0382C26.4227 49.7677 26.8672 42.6433 26.8672 42.6433"/>
</mask>
<path d="M32.1462 35.5465C32.1462 35.5465 34.2856 36.0159 37.4252 39.5229L37.0084 48.0832L34.2022 49.0773L36.2027 50.9275C36.2027 50.9275 32.2574 62.3044 26.4505 65.0382C26.4227 49.7677 26.8672 42.6433 26.8672 42.6433" fill="#746886"/>
<path d="M37.4252 39.5229L38.424 39.5715L38.444 39.1617L38.1703 38.8559L37.4252 39.5229ZM37.0084 48.0832L37.3424 49.0258L37.9746 48.8019L38.0073 48.1319L37.0084 48.0832ZM34.2022 49.0773L33.8683 48.1347L32.308 48.6875L33.5233 49.8115L34.2022 49.0773ZM36.2027 50.9275L37.1475 51.2551L37.3618 50.6373L36.8817 50.1933L36.2027 50.9275ZM26.4505 65.0382L25.4505 65.04L25.4533 66.6129L26.8764 65.943L26.4505 65.0382ZM32.1462 35.5465C31.9319 36.5233 31.9313 36.5231 31.9307 36.523C31.9305 36.523 31.93 36.5228 31.9296 36.5228C31.9289 36.5226 31.9282 36.5224 31.9275 36.5223C31.9261 36.522 31.9249 36.5217 31.9239 36.5215C31.9217 36.521 31.92 36.5206 31.9189 36.5203C31.9166 36.5198 31.9164 36.5197 31.9182 36.5202C31.9218 36.5211 31.9334 36.5242 31.9529 36.5301C31.9918 36.542 32.0621 36.5651 32.1615 36.6045C32.3602 36.6831 32.677 36.8272 33.0943 37.0774C33.9282 37.5771 35.1714 38.5047 36.6802 40.1899L38.1703 38.8559C36.5394 37.0342 35.1431 35.9736 34.1224 35.3618C33.6124 35.0562 33.1981 34.8638 32.8976 34.7448C32.7474 34.6854 32.626 34.6444 32.5357 34.6169C32.4905 34.6032 32.4531 34.5928 32.4238 34.5851C32.4092 34.5813 32.3965 34.5782 32.386 34.5756C32.3807 34.5743 32.376 34.5732 32.3717 34.5723C32.3696 34.5718 32.3676 34.5713 32.3657 34.5709C32.3648 34.5707 32.3639 34.5705 32.363 34.5703C32.3626 34.5702 32.362 34.5701 32.3618 34.57C32.3612 34.5699 32.3605 34.5697 32.1462 35.5465ZM36.4264 39.4743L36.0096 48.0346L38.0073 48.1319L38.424 39.5715L36.4264 39.4743ZM36.6745 47.1406L33.8683 48.1347L34.5362 50.0199L37.3424 49.0258L36.6745 47.1406ZM33.5233 49.8115L35.5237 51.6616L36.8817 50.1933L34.8812 48.3432L33.5233 49.8115ZM36.2027 50.9275C35.2579 50.5998 35.258 50.5997 35.258 50.5996C35.258 50.5996 35.258 50.5996 35.258 50.5996C35.2579 50.5998 35.2578 50.6 35.2577 50.6005C35.2574 50.6014 35.2568 50.603 35.256 50.6052C35.2544 50.6098 35.2519 50.617 35.2484 50.6268C35.2415 50.6464 35.2308 50.6765 35.2164 50.7164C35.1875 50.7963 35.1439 50.9155 35.0861 51.0691C34.9703 51.3764 34.7975 51.8211 34.572 52.3644C34.1202 53.4523 33.4596 54.9282 32.6233 56.4843C31.7854 58.0435 30.7822 59.6623 29.6499 61.0471C28.5105 62.4406 27.287 63.5391 26.0245 64.1334L26.8764 65.943C28.5173 65.1704 29.9647 63.8217 31.1982 62.3131C32.4388 60.7958 33.5108 59.0578 34.385 57.4311C35.261 55.8012 35.9496 54.262 36.4191 53.1313C36.6541 52.5653 36.835 52.0998 36.9576 51.7742C37.019 51.6114 37.0658 51.4835 37.0976 51.3954C37.1135 51.3513 37.1257 51.3172 37.134 51.2936C37.1382 51.2818 37.1414 51.2727 37.1436 51.2662C37.1448 51.263 37.1456 51.2605 37.1463 51.2586C37.1466 51.2577 37.1469 51.2569 37.1471 51.2563C37.1472 51.2561 37.1473 51.2557 37.1473 51.2556C37.1474 51.2553 37.1475 51.2551 36.2027 50.9275ZM27.4505 65.0364C27.4366 57.4111 27.5407 51.8227 27.648 48.1435C27.7017 46.3039 27.7562 44.9415 27.7972 44.0405C27.8177 43.59 27.8348 43.2549 27.8467 43.033C27.8527 42.9221 27.8574 42.8395 27.8606 42.785C27.8621 42.7578 27.8633 42.7376 27.8641 42.7243C27.8645 42.7177 27.8648 42.7129 27.865 42.7097C27.8651 42.7082 27.8652 42.707 27.8652 42.7063C27.8653 42.706 27.8653 42.7058 27.8653 42.7056C27.8653 42.7056 27.8653 42.7056 27.8653 42.7055C27.8653 42.7055 27.8653 42.7056 26.8672 42.6433C25.8692 42.581 25.8692 42.5811 25.8692 42.5812C25.8692 42.5813 25.8691 42.5815 25.8691 42.5816C25.8691 42.5819 25.8691 42.5823 25.8691 42.5829C25.869 42.5839 25.8689 42.5854 25.8688 42.5873C25.8685 42.5911 25.8682 42.5967 25.8678 42.6041C25.8669 42.6187 25.8656 42.6404 25.8639 42.669C25.8606 42.7263 25.8558 42.8117 25.8496 42.9255C25.8374 43.1529 25.82 43.4936 25.7992 43.9496C25.7577 44.8617 25.7028 46.2348 25.6489 48.0851C25.5409 51.7857 25.4366 57.3948 25.4505 65.04L27.4505 65.0364Z" fill="black" mask="url(#path-14-inside-4)"/>
<path d="M20.3766 37.6711L26.4476 41.2961L26.2203 63.1136C22.9106 56.8441 21.4394 50.552 20.806 45.6922C20.4617 43.0508 20.3655 40.8365 20.3552 39.2849C20.3508 38.618 20.3622 38.0738 20.3766 37.6711Z" fill="#CBDDFE" stroke="black"/>
<path d="M33.2314 37.6052C33.2403 38.0133 33.2443 38.578 33.2294 39.2776C33.1964 40.8297 33.07 43.0446 32.6964 45.6868C32.0066 50.5648 30.4759 56.8856 27.1442 63.1786L26.4599 40.9341L33.2314 37.6052Z" fill="#CBDDFE" stroke="black"/>
<path d="M41.3152 22.0433C41.3152 23.7926 39.8875 25.2159 38.1199 25.2159C36.3522 25.2159 34.9246 23.7926 34.9246 22.0433C34.9246 20.2939 36.3522 18.8706 38.1199 18.8706C39.8875 18.8706 41.3152 20.2939 41.3152 22.0433Z" fill="#FAB98F" stroke="black"/>
<path d="M39.8872 23.7966C40.8638 22.8261 40.8638 21.2525 39.8872 20.282C38.9107 19.3114 37.3274 19.3114 36.3509 20.282C35.3744 21.2525 35.3744 22.8261 36.3509 23.7966C37.3274 24.7672 38.9107 24.7672 39.8872 23.7966Z" fill="#FA9D68"/>
<path d="M15.6882 24.4601C17.0326 24.1459 17.8663 22.808 17.5501 21.4718C17.234 20.1356 15.8879 19.3071 14.5434 19.6213C13.199 19.9355 12.3654 21.2734 12.6815 22.6096C12.9976 23.9458 14.3438 24.7743 15.6882 24.4601Z" fill="#FA9D68"/>
<path d="M11.7526 22.9792C11.2201 22.9792 10.8079 22.565 10.8079 22.0432C10.8079 21.5277 11.2416 21.1073 11.7526 21.1073C12.2851 21.1073 12.6974 21.5215 12.6974 22.0432C12.6974 22.565 12.2851 22.9792 11.7526 22.9792Z" fill="#C51D1D" stroke="black"/>
<path d="M18.5495 21.2406C18.9934 23.1223 17.8189 25.0101 15.919 25.4529C14.0192 25.8956 12.1226 24.7235 11.6787 22.8418C11.2347 20.9601 12.4093 19.0723 14.3091 18.6295C16.209 18.1868 18.1055 19.3589 18.5495 21.2406Z" fill="#D72323" stroke="black"/>
<path d="M15.2533 25.9615H14.6699C14.3874 25.9615 14.1418 25.713 14.1418 25.4398V18.5087C14.1418 18.2354 14.3874 17.9869 14.6699 17.9869H15.2533C15.5358 17.9869 15.7813 18.2354 15.7813 18.5087V25.4398C15.7813 25.713 15.5358 25.9615 15.2533 25.9615Z" fill="#C51D1D" stroke="black"/>
<path d="M21.4768 38.4074V31.1588H32.1462V38.5639L26.8181 40.4803L21.4768 38.4074Z" fill="#FA9D68" stroke="black"/>
<path d="M15.7256 23.78V10.6969H37.8976V23.78H37.803L37.8737 24.3424C37.8969 24.5268 37.8976 24.7158 37.8976 24.9704C37.8976 31.0425 32.9287 35.9854 26.8116 35.9854C20.6945 35.9854 15.7256 31.0425 15.7256 24.9704C15.7256 24.7425 15.7263 24.5265 15.7495 24.3424L15.8202 23.78H15.7256Z" fill="#FACFA1" stroke="black"/>
<path d="M33.4242 23.0926C33.1463 23.0926 32.9241 22.8993 32.8963 22.6232C32.8407 21.9605 32.285 21.4634 31.6182 21.4634C30.9514 21.4634 30.3957 21.9605 30.3401 22.6232C30.3123 22.8993 30.0623 23.1203 29.7567 23.0926C29.4788 23.065 29.2565 22.8165 29.2843 22.5128C29.3955 21.3254 30.3957 20.3865 31.6182 20.3865C32.8129 20.3865 33.8409 21.3254 33.9521 22.5128C33.9799 22.7889 33.7576 23.065 33.4797 23.0926C33.452 23.0926 33.452 23.0926 33.4242 23.0926Z" fill="black"/>
<path d="M23.5331 23.0926C23.2552 23.0926 23.0329 22.8993 23.0052 22.6232C22.9496 21.9605 22.3939 21.4634 21.7271 21.4634C21.0603 21.4634 20.5046 21.9605 20.449 22.6232C20.4212 22.8993 20.1712 23.1203 19.8655 23.0926C19.5877 23.065 19.3654 22.8165 19.3932 22.5128C19.5044 21.3254 20.5046 20.3865 21.7271 20.3865C22.9218 20.3865 23.9498 21.3254 24.061 22.5128C24.0887 22.7889 23.8665 23.065 23.5886 23.0926C23.5608 23.0926 23.5608 23.0926 23.5331 23.0926Z" fill="black"/>
<path d="M32.5907 27.3175C32.5352 27.2622 32.4796 27.2346 32.3963 27.2346H21.227C21.1437 27.2346 21.0881 27.2622 21.0325 27.3175C20.977 27.3727 20.9492 27.4555 20.977 27.5108C21.227 30.4931 23.8109 32.8402 26.8116 32.8402C29.8123 32.8402 32.3963 30.4931 32.6463 27.5108C32.6463 27.4555 32.6185 27.3727 32.5907 27.3175Z" fill="black"/>
<path d="M21.2271 27.4832C21.4771 30.3274 23.8665 32.5641 26.8117 32.5641C29.729 32.5641 32.1462 30.3274 32.3963 27.4832H21.2271Z" fill="black"/>
<path d="M22.1161 30.0236H31.5072C31.9795 29.2781 32.3129 28.422 32.3963 27.4832H21.2271C21.3104 28.422 21.6438 29.3057 22.1161 30.0236Z" fill="#FBFCFE"/>
<path d="M32.174 28.5877C32.2852 28.2287 32.3407 27.8697 32.3685 27.5107H21.2271C21.2548 27.925 21.3382 28.3115 21.4771 28.6981C22.9219 28.0354 27.1173 26.5995 32.174 28.5877Z" fill="#C8DDFE"/>
<path d="M38.2657 22.4425C38.2999 22.3336 38.3357 22.2164 38.3726 22.0915C38.6187 21.2583 38.912 20.087 39.1006 18.7364C39.4797 16.0209 39.4253 12.6535 37.798 9.8397L37.752 9.76013L37.7381 9.67451C37.7376 9.67203 37.7365 9.66682 37.7346 9.65899C37.7302 9.64058 37.7216 9.6076 37.7066 9.56133C37.6767 9.46889 37.6212 9.32284 37.523 9.13343C37.3271 8.75542 36.9583 8.19918 36.2749 7.54932C34.9069 6.24856 32.2665 4.56209 27.2091 3.19622L27.2072 3.19571C22.9454 2.02675 19.9364 1.44435 17.9994 1.15421C17.031 1.00916 16.3306 0.937181 15.8759 0.901474C15.7674 0.89296 15.6729 0.886508 15.5921 0.88162C15.5691 0.966091 15.544 1.06397 15.5183 1.17323C15.4229 1.57927 15.3224 2.13418 15.298 2.73718C15.2483 3.96596 15.5152 5.25346 16.5944 6.00314L16.2037 6.90254L13.2392 6.26303C13.2638 6.60077 13.3207 7.0402 13.4466 7.49554C13.7152 8.46702 14.2613 9.40007 15.3635 9.71629L15.2256 10.6969H13.3422C13.3822 10.8379 13.434 10.995 13.5003 11.1569C13.7304 11.719 14.0957 12.2479 14.6557 12.4643L14.4754 13.4307C14.683 13.4307 14.8069 13.3083 14.8413 13.2712C14.8854 13.2239 14.9095 13.179 14.9186 13.1615C14.9386 13.123 14.9486 13.0909 14.9511 13.0827L14.9512 13.0825C14.9579 13.061 14.9611 13.045 14.9613 13.0438L14.9613 13.0438C14.9617 13.0419 14.9619 13.0409 14.9619 13.0409C14.9619 13.0409 14.9612 13.0446 14.9599 13.0534C14.9564 13.0776 14.951 13.1201 14.9445 13.1819C14.9315 13.3043 14.9153 13.4909 14.9003 13.7373C14.8702 14.2299 14.8453 14.9565 14.8607 15.8805C14.8878 17.5042 15.0392 19.7345 15.5043 22.3735C15.5355 22.3131 15.5672 22.2489 15.5991 22.1804C15.9831 21.3578 16.4105 19.9298 16.5005 17.5701L16.0641 16.422L16.0032 16.2618L16.0534 16.098L16.8313 13.5575L16.9871 13.0488L38.2657 22.4425ZM38.2657 22.4425C38.1815 22.2419 38.1067 22.0197 38.0414 21.779C37.8706 21.1499 37.7768 20.4419 37.7294 19.7681C37.6822 19.0964 37.6821 18.472 37.694 18.0147C37.6999 17.7865 37.7088 17.6009 37.7161 17.4732C37.719 17.4242 37.7215 17.3837 37.7236 17.3527L38.2502 16.0444L38.3356 15.8321L38.2308 15.6287L37.0638 13.3644L36.7241 12.7051L36.2404 13.2673C34.6739 15.0881 32.7499 16.0968 31.2063 16.6505C30.5824 16.8742 30.0237 17.0225 29.5809 17.1196M38.2657 22.4425L29.5809 17.1196M29.5809 17.1196L30.6567 15.3436L31.4793 13.9857L30.027 14.6272C27.7448 15.6353 25.2569 15.8471 23.3195 15.7997C22.4781 15.7792 21.747 15.7099 21.1909 15.6384L21.8036 15.1817L22.8657 14.39L21.5454 14.2825C20.7533 14.2179 19.7465 13.9619 18.9157 13.7118C18.505 13.5882 18.1461 13.4687 17.8899 13.3802C17.762 13.3359 17.66 13.2995 17.5903 13.2743C17.5555 13.2617 17.5288 13.2519 17.511 13.2454L17.4911 13.238L17.4863 13.2362L17.4853 13.2358L17.4852 13.2358L17.4851 13.2358L29.5809 17.1196Z" fill="#6F6F6F" stroke="black"/>
<path d="M24.4684 40.514L25.6013 39.049L26.1472 40.514H24.4684Z" fill="#A3D9FE" stroke="black"/>
<path d="M29.1549 40.514H27.476L28.022 39.049L29.1549 40.514Z" fill="#A3D9FE" stroke="black"/>
<path d="M26.0546 43.7173L24.8698 41.514H28.9757L27.7909 43.7173H26.0546Z" fill="#FF0C2A" stroke="black"/>
<path d="M31.4983 36.8878C31.9375 36.6273 32.2932 36.3942 32.5396 36.2244L33.1926 36.9899C33.086 38.49 32.3016 39.8821 31.4862 40.9401C31.0659 41.4854 30.6483 41.928 30.336 42.2338C30.33 42.2397 30.3241 42.2454 30.3182 42.2512L28.5463 38.3209C29.7009 37.8864 30.7316 37.3426 31.4983 36.8878Z" fill="#FBFCFE" stroke="black"/>
<path d="M21.0836 36.2244C21.33 36.3942 21.6857 36.6273 22.125 36.8878C22.8917 37.3426 23.9223 37.8864 25.077 38.3209L23.305 42.2512C23.2992 42.2454 23.2932 42.2397 23.2873 42.2338C22.975 41.928 22.5573 41.4854 22.137 40.9401C21.3217 39.8821 20.5372 38.49 20.4307 36.9899L21.0836 36.2244Z" fill="#FBFCFE" stroke="black"/>
<mask id="path-38-inside-5" fill="white">
<path fill-rule="evenodd" clip-rule="evenodd" d="M26.9223 43.9688L26.9226 43.9412H26.8671H25.7279C22.1715 52.3358 24.1164 59.8468 24.1164 59.8468C25.3018 62.8991 26.5916 64.6275 26.6689 64.7297L26.6726 64.7621C26.6726 64.7621 28.2007 62.3873 29.4232 59.2393C29.4232 59.2393 31.6181 52.3634 28.034 43.9688H26.9223Z"/>
</mask>
<path fill-rule="evenodd" clip-rule="evenodd" d="M26.9223 43.9688L26.9226 43.9412H26.8671H25.7279C22.1715 52.3358 24.1164 59.8468 24.1164 59.8468C25.3018 62.8991 26.5916 64.6275 26.6689 64.7297L26.6726 64.7621C26.6726 64.7621 28.2007 62.3873 29.4232 59.2393C29.4232 59.2393 31.6181 52.3634 28.034 43.9688H26.9223Z" fill="#D72323"/>
<path d="M26.9226 43.9412L27.9226 43.9532L27.9347 42.9412H26.9226V43.9412ZM26.9223 43.9688L25.9224 43.9567L25.9102 44.9688H26.9223V43.9688ZM25.7279 43.9412V42.9412H25.0655L24.8071 43.5511L25.7279 43.9412ZM24.1164 59.8468L23.1484 60.0975L23.163 60.1542L23.1843 60.2088L24.1164 59.8468ZM26.6689 64.7297L27.6626 64.6178L27.632 64.3453L27.4666 64.1265L26.6689 64.7297ZM26.6726 64.7621L25.6788 64.8739L25.9931 67.666L27.5135 65.3032L26.6726 64.7621ZM29.4232 59.2393L30.3554 59.6013L30.3665 59.5726L30.3758 59.5434L29.4232 59.2393ZM28.034 43.9688L28.9537 43.5761L28.6944 42.9688H28.034V43.9688ZM25.9227 43.9291L25.9224 43.9567L27.9222 43.9808L27.9226 43.9532L25.9227 43.9291ZM26.8671 44.9412H26.9226V42.9412H26.8671V44.9412ZM25.7279 44.9412H26.8671V42.9412H25.7279V44.9412ZM24.1164 59.8468C25.0845 59.5961 25.0846 59.5964 25.0847 59.5967C25.0847 59.5968 25.0847 59.597 25.0848 59.5971C25.0848 59.5974 25.0849 59.5975 25.0849 59.5975C25.0849 59.5975 25.0847 59.597 25.0845 59.5961C25.084 59.5943 25.0831 59.5907 25.0818 59.5853C25.0792 59.5746 25.0748 59.5568 25.0691 59.5322C25.0575 59.4828 25.0401 59.4061 25.0188 59.3036C24.976 59.0984 24.9172 58.7903 24.8568 58.392C24.7358 57.5949 24.6085 56.4395 24.5884 55.0277C24.5482 52.2015 24.9377 48.3699 26.6487 44.3312L24.8071 43.5511C22.9617 47.907 22.5455 52.0282 22.5886 55.0562C22.6102 56.5715 22.7469 57.8185 22.8794 58.6921C22.9458 59.1291 23.0112 59.4733 23.0609 59.7117C23.0857 59.831 23.1067 59.9238 23.1219 59.9886C23.1295 60.021 23.1356 60.0464 23.1401 60.0646C23.1424 60.0737 23.1442 60.0811 23.1456 60.0865C23.1463 60.0893 23.1468 60.0916 23.1473 60.0934C23.1475 60.0943 23.1477 60.0951 23.1479 60.0958C23.148 60.0961 23.1481 60.0965 23.1482 60.0967C23.1483 60.0971 23.1484 60.0975 24.1164 59.8468ZM27.4666 64.1265C27.4299 64.0781 26.1925 62.4303 25.0486 59.4848L23.1843 60.2088C24.4111 63.368 25.7534 65.1769 25.8713 65.3328L27.4666 64.1265ZM25.6752 64.8415L25.6788 64.8739L27.6663 64.6502L27.6626 64.6178L25.6752 64.8415ZM26.6726 64.7621C27.5135 65.3032 27.5136 65.3031 27.5137 65.303C27.5137 65.3029 27.5138 65.3028 27.5138 65.3027C27.514 65.3025 27.5141 65.3022 27.5143 65.302C27.5146 65.3014 27.5151 65.3007 27.5156 65.2999C27.5167 65.2982 27.5182 65.2959 27.52 65.2931C27.5236 65.2874 27.5286 65.2795 27.5351 65.2693C27.548 65.2489 27.5664 65.2196 27.59 65.1817C27.6371 65.1059 27.7046 64.9958 27.7889 64.8546C27.9576 64.5723 28.1938 64.1649 28.4687 63.6575C29.0175 62.6446 29.7249 61.2248 30.3554 59.6013L28.491 58.8773C27.899 60.4017 27.2311 61.7433 26.7102 62.7048C26.4502 63.1847 26.228 63.5677 26.0719 63.829C25.9939 63.9596 25.9325 64.0597 25.8912 64.1261C25.8706 64.1593 25.855 64.184 25.845 64.2C25.8399 64.2079 25.8362 64.2137 25.834 64.2172C25.8329 64.219 25.8321 64.2202 25.8317 64.2208C25.8315 64.2211 25.8314 64.2213 25.8314 64.2213C25.8314 64.2213 25.8314 64.2213 25.8314 64.2212C25.8315 64.2212 25.8315 64.2211 25.8315 64.2211C25.8316 64.221 25.8316 64.2209 26.6726 64.7621ZM29.4232 59.2393C30.3758 59.5434 30.376 59.543 30.3761 59.5425C30.3762 59.5424 30.3763 59.5419 30.3764 59.5415C30.3767 59.5408 30.3769 59.54 30.3772 59.539C30.3778 59.5372 30.3785 59.5349 30.3794 59.5322C30.3811 59.5267 30.3833 59.5196 30.3859 59.5109C30.3913 59.4933 30.3985 59.4692 30.4074 59.4386C30.4251 59.3773 30.4495 59.2902 30.4785 59.1785C30.5364 58.9551 30.6129 58.6332 30.692 58.2233C30.8502 57.4039 31.0195 56.2305 31.072 54.7884C31.1769 51.9039 30.8146 47.9347 28.9537 43.5761L27.1143 44.3614C28.8375 48.3975 29.1698 52.0636 29.0733 54.7157C29.0251 56.0418 28.8696 57.1121 28.7283 57.8442C28.6576 58.2101 28.5906 58.4909 28.5425 58.6764C28.5185 58.7691 28.4992 58.8379 28.4866 58.8814C28.4802 58.9032 28.4756 58.9187 28.4728 58.9277C28.4715 58.9322 28.4706 58.9351 28.4702 58.9364C28.47 58.937 28.4699 58.9372 28.47 58.937C28.47 58.9369 28.4701 58.9367 28.4702 58.9364C28.4702 58.9362 28.4703 58.9359 28.4703 58.9359C28.4704 58.9355 28.4706 58.9352 29.4232 59.2393ZM28.034 42.9688H26.9223V44.9688H28.034V42.9688Z" fill="black" mask="url(#path-38-inside-5)"/>
<path d="M13.4739 24.8231C13.4737 24.822 13.4736 24.8209 13.4735 24.8199L13.473 24.8144C13.4714 24.7976 13.4735 24.7875 13.4747 24.7832C13.4749 24.7825 13.4751 24.7819 13.4753 24.7814C13.4779 24.7804 13.4833 24.7789 13.4924 24.7781C13.5104 24.7764 13.5217 24.7785 13.527 24.7801C13.5284 24.7804 13.5295 24.7808 13.5303 24.7812L13.5307 24.7822C13.5313 24.7845 13.5323 24.7886 13.5329 24.7951L13.5329 24.7951L13.5334 24.7996C13.5533 24.9976 13.8115 26.7957 15.2638 28.5542C16.7354 30.3361 19.3826 32.0149 24.0609 32.0149C24.0687 32.0149 24.0723 32.0163 24.0738 32.017C24.0757 32.0178 24.0781 32.0193 24.0806 32.0219C24.0869 32.0283 24.0888 32.0357 24.0888 32.0396C24.0888 32.0435 24.0868 32.0509 24.0806 32.0573C24.0781 32.0599 24.0757 32.0614 24.0738 32.0622C24.0723 32.0629 24.0687 32.0643 24.0609 32.0643C19.1786 32.0643 16.5541 30.224 15.1385 28.4331C14.4231 27.528 14.0043 26.6198 13.7649 25.9339C13.6453 25.5914 13.5711 25.3061 13.5271 25.107C13.5051 25.0075 13.4909 24.9301 13.4823 24.8786C13.4781 24.8527 13.4754 24.8341 13.4739 24.8231ZM13.473 24.816C13.4729 24.8154 13.4728 24.8149 13.4728 24.8144C13.4724 24.8114 13.4723 24.81 13.4723 24.8102C13.4724 24.8103 13.4726 24.8118 13.4728 24.8144C13.4729 24.8149 13.4729 24.8154 13.473 24.816Z" fill="#FBFCFE" stroke="black"/>
<path d="M26.506 32.506H24.7833C24.5565 32.506 24.3665 32.3127 24.3665 32.0947C24.3665 31.8767 24.5565 31.6835 24.7833 31.6835H26.506C26.7282 31.6835 26.9151 31.8689 26.9226 32.0815C26.9014 32.3384 26.7052 32.506 26.506 32.506Z" fill="#FF0C2A" stroke="black"/>
<path d="M46.5107 76.3846H5.33453C4.77424 76.3846 4.3064 75.9152 4.3064 75.3658V52.0597C4.3064 51.5103 4.77424 51.0409 5.33453 51.0409H46.5107C47.0709 51.0409 47.5388 51.5103 47.5388 52.0597V75.3658C47.5388 75.9152 47.0709 76.3846 46.5107 76.3846Z" fill="#DFD9E4" stroke="black"/>
<path d="M28.6732 61.0557C29.6887 62.2772 29.516 64.0865 28.2858 65.0967C27.0556 66.1068 25.2353 65.934 24.2198 64.7124C23.2044 63.4909 23.3771 61.6816 24.6073 60.6714C25.8375 59.6613 27.6578 59.8341 28.6732 61.0557Z" fill="#F5FEFE" stroke="black"/>
<path d="M46.9275 77.8204H4.94559C4.66756 77.8204 4.43326 77.6336 4.35888 77.3845H47.5296C47.4388 77.6395 47.1974 77.8204 46.9275 77.8204Z" fill="#FBFCFE" stroke="black"/>
</g>
<defs>
<clipPath id="clip0">
<rect width="52.8733" height="77.9542" fill="white" transform="translate(0 0.366333)"/>
</clipPath>
</defs>
</svg>
