<svg width="16" height="16" viewBox="0 0 16 16" fill="none" xmlns="http://www.w3.org/2000/svg">
<path d="M8 3.99997C10.5267 3.99997 12.78 5.41997 13.88 7.66663C13.4867 8.47997 12.9333 9.17997 12.2733 9.74663L13.2133 10.6866C14.14 9.86664 14.8733 8.83997 15.3333 7.66663C14.18 4.73997 11.3333 2.66663 8 2.66663C7.15334 2.66663 6.34 2.79997 5.57334 3.04663L6.67334 4.14663C7.10667 4.05997 7.54667 3.99997 8 3.99997ZM7.28667 4.75997L8.66667 6.13997C9.04667 6.30663 9.35334 6.6133 9.52 6.9933L10.9 8.3733C10.9533 8.14663 10.9933 7.90663 10.9933 7.65997C11 6.00663 9.65334 4.66663 8 4.66663C7.75334 4.66663 7.52 4.69997 7.28667 4.75997ZM1.34001 2.57997L3.12667 4.36663C2.04001 5.21997 1.18001 6.3533 0.666672 7.66663C1.82001 10.5933 4.66667 12.6666 8 12.6666C9.01334 12.6666 9.98667 12.4733 10.88 12.12L13.16 14.4L14.1 13.46L2.28001 1.6333L1.34001 2.57997ZM6.34 7.57997L8.08 9.31997C8.05334 9.32663 8.02667 9.3333 8 9.3333C7.08 9.3333 6.33334 8.58663 6.33334 7.66663C6.33334 7.6333 6.34 7.6133 6.34 7.57997ZM4.07334 5.3133L5.24001 6.47997C5.08667 6.84663 5 7.24663 5 7.66663C5 9.31997 6.34667 10.6666 8 10.6666C8.42 10.6666 8.82 10.58 9.18001 10.4266L9.83334 11.08C9.24667 11.24 8.63334 11.3333 8 11.3333C5.47334 11.3333 3.22001 9.9133 2.12001 7.66663C2.58667 6.7133 3.26667 5.92663 4.07334 5.3133Z" fill="#868A96"/>
</svg>
