<svg width="115" height="34" viewBox="0 0 115 34" fill="none" xmlns="http://www.w3.org/2000/svg">
<path fill-rule="evenodd" clip-rule="evenodd" d="M33.9809 7.344C33.9745 7.27175 33.9596 7.20375 33.9384 7.13363C33.9171 7.0635 33.8916 6.99975 33.8576 6.936C33.8511 6.92393 33.8471 6.91065 33.8429 6.89721C33.8377 6.87988 33.8323 6.86231 33.8215 6.84675L29.5715 0.47175C29.3739 0.1785 29.0424 0 28.6875 0H5.3125C4.95763 0 4.62613 0.1785 4.4285 0.473875L0.1785 6.84888C0.167458 6.86482 0.162083 6.88219 0.156649 6.89975C0.152671 6.9126 0.148662 6.92555 0.142375 6.93812C0.108375 7.00187 0.082875 7.06563 0.061625 7.13575C0.040375 7.20588 0.0255 7.27387 0.019125 7.34612C0.0174176 7.35808 0.0139953 7.36969 0.0105117 7.3815L0.0105113 7.3815C0.00532369 7.3991 0 7.41716 0 7.4375V31.875C0 33.048 0.954125 34 2.125 34H31.875C33.0459 34 34 33.048 34 31.875V7.4375C34 7.41761 33.9949 7.3999 33.9898 7.38224L33.9898 7.38217C33.9862 7.36967 33.9826 7.3572 33.9809 7.344ZM15.7739 2.125H20.3787H28.118L30.9528 6.375H21.0885H15.0662H3.04725L5.882 2.125H15.7739ZM9.33931 24.483C8.52825 25.2941 7.39769 29.0053 7.2748 29.4231C7.22565 29.6197 7.32396 29.8409 7.54515 29.8901C7.55744 29.8901 7.57587 29.8962 7.59431 29.9024C7.61274 29.9085 7.63117 29.9147 7.64346 29.9147C7.66804 29.9147 7.7172 29.9147 7.74177 29.8901C8.15959 29.7672 11.8708 28.6366 12.6819 27.8256C13.6158 26.8916 13.6158 25.3924 12.6819 24.483C11.7725 23.5737 10.2733 23.5737 9.33931 24.483ZM26.2241 10.5231C26.4453 10.5968 26.6173 10.7442 26.6665 10.9654C26.8631 11.9485 26.9369 12.9316 26.9123 13.9148C26.9123 17.5768 24.9461 19.7888 22.3409 21.4355V25.1958C22.3163 25.8349 21.9722 26.4001 21.4069 26.7196L17.8923 28.4892C17.7694 28.5384 17.6465 28.563 17.5237 28.563C17.0321 28.563 16.6634 28.1697 16.6634 27.7027V23.9915L15.8524 24.8026C15.3854 25.245 14.6727 25.245 14.2303 24.8026L12.4115 22.9839C11.9691 22.5169 11.9691 21.8041 12.4115 21.3617L13.198 20.5753H9.4868C9.01983 20.5753 8.62659 20.182 8.62659 19.715C8.65116 19.5676 8.67574 19.4447 8.7249 19.3218L10.4945 15.7826C10.814 15.2419 11.3793 14.8733 12.0183 14.8487H15.7295C17.3762 12.2435 19.5882 10.2773 23.2748 10.2773C24.2579 10.2527 25.2656 10.3264 26.2241 10.5231ZM20.9154 14.8487C20.9154 15.6352 21.5544 16.2742 22.3409 16.2742C23.1273 16.2742 23.7663 15.6352 23.7663 14.8487C23.7663 14.0622 23.1273 13.4232 22.3409 13.4232C21.5544 13.4232 20.9154 14.0622 20.9154 14.8487Z" fill="#D72323"/>
<path d="M51.8214 12.3062C52.6655 12.4861 53.3435 12.9081 53.8555 13.5723C54.3675 14.2227 54.6235 14.9699 54.6235 15.814C54.6235 17.0317 54.1945 18.0003 53.3366 18.7198C52.4925 19.4255 51.3094 19.7784 49.7873 19.7784H43V5.20756H49.559C51.0396 5.20756 52.195 5.54658 53.0252 6.22461C53.8693 6.90265 54.2914 7.82284 54.2914 8.98519C54.2914 9.84311 54.063 10.5557 53.6064 11.1231C53.1636 11.6904 52.5686 12.0848 51.8214 12.3062ZM46.5493 11.1023H48.874C49.4552 11.1023 49.898 10.9778 50.2024 10.7287C50.5207 10.4658 50.6798 10.0853 50.6798 9.58712C50.6798 9.08897 50.5207 8.70844 50.2024 8.44553C49.898 8.18262 49.4552 8.05116 48.874 8.05116H46.5493V11.1023ZM49.1646 16.9141C49.7596 16.9141 50.2162 16.7826 50.5345 16.5197C50.8666 16.2429 51.0326 15.8486 51.0326 15.3366C51.0326 14.8246 50.8597 14.4233 50.5137 14.1327C50.1816 13.8421 49.7181 13.6968 49.1231 13.6968H46.5493V16.9141H49.1646Z" fill="#303841"/>
<path d="M63.209 19.9237C61.8391 19.9237 60.5798 19.6054 59.4313 18.9689C58.2967 18.3324 57.3903 17.4468 56.7123 16.3121C56.0481 15.1636 55.716 13.8767 55.716 12.4515C55.716 11.0262 56.0481 9.74625 56.7123 8.61158C57.3903 7.4769 58.2967 6.59131 59.4313 5.95478C60.5798 5.31826 61.8391 5 63.209 5C64.5789 5 65.8312 5.31826 66.9658 5.95478C68.1143 6.59131 69.0138 7.4769 69.6641 8.61158C70.3283 9.74625 70.6604 11.0262 70.6604 12.4515C70.6604 13.8767 70.3283 15.1636 69.6641 16.3121C68.9999 17.4468 68.1005 18.3324 66.9658 18.9689C65.8312 19.6054 64.5789 19.9237 63.209 19.9237ZM63.209 16.6857C64.3713 16.6857 65.2984 16.2983 65.9903 15.5234C66.696 14.7485 67.0489 13.7245 67.0489 12.4515C67.0489 11.1646 66.696 10.1406 65.9903 9.37955C65.2984 8.60466 64.3713 8.21721 63.209 8.21721C62.0328 8.21721 61.0918 8.59774 60.3861 9.3588C59.6943 10.1199 59.3483 11.1507 59.3483 12.4515C59.3483 13.7384 59.6943 14.7692 60.3861 15.5441C61.0918 16.3052 62.0328 16.6857 63.209 16.6857Z" fill="#303841"/>
<path d="M80.2902 19.7784L77.322 15.3158L74.7068 19.7784H70.6801L75.3502 12.3684L70.5763 5.20756H74.7068L77.6334 9.60787L80.2071 5.20756H84.2338L79.6052 12.5553L84.4206 19.7784H80.2902Z" fill="#303841"/>
<path d="M94.4182 9.81544C94.1553 9.33112 93.7748 8.96443 93.2767 8.71536C92.7923 8.45245 92.2181 8.32099 91.5539 8.32099C90.4054 8.32099 89.4852 8.70152 88.7933 9.46258C88.1014 10.2098 87.7555 11.213 87.7555 12.4722C87.7555 13.8145 88.1153 14.8661 88.8348 15.6272C89.5682 16.3744 90.5714 16.748 91.8445 16.748C92.7162 16.748 93.4496 16.5266 94.0446 16.0838C94.6535 15.641 95.0963 15.0045 95.373 14.1742H90.8689V11.559H98.5902V14.8592C98.3273 15.7448 97.8776 16.5681 97.2411 17.3292C96.6184 18.0902 95.8227 18.706 94.8541 19.1765C93.8855 19.6469 92.7923 19.8822 91.5746 19.8822C90.1356 19.8822 88.8487 19.5708 87.714 18.9482C86.5932 18.3116 85.7145 17.433 85.078 16.3121C84.4553 15.1913 84.1439 13.9113 84.1439 12.4722C84.1439 11.0331 84.4553 9.75317 85.078 8.63233C85.7145 7.49766 86.5932 6.61898 87.714 5.9963C88.8348 5.35977 90.1148 5.04151 91.5539 5.04151C93.2974 5.04151 94.7642 5.46355 95.9542 6.30764C97.1581 7.15173 97.9537 8.32099 98.3412 9.81544H94.4182Z" fill="#303841"/>
<path d="M107.256 19.9237C105.886 19.9237 104.627 19.6054 103.479 18.9689C102.344 18.3324 101.438 17.4468 100.76 16.3121C100.095 15.1636 99.7633 13.8767 99.7633 12.4515C99.7633 11.0262 100.095 9.74625 100.76 8.61158C101.438 7.4769 102.344 6.59131 103.479 5.95478C104.627 5.31826 105.886 5 107.256 5C108.626 5 109.878 5.31826 111.013 5.95478C112.162 6.59131 113.061 7.4769 113.711 8.61158C114.376 9.74625 114.708 11.0262 114.708 12.4515C114.708 13.8767 114.376 15.1636 113.711 16.3121C113.047 17.4468 112.148 18.3324 111.013 18.9689C109.878 19.6054 108.626 19.9237 107.256 19.9237ZM107.256 16.6857C108.419 16.6857 109.346 16.2983 110.038 15.5234C110.743 14.7485 111.096 13.7245 111.096 12.4515C111.096 11.1646 110.743 10.1406 110.038 9.37955C109.346 8.60466 108.419 8.21721 107.256 8.21721C106.08 8.21721 105.139 8.59774 104.433 9.3588C103.742 10.1199 103.396 11.1507 103.396 12.4515C103.396 13.7384 103.742 14.7692 104.433 15.5441C105.139 16.3052 106.08 16.6857 107.256 16.6857Z" fill="#303841"/>
<path d="M47.7784 27.448C47.6406 27.1955 47.4512 27.0032 47.2101 26.8712C46.9691 26.7392 46.6878 26.6732 46.3664 26.6732C46.0105 26.6732 45.6948 26.7535 45.4193 26.9142C45.1438 27.075 44.9285 27.3045 44.7735 27.603C44.6186 27.9015 44.5411 28.2459 44.5411 28.6362C44.5411 29.038 44.6186 29.3881 44.7735 29.6866C44.9343 29.9851 45.1553 30.2147 45.4365 30.3754C45.7178 30.5361 46.0449 30.6165 46.418 30.6165C46.8772 30.6165 47.2532 30.4959 47.5459 30.2548C47.8386 30.008 48.0309 29.6665 48.1228 29.2303H46.0564V28.309H49.3109V29.3594C49.2306 29.7784 49.0584 30.1659 48.7943 30.5218C48.5303 30.8776 48.1888 31.1646 47.7698 31.3827C47.3565 31.5951 46.8916 31.7013 46.375 31.7013C45.7952 31.7013 45.27 31.5722 44.7994 31.3139C44.3344 31.0498 43.9671 30.6853 43.6973 30.2204C43.4333 29.7555 43.3013 29.2274 43.3013 28.6362C43.3013 28.045 43.4333 27.5169 43.6973 27.052C43.9671 26.5813 44.3344 26.2168 44.7994 25.9585C45.27 25.6945 45.7924 25.5625 46.3664 25.5625C47.0437 25.5625 47.632 25.7289 48.1314 26.0619C48.6308 26.389 48.9751 26.8511 49.1646 27.448H47.7784Z" fill="#3A4750"/>
<path d="M52.3207 31.7271C51.8615 31.7271 51.4483 31.6267 51.0809 31.4258C50.7136 31.2191 50.4237 30.9293 50.2113 30.5562C50.0047 30.1831 49.9014 29.7526 49.9014 29.2647C49.9014 28.7768 50.0076 28.3463 50.2199 27.9732C50.4381 27.6002 50.7337 27.3132 51.1067 27.1123C51.4798 26.9056 51.896 26.8023 52.3552 26.8023C52.8144 26.8023 53.2305 26.9056 53.6036 27.1123C53.9767 27.3132 54.2694 27.6002 54.4818 27.9732C54.6999 28.3463 54.809 28.7768 54.809 29.2647C54.809 29.7526 54.697 30.1831 54.4732 30.5562C54.2551 30.9293 53.9566 31.2191 53.5778 31.4258C53.2047 31.6267 52.7857 31.7271 52.3207 31.7271ZM52.3207 30.6767C52.5389 30.6767 52.7426 30.6251 52.932 30.5218C53.1272 30.4127 53.2822 30.252 53.397 30.0396C53.5118 29.8272 53.5692 29.5689 53.5692 29.2647C53.5692 28.8113 53.4486 28.464 53.2075 28.2229C52.9722 27.9761 52.6823 27.8527 52.338 27.8527C51.9936 27.8527 51.7037 27.9761 51.4684 28.2229C51.2388 28.464 51.124 28.8113 51.124 29.2647C51.124 29.7182 51.2359 30.0683 51.4598 30.3151C51.6893 30.5562 51.9763 30.6767 52.3207 30.6767Z" fill="#3A4750"/>
<path d="M61.1542 28.5673C61.4929 28.6305 61.7713 28.7998 61.9894 29.0753C62.2075 29.3508 62.3165 29.6665 62.3165 30.0224C62.3165 30.3438 62.2362 30.6279 62.0755 30.8748C61.9205 31.1158 61.6938 31.3052 61.3953 31.443C61.0968 31.5808 60.7438 31.6496 60.3363 31.6496H57.7447V25.64H60.2244C60.6319 25.64 60.982 25.706 61.2748 25.838C61.5732 25.97 61.7971 26.1537 61.9463 26.389C62.1013 26.6244 62.1788 26.8913 62.1788 27.1898C62.1788 27.5399 62.0841 27.8326 61.8947 28.068C61.711 28.3033 61.4642 28.4697 61.1542 28.5673ZM58.9501 28.1196H60.0522C60.3392 28.1196 60.5601 28.0565 60.7151 27.9302C60.8701 27.7982 60.9476 27.6116 60.9476 27.3706C60.9476 27.1295 60.8701 26.9429 60.7151 26.8109C60.5601 26.6789 60.3392 26.6129 60.0522 26.6129H58.9501V28.1196ZM60.1641 30.6681C60.4568 30.6681 60.6835 30.5992 60.8443 30.4615C61.0107 30.3237 61.0939 30.1286 61.0939 29.876C61.0939 29.6177 61.0078 29.4168 60.8357 29.2733C60.6635 29.1241 60.431 29.0495 60.1383 29.0495H58.9501V30.6681H60.1641Z" fill="#3A4750"/>
<path d="M63.8885 26.3115C63.6761 26.3115 63.4982 26.2455 63.3547 26.1135C63.2169 25.9758 63.1481 25.8064 63.1481 25.6055C63.1481 25.4046 63.2169 25.2382 63.3547 25.1062C63.4982 24.9684 63.6761 24.8995 63.8885 24.8995C64.1009 24.8995 64.2759 24.9684 64.4137 25.1062C64.5572 25.2382 64.629 25.4046 64.629 25.6055C64.629 25.8064 64.5572 25.9758 64.4137 26.1135C64.2759 26.2455 64.1009 26.3115 63.8885 26.3115ZM64.4826 26.8798V31.6496H63.2772V26.8798H64.4826Z" fill="#3A4750"/>
<path d="M67.5418 26.8023C67.8977 26.8023 68.2105 26.8741 68.4803 27.0176C68.7501 27.1553 68.9625 27.3361 69.1174 27.56V26.8798H70.3314V31.6841C70.3314 32.1261 70.2424 32.5192 70.0645 32.8636C69.8866 33.2138 69.6197 33.4893 69.2638 33.6902C68.9079 33.8968 68.4774 34.0001 67.9723 34.0001C67.295 34.0001 66.7382 33.8423 66.302 33.5266C65.8715 33.2109 65.6276 32.7804 65.5702 32.2351H66.7669C66.8301 32.4532 66.965 32.6254 67.1716 32.7517C67.384 32.8837 67.6394 32.9497 67.9379 32.9497C68.288 32.9497 68.5721 32.8435 68.7903 32.6312C69.0084 32.4245 69.1174 32.1088 69.1174 31.6841V30.9436C68.9625 31.1675 68.7472 31.354 68.4717 31.5033C68.2019 31.6525 67.892 31.7271 67.5418 31.7271C67.14 31.7271 66.7727 31.6238 66.4398 31.4172C66.1069 31.2105 65.8428 30.9207 65.6477 30.5476C65.4583 30.1687 65.3635 29.7354 65.3635 29.2475C65.3635 28.7653 65.4583 28.3377 65.6477 27.9646C65.8428 27.5915 66.104 27.3045 66.4312 27.1037C66.7641 26.9028 67.1343 26.8023 67.5418 26.8023ZM69.1174 29.2647C69.1174 28.972 69.06 28.7223 68.9452 28.5157C68.8304 28.3033 68.6755 28.1426 68.4803 28.0335C68.2851 27.9187 68.0756 27.8613 67.8518 27.8613C67.6279 27.8613 67.4213 27.9158 67.2319 28.0249C67.0425 28.134 66.8875 28.2947 66.7669 28.5071C66.6521 28.7137 66.5947 28.9605 66.5947 29.2475C66.5947 29.5345 66.6521 29.787 66.7669 30.0052C66.8875 30.2175 67.0425 30.3811 67.2319 30.4959C67.427 30.6107 67.6337 30.6681 67.8518 30.6681C68.0756 30.6681 68.2851 30.6136 68.4803 30.5045C68.6755 30.3897 68.8304 30.229 68.9452 30.0224C69.06 29.81 69.1174 29.5575 69.1174 29.2647Z" fill="#3A4750"/>
<path d="M77.6499 25.64V26.6129H76.0485V31.6496H74.8431V26.6129H73.2417V25.64H77.6499Z" fill="#3A4750"/>
<path d="M80.6474 31.7271C80.1882 31.7271 79.7749 31.6267 79.4076 31.4258C79.0402 31.2191 78.7504 30.9293 78.538 30.5562C78.3314 30.1831 78.228 29.7526 78.228 29.2647C78.228 28.7768 78.3342 28.3463 78.5466 27.9732C78.7647 27.6002 79.0603 27.3132 79.4334 27.1123C79.8065 26.9056 80.2226 26.8023 80.6818 26.8023C81.141 26.8023 81.5572 26.9056 81.9303 27.1123C82.3034 27.3132 82.5961 27.6002 82.8085 27.9732C83.0266 28.3463 83.1356 28.7768 83.1356 29.2647C83.1356 29.7526 83.0237 30.1831 82.7999 30.5562C82.5817 30.9293 82.2833 31.2191 81.9044 31.4258C81.5313 31.6267 81.1123 31.7271 80.6474 31.7271ZM80.6474 30.6767C80.8655 30.6767 81.0693 30.6251 81.2587 30.5218C81.4539 30.4127 81.6088 30.252 81.7236 30.0396C81.8384 29.8272 81.8958 29.5689 81.8958 29.2647C81.8958 28.8113 81.7753 28.464 81.5342 28.2229C81.2989 27.9761 81.009 27.8527 80.6646 27.8527C80.3202 27.8527 80.0304 27.9761 79.795 28.2229C79.5654 28.464 79.4506 28.8113 79.4506 29.2647C79.4506 29.7182 79.5626 30.0683 79.7864 30.3151C80.016 30.5562 80.303 30.6767 80.6474 30.6767Z" fill="#3A4750"/>
<path d="M85.8882 26.8023C86.244 26.8023 86.5569 26.8741 86.8266 27.0176C87.0964 27.1553 87.3088 27.3361 87.4638 27.56V26.8798H88.6777V31.6841C88.6777 32.1261 88.5888 32.5192 88.4108 32.8636C88.2329 33.2138 87.966 33.4893 87.6101 33.6902C87.2543 33.8968 86.8238 34.0001 86.3187 34.0001C85.6413 34.0001 85.0846 33.8423 84.6483 33.5266C84.2179 33.2109 83.9739 32.7804 83.9165 32.2351H85.1133C85.1764 32.4532 85.3113 32.6254 85.5179 32.7517C85.7303 32.8837 85.9857 32.9497 86.2842 32.9497C86.6343 32.9497 86.9185 32.8435 87.1366 32.6312C87.3547 32.4245 87.4638 32.1088 87.4638 31.6841V30.9436C87.3088 31.1675 87.0935 31.354 86.818 31.5033C86.5482 31.6525 86.2383 31.7271 85.8882 31.7271C85.4864 31.7271 85.119 31.6238 84.7861 31.4172C84.4532 31.2105 84.1892 30.9207 83.994 30.5476C83.8046 30.1687 83.7099 29.7354 83.7099 29.2475C83.7099 28.7653 83.8046 28.3377 83.994 27.9646C84.1892 27.5915 84.4503 27.3045 84.7775 27.1037C85.1104 26.9028 85.4806 26.8023 85.8882 26.8023ZM87.4638 29.2647C87.4638 28.972 87.4064 28.7223 87.2916 28.5157C87.1768 28.3033 87.0218 28.1426 86.8266 28.0335C86.6315 27.9187 86.422 27.8613 86.1981 27.8613C85.9743 27.8613 85.7676 27.9158 85.5782 28.0249C85.3888 28.134 85.2338 28.2947 85.1133 28.5071C84.9985 28.7137 84.9411 28.9605 84.9411 29.2475C84.9411 29.5345 84.9985 29.787 85.1133 30.0052C85.2338 30.2175 85.3888 30.3811 85.5782 30.4959C85.7734 30.6107 85.98 30.6681 86.1981 30.6681C86.422 30.6681 86.6315 30.6136 86.8266 30.5045C87.0218 30.3897 87.1768 30.229 87.2916 30.0224C87.4064 29.81 87.4638 29.5575 87.4638 29.2647Z" fill="#3A4750"/>
<path d="M94.2891 29.1614C94.2891 29.3336 94.2776 29.4886 94.2546 29.6263H90.7676C90.7963 29.9707 90.9169 30.2405 91.1293 30.4357C91.3416 30.6308 91.6028 30.7284 91.9128 30.7284C92.3605 30.7284 92.679 30.5361 92.8684 30.1515H94.1685C94.0308 30.6107 93.7667 30.9896 93.3764 31.288C92.9861 31.5808 92.5068 31.7271 91.9386 31.7271C91.4794 31.7271 91.0661 31.6267 90.6988 31.4258C90.3372 31.2191 90.053 30.9293 89.8464 30.5562C89.6455 30.1831 89.545 29.7526 89.545 29.2647C89.545 28.7711 89.6455 28.3377 89.8464 27.9646C90.0473 27.5915 90.3285 27.3045 90.6902 27.1037C91.0518 26.9028 91.4679 26.8023 91.9386 26.8023C92.392 26.8023 92.7967 26.8999 93.1526 27.095C93.5142 27.2902 93.7926 27.5686 93.9877 27.9302C94.1886 28.2861 94.2891 28.6965 94.2891 29.1614ZM93.0406 28.817C93.0349 28.5071 92.923 28.2602 92.7049 28.0766C92.4867 27.8871 92.2198 27.7924 91.9041 27.7924C91.6057 27.7924 91.3531 27.8843 91.1465 28.068C90.9456 28.2459 90.8222 28.4956 90.7763 28.817H93.0406Z" fill="#3A4750"/>
<path d="M96.5723 27.8699V30.1774C96.5723 30.3381 96.6096 30.4557 96.6842 30.5304C96.7646 30.5992 96.8966 30.6337 97.0803 30.6337H97.6399V31.6496H96.8822C95.8663 31.6496 95.3583 31.156 95.3583 30.1688V27.8699H94.79V26.8798H95.3583V25.7002H96.5723V26.8798H97.6399V27.8699H96.5723Z" fill="#3A4750"/>
<path d="M101.193 26.8109C101.555 26.8109 101.876 26.8913 102.157 27.052C102.439 27.207 102.657 27.4394 102.812 27.7494C102.972 28.0536 103.053 28.421 103.053 28.8514V31.6496H101.847V29.015C101.847 28.6362 101.753 28.3463 101.563 28.1454C101.374 27.9388 101.116 27.8355 100.788 27.8355C100.456 27.8355 100.192 27.9388 99.9964 28.1454C99.807 28.3463 99.7122 28.6362 99.7122 29.015V31.6496H98.5069V25.2784H99.7122V27.4739C99.8672 27.2672 100.074 27.1065 100.332 26.9917C100.59 26.8712 100.877 26.8109 101.193 26.8109Z" fill="#3A4750"/>
<path d="M108.633 29.1614C108.633 29.3336 108.622 29.4886 108.599 29.6263H105.112C105.14 29.9707 105.261 30.2405 105.473 30.4357C105.686 30.6308 105.947 30.7284 106.257 30.7284C106.705 30.7284 107.023 30.5361 107.213 30.1515H108.513C108.375 30.6107 108.111 30.9896 107.721 31.288C107.33 31.5808 106.851 31.7271 106.283 31.7271C105.823 31.7271 105.41 31.6267 105.043 31.4258C104.681 31.2191 104.397 30.9293 104.19 30.5562C103.99 30.1831 103.889 29.7526 103.889 29.2647C103.889 28.7711 103.99 28.3377 104.19 27.9646C104.391 27.5915 104.673 27.3045 105.034 27.1037C105.396 26.9028 105.812 26.8023 106.283 26.8023C106.736 26.8023 107.141 26.8999 107.497 27.095C107.858 27.2902 108.137 27.5686 108.332 27.9302C108.533 28.2861 108.633 28.6965 108.633 29.1614ZM107.385 28.817C107.379 28.5071 107.267 28.2602 107.049 28.0766C106.831 27.8871 106.564 27.7924 106.248 27.7924C105.95 27.7924 105.697 27.8843 105.491 28.068C105.29 28.2459 105.166 28.4956 105.12 28.817H107.385Z" fill="#3A4750"/>
<path d="M110.718 27.6202C110.873 27.3677 111.074 27.1697 111.321 27.0262C111.574 26.8827 111.861 26.8109 112.182 26.8109V28.0766H111.863C111.485 28.0766 111.198 28.1655 111.002 28.3435C110.813 28.5214 110.718 28.8314 110.718 29.2733V31.6496H109.513V26.8798H110.718V27.6202Z" fill="#3A4750"/>
</svg>
