<svg width="67" height="38" viewBox="0 0 67 38" fill="none" xmlns="http://www.w3.org/2000/svg">
<g opacity="0.3">
<path d="M24.2682 18.7899C24.2682 22.7151 23.8586 26.0942 23.0394 28.9272C22.2202 31.7261 20.9232 33.8764 19.1483 35.3783C17.3734 36.8801 15.0183 37.631 12.0829 37.631C7.95286 37.631 4.898 35.9756 2.91832 32.6647C0.972774 29.3198 0 24.6948 0 18.7899C0 14.8305 0.392523 11.4514 1.17757 8.65257C1.99675 5.85371 3.29378 3.72043 5.06867 2.25274C6.84355 0.750913 9.18162 0 12.0829 0C16.1788 0 19.2336 1.65542 21.2474 4.96627C23.2612 8.24298 24.2682 12.8509 24.2682 18.7899ZM4.50548 18.7899C4.50548 23.8074 5.06867 27.5619 6.19503 30.0536C7.35554 32.5453 9.31815 33.7911 12.0829 33.7911C14.8135 33.7911 16.759 32.5623 17.9195 30.1048C19.1142 27.6131 19.7115 23.8415 19.7115 18.7899C19.7115 13.8066 19.1142 10.0691 17.9195 7.5774C16.759 5.08573 14.8135 3.8399 12.0829 3.8399C9.31815 3.8399 7.35554 5.08573 6.19503 7.5774C5.06867 10.0691 4.50548 13.8066 4.50548 18.7899Z" fill="#D9D9D9"/>
<path d="M44.966 37.119H40.5629V11.5709C40.5629 10.1032 40.58 8.92563 40.6141 8.03819C40.6482 7.15074 40.6994 6.22917 40.7677 5.27346C40.2216 5.81958 39.7267 6.28037 39.283 6.65582C38.8392 7.03128 38.276 7.50913 37.5934 8.08938L33.7023 11.2637L31.3472 8.24298L41.2285 0.563184H44.966V37.119Z" fill="#D9D9D9"/>
<path d="M59.776 34.3543C59.776 33.0914 60.0832 32.2039 60.6976 31.692C61.312 31.18 62.0458 30.924 62.8991 30.924C63.7866 30.924 64.5375 31.18 65.1519 31.692C65.8004 32.2039 66.1246 33.0914 66.1246 34.3543C66.1246 35.583 65.8004 36.4705 65.1519 37.0166C64.5375 37.5627 63.7866 37.8358 62.8991 37.8358C62.0458 37.8358 61.312 37.5627 60.6976 37.0166C60.0832 36.4705 59.776 35.583 59.776 34.3543Z" fill="#D9D9D9"/>
</g>
</svg>
