<svg width="32" height="32" viewBox="0 0 32 32" fill="none" xmlns="http://www.w3.org/2000/svg">
<path d="M17.3334 9.33317H14.6667V14.6665H9.33335V17.3332H14.6667V22.6665H17.3334V17.3332H22.6667V14.6665H17.3334V9.33317ZM16 2.6665C8.64002 2.6665 2.66669 8.63984 2.66669 15.9998C2.66669 23.3598 8.64002 29.3332 16 29.3332C23.36 29.3332 29.3334 23.3598 29.3334 15.9998C29.3334 8.63984 23.36 2.6665 16 2.6665ZM16 26.6665C10.12 26.6665 5.33335 21.8798 5.33335 15.9998C5.33335 10.1198 10.12 5.33317 16 5.33317C21.88 5.33317 26.6667 10.1198 26.6667 15.9998C26.6667 21.8798 21.88 26.6665 16 26.6665Z" fill="#D72323"/>
</svg>
