<svg width="33" height="33" viewBox="0 0 33 33" fill="none" xmlns="http://www.w3.org/2000/svg">
<path d="M1 8L5.5 1H28L32 7V31.5H1V8Z" fill="white"/>
<path d="M32.9814 7.128C32.9753 7.05788 32.9608 6.99188 32.9402 6.92381C32.9196 6.85575 32.8948 6.79387 32.8618 6.732C32.8474 6.70519 32.8453 6.67219 32.8268 6.64537L28.7018 0.457875C28.5099 0.17325 28.1882 0 27.8438 0H5.15625C4.81181 0 4.49006 0.17325 4.29825 0.459938L0.17325 6.64744C0.154688 6.67425 0.152625 6.70519 0.138187 6.73406C0.105187 6.79594 0.0804375 6.85781 0.0598125 6.92588C0.0391875 6.99394 0.02475 7.05994 0.0185625 7.13006C0.0144375 7.15894 0 7.18575 0 7.21875V30.9375C0 32.076 0.926062 33 2.0625 33H30.9375C32.0739 33 33 32.076 33 30.9375V7.21875C33 7.18575 32.9856 7.15894 32.9814 7.128ZM27.291 2.0625L30.0424 6.1875H20.4683L19.7794 2.0625H27.291ZM15.3099 2.0625H19.7794L20.4683 6.1875H14.6231L15.3099 2.0625ZM5.709 2.0625H15.3099L14.6231 6.1875H2.95762L5.709 2.0625Z" fill="#D72323"/>
<path d="M17.0565 10C19.7215 10 21.6262 10.3808 22.7705 11.1423C23.9148 11.9038 24.3693 13.1169 24.1338 14.7816C23.971 15.9328 23.5432 16.8714 22.8502 17.5975C22.1777 18.3059 21.4188 18.7398 20.5735 18.8991L20.5547 19.032C21.1095 19.1559 21.6237 19.3773 22.0973 19.6961C22.5735 19.9971 22.9299 20.4487 23.1667 21.0509C23.4214 21.653 23.4786 22.4499 23.3383 23.4417C23.0928 25.1772 22.2573 26.532 20.8318 27.5061C19.4241 28.4801 17.6114 28.9671 15.3935 28.9671H8.09603L10.7786 10H17.0565ZM16.3034 17.4115C17.3229 17.4115 18.0634 17.2344 18.5249 16.8802C18.9889 16.5083 19.2647 16.0125 19.3524 15.3926C19.5252 14.1706 18.6279 13.5597 16.6604 13.5597H14.836L14.2913 17.4115H16.3034ZM13.8029 20.8649L13.1679 25.3543H15.4484C16.5215 25.3543 17.2939 25.1418 17.7653 24.7168C18.2547 24.2918 18.5483 23.7339 18.6459 23.0432C18.7336 22.4234 18.5916 21.9098 18.2199 21.5025C17.8508 21.0774 17.1028 20.8649 15.976 20.8649H13.8029Z" fill="white"/>
</svg>
