<svg width="19" height="18" viewBox="0 0 19 18" fill="none" xmlns="http://www.w3.org/2000/svg">
<path d="M9.50004 5.03648L10.3892 7.13565L10.82 8.15315L11.92 8.24482L14.1842 8.43732L12.4609 9.93148L11.6267 10.6557L11.8742 11.7373L12.3875 13.9465L10.4442 12.7732L9.50004 12.1865L8.55587 12.7548L6.61254 13.9282L7.12587 11.719L7.37337 10.6373L6.53921 9.91315L4.81587 8.41898L7.08004 8.22648L8.18004 8.13482L8.61087 7.11732L9.50004 5.03648ZM9.50004 0.333984L6.92421 6.41148L0.333374 6.97065L5.33837 11.3065L3.83504 17.7507L9.50004 14.3315L15.165 17.7507L13.6617 11.3065L18.6667 6.97065L12.0759 6.41148L9.50004 0.333984Z" fill="#868A96"/>
</svg>
