<svg width="67" height="38" viewBox="0 0 67 38" fill="none" xmlns="http://www.w3.org/2000/svg">
<g opacity="0.3">
<path d="M24.2693 18.7908C24.2693 22.7162 23.8597 26.0955 23.0405 28.9286C22.2213 31.7276 20.9242 33.878 19.1492 35.3799C17.3742 36.8818 15.019 37.6328 12.0835 37.6328C7.95323 37.6328 4.89823 35.9773 2.91846 32.6663C0.97282 29.3211 0 24.696 0 18.7908C0 14.8312 0.392541 11.452 1.17762 8.65298C1.99684 5.85399 3.29393 3.72061 5.0689 2.25285C6.84388 0.750948 9.18206 0 12.0835 0C16.1795 0 19.2345 1.6555 21.2484 4.9665C23.2624 8.24337 24.2693 12.8515 24.2693 18.7908ZM4.50569 18.7908C4.50569 23.8085 5.06891 27.5632 6.19533 30.055C7.35589 32.5468 9.31859 33.7927 12.0835 33.7927C14.8142 33.7927 16.7598 32.5639 17.9204 30.1062C19.1151 27.6144 19.7124 23.8426 19.7124 18.7908C19.7124 13.8072 19.1151 10.0695 17.9204 7.57776C16.7598 5.08597 14.8142 3.84008 12.0835 3.84008C9.31859 3.84008 7.35589 5.08597 6.19533 7.57776C5.06891 10.0695 4.50569 13.8072 4.50569 18.7908Z" fill="#D9D9D9"/>
<path d="M52.0339 9.11379C52.0339 11.5714 51.3512 13.5341 49.9858 15.0019C48.6205 16.4355 46.7772 17.3913 44.4561 17.8692V18.074C47.3916 18.4153 49.5762 19.3369 51.0099 20.8388C52.4435 22.3407 53.1603 24.3034 53.1603 26.727C53.1603 28.8433 52.6654 30.7377 51.6755 32.4103C50.6856 34.0487 49.1496 35.3287 47.0674 36.2504C45.0193 37.172 42.3739 37.6328 39.1312 37.6328C37.2197 37.6328 35.4447 37.4792 33.8063 37.172C32.1679 36.8989 30.5977 36.3869 29.0958 35.6359V31.4375C30.6318 32.1884 32.2873 32.7857 34.0623 33.2295C35.8373 33.6391 37.544 33.8439 39.1824 33.8439C42.4593 33.8439 44.8145 33.2124 46.2482 31.9495C47.7159 30.6524 48.4498 28.8774 48.4498 26.6246C48.4498 24.3376 47.5452 22.6991 45.7361 21.7093C43.9612 20.6852 41.4523 20.1732 38.2096 20.1732H34.6767V16.3331H38.2608C41.2646 16.3331 43.5345 15.7017 45.0705 14.4387C46.6407 13.1757 47.4258 11.5032 47.4258 9.421C47.4258 7.64602 46.8284 6.28066 45.6337 5.32491C44.4391 4.33502 42.8177 3.84008 40.7696 3.84008C38.7899 3.84008 37.1002 4.13022 35.7007 4.7105C34.3012 5.29078 32.9188 6.02466 31.5535 6.91214L29.3006 3.84008C30.5977 2.81606 32.202 1.92857 34.1135 1.17762C36.0591 0.426675 38.2608 0.0512004 40.7184 0.0512004C44.5415 0.0512004 47.3746 0.904552 49.2178 2.61125C51.0952 4.31796 52.0339 6.48547 52.0339 9.11379Z" fill="#D9D9D9"/>
<path d="M59.7788 34.3559C59.7788 33.093 60.086 32.2055 60.7005 31.6935C61.3149 31.1814 62.0488 30.9254 62.9021 30.9254C63.7896 30.9254 64.5405 31.1814 65.155 31.6935C65.8035 32.2055 66.1278 33.093 66.1278 34.3559C66.1278 35.5847 65.8035 36.4722 65.155 37.0184C64.5405 37.5645 63.7896 37.8376 62.9021 37.8376C62.0488 37.8376 61.3149 37.5645 60.7005 37.0184C60.086 36.4722 59.7788 35.5847 59.7788 34.3559Z" fill="#D9D9D9"/>
</g>
</svg>
