<svg width="18" height="18" viewBox="0 0 18 18" fill="none" xmlns="http://www.w3.org/2000/svg">
<path d="M9.00008 0.666992C4.40008 0.666992 0.666748 4.40033 0.666748 9.00033C0.666748 13.6003 4.40008 17.3337 9.00008 17.3337C13.6001 17.3337 17.3334 13.6003 17.3334 9.00033C17.3334 4.40033 13.6001 0.666992 9.00008 0.666992ZM9.00008 15.667C5.32508 15.667 2.33341 12.6753 2.33341 9.00033C2.33341 5.32533 5.32508 2.33366 9.00008 2.33366C12.6751 2.33366 15.6667 5.32533 15.6667 9.00033C15.6667 12.6753 12.6751 15.667 9.00008 15.667ZM12.8251 5.31699L7.33342 10.8087L5.17508 8.65866L4.00008 9.83366L7.33342 13.167L14.0001 6.50033L12.8251 5.31699Z" fill="#07A717"/>
</svg>
