<svg width="67" height="38" viewBox="0 0 67 38" fill="none" xmlns="http://www.w3.org/2000/svg">
<g opacity="0.3">
<path d="M24.2681 18.7898C24.2681 22.7151 23.8585 26.0942 23.0393 28.9271C22.2201 31.726 20.9231 33.8763 19.1482 35.3782C17.3734 36.88 15.0182 37.6309 12.0828 37.6309C7.95283 37.6309 4.89799 35.9755 2.91831 32.6646C0.972771 29.3197 0 24.6947 0 18.7898C0 14.8305 0.392522 11.4514 1.17757 8.65254C1.99674 5.85369 3.29377 3.72042 5.06865 2.25273C6.84353 0.750911 9.1816 0 12.0828 0C16.1787 0 19.2336 1.65542 21.2474 4.96625C23.2612 8.24296 24.2681 12.8508 24.2681 18.7898ZM4.50547 18.7898C4.50547 23.8073 5.06865 27.5619 6.19502 30.0535C7.35552 32.5452 9.31813 33.791 12.0828 33.791C14.8134 33.791 16.759 32.5622 17.9195 30.1047C19.1141 27.6131 19.7114 23.8414 19.7114 18.7898C19.7114 13.8065 19.1141 10.069 17.9195 7.57738C16.759 5.08572 14.8134 3.83989 12.0828 3.83989C9.31813 3.83989 7.35552 5.08572 6.19502 7.57738C5.06865 10.069 4.50547 13.8065 4.50547 18.7898Z" fill="#D9D9D9"/>
<path d="M53.4136 37.1189H29.2479V33.3814L38.8221 23.7049C40.6652 21.8618 42.2182 20.2234 43.4811 18.7898C44.744 17.3563 45.6997 15.9569 46.3482 14.5916C46.9967 13.1921 47.321 11.6733 47.321 10.0349C47.321 8.0211 46.7237 6.50221 45.5291 5.47824C44.3344 4.42014 42.7814 3.89108 40.87 3.89108C39.0951 3.89108 37.525 4.19827 36.1597 4.81266C34.8286 5.42704 33.4633 6.28035 32.0639 7.37258L29.6575 4.35187C31.0911 3.15724 32.7294 2.15034 34.5726 1.33116C36.4499 0.477851 38.549 0.0511978 40.87 0.0511978C44.2832 0.0511978 46.9797 0.921572 48.9594 2.66232C50.939 4.36894 51.9289 6.74113 51.9289 9.77891C51.9289 11.6903 51.5363 13.4823 50.7513 15.1548C49.9663 16.8272 48.874 18.4827 47.4746 20.121C46.0752 21.7252 44.4368 23.4489 42.5595 25.2921L34.931 32.8182V33.023H53.4136V37.1189Z" fill="#D9D9D9"/>
<path d="M59.7758 34.3542C59.7758 33.0913 60.083 32.2038 60.6974 31.6919C61.3118 31.1799 62.0456 30.9239 62.8989 30.9239C63.7864 30.9239 64.5373 31.1799 65.1517 31.6919C65.8002 32.2038 66.1244 33.0913 66.1244 34.3542C66.1244 35.5829 65.8002 36.4704 65.1517 37.0165C64.5373 37.5626 63.7864 37.8357 62.8989 37.8357C62.0456 37.8357 61.3118 37.5626 60.6974 37.0165C60.083 36.4704 59.7758 35.5829 59.7758 34.3542Z" fill="#D9D9D9"/>
</g>
</svg>
