<svg width="21" height="15" viewBox="0 0 21 15" fill="none" xmlns="http://www.w3.org/2000/svg">
<path d="M10.5 2.49996C13.9742 2.49996 17.0725 4.45246 18.585 7.54163C17.0725 10.6308 13.9742 12.5833 10.5 12.5833C7.02582 12.5833 3.92749 10.6308 2.41499 7.54163C3.92749 4.45246 7.02582 2.49996 10.5 2.49996ZM10.5 0.666626C5.91666 0.666626 2.00249 3.51746 0.416656 7.54163C2.00249 11.5658 5.91666 14.4166 10.5 14.4166C15.0833 14.4166 18.9975 11.5658 20.5833 7.54163C18.9975 3.51746 15.0833 0.666626 10.5 0.666626ZM10.5 5.24996C11.765 5.24996 12.7917 6.27663 12.7917 7.54163C12.7917 8.80663 11.765 9.83329 10.5 9.83329C9.23499 9.83329 8.20832 8.80663 8.20832 7.54163C8.20832 6.27663 9.23499 5.24996 10.5 5.24996ZM10.5 3.41663C8.22666 3.41663 6.37499 5.26829 6.37499 7.54163C6.37499 9.81496 8.22666 11.6666 10.5 11.6666C12.7733 11.6666 14.625 9.81496 14.625 7.54163C14.625 5.26829 12.7733 3.41663 10.5 3.41663Z" fill="#868A96"/>
</svg>
