<svg width="16" height="16" viewBox="0 0 16 16" fill="none" xmlns="http://www.w3.org/2000/svg">
<path d="M8.00008 3.99984C10.5267 3.99984 12.7801 5.41984 13.8801 7.6665C12.7801 9.91317 10.5267 11.3332 8.00008 11.3332C5.47341 11.3332 3.22008 9.91317 2.12008 7.6665C3.22008 5.41984 5.47341 3.99984 8.00008 3.99984ZM8.00008 2.6665C4.66675 2.6665 1.82008 4.73984 0.666748 7.6665C1.82008 10.5932 4.66675 12.6665 8.00008 12.6665C11.3334 12.6665 14.1801 10.5932 15.3334 7.6665C14.1801 4.73984 11.3334 2.6665 8.00008 2.6665ZM8.00008 5.99984C8.92008 5.99984 9.66675 6.7465 9.66675 7.6665C9.66675 8.5865 8.92008 9.33317 8.00008 9.33317C7.08008 9.33317 6.33341 8.5865 6.33341 7.6665C6.33341 6.7465 7.08008 5.99984 8.00008 5.99984ZM8.00008 4.6665C6.34675 4.6665 5.00008 6.01317 5.00008 7.6665C5.00008 9.31984 6.34675 10.6665 8.00008 10.6665C9.65341 10.6665 11.0001 9.31984 11.0001 7.6665C11.0001 6.01317 9.65341 4.6665 8.00008 4.6665Z" fill="#1A2542"/>
</svg>
