<svg width="123" height="60" viewBox="0 0 123 60" fill="none" xmlns="http://www.w3.org/2000/svg">
<g clip-path="url(#clip0)">
<path d="M113.017 31.0583L113.017 31.0586L121.762 47.9789C122.452 49.3152 122.379 50.833 121.794 52.0152C121.208 53.1973 120.142 53.9929 118.866 53.9929H4.55523C3.27807 53.9929 2.21201 53.1972 1.62688 52.0153C1.04161 50.8332 0.969256 49.3154 1.65982 47.979C1.65984 47.979 1.65985 47.9789 1.65986 47.9789L10.4074 31.0587L10.4076 31.0583C11.3694 29.1935 13.0906 28.0913 14.9098 28.0913H108.515C110.331 28.0913 112.055 29.1936 113.017 31.0583Z" fill="#DFD9E4" stroke="#1E1E1E"/>
<path d="M3.16973 47.9417L12.2531 29.7509C12.7459 28.7609 15.0465 27.9728 17.4005 27.9728H106.031C108.382 27.9728 110.682 28.7609 111.178 29.7509L120.262 47.9417C120.968 49.3572 119.207 50.5332 116.307 50.5332H7.12761C4.22747 50.5332 2.46352 49.3604 3.16973 47.9417Z" fill="#D1D3D4"/>
<path d="M3.44901 47.3837L12.4508 29.3536C12.9404 28.3732 15.2316 27.5913 17.5731 27.5913H105.852C108.193 27.5913 110.485 28.3732 110.974 29.3536L119.976 47.3837C120.676 48.7866 118.918 49.9499 116.037 49.9499H7.38806C4.50675 49.9499 2.74908 48.7897 3.44901 47.3837Z" fill="#1E1E1E"/>
<path d="M106.702 35.7912L106.702 35.7914L108.488 39.915C108.598 40.1694 108.795 40.3716 109.007 40.5278C109.222 40.687 109.482 40.8202 109.761 40.9273C110.319 41.1412 111.005 41.2694 111.696 41.2694C112.528 41.2694 113.354 41.4271 114.009 41.6774C114.694 41.9392 115.081 42.258 115.197 42.4994L115.198 42.5004L117.796 47.8714C117.796 47.8716 117.796 47.8718 117.796 47.872C117.854 47.993 117.847 48.0704 117.825 48.1284C117.798 48.1995 117.724 48.3042 117.55 48.4175C117.194 48.6483 116.544 48.8288 115.657 48.8288H7.78367C6.74757 48.8288 5.97814 48.6184 5.5487 48.3399C5.33738 48.2028 5.23913 48.0701 5.20117 47.9686C5.16811 47.8802 5.16232 47.7691 5.2388 47.6122L14.0428 29.5665L14.0436 29.5648C14.0799 29.4897 14.1761 29.3734 14.3788 29.2384C14.5757 29.1073 14.8415 28.9797 15.1648 28.8683C15.8114 28.6454 16.6371 28.5043 17.4791 28.5043H105.962C106.681 28.5043 107.384 28.6256 107.933 28.8153C108.207 28.9102 108.43 29.0178 108.593 29.1266C108.762 29.2393 108.834 29.3309 108.858 29.3797L110.869 33.5401C110.892 33.5864 110.885 33.5983 110.88 33.6076C110.88 33.6084 110.879 33.6092 110.879 33.61C110.863 33.6427 110.803 33.7209 110.636 33.8123C110.302 33.9951 109.707 34.1375 108.912 34.1375C108.268 34.1375 107.681 34.25 107.263 34.4773C107.054 34.5911 106.849 34.7551 106.727 34.9877C106.594 35.2408 106.587 35.5253 106.702 35.7912Z" fill="#F6F3F9" stroke="#1E1E1E"/>
</g>
<g clip-path="url(#clip1)">
<path d="M23.4493 31.9775L23.3479 17.1599L71.7072 16.447L71.8086 41.9578C71.8593 42.2633 71.7072 42.5688 71.3524 42.7725L48.3386 56.0116C47.629 56.419 46.4124 56.3681 45.6013 55.9098L24.1083 43.4345C23.6014 43.1799 23.3986 32.334 23.4493 31.9775Z" fill="#D72323"/>
<path d="M47.122 56.419C46.5644 56.419 45.9561 56.2663 45.4999 56.0117L24.0069 43.5873C23.3986 43.2308 23.2465 32.334 23.2465 32.0285L23.1958 17.0072L71.8593 16.2943L71.9607 41.9578C72.0114 42.3143 71.8086 42.6707 71.4538 42.8744L48.44 56.1644C48.0345 56.3172 47.5782 56.419 47.122 56.419ZM23.4999 17.3127L23.5506 32.0285C23.4999 32.5377 23.7534 42.9762 24.1589 43.3327L45.652 55.7571C46.4123 56.2154 47.5782 56.2663 48.2372 55.8589L71.251 42.5689C71.5551 42.4161 71.6565 42.1615 71.6565 41.9069L71.5551 16.5489L23.4999 17.3127Z" fill="#15100C"/>
<path d="M46.97 31.4683V56.2662L48.3386 56.0116L71.8086 42.3652L71.6565 17.5673L47.9331 31.3665L46.97 31.4683Z" fill="#DFD9E4"/>
<path d="M48.2373 30.501L71.2511 17.2109C71.9607 16.8036 71.8594 16.0907 71.0483 15.6324L49.5553 3.20801C48.7442 2.74973 47.5276 2.69881 46.8179 3.10617L23.8042 16.3453C23.0945 16.7527 23.1959 17.4655 24.0069 17.9238L45.5 30.3991C46.311 30.8574 47.5276 30.9083 48.2373 30.501Z" fill="#817987"/>
<path d="M47.0206 30.9083C46.463 30.9083 45.8547 30.7556 45.3985 30.501L23.9562 18.0765C23.4999 17.8219 23.1958 17.4146 23.1958 17.0582C23.1958 16.7526 23.3986 16.4471 23.7534 16.2434L46.7672 2.9534C47.5275 2.54604 48.7948 2.54604 49.6566 3.05524L71.1496 15.5306C71.6058 15.7852 71.91 16.1925 71.91 16.549C71.91 16.8545 71.7072 17.16 71.3524 17.3637L48.2879 30.6537C47.9838 30.8065 47.5275 30.9083 47.0206 30.9083ZM48.0345 2.9534C47.6289 2.9534 47.2234 3.05524 46.9192 3.208L23.9055 16.498C23.652 16.6508 23.4999 16.8545 23.4999 17.0582C23.4999 17.3128 23.7027 17.6183 24.1082 17.8219L45.6013 30.2973C46.3616 30.7556 47.5275 30.8065 48.1865 30.3991L71.2003 17.1091C71.4538 16.9563 71.6058 16.7526 71.6058 16.549C71.6058 16.2944 71.4031 15.9888 70.9975 15.7852L49.4538 3.30984C49.0483 3.05524 48.5414 2.9534 48.0345 2.9534Z" fill="#15100C"/>
<path d="M23.3479 14.4612C23.3986 14.7158 23.6014 15.0213 24.0069 15.2759L45.5 27.7513C46.311 28.2095 47.5276 28.2604 48.2373 27.8531L71.2511 14.563C71.5045 14.4103 71.6566 14.2066 71.7073 14.0029V17.2109C71.758 17.5164 71.6059 17.8219 71.2511 18.0256L48.2373 31.2138C47.5276 31.6211 46.311 31.5702 45.5 31.1119L24.0069 18.6366C23.5507 18.382 23.2973 18.0256 23.3479 17.6691V14.4612Z" fill="#D72323"/>
<path d="M47.0206 31.6212C46.463 31.6212 45.8547 31.4684 45.3985 31.2138L23.9562 18.7894C23.4493 18.4839 23.1958 18.0765 23.1958 17.7201V14.4612H23.4999C23.5506 14.7158 23.7534 14.9704 24.1082 15.1232L45.6013 27.5985C46.3616 28.0568 47.5275 28.1077 48.1865 27.7003L71.2003 14.4103C71.4031 14.2575 71.5551 14.1048 71.6058 13.952L71.91 14.0029V17.2109C71.9607 17.5673 71.7579 17.9238 71.4031 18.1274L48.2879 31.3666C47.9838 31.5702 47.5275 31.6212 47.0206 31.6212ZM23.4999 15.0213V17.7201C23.4493 18.0256 23.7027 18.3311 24.1082 18.5348L45.6013 31.0101C46.3616 31.4684 47.5275 31.5193 48.1865 31.112L71.1496 17.8219C71.4538 17.6692 71.5551 17.4146 71.5551 17.16V14.4612C71.5044 14.5121 71.4031 14.5631 71.3017 14.614L48.2879 27.904C47.5275 28.3114 46.2603 28.3114 45.3985 27.8022L23.9562 15.3778C23.7534 15.2759 23.6013 15.1232 23.4999 15.0213Z" fill="#15100C"/>
<path d="M23.8042 13.6975L46.8179 0.407442C47.5276 8.42661e-05 48.7442 0.051004 49.5553 0.509281L71.0483 12.9846C71.8594 13.4429 71.9607 14.1558 71.2511 14.5631L48.2373 27.8532C47.5276 28.2605 46.311 28.2096 45.5 27.7513L24.0069 15.276C23.1959 14.8177 23.0945 14.1048 23.8042 13.6975ZM26.6936 15.0723L45.8548 26.1728C46.5138 26.5292 47.5276 26.5802 48.0852 26.2746L68.6658 14.4613C69.2234 14.1048 69.1727 13.5447 68.5137 13.1883L49.3525 1.98595C48.6935 1.62951 47.6797 1.5786 47.1221 1.93503L26.5415 13.7484C25.9839 14.1048 26.0346 14.665 26.6936 15.0723Z" fill="#D72323"/>
<path d="M47.122 7.5361L31.7119 16.4471L47.2741 25.4598C47.9331 25.8163 48.9469 25.8672 49.5045 25.5617L65.1681 16.5489L49.8593 7.63794C49.0483 7.17967 47.8317 7.12875 47.122 7.5361Z" fill="#A49EAB"/>
<path d="M49.5553 1.17127C48.7442 0.712991 47.5277 0.662072 46.818 1.06943L23.8042 14.3595C23.6014 14.4613 23.5001 14.6141 23.3987 14.7668C23.5001 14.9705 23.7028 15.1742 23.9563 15.3269L45.4493 27.8023C46.2604 28.2606 47.477 28.3115 48.1866 27.9041L71.2004 14.6141C71.4032 14.5122 71.5046 14.3595 71.6059 14.2067C71.5046 14.003 71.3018 13.7994 71.0483 13.6466L49.5553 1.17127ZM68.6659 15.0723L48.136 26.8857C47.5784 27.2422 46.5645 27.1912 45.9055 26.7839L26.7443 15.6834C26.2374 15.3779 26.0853 14.9705 26.2881 14.665C26.0853 14.3595 26.136 14.003 26.5415 13.7484L47.1221 1.93506C47.6797 1.57863 48.6936 1.62955 49.3525 2.0369L68.5138 13.1374C69.0207 13.4429 69.1728 13.8503 68.97 14.1558C69.1221 14.4613 69.0714 14.8177 68.6659 15.0723Z" fill="#FC8585"/>
<path d="M47.0206 28.2605C46.463 28.2605 45.8547 28.1077 45.3985 27.8531L23.9562 15.3778C23.4999 15.1232 23.1958 14.7158 23.1958 14.3594C23.1958 14.0539 23.3986 13.7484 23.7534 13.5447L46.7672 0.30557C47.5275 -0.101788 48.7948 -0.101788 49.6566 0.407409L71.1496 12.8827C71.6058 13.1373 71.91 13.5447 71.91 13.9011C71.91 14.2066 71.7072 14.5122 71.3524 14.7158L48.2879 27.955C47.9838 28.1587 47.5275 28.2605 47.0206 28.2605ZM23.9055 13.7993C23.652 13.9521 23.4999 14.1557 23.4999 14.3594C23.4999 14.614 23.7027 14.9195 24.1082 15.1232L45.6013 27.5985C46.3616 28.0568 47.5275 28.1077 48.1865 27.7004L71.2003 14.4103C71.4538 14.2576 71.6058 14.0539 71.6058 13.8502C71.6058 13.5956 71.4031 13.2901 70.9975 13.0864L49.4538 0.662008C48.6934 0.203731 47.5275 0.152811 46.8686 0.560169L23.9055 13.7993ZM47.122 26.6311C46.6658 26.6311 46.2096 26.5292 45.804 26.2746L26.6428 15.1741C26.2373 14.9704 26.0345 14.614 26.0345 14.3085C26.0345 14.0539 26.1866 13.7993 26.4907 13.5956L47.0206 1.78224C47.6796 1.4258 48.6934 1.47672 49.4031 1.88408L68.5644 12.9846C68.9699 13.1883 69.1726 13.5447 69.1726 13.8502C69.1726 14.1048 69.0206 14.3594 68.7164 14.5631L48.1865 26.3765C47.8824 26.5292 47.5275 26.6311 47.122 26.6311ZM48.0851 1.83316C47.7303 1.83316 47.4262 1.88408 47.1727 2.03684L26.6428 13.9011C26.4907 14.003 26.3387 14.1048 26.3387 14.3594C26.3387 14.5631 26.4907 14.7668 26.7949 14.9704L45.9561 26.0709C46.5644 26.4274 47.5275 26.4783 48.0345 26.1728L68.615 14.2576C68.7671 14.1557 68.9192 14.0539 68.9192 13.7993C68.9192 13.5956 68.7671 13.3919 68.463 13.1883L49.251 2.13868C48.9469 1.935 48.4907 1.83316 48.0851 1.83316Z" fill="#15100C"/>
<path d="M26.5414 13.7484L47.122 1.935C47.6797 1.57856 48.6935 1.62948 49.3525 1.98592L68.5137 13.0864C69.1727 13.4429 69.2234 14.0539 68.6658 14.3594L66.2326 15.7852L49.5045 6.11042C48.8455 5.75398 47.8317 5.70306 47.2741 6.00858L29.1774 16.4471L26.7442 15.0214C26.0345 14.6649 25.9838 14.1048 26.5414 13.7484Z" fill="#ADA4B6"/>
<path d="M29.1773 16.6507L26.6427 15.1741C26.2372 14.9704 26.0344 14.6139 26.0344 14.3084C26.0344 14.0538 26.1865 13.7992 26.4906 13.5956L47.0205 1.78218C47.6795 1.42575 48.6934 1.47667 49.403 1.88402L68.5643 12.9845C68.9698 13.1882 69.1726 13.5446 69.1726 13.8502C69.1726 14.1048 69.0205 14.3594 68.7163 14.563L66.1818 16.0397L49.4537 6.26312C48.8454 5.90668 47.8823 5.85576 47.3754 6.16128L29.1773 16.6507ZM26.6427 13.9011C26.4906 14.0029 26.3386 14.1048 26.3386 14.3594C26.3386 14.563 26.4906 14.7667 26.7948 14.9704L29.1773 16.3452L47.2233 6.00852C47.8316 5.65208 48.8961 5.703 49.6058 6.11036L66.2325 15.7342L68.615 14.3594C68.767 14.2575 68.9191 14.1557 68.9191 13.9011C68.9191 13.6974 68.767 13.4937 68.4629 13.29L49.251 2.13862C48.6427 1.78218 47.7302 1.73127 47.1726 2.03678L26.6427 13.9011Z" fill="#15100C"/>
<path d="M66.8915 43.6383V30.0427L49.5044 40.1757V53.7713L66.8915 43.6383Z" fill="#D72323"/>
<path d="M49.4031 53.9749V40.0739L49.4538 40.0229L67.0436 29.839V43.6892L66.9422 43.7401L49.4031 53.9749ZM49.6058 40.2266V53.5676L66.7901 43.5873V30.2463L49.6058 40.2266Z" fill="#15100C"/>
<path d="M66.5873 43.3837V30.2464L66.8915 30.0427V43.6383L49.5044 53.7713V53.313L66.5873 43.3837Z" fill="#D72323"/>
<path d="M49.4031 53.9749V53.262L49.4538 53.2111L66.4353 43.3327V30.1954L66.9929 29.8899V43.7401H66.9422L49.4031 53.9749ZM49.6058 53.4148V53.6185L66.7901 43.6382V30.2463L66.6887 30.2972V43.4345L66.6381 43.4855L49.6058 53.4148Z" fill="#15100C"/>
<path d="M61.0112 14.563V11.1005L53.4583 15.3268L53.5596 18.7384L61.0112 14.563Z" fill="#DFD9E4"/>
<path d="M53.4582 15.3268L46.3108 11.1005V14.5121L53.5596 18.7384L53.4582 15.3268Z" fill="#D72323"/>
<path d="M61.0112 11.1005L53.6103 6.72144L46.3108 11.1005L53.4582 15.3269L61.0112 11.1005Z" fill="#D72323"/>
<path d="M60.3016 11.5588L53.6104 7.63794L46.3616 11.9661L53.4583 16.1924V15.3268L60.3016 11.5588Z" fill="#FECCCC"/>
<path d="M61.1126 10.9986L53.5596 6.5686L46.1587 11.0495V14.6648L53.5596 18.993L61.1126 14.7158V10.9986ZM53.6103 6.87412L60.707 11.0495L53.4582 15.1231L46.6149 11.0495L53.6103 6.87412ZM46.4628 14.4102V11.3551L53.3061 15.4286L53.3568 16.9053L53.4075 18.5347L46.4628 14.4102ZM53.7117 18.4838L53.661 16.8035L53.6103 15.3777L60.8591 11.3041V14.4102L53.7117 18.4838Z" fill="#15100C"/>
<path d="M53.154 10.6423C52.5458 10.6932 52.343 10.9478 52.343 11.3042C52.343 11.3551 52.343 11.3042 52.343 11.3551L50.5181 12.2208C50.3153 11.9662 50.2646 11.6607 50.2646 11.4061C50.2646 10.2858 51.6333 9.4202 53.3568 9.31836L53.154 10.6423Z" fill="#D72323"/>
<path d="M52.7992 11.9152C53.0527 12.0679 53.2047 12.0679 53.5596 12.0679C53.9144 12.0679 54.0665 12.0679 54.3199 11.9152L56.1448 12.7299C55.5365 13.1882 54.5734 13.5446 53.5596 13.5446C52.4444 13.5446 51.4306 13.1882 50.8223 12.628L52.7992 11.9152Z" fill="#D72323"/>
<path d="M54.8776 11.3042C54.8776 11.2533 54.8776 11.3552 54.8776 11.3042C54.8776 10.9478 54.6241 10.5404 54.0665 10.4386L53.8638 9.26746C55.5873 9.3693 56.9559 10.2349 56.9559 11.3552C56.9559 11.7116 56.8039 12.0171 56.6011 12.3226L54.8776 11.3042Z" fill="#D72323"/>
<path d="M52.495 10.9478V10.8459C52.495 10.7441 52.495 10.3876 53.2047 10.2858H53.3061L53.5595 8.65637H53.3568C51.5319 8.75821 50.1125 9.72569 50.1125 10.8968C50.1125 11.2024 50.2139 11.5079 50.4167 11.8134L50.4674 11.9152L52.343 10.9987L52.495 10.9478ZM52.1909 10.7441L50.6195 11.5079C50.5181 11.3042 50.4167 11.1005 50.4167 10.8459C50.4167 9.87844 51.6333 9.06373 53.2047 8.91097L53.0526 9.92936C52.343 10.133 52.1909 10.4895 52.1909 10.7441Z" fill="#15100C"/>
<path d="M54.2692 11.2533C54.0665 11.3551 53.9144 11.4061 53.5595 11.4061C53.2047 11.4061 53.0526 11.4061 52.8499 11.3042L52.7992 11.2533L50.5181 12.068L50.7208 12.2208C51.3798 12.7809 52.4443 13.1373 53.5595 13.1373C54.6241 13.1373 55.5872 12.8318 56.2462 12.3226L56.4489 12.1698L54.3199 11.2533H54.2692ZM55.8913 12.2208C55.283 12.6281 54.472 12.8318 53.5595 12.8318C52.5964 12.8318 51.7347 12.5772 51.1264 12.1189L52.7992 11.5588C53.0526 11.7116 53.2554 11.7116 53.6102 11.7116C53.9651 11.7116 54.1678 11.7116 54.3706 11.5588L55.8913 12.2208Z" fill="#15100C"/>
<path d="M53.8636 8.65637H53.6609L53.9143 10.133H54.0157C54.5226 10.184 54.7254 10.5404 54.7254 10.795L54.6747 10.8968H54.7254V10.9478H54.8775L56.601 12.0171L56.7023 11.9152C56.9558 11.6097 57.1079 11.2533 57.1079 10.8968C57.0572 9.72569 55.6885 8.75821 53.8636 8.65637ZM56.5503 11.6606L55.0802 10.7441L55.0295 10.6932C54.9789 10.3367 54.7254 9.92936 54.1678 9.82752L54.0157 8.96189C55.5871 9.11465 56.753 9.92936 56.753 10.8968C56.8037 11.1514 56.7023 11.406 56.5503 11.6606Z" fill="#15100C"/>
<path d="M52.2922 10.7948C52.2922 11.2022 52.8498 11.5077 53.5595 11.5077C54.2692 11.5077 54.8268 11.2022 54.8268 10.7948C54.8268 10.4893 54.4719 9.72554 54.0664 9.6237C53.9143 9.57278 53.7623 10.082 53.5595 10.082C53.3567 10.082 53.2554 9.57278 53.0526 9.6237C52.6471 9.77646 52.2922 10.5403 52.2922 10.7948Z" fill="#D72323"/>
<path d="M53.6103 11.7115C52.7992 11.7115 52.1909 11.3041 52.1909 10.8459C52.1909 10.5403 52.5458 9.67471 53.1034 9.52195C53.3061 9.47103 53.4075 9.62379 53.5089 9.77655C53.5596 9.82747 53.6103 9.92931 53.661 9.92931C53.661 9.92931 53.7623 9.82747 53.813 9.77655C53.9144 9.62379 54.0158 9.47103 54.2186 9.52195C54.7255 9.67471 55.131 10.4894 55.131 10.8459C55.0296 11.3041 54.3706 11.7115 53.6103 11.7115ZM53.1034 9.77655C52.7485 9.87839 52.4444 10.5913 52.4444 10.7949C52.4444 11.0495 52.9006 11.3551 53.5596 11.3551C54.2186 11.3551 54.6748 11.0495 54.6748 10.7949C54.6748 10.5403 54.3706 9.87839 54.0158 9.77655C53.9651 9.82747 53.9144 9.87839 53.9144 9.92931C53.813 10.0821 53.7116 10.2348 53.5089 10.2348C53.3061 10.2348 53.2047 10.0821 53.1034 9.92931C53.2047 9.87839 53.154 9.82747 53.1034 9.77655Z" fill="#15100C"/>
<path d="M52.698 10.0821C52.698 10.3876 53.1035 10.5913 53.6104 10.5913C54.1173 10.5913 54.5229 10.3876 54.5229 10.0821C54.5229 9.77655 54.1173 9.57288 53.6104 9.57288C53.1035 9.57288 52.698 9.77655 52.698 10.0821Z" fill="#D72323"/>
<path d="M52.698 10.4384C52.698 10.7439 53.1035 10.9476 53.6104 10.9476C54.1173 10.9476 54.5229 10.7439 54.5229 10.4384C54.5229 10.1329 54.1173 9.9292 53.6104 9.9292C53.1035 9.9292 52.698 10.1329 52.698 10.4384Z" fill="#FECCCC"/>
<path d="M53.6104 10.6931C53.0021 10.6931 52.5459 10.3875 52.5459 10.0311C52.5459 9.67466 53.0021 9.36914 53.6104 9.36914C54.2187 9.36914 54.6749 9.67466 54.6749 10.0311C54.6242 10.4385 54.168 10.6931 53.6104 10.6931ZM53.6104 9.72558C53.2049 9.72558 52.85 9.92926 52.85 10.082C52.85 10.2348 53.1542 10.4385 53.6104 10.4385C54.0159 10.4385 54.3708 10.2348 54.3708 10.082C54.3201 9.87834 54.0159 9.72558 53.6104 9.72558Z" fill="#15100C"/>
<path d="M53.6104 10.5912V11.5587L54.1173 11.4569L54.6242 11.2532L54.8776 10.7949L54.6242 10.082L54.0666 10.4894L53.6104 10.5912Z" fill="#120D0C"/>
<path d="M70.4399 41.6524V28.1587L68.0574 29.4826V43.0272L70.4399 41.6524Z" fill="#D72323"/>
<path d="M67.9561 43.2309V29.4316L70.5413 27.955V41.7033L67.9561 43.2309ZM68.1588 29.5844V42.8744L70.2879 41.6014V28.3623L68.1588 29.5844Z" fill="#15100C"/>
<path d="M70.085 41.3978V28.3624L70.4399 28.1587V41.6524L68.0574 43.0273V42.6199L70.085 41.3978Z" fill="#D72323"/>
<path d="M67.9561 43.2309V42.518L69.9837 41.3468V28.3114L70.5413 28.0059V41.7542L67.9561 43.2309ZM68.1588 42.6707V42.8744L70.2879 41.6014V28.3623L70.1865 28.4132V41.4487L68.1588 42.6707Z" fill="#15100C"/>
<path d="M43.827 37.0186L39.6196 34.5744V30.9082L43.827 33.3523V37.0186Z" fill="#D72323"/>
<path d="M39.6196 30.9082L40.9376 30.1953L45.145 32.6395L43.827 33.3523L39.6196 30.9082Z" fill="#D72323"/>
<path d="M40.1772 31.1628L40.9376 30.8064L45.145 33.2505L44.3846 33.607L40.1772 31.1628Z" fill="#FC8585"/>
<path d="M43.8269 37.0186L45.1449 36.2548V32.6395L43.8269 33.3524V37.0186Z" fill="#15100C"/>
<path d="M45.297 32.5377L40.9376 29.9917L39.4675 30.8064V34.6254L43.827 37.1714L45.297 36.3567V32.5377ZM40.9376 30.3481L44.8408 32.6395L44.0804 33.0469L43.827 33.1996L39.9238 30.9083L40.9376 30.3481ZM39.7717 34.4726V31.1629L43.6749 33.4542V36.764L39.7717 34.4726ZM44.9929 36.2039L43.979 36.764V33.4542L44.2325 33.3015L44.9929 32.8941V36.2039Z" fill="#15100C"/>
<path d="M43.168 34.9819C43.168 35.6438 42.7118 35.8984 42.1542 35.5929C41.5966 35.2874 41.1404 34.4727 41.1404 33.8107C41.1404 33.1488 41.5966 32.8942 42.1542 33.1997C42.7118 33.5561 43.168 34.3708 43.168 34.9819Z" fill="#FC8585"/>
<path d="M42.1542 35.3892C42.0021 35.3892 41.7993 35.3382 41.6473 35.2364C41.039 34.88 40.5828 34.0652 40.5828 33.3524C40.5828 32.9959 40.7348 32.6904 40.9376 32.5886C41.1911 32.4358 41.4952 32.4867 41.7993 32.6395C42.4076 32.9959 42.8639 33.8106 42.8639 34.5235C42.8639 34.88 42.7118 35.1855 42.509 35.2873C42.357 35.3892 42.2556 35.3892 42.1542 35.3892ZM41.2417 32.7923C41.1911 32.7923 41.0897 32.7923 41.039 32.8432C40.8869 32.945 40.8362 33.0978 40.8362 33.3524C40.8362 33.9634 41.2417 34.6763 41.7487 34.9818C41.9514 35.1346 42.1542 35.1346 42.3063 35.0327C42.4583 34.9309 42.509 34.7781 42.509 34.5235C42.509 33.9125 42.1035 33.1996 41.5966 32.8941C41.4445 32.8432 41.3431 32.7923 41.2417 32.7923Z" fill="#15100C"/>
<path d="M48.0851 1.68042V5.85583L47.6289 5.90675L29.1773 16.4471L26.5414 14.9195L26.1865 14.4613L26.3893 13.8502L47.122 1.93502L48.0851 1.68042Z" fill="#F5EEFB"/>
<path d="M46.9697 28.1077V31.4684L48.0849 31.3157L71.5042 17.7201L71.707 17.3637L71.5549 14.2576L48.237 27.8531L47.6287 28.0568L46.9697 28.1077Z" fill="#DFD9E4"/>
<path d="M52.7996 55.4005L52.4448 56.6735C52.4448 56.6735 52.1914 56.9281 51.8872 56.9281C51.5831 56.9281 51.3296 56.6735 51.3296 56.6735L50.9241 55.4514L52.7996 55.4005Z" fill="#D72323"/>
<path d="M51.8871 57.0809C51.5322 57.0809 51.2281 56.8263 51.2281 56.8263L50.7212 55.4005L53.0023 55.2987L52.5461 56.8263L52.4954 56.8772C52.4954 56.8263 52.2419 57.0809 51.8871 57.0809ZM51.4309 56.6226C51.4816 56.6735 51.6336 56.7754 51.8364 56.7754C52.0392 56.7754 52.1912 56.6735 52.2419 56.6226L52.5461 55.6042L51.076 55.6551L51.4309 56.6226Z" fill="#15100C"/>
<path d="M50.3664 53.8731L51.2281 50.5124C51.2788 50.2069 51.5323 49.9523 51.8871 49.9523C52.1912 49.9523 52.4954 50.2069 52.5461 50.5124L53.4078 53.8731C53.4585 53.9749 53.4585 54.1277 53.4585 54.2804C53.4585 55.1461 52.7488 55.859 51.8871 55.859C51.0254 55.859 50.3157 55.1461 50.3157 54.2804C50.3157 54.1277 50.3157 53.9749 50.3664 53.8731Z" fill="#D72323"/>
<path d="M53.3571 53.873L52.5967 50.9197C52.546 50.8688 52.4446 50.8688 52.3939 50.8688C52.0898 50.8688 51.7856 51.1234 51.7349 51.4289L50.8732 54.7896C50.8225 54.8914 50.8225 55.0442 50.8225 55.197C50.8225 55.2988 50.8225 55.3497 50.8225 55.4516C51.076 55.6552 51.4308 55.808 51.8363 55.808C52.6981 55.808 53.4078 55.0951 53.4078 54.2295C53.4078 54.1276 53.4078 53.9749 53.3571 53.873Z" fill="#FECCCC"/>
<path d="M51.8363 55.9607C50.8732 55.9607 50.1128 55.1969 50.1128 54.2295C50.1128 54.1276 50.1128 54.0767 50.1128 53.9749L51.0252 50.4105C51.0252 50.3596 51.0252 50.3596 51.0252 50.3087C51.1266 50.0031 51.4308 49.7485 51.7856 49.7485C52.1404 49.7485 52.4446 50.0031 52.546 50.3596V50.4105L53.4584 53.9749C53.4584 54.0767 53.4584 54.1276 53.4584 54.2295C53.5598 55.1969 52.7994 55.9607 51.8363 55.9607ZM50.5183 53.7203L50.4676 53.924C50.4169 54.0767 50.4169 54.1786 50.4169 54.2804C50.4169 55.0442 51.0252 55.7061 51.8363 55.7061C52.6473 55.7061 53.2556 55.0951 53.2556 54.2804C53.2556 54.1786 53.2556 54.0767 53.205 53.924L53.1543 53.7203L52.3432 50.5123C52.2925 50.2577 52.0897 50.0541 51.8363 50.0541C51.5828 50.0541 51.3801 50.2577 51.3294 50.4614L51.2787 50.5633L50.5183 53.7203Z" fill="#15100C"/>
<path d="M51.9377 55.8079L51.887 56.9282L52.4446 56.7754L52.698 55.5533L51.9377 55.8079Z" fill="#DFD9E4"/>
<path d="M52.3938 49.3412L52.1404 49.1885L56.2971 40.0739L56.5505 40.1757L52.3938 49.3412Z" fill="#DFD9E4"/>
<path d="M55.4859 45.6749L55.2324 45.5222L58.578 38.3934L58.8315 38.5462L55.4859 45.6749Z" fill="#DFD9E4"/>
<path d="M61.2141 44.7075L60.9607 44.6057L64.6612 36.764L64.9146 36.8659L61.2141 44.7075Z" fill="#DFD9E4"/>
<path d="M71.5044 17.5164C71.4537 17.6182 71.3523 17.771 71.1495 17.8728L48.1358 31.1119C47.933 31.2647 47.6289 31.3156 47.3247 31.3665V31.672C47.6795 31.6211 48.0344 31.5702 48.2878 31.4174L71.3016 18.1274C71.3523 18.0765 71.4537 18.0256 71.5044 17.9746V17.5164Z" fill="#FA4949"/>
<path d="M39.5688 44.351L44.5366 41.4995V39.6664L43.0665 40.532L39.5688 43.4854V44.351Z" fill="#130E0C"/>
<path d="M39.5689 43.4854L19.3938 31.6211L22.9422 28.6168L43.0666 40.532L39.5689 43.4854Z" fill="#D72323"/>
<path d="M39.5689 43.4854L19.3938 32.2322L22.9422 29.2279L42.5596 40.8376L39.5689 43.4854Z" fill="#FC8585"/>
<path d="M44.5366 39.6664L24.3615 27.8021L22.9421 28.6168L43.0665 40.5321L44.5366 39.6664Z" fill="#D72323"/>
<path d="M43.979 39.972L24.3615 28.4641L22.9421 29.2788L42.5596 40.8376L43.979 39.972Z" fill="#FECCCC"/>
<path d="M39.5689 44.351L19.3938 32.4867V31.6211L39.5689 43.4854V44.351Z" fill="#FA4949"/>
<path d="M19.2925 31.5702L22.7395 28.6678L22.8409 28.566L22.9422 28.515L24.4123 27.7003L44.6887 39.6155V41.5505L39.6196 44.5038L19.2925 32.5377V31.5702ZM39.5182 43.3836L42.9145 40.5321L22.9422 28.7696L19.5459 31.5702L39.5182 43.3836ZM24.3616 27.904L23.145 28.6169L25.1727 29.788L43.1173 40.3793L44.3339 39.6664L24.3616 27.904ZM44.4353 41.3977V39.8192L43.168 40.583L42.0528 41.4996L39.6703 43.4854V44.1474L44.4353 41.3977ZM19.4952 32.4358L39.4675 44.1983V43.5363L19.4952 31.7739V32.4358Z" fill="#15100C"/>
<path d="M73.4307 22.4557L70.8454 20.979C70.7441 20.9281 70.592 20.9281 70.4399 21.0299L49.6059 33.0979C49.251 33.3016 48.9976 33.8617 48.9976 34.32V38.75C48.9976 39.0046 49.0483 39.1573 49.2003 39.2592H49.251L51.7856 40.7358L53.4584 37.1205L54.3201 36.5604L70.4906 27.1912C70.8454 26.9875 71.0989 26.4274 71.0989 25.9691V25.7655L72.2648 25.0017L73.4307 22.4557Z" fill="#D72323"/>
<path d="M70.7947 22.0482C70.6934 21.9973 70.5413 21.9973 70.3892 22.0991L49.6059 34.1671C49.251 34.3708 48.9976 34.9309 48.9976 35.3892L52.7487 37.5278L53.4077 38.1898L54.2694 37.6297L70.4399 28.2604C70.7947 28.0567 71.0482 27.4966 71.0482 27.0383V26.8347L72.2141 26.0709L73.4307 23.5758L70.7947 22.0482Z" fill="#FC8585"/>
<path d="M51.8362 40.8885L49.1496 39.3609C49.1496 39.3609 49.0989 39.3609 49.0989 39.31C48.9468 39.2082 48.8455 38.9536 48.8455 38.699V34.269C48.8455 33.7598 49.1496 33.1487 49.5551 32.9451L70.3385 20.8771C70.5413 20.7753 70.6933 20.7753 70.8454 20.8262L73.38 22.3028C73.4813 22.3538 73.532 22.5065 73.4813 22.6084L72.3154 25.0525L71.2002 25.7654V25.9181C71.2002 26.4273 70.8961 27.0384 70.4906 27.2421L54.3708 36.6622L53.509 37.1714L51.8362 40.8885ZM70.6933 21.0808C70.6426 21.0808 70.5919 21.1317 70.5413 21.1317L49.7072 33.1997C49.4031 33.3524 49.1496 33.8616 49.1496 34.269V38.699C49.1496 38.8517 49.2003 39.0045 49.251 39.0554L51.6842 40.4303L53.3063 36.9168L54.2187 36.3567L70.3892 26.9875C70.6933 26.8347 70.9468 26.3255 70.9468 25.9181V25.6126L72.1634 24.8488L73.2786 22.5065L70.8961 21.1317L70.7947 21.0808C70.744 21.0808 70.6933 21.0808 70.6933 21.0808Z" fill="#15100C"/>
<path d="M73.0252 28.6169L52.2418 40.6849C51.887 40.8886 51.6335 40.6849 51.6335 40.2266V35.7966C51.6335 35.3383 51.9377 34.7782 52.2418 34.5745L73.0252 22.5066C73.38 22.3029 73.6335 22.5066 73.6335 22.9648V27.3949C73.6335 27.8531 73.38 28.4133 73.0252 28.6169Z" fill="white"/>
<path d="M51.9377 40.8885C51.8363 40.8885 51.7857 40.8885 51.6843 40.8376C51.4815 40.7358 51.3801 40.4812 51.3801 40.1756V35.7456C51.3801 35.2364 51.6843 34.6254 52.0898 34.4217L72.8732 22.3537C73.0759 22.2519 73.2787 22.201 73.4308 22.3028C73.6335 22.4047 73.7349 22.6593 73.7349 22.9648V27.3948C73.7349 27.904 73.4308 28.515 73.0252 28.7187L52.2419 40.7867C52.1405 40.8885 52.0391 40.8885 51.9377 40.8885ZM73.2787 22.5574C73.228 22.5574 73.1266 22.6083 73.1266 22.6083L52.3433 34.6763C52.0391 34.8291 51.7857 35.3383 51.7857 35.7456V40.2266C51.7857 40.4302 51.8363 40.583 51.9377 40.6339C52.0391 40.6848 52.1405 40.6339 52.1912 40.583L72.9745 28.515C73.2787 28.3623 73.5322 27.8531 73.5322 27.4457V23.0157C73.5322 22.812 73.4815 22.6593 73.3801 22.6083C73.3294 22.5574 73.2787 22.5574 73.2787 22.5574Z" fill="#15100C"/>
<path d="M40.8362 59.1687L36.3247 56.5718V51.327L40.8362 53.9749V59.1687Z" fill="#D31010"/>
<path d="M45.297 51.3271L40.8362 53.9749L36.3247 51.3271L40.8362 48.7302L45.297 51.3271Z" fill="#D31010"/>
<path d="M45.2971 51.8872L41.2925 54.1786L36.781 51.5817L40.8363 49.2394L45.2971 51.8872Z" fill="#FFCCCC"/>
<path d="M40.8362 48.5774L36.3247 51.1743L36.1726 51.2761V56.6227L40.6841 59.2196L40.8362 59.3215L40.9883 59.2196L45.4998 56.6227V51.4289V51.2761L40.8362 48.5774ZM40.8362 48.8829L45.0436 51.3271L42.9145 52.5491L40.7855 53.7712L40.1265 53.3638L36.5781 51.2761L40.8362 48.8829ZM36.4768 56.4699V51.5817L40.6841 54.0258V58.9141L36.4768 56.4699Z" fill="#16110D"/>
<path d="M39.721 57.5902L39.0114 57.1828C38.91 57.1319 38.8086 56.9282 38.8086 56.8264V56.1135C38.8086 55.9607 38.91 55.9098 39.0114 55.9607L39.721 56.3681C39.8224 56.419 39.9238 56.6227 39.9238 56.7245V57.4374C39.9238 57.5902 39.8224 57.6411 39.721 57.5902Z" fill="#16110D"/>
<path d="M55.8408 34.8291C55.7901 34.88 55.7394 34.88 55.6888 34.8291C55.5874 34.7272 55.486 34.7272 55.2832 34.7781C54.9791 34.9309 54.827 35.2873 54.827 35.5419C54.827 35.7965 54.9791 35.8474 55.2832 35.7456C55.7901 35.6438 56.145 35.6438 56.145 36.2039C56.145 36.7131 55.7901 37.3241 55.2832 37.5787C54.8777 37.7824 54.5736 37.7315 54.4722 37.375C54.4722 37.2732 54.4722 37.2223 54.5735 37.1714L54.6242 37.1204C54.6749 37.0695 54.7256 37.1204 54.7763 37.1714C54.8777 37.375 55.0805 37.375 55.3339 37.2732C55.6381 37.0695 55.8915 36.7131 55.8915 36.3566C55.8915 36.0511 55.7394 36.0002 55.3339 36.102C54.827 36.2039 54.5735 36.153 54.5735 35.6947C54.5735 35.2364 54.8777 34.7272 55.3339 34.4217C55.6381 34.218 55.9422 34.2689 56.0436 34.5235C56.0943 34.6254 56.0436 34.6763 55.9422 34.7272L55.8408 34.8291Z" fill="#D72323"/>
<path d="M57.2603 36.4585C57.1589 36.5095 57.1589 36.4585 57.1589 36.4076V33.8107L56.3985 34.269C56.2971 34.269 56.2971 34.2181 56.2971 34.1162C56.2971 34.0144 56.3478 33.9635 56.3985 33.9125L58.2234 32.8432C58.3248 32.7923 58.3248 32.8432 58.3248 32.8942C58.3248 32.996 58.2741 33.0469 58.2234 33.0978L57.4123 33.607V36.2039C57.4123 36.3058 57.4123 36.3567 57.2603 36.4585Z" fill="#D72323"/>
<path d="M61.1128 32.6904C61.1128 33.5561 60.5045 34.6254 59.7442 35.0837C58.9838 35.542 58.3755 35.1855 58.3755 34.3199C58.3755 33.5052 58.9838 32.4359 59.7442 31.9776C60.5045 31.4684 61.1128 31.8248 61.1128 32.6904ZM60.8087 32.8432C60.8087 32.1813 60.3018 31.8757 59.7442 32.2322C59.1359 32.5886 58.6796 33.4033 58.6796 34.1162C58.6796 34.8291 59.1865 35.0837 59.7442 34.7272C60.3524 34.3708 60.8087 33.5561 60.8087 32.8432Z" fill="#D72323"/>
<path d="M61.6702 33.9126C61.5688 33.9635 61.5688 33.9126 61.5688 33.8616V31.0611C61.5688 30.9592 61.6195 30.9083 61.6702 30.8574L62.4306 30.45C62.9375 30.1445 63.2924 30.3482 63.2924 30.9083C63.2924 31.3666 63.0389 31.8758 62.6841 32.1813L63.3937 32.7923C63.4444 32.8432 63.4444 32.9451 63.343 32.996L63.2417 33.0469C63.191 33.0978 63.1403 33.0978 63.0896 33.0469L62.3799 32.385L61.873 32.6905V33.7089C61.8223 33.7598 61.7716 33.8616 61.6702 33.9126ZM62.3799 32.0285C62.7347 31.8249 62.9375 31.4684 62.9375 31.0611C62.9375 30.6537 62.7347 30.5519 62.3799 30.7555L61.8223 31.0611V32.334L62.3799 32.0285Z" fill="#D72323"/>
<path d="M63.7486 32.6904C63.6472 32.7413 63.6472 32.6904 63.6472 32.5886L64.7117 29.1769C64.7624 29.0751 64.7624 29.0242 64.8638 28.9733L64.9652 28.9223C65.0159 28.8714 65.0666 28.8714 65.1173 28.9223L66.1818 31.061C66.2325 31.1119 66.1818 31.2137 66.0804 31.2647H66.0297C65.979 31.3156 65.9283 31.3156 65.8776 31.2647L65.4721 30.399L64.3569 31.061L63.9514 32.4358C63.9007 32.5376 63.9007 32.5886 63.7486 32.6904ZM64.9652 29.3297L64.509 30.7555L65.4214 30.2463L64.9652 29.3297Z" fill="#D72323"/>
<path d="M66.2832 29.6862C66.2832 28.8715 66.8915 27.8022 67.6519 27.3439C68.1081 27.0893 68.4629 27.0893 68.7164 27.3439C68.7671 27.3948 68.7164 27.4967 68.615 27.5476H68.5643C68.5136 27.5985 68.4629 27.5985 68.4122 27.5476C68.2095 27.3948 67.9053 27.4457 67.6012 27.5985C66.9929 27.9549 66.486 28.8206 66.486 29.4825C66.486 30.1954 66.9929 30.45 67.6012 30.0936C68.0067 29.8899 68.3108 29.4316 68.5136 28.9733V28.5151C68.5136 28.4132 68.5643 28.3623 68.615 28.3114H68.6657C68.7671 28.2605 68.7671 28.3114 68.7671 28.3623V29.6353C68.7671 29.7371 68.7164 29.7881 68.6657 29.839H68.615C68.5136 29.8899 68.5136 29.839 68.5136 29.7881V29.5335C68.2601 29.9408 67.956 30.2463 67.6012 30.5009C66.8915 30.9083 66.2832 30.5518 66.2832 29.6862Z" fill="#D72323"/>
<path d="M69.4766 29.3298C69.3752 29.3807 69.3752 29.3298 69.3752 29.2789V26.5292C69.3752 26.4274 69.4259 26.3765 69.4766 26.3255L70.7439 25.5617C70.8453 25.5108 70.8453 25.5617 70.8453 25.6127C70.8453 25.7145 70.7946 25.7654 70.7439 25.8163L69.6287 26.4783V27.3439L70.6932 26.7329C70.7946 26.682 70.7946 26.7329 70.7946 26.7838C70.7946 26.8857 70.7439 26.9366 70.6932 26.9875L69.6287 27.5985V28.8715L70.7439 28.2096C70.8453 28.1586 70.8453 28.2096 70.8453 28.2605V28.3114C70.8453 28.4132 70.7946 28.4642 70.7439 28.5151L69.4766 29.3298Z" fill="#D72323"/>
</g>
<defs>
<clipPath id="clip0">
<rect width="122.092" height="26.9016" fill="white" transform="translate(0.668213 27.5913)"/>
</clipPath>
<clipPath id="clip1">
<rect width="54.493" height="59.3215" fill="white" transform="translate(19.2925)"/>
</clipPath>
</defs>
</svg>
