<svg width="107" height="83" viewBox="0 0 107 83" fill="none" xmlns="http://www.w3.org/2000/svg">
<path d="M73.1921 17.1263L73.6034 17.3709L78.5389 14.5573C78.58 14.5573 78.6211 14.5573 78.6211 14.5573L86.0654 18.7981L86.4767 18.5534L78.58 14.0272L73.1921 17.1263Z" fill="#C2BACC"/>
<path d="M93.9622 30.7457L98.6508 28.0544V26.5864L93.9622 29.2777V30.7457Z" fill="#494949"/>
<path d="M67.0229 20.6331L67.4342 20.8778L72.3697 18.0642C72.4108 18.0642 72.4519 18.0642 72.4519 18.0642L79.8962 22.3049L80.3075 22.0603L72.4108 17.5341L67.0229 20.6331Z" fill="#C2BACC"/>
<path d="M79.8552 13.9457L87.135 18.1457L91.9059 15.4136L84.6262 11.2136L79.8552 13.9457Z" fill="#494949"/>
<path d="M57.6868 15.2912L64.9666 19.4913L69.7375 16.7592L62.4577 12.5592L57.6868 15.2912Z" fill="#494949"/>
<path d="M67.6399 20.9593L74.9197 25.1593L79.6906 22.4273L72.4108 18.2273L67.6399 20.9593Z" fill="#494949"/>
<path d="M84.5849 11.0505C84.626 11.0505 84.6672 11.0505 84.6672 11.0505L92.1115 15.2913L92.5227 15.0466L84.626 10.5204L79.2793 13.5786L79.6906 13.8233L84.5849 11.0505Z" fill="#C2BACC"/>
<path d="M57.0698 14.9651L57.4811 15.2098L62.4166 12.3962C62.4577 12.3962 62.4988 12.3962 62.4988 12.3962L69.9431 16.637L70.3544 16.3923L62.4577 11.8661L57.0698 14.9651Z" fill="#C2BACC"/>
<path d="M18.8611 33.6L19.478 33.967L75.0018 2.12034C75.0429 2.12034 75.0841 2.12034 75.0841 2.12034L103.998 18.6757L104.615 18.3087L75.0018 1.34558L18.8611 33.6Z" fill="#C2BACC"/>
<path d="M97.3347 47.5049L101.735 44.936V32.9884L97.3347 35.5166V47.5049Z" fill="#353535"/>
<path d="M96.8412 47.7904L97.1291 47.6273V35.4758C97.1291 35.435 97.1291 35.3942 97.1702 35.3942L101.777 32.7437C101.818 32.7437 101.859 32.7437 101.859 32.7437C101.9 32.7437 101.9 32.7845 101.9 32.8253V44.8544L102.188 44.6913V32.1729L96.8 35.2719V47.7904H96.8412Z" fill="white"/>
<path d="M75.043 0.203857L16.8047 33.7632L48.4738 51.8681L106.712 18.3088L75.043 0.203857ZM104.902 18.4311L48.5149 50.7263H48.4738H48.4327L19.4369 34.1709L18.6144 33.6816C18.5732 33.6816 18.5732 33.6408 18.5732 33.6001C18.5732 33.5593 18.5732 33.5185 18.6144 33.5185L75.0018 1.1825C75.043 1.1825 75.0841 1.1825 75.0841 1.1825L104.861 18.2272C104.902 18.2272 104.902 18.268 104.902 18.3088C104.944 18.3495 104.944 18.3903 104.902 18.4311Z" fill="white"/>
<path d="M19.6838 34.0895L48.474 50.5633L103.874 18.7982L75.0842 2.32434L19.6838 34.0895ZM39.1377 34.9458C39.1377 34.9458 39.1377 34.9865 39.1377 34.9458C39.1377 34.9865 39.1377 34.9865 39.1377 34.9865L34.9015 37.4331H34.8603H34.8192L28.4031 33.7632V31.7652V31.7244C28.4031 31.7244 28.4031 31.7244 28.4443 31.6836L32.6805 29.237C32.7216 29.237 32.7628 29.237 32.7628 29.237L39.1789 32.9069C39.1789 32.9069 39.1789 32.9069 39.22 32.9477V32.9885V34.9458H39.1377ZM46.1707 30.9089C46.1707 30.9496 46.1707 30.9496 46.1707 30.9496L41.9345 33.3962H41.8934H41.8522L35.4361 29.7263V27.7283V27.6875C35.4361 27.6875 35.4361 27.6875 35.4773 27.6467L39.7135 25.2001C39.7547 25.2001 39.7958 25.2001 39.7958 25.2001L46.2119 28.87C46.2119 28.87 46.2119 28.87 46.253 28.9108V28.9516V30.9089H46.1707ZM63.0335 11.3768L68.5859 8.1962C68.627 8.1962 68.6682 8.1962 68.6682 8.1962L76.7294 12.804C76.7705 12.804 76.7705 12.8448 76.7705 12.8855C76.7705 12.9263 76.7705 12.9671 76.7294 12.9671L76.1536 13.2933L71.177 16.1477H71.1359H71.0948L63.0335 11.5399C62.9924 11.5399 62.9924 11.4991 62.9924 11.4583C62.9924 11.4176 62.9924 11.4176 63.0335 11.3768ZM64.9666 19.6952H64.9254L56.8642 15.0467C56.8231 15.0467 56.8231 15.0059 56.8231 14.9651C56.8231 14.9244 56.8231 14.8836 56.8642 14.8836L62.4166 11.703C62.4577 11.703 62.4989 11.703 62.4989 11.703L70.5601 16.3108C70.6012 16.3108 70.6012 16.3516 70.6012 16.3923C70.6012 16.4331 70.6012 16.4739 70.5601 16.4739L65.0077 19.6545C65.0077 19.6952 64.9666 19.6952 64.9666 19.6952ZM80.5132 22.1419L79.9374 22.4681L74.9609 25.3224H74.9197H74.8786L66.8174 20.7147C66.7762 20.7147 66.7762 20.6739 66.7762 20.6331C66.7762 20.5923 66.7762 20.5516 66.8174 20.5516L72.3698 17.371C72.4109 17.371 72.452 17.371 72.452 17.371L80.5132 21.9787C80.5544 21.9787 80.5544 22.0195 80.5544 22.0603C80.5544 22.1011 80.5544 22.1419 80.5132 22.1419ZM86.6826 18.6758L81.1302 21.8564H81.089H81.0479L72.9867 17.2486C72.9456 17.2486 72.9456 17.2079 72.9456 17.1671C72.9456 17.1263 72.9456 17.0855 72.9867 17.0855L78.5391 13.9049C78.5802 13.9049 78.6213 13.9049 78.6213 13.9049L86.6826 18.5127C86.7237 18.5127 86.7237 18.5535 86.7237 18.5943C86.7237 18.5943 86.7237 18.6351 86.6826 18.6758ZM84.6672 10.3574L92.7285 14.9651C92.7696 14.9651 92.7696 15.0059 92.7696 15.0467C92.7696 15.0875 92.7696 15.1282 92.7285 15.1282L87.1761 18.3496H87.135H87.0938L79.0326 13.7011C78.9915 13.7011 78.9915 13.6603 78.9915 13.6195C78.9915 13.5787 78.9915 13.538 79.0326 13.538L84.585 10.3574C84.6261 10.3574 84.6672 10.3574 84.6672 10.3574ZM82.8576 9.4195C82.8576 9.46028 82.8576 9.50105 82.8164 9.50105L82.2407 9.82727L77.2641 12.6816H77.2229H77.1818L69.1206 8.07387C69.0795 8.07387 69.0795 8.03309 69.0795 7.99231C69.0795 7.95154 69.0795 7.91076 69.1206 7.91076L74.673 4.73017C74.7141 4.73017 74.7552 4.73017 74.7552 4.73017L82.8164 9.33795C82.8164 9.33795 82.8576 9.37872 82.8576 9.4195Z" fill="#DFD9E4"/>
<path d="M69.3262 7.95145L69.7375 8.19611L74.6729 5.38251C74.714 5.38251 74.7552 5.38251 74.7552 5.38251L82.1995 9.62329L82.6108 9.37863L74.6729 4.89319L69.3262 7.95145Z" fill="#C2BACC"/>
<path d="M68.5859 8.88935C68.627 8.88935 68.6681 8.88935 68.6681 8.88935L76.1124 13.1301L76.5237 12.8855L68.627 8.35925L63.2803 11.4175L63.6916 11.6622L68.5859 8.88935Z" fill="#C2BACC"/>
<path d="M69.9019 8.31848L77.1817 12.4777L81.9937 9.74566L74.6728 5.54565L69.9019 8.31848Z" fill="#494949"/>
<path d="M73.8091 17.4525L81.0889 21.6525L85.8598 18.9205L78.58 14.7205L73.8091 17.4525Z" fill="#494949"/>
<path d="M23.8789 48.2389L41.2352 58.1477V56.8021L23.8789 46.8933V48.2389Z" fill="#494949"/>
<path d="M23.8789 49.7885L41.2352 59.738V58.3924L23.8789 48.4429V49.7885Z" fill="#494949"/>
<path d="M23.8789 46.6894L41.2352 56.5981V55.3341L23.8789 45.3845V46.6894Z" fill="#494949"/>
<path d="M23.8789 51.3787L41.2352 61.2875V59.9419L23.8789 50.0331V51.3787Z" fill="#494949"/>
<path d="M23.8789 54.5186L41.2352 64.4274V63.0817L23.8789 53.173V54.5186Z" fill="#494949"/>
<path d="M23.8789 52.9283L41.2352 62.8778V61.5322L23.8789 51.5826V52.9283Z" fill="#494949"/>
<path d="M23.8789 61.4506L24.9483 60.7982V55.3341L23.8789 54.7224V61.4506Z" fill="#9C93AA"/>
<path d="M31.8168 48.8913L33.3796 49.7884C33.4208 49.7884 33.4619 49.8292 33.503 49.7884C33.5442 49.7476 33.5853 49.7069 33.5853 49.5845C33.5853 49.3807 33.4619 49.0952 33.2974 49.0137L31.7345 48.1166C31.6934 48.1166 31.6934 48.0758 31.6522 48.0758H31.6111C31.57 48.1166 31.5289 48.1574 31.5289 48.2797C31.4877 48.5651 31.6522 48.8098 31.8168 48.8913Z" fill="white"/>
<path d="M28.4854 33.6409L34.6958 37.2292V35.435L28.4854 31.8467V33.6409Z" fill="#494949"/>
<path d="M39.6313 25.3224L35.5596 27.6467L41.8111 31.1942L45.8829 28.87L39.6313 25.3224Z" fill="#565656"/>
<path d="M41.8933 33.1515L45.9651 30.8273V29.0331L41.8933 31.3574V33.1515Z" fill="#353535"/>
<path d="M35.4773 29.604L41.7289 33.1516V31.3574L35.4773 27.8098V29.604Z" fill="#494949"/>
<path d="M32.6394 29.3593L28.5676 31.6835L34.8192 35.2719L38.8498 32.9476L32.6394 29.3593Z" fill="#565656"/>
<path d="M63.856 11.8253L71.1357 15.9845L75.9067 13.2525L68.6269 9.05249L63.856 11.8253Z" fill="#494949"/>
<path d="M34.9014 37.2293L38.9731 34.905V33.1108L34.9014 35.4351V37.2293Z" fill="#353535"/>
<path d="M16.7225 57.4545L23.6733 61.4506V45.2214C23.6733 45.1807 23.6733 45.1399 23.7144 45.1399C23.7555 45.1399 23.7967 45.1399 23.7967 45.1399L41.3586 55.2117C41.3998 55.2117 41.3998 55.2525 41.3998 55.2933V71.604L48.3505 75.6001V52.0719L16.6814 33.967V57.4545H16.7225ZM31.4877 47.9943C31.57 47.9535 31.6934 47.9535 31.8168 47.9943L33.3797 48.8913C33.5853 49.0137 33.791 49.3399 33.791 49.6253C33.791 49.7884 33.7498 49.9108 33.6264 49.9923C33.5853 50.0331 33.5442 50.0331 33.503 50.0331C33.4619 50.0331 33.3797 50.0331 33.3385 49.9923L31.7756 49.0952C31.57 48.9729 31.3644 48.6467 31.3644 48.3612C31.3232 48.1574 31.3644 48.035 31.4877 47.9943Z" fill="#C2BACC"/>
<path d="M100.214 31.8059H100.173C100.132 31.8059 100.091 31.8059 100.091 31.8467L98.5276 32.7438C98.3631 32.8253 98.2397 33.1108 98.2397 33.3147C98.2397 33.3962 98.2809 33.4778 98.322 33.5185C98.3631 33.5593 98.4043 33.5185 98.4454 33.5185L100.008 32.6214C100.173 32.5399 100.296 32.2545 100.296 32.0506C100.296 31.8875 100.255 31.8059 100.214 31.8059Z" fill="white"/>
<path d="M62.7455 64.4682C62.91 64.5497 63.1568 64.5497 63.4036 64.4274C64.0205 64.1012 64.514 63.1633 64.514 62.3478C64.514 61.94 64.3907 61.6546 64.185 61.5322C64.1028 61.4915 64.0205 61.4507 63.9382 61.4507C63.8149 61.4507 63.6915 61.4915 63.527 61.573C62.91 61.8992 62.4165 62.8371 62.4165 63.6526C62.3754 64.0196 62.4987 64.3459 62.7455 64.4682ZM63.4036 61.8585C63.6092 61.7361 63.8149 61.7361 64.0205 61.8177C64.2261 61.94 64.3495 62.1847 64.3495 62.5109C64.3495 63.1225 63.9794 63.775 63.527 64.0604C63.4036 64.142 63.2802 64.1827 63.1568 64.1827C63.0745 64.1827 62.9923 64.142 62.91 64.1012C62.7044 63.9789 62.581 63.7342 62.581 63.408C62.581 62.7963 62.9512 62.1439 63.4036 61.8585Z" fill="white"/>
<path d="M52.4221 68.4642L54.9721 69.8506V65.5283L52.4221 64.1418V68.4642Z" fill="#DFD9E4"/>
<path d="M62.9923 63.938C63.1157 64.0196 63.239 63.9788 63.4036 63.8972C63.8148 63.6526 64.1439 63.0409 64.1439 62.5108C64.1439 62.2662 64.0616 62.0623 63.9382 61.9807C63.8971 61.9399 63.856 61.9399 63.7737 61.9399C63.6915 61.9399 63.6092 61.9807 63.5269 62.0215C63.1157 62.2662 62.7866 62.8778 62.7866 63.4079C62.7866 63.6526 62.8689 63.8565 62.9923 63.938Z" fill="#353535"/>
<path d="M57.769 60.9613L52.5457 63.9788L55.0545 65.3652L60.2779 62.3885L57.769 60.9613Z" fill="white"/>
<path d="M66.9818 58.5555L64.4319 57.1283L59.2085 60.1458L61.7174 61.5322L66.9818 58.5555Z" fill="white"/>
<path d="M56.3294 67.771C56.4528 67.8526 56.5762 67.8118 56.7407 67.7302C57.152 67.4856 57.481 66.8739 57.481 66.3438C57.481 66.0992 57.3988 65.8953 57.2754 65.8137C57.2342 65.7729 57.1931 65.7729 57.1109 65.7729C57.0286 65.7729 56.9463 65.8137 56.8641 65.8545C56.4528 66.0992 56.1238 66.7108 56.1238 67.2409C56.1238 67.4856 56.206 67.6895 56.3294 67.771Z" fill="#353535"/>
<path d="M55.1367 69.8506L60.3601 66.8331V62.5107L55.1367 65.4875V69.8506ZM56.6996 65.202C56.9875 65.0389 57.3165 64.9981 57.5633 65.1612C57.8512 65.3243 58.0157 65.6913 58.0157 66.1807C58.0157 67.037 57.4811 68.0564 56.823 68.4234C56.6585 68.5049 56.494 68.5865 56.3295 68.5865C56.2061 68.5865 56.0827 68.5457 56.0004 68.5049C55.7125 68.3418 55.548 67.9748 55.548 67.5263C55.5069 66.5884 56.0415 65.569 56.6996 65.202Z" fill="#C2BACC"/>
<path d="M61.8408 66.0176L67.0642 63.0001V58.7185L61.8408 61.6952V66.0176ZM63.4037 61.369C63.6916 61.2059 64.0206 61.1651 64.2674 61.3282C64.5553 61.4913 64.7198 61.8583 64.7198 62.3476C64.7198 63.204 64.1852 64.2234 63.5271 64.5904C63.3626 64.6719 63.1981 64.7535 63.0336 64.7535C62.9102 64.7535 62.7868 64.7127 62.7045 64.6719C62.4166 64.5088 62.2521 64.1418 62.2521 63.6933C62.211 62.7554 62.7457 61.736 63.4037 61.369Z" fill="#C2BACC"/>
<path d="M48.5562 75.5594L96.6357 47.872V35.2312C96.6357 35.1904 96.6357 35.1496 96.6768 35.1496L102.27 31.969C102.311 31.969 102.353 31.969 102.353 31.969C102.394 31.969 102.394 32.0098 102.394 32.0506V44.5691L106.753 42.0409V18.4719L48.5562 52.0312V75.5594ZM100.09 32.7438L98.5276 33.6409C98.4453 33.6817 98.4042 33.6817 98.3631 33.6817C98.3219 33.6817 98.2808 33.6817 98.2397 33.6409C98.1163 33.6001 98.0752 33.437 98.0752 33.2739C98.0752 32.9885 98.2397 32.6623 98.4865 32.5399L100.049 31.6428C100.173 31.5613 100.296 31.5613 100.378 31.6428C100.502 31.6836 100.543 31.8467 100.543 32.0098C100.461 32.2953 100.296 32.5807 100.09 32.7438ZM93.1397 28.87C93.1397 28.8292 93.1397 28.7885 93.1808 28.7885L105.232 21.8972C105.273 21.8972 105.314 21.8972 105.314 21.8972C105.355 21.8972 105.355 21.938 105.355 21.9787V25.1593C105.355 25.2001 105.355 25.2409 105.314 25.2409L93.2631 32.1322H93.222H93.1808C93.1397 32.1322 93.1397 32.0914 93.1397 32.0506V28.87ZM65.0899 44.8545C65.0899 44.8137 65.0899 44.773 65.131 44.773L77.1818 37.8817C77.2229 37.8817 77.264 37.8817 77.264 37.8817C77.3051 37.8817 77.3051 37.9225 77.3051 37.9632V41.1438C77.3051 41.1846 77.3051 41.2254 77.264 41.2254L65.2544 48.1167H65.2133H65.1722C65.131 48.1167 65.131 48.0759 65.131 48.0351V44.8545H65.0899ZM64.3907 56.9652C64.4318 56.9652 64.4318 56.9652 64.3907 56.9652C64.4318 56.9652 64.4318 56.9652 64.3907 56.9652C64.4318 56.9652 64.4318 56.9652 64.4318 56.9652L67.1463 58.474C67.1463 58.474 67.1875 58.474 67.1875 58.5147V58.5555V63.0817C67.1875 63.1225 67.1875 63.1633 67.1463 63.1633L61.7174 66.2623H61.6762H61.6351L60.5246 65.6507V66.9148C60.5246 66.9555 60.5246 66.9963 60.4835 66.9963L55.0545 70.0953H55.0134H54.9722L52.2577 68.5866V64.0604V64.0196C52.2577 64.0196 52.2577 63.9788 52.2989 63.9788L57.7279 60.8798L58.8383 61.4914V60.2274V60.1866C58.8383 60.1866 58.8383 60.1458 58.8795 60.1458L64.3907 56.9652ZM50.5303 53.2953C50.5303 53.2545 50.5303 53.2138 50.5715 53.2138L62.6222 46.3225C62.6633 46.3225 62.7044 46.3225 62.7044 46.3225C62.7456 46.3225 62.7456 46.3633 62.7456 46.404V49.5846C62.7456 49.6254 62.7456 49.6662 62.7044 49.6662L50.6537 56.5167H50.6126H50.5715C50.5303 56.5167 50.5303 56.4759 50.5303 56.4351V53.2953Z" fill="#9C93AA"/>
<path d="M62.581 46.5264L50.6948 53.3361V56.272L62.581 49.4623V46.5264ZM56.2472 52.5206C56.2472 52.5613 56.2472 52.6021 56.2061 52.6021L51.3118 55.4157H51.2706H51.2295C51.1884 55.4157 51.1884 55.3749 51.1884 55.3342V53.6623C51.1884 53.6215 51.1884 53.5808 51.2295 53.5808L56.1238 50.7672C56.1649 50.7672 56.2061 50.7672 56.2061 50.7672C56.2472 50.7672 56.2472 50.8079 56.2472 50.8487V52.5206ZM62.1286 49.1361C62.1286 49.1769 62.1286 49.2176 62.0875 49.2176L56.9875 52.1536H56.9464H56.9053C56.8641 52.1536 56.8641 52.1128 56.8641 52.072V50.4002C56.8641 50.3594 56.8641 50.3186 56.9053 50.3186L62.0052 47.3827C62.0464 47.3827 62.0875 47.3827 62.0875 47.3827C62.1286 47.3827 62.1286 47.4235 62.1286 47.4642V49.1361Z" fill="white"/>
<path d="M57.0286 51.9089L61.9229 49.0953V47.6273L57.0286 50.4409V51.9089Z" fill="#494949"/>
<path d="M51.3528 55.171L56.0414 52.4797V51.0117L51.3528 53.703V55.171Z" fill="#494949"/>
<path d="M60.5246 62.3069C60.5657 62.3069 60.5657 62.3069 60.5246 62.3069C60.5657 62.3477 60.5657 62.3477 60.5657 62.3477V62.3885V65.4467L61.6351 66.0176V61.6953L59.1262 60.3088V61.4914L60.5246 62.3069Z" fill="#DFD9E4"/>
<path d="M56.0827 68.2604C56.2472 68.3419 56.494 68.3419 56.7407 68.2196C57.3577 67.8934 57.8512 66.9555 57.8512 66.14C57.8512 65.7322 57.7278 65.4468 57.5222 65.3245C57.4399 65.2837 57.3577 65.2429 57.2754 65.2429C57.152 65.2429 57.0286 65.2837 56.8641 65.3653C56.2472 65.6915 55.7536 66.6293 55.7536 67.4449C55.7125 67.8526 55.8359 68.1381 56.0827 68.2604ZM56.7407 65.6915C56.9464 65.5691 57.152 65.5691 57.3577 65.6507C57.5633 65.773 57.6867 66.0177 57.6867 66.3439C57.6867 66.9555 57.3165 67.6487 56.8641 67.8934C56.7407 67.975 56.6173 68.0157 56.494 68.0157C56.4117 68.0157 56.3294 67.975 56.2472 67.9342C56.0415 67.8119 55.9182 67.5672 55.9182 67.241C55.9182 66.6293 56.2883 65.9361 56.7407 65.6915Z" fill="white"/>
<path d="M77.1816 38.1263L65.2954 44.9361V47.872L77.1816 41.0623V38.1263ZM70.8478 44.1205C70.8478 44.1613 70.8478 44.2021 70.8067 44.2021L65.9123 47.0157H65.8712H65.8301C65.789 47.0157 65.789 46.9749 65.789 46.9341V45.2623C65.789 45.2215 65.789 45.1807 65.8301 45.1807L70.7244 42.3671C70.7655 42.3671 70.8067 42.3671 70.8067 42.3671C70.8478 42.3671 70.8478 42.4079 70.8478 42.4487V44.1205ZM76.7292 40.7361C76.7292 40.7768 76.7292 40.8176 76.6881 40.8176L71.5881 43.7535H71.547H71.5059C71.4647 43.7535 71.4647 43.7128 71.4647 43.672V42.0001C71.4647 41.9594 71.4647 41.9186 71.5059 41.9186L76.6058 38.9827C76.647 38.9827 76.6881 38.9827 76.6881 38.9827C76.7292 38.9827 76.7292 39.0234 76.7292 39.0642V40.7361Z" fill="white"/>
<path d="M65.9536 46.7709L70.6423 44.0797V42.6117L65.9536 45.303V46.7709Z" fill="#494949"/>
<path d="M105.19 22.1011L93.3042 28.9108V31.8467L105.19 25.037V22.1011ZM98.8566 28.0953C98.8566 28.136 98.8566 28.1768 98.8155 28.1768L93.9211 30.9904H93.88H93.8389C93.7977 30.9904 93.7977 30.9496 93.7977 30.9089V29.237C93.7977 29.1962 93.7977 29.1555 93.8389 29.1555L98.7332 26.3419C98.7743 26.3419 98.8155 26.3419 98.8155 26.3419C98.8566 26.3419 98.8566 26.3826 98.8566 26.4234V28.0953ZM104.738 24.7108C104.738 24.7516 104.738 24.7923 104.697 24.7923L99.5969 27.7283H99.5558H99.5146C99.4735 27.7283 99.4735 27.6875 99.4735 27.6467V25.9749C99.4735 25.9341 99.4735 25.8933 99.5146 25.8933L104.615 22.9574C104.656 22.9574 104.697 22.9574 104.697 22.9574C104.738 22.9574 104.738 22.9982 104.738 23.0389V24.7108Z" fill="white"/>
<path d="M99.6379 27.4836L104.532 24.67V23.202L99.6379 26.0156V27.4836Z" fill="#494949"/>
<path d="M71.6294 43.5089L76.5237 40.6953V39.2273L71.6294 42.0409V43.5089Z" fill="#494949"/>
<path d="M107 18.3088V18.268C107 18.268 107 18.268 106.959 18.2272L75.0842 0C75.043 0 75.0019 0 75.0019 0L16.558 33.6816C16.558 33.6816 16.5168 33.6816 16.5168 33.7224V33.7632V57.4953C16.5168 57.536 16.5168 57.5768 16.558 57.5768L23.7144 61.6545L24.9894 60.9205C25.0305 60.9205 25.0305 60.8797 25.0305 60.839V55.4564L41.1118 64.6312V71.604L48.2682 75.6817H48.3094H48.3505L106.794 42.0409C106.836 42.0409 106.836 42.0001 106.836 41.9593L107 18.3088ZM24.9482 60.7982L23.8378 61.4098V54.7225L24.9482 55.3341V60.7982ZM41.2352 64.4273L23.8789 54.5186V53.1729L41.2352 63.0817V64.4273ZM41.2352 62.8778L23.8789 52.969V51.6234L41.2352 61.5322V62.8778ZM41.2352 61.2875L23.8789 51.3788V50.0331L41.2352 59.9419V61.2875ZM41.2352 59.738L23.8789 49.7885V48.4428L41.2352 58.3924V59.738ZM41.2352 58.1477L23.8789 48.2389V46.8933L41.2352 56.8428V58.1477ZM41.2352 56.5982L23.8789 46.6894V45.3846L41.2352 55.3749V56.5982ZM48.3505 75.5594L41.3997 71.5633V55.2525C41.3997 55.2118 41.3997 55.171 41.3586 55.171L23.7966 45.0991C23.7555 45.0991 23.7144 45.0991 23.7144 45.0991C23.6732 45.0991 23.6732 45.1399 23.6732 45.1807V61.4098L16.7225 57.4137V33.9263L48.3916 52.0312V75.5594H48.3505ZM48.4739 51.8681L16.8047 33.7632L75.043 0.203884L106.712 18.3088L48.4739 51.8681ZM101.736 44.936L97.3348 47.4642V35.5166L101.736 32.9884V44.936ZM102.229 44.6506L101.941 44.8137V32.8253C101.941 32.7845 101.941 32.7438 101.9 32.7438C101.859 32.7438 101.818 32.7438 101.818 32.7438L97.2114 35.3943C97.1703 35.3943 97.1703 35.435 97.1703 35.4758V47.5865L96.8824 47.7496V35.2719L102.27 32.1729V44.6506H102.229ZM106.794 42.0409L102.435 44.569V32.0098C102.435 31.969 102.435 31.9282 102.394 31.9282C102.353 31.9282 102.311 31.9282 102.311 31.9282L96.7179 35.1496C96.6768 35.1496 96.6767 35.1904 96.6767 35.2311V47.9127L48.5561 75.5594V52.0312L106.794 18.4719V42.0409Z" fill="#1E1E1E"/>
<path d="M56.2472 67.9341C56.3295 67.9748 56.4118 68.0156 56.494 68.0156C56.6174 68.0156 56.7408 67.9748 56.8642 67.8933C57.3166 67.6486 57.6867 66.9554 57.6867 66.3438C57.6867 66.0176 57.5634 65.7729 57.3577 65.6506C57.1932 65.569 56.9876 65.569 56.7408 65.6914C56.2884 65.936 55.9182 66.6292 55.9182 67.2409C55.9182 67.5671 56.0416 67.8117 56.2472 67.9341ZM56.823 65.8545C56.9053 65.8137 56.9876 65.7729 57.0698 65.7729C57.1109 65.7729 57.1932 65.7729 57.2343 65.8137C57.3577 65.8952 57.44 66.0991 57.44 66.3438C57.44 66.8739 57.1109 67.4855 56.6997 67.7302C56.5351 67.8117 56.4118 67.8525 56.2884 67.771C56.165 67.6894 56.0827 67.4855 56.0827 67.2409C56.1239 66.7108 56.4529 66.0991 56.823 65.8545Z" fill="#1E1E1E"/>
<path d="M55.9594 68.4235C56.0828 68.4642 56.165 68.505 56.2884 68.505C56.4529 68.505 56.6174 68.4642 56.7819 68.3419C57.44 67.9749 57.9747 66.9555 57.9747 66.0992C57.9747 65.6099 57.8102 65.2429 57.5223 65.0798C57.2755 64.9574 56.9876 64.9574 56.6586 65.1205C56.0005 65.4875 55.4658 66.5069 55.4658 67.3633C55.5069 67.9341 55.6715 68.3011 55.9594 68.4235ZM56.8231 65.3652C56.9465 65.2836 57.111 65.2429 57.2344 65.2429C57.3166 65.2429 57.3989 65.2836 57.4811 65.3244C57.6868 65.4467 57.8102 65.773 57.8102 66.1399C57.8102 66.9555 57.3166 67.8934 56.6997 68.2196C56.4529 68.3419 56.2061 68.3827 56.0416 68.2603C55.836 68.138 55.7126 67.8118 55.7126 67.4448C55.7126 66.6293 56.2061 65.6914 56.8231 65.3652Z" fill="#1E1E1E"/>
<path d="M58.9618 60.0642C58.9207 60.105 58.9207 60.105 58.9618 60.0642C58.9207 60.105 58.9207 60.105 58.9618 60.0642C58.9207 60.105 58.9207 60.105 58.9207 60.1458V61.4099L57.8102 60.7982L52.2989 63.8973C52.2989 63.8973 52.2578 63.8973 52.2578 63.938V63.9788V68.505L54.9723 70.0138H55.0134H55.0546L60.4836 66.9148C60.5247 66.9148 60.5247 66.874 60.5247 66.8332V65.6507L61.6352 66.2623H61.6763H61.7174L67.1464 63.1633C67.1875 63.1633 67.1875 63.1225 67.1875 63.0817V58.5555V58.5147C67.1875 58.5147 67.1875 58.4739 67.1464 58.4739L64.4319 56.9652C64.4319 56.9652 64.4319 56.9652 64.3908 56.9652L58.9618 60.0642ZM54.9723 69.8507L52.4635 68.4235V64.1011L54.9723 65.4876V69.8507ZM55.0546 65.3652L52.5457 63.9788L57.7691 61.0021L60.2779 62.3885L55.0546 65.3652ZM60.4013 66.8332L55.178 69.8507V65.5283L60.4013 62.5516V66.8332ZM67.0642 63.041L61.8408 66.0584V61.7361L67.0642 58.7594V63.041ZM64.4319 57.1283L66.9408 58.5147L61.7174 61.4914L59.2086 60.105L64.4319 57.1283ZM59.1263 60.3089L61.6352 61.6953V66.0177L60.5658 65.4468V62.3885V62.3477C60.5658 62.3477 60.5658 62.307 60.5247 62.307L59.1263 61.5322V60.3089Z" fill="#1E1E1E"/>
<path d="M62.9101 64.1011C62.9923 64.1419 63.0746 64.1826 63.1569 64.1826C63.2802 64.1826 63.4036 64.1419 63.527 64.0603C63.9794 63.8156 64.3496 63.1224 64.3496 62.5108C64.3496 62.1846 64.2262 61.9399 64.0206 61.8176C63.856 61.736 63.6504 61.736 63.4036 61.8584C62.9512 62.103 62.5811 62.7962 62.5811 63.4079C62.5811 63.7341 62.7044 63.9787 62.9101 64.1011ZM63.527 62.0215C63.6093 61.9807 63.6915 61.9399 63.7738 61.9399C63.8149 61.9399 63.8972 61.9399 63.9383 61.9807C64.0617 62.0622 64.1439 62.2661 64.1439 62.5108C64.1439 63.0409 63.8149 63.6525 63.4036 63.8972C63.2391 63.9787 63.1157 64.0195 62.9923 63.938C62.869 63.8564 62.7867 63.6525 62.7867 63.4079C62.7867 62.8778 63.1157 62.2661 63.527 62.0215Z" fill="#1E1E1E"/>
<path d="M62.6222 64.6312C62.7456 64.672 62.8279 64.7128 62.9512 64.7128C63.1158 64.7128 63.2803 64.672 63.4448 64.5497C64.1028 64.1827 64.6375 63.1633 64.6375 62.3069C64.6375 61.8176 64.473 61.4506 64.1851 61.2875C63.9383 61.1652 63.6504 61.1652 63.3214 61.3283C62.6633 61.6953 62.1287 62.7147 62.1287 63.571C62.2109 64.1011 62.3754 64.4681 62.6222 64.6312ZM63.4859 61.5322C63.6093 61.4506 63.7738 61.4099 63.8972 61.4099C63.9795 61.4099 64.0617 61.4506 64.144 61.4914C64.3496 61.6137 64.473 61.94 64.473 62.3069C64.473 63.1225 63.9795 64.0604 63.3625 64.3866C63.1158 64.5089 62.869 64.5497 62.7045 64.4273C62.4988 64.305 62.3754 63.9788 62.3754 63.6118C62.3754 62.837 62.869 61.8992 63.4859 61.5322Z" fill="#1E1E1E"/>
<path d="M104.902 18.2272L75.1253 1.1825C75.0841 1.1825 75.043 1.1825 75.043 1.1825L18.6144 33.5185C18.5732 33.5185 18.5732 33.5593 18.5732 33.6C18.5732 33.6408 18.5732 33.6816 18.6144 33.6816L19.4369 34.1709L48.3916 50.7671H48.4327H48.4738L104.861 18.4311C104.902 18.4311 104.902 18.3903 104.902 18.3495C104.944 18.3087 104.944 18.268 104.902 18.2272ZM48.4738 50.5632L19.6837 34.0894L75.0841 2.32425L103.874 18.7981L48.4738 50.5632ZM104.039 18.6757L75.1253 2.12036C75.0841 2.12036 75.043 2.12036 75.043 2.12036L19.4781 33.967L18.8611 33.6L75.0841 1.38638L104.697 18.3495L104.039 18.6757Z" fill="#1E1E1E"/>
<path d="M50.6125 56.5574H50.6537L62.7044 49.6661C62.7455 49.6661 62.7455 49.6253 62.7455 49.5845V46.4039C62.7455 46.3632 62.7455 46.3224 62.7044 46.3224C62.6633 46.3224 62.6221 46.3224 62.6221 46.3224L50.5714 53.2137C50.5303 53.2137 50.5303 53.2544 50.5303 53.2952V56.4758C50.5303 56.5166 50.5303 56.5574 50.5714 56.5574H50.6125ZM50.6948 53.336L62.581 46.5263V49.4622L50.6948 56.2719V53.336Z" fill="#1E1E1E"/>
<path d="M56.1239 50.7671L51.2296 53.5807C51.1885 53.5807 51.1885 53.6215 51.1885 53.6623V55.3341C51.1885 55.3749 51.1885 55.4157 51.2296 55.4157H51.2707H51.3119L56.2062 52.6021C56.2473 52.6021 56.2473 52.5613 56.2473 52.5205V50.8486C56.2473 50.8079 56.2473 50.7671 56.2062 50.7671C56.1651 50.7671 56.1239 50.7671 56.1239 50.7671ZM56.0417 52.4797L51.353 55.171V53.703L56.0417 51.0118V52.4797Z" fill="#1E1E1E"/>
<path d="M61.9641 47.3827L56.8641 50.3186C56.823 50.3186 56.823 50.3594 56.823 50.4002V52.072C56.823 52.1128 56.823 52.1536 56.8641 52.1536H56.9053H56.9464L62.0463 49.2176C62.0875 49.2176 62.0875 49.1769 62.0875 49.1361V47.4642C62.0875 47.4235 62.0875 47.3827 62.0463 47.3827C62.0463 47.3827 62.0052 47.3827 61.9641 47.3827ZM61.923 49.0953L57.0286 51.9089V50.441L61.923 47.6274V49.0953Z" fill="#1E1E1E"/>
<path d="M65.2134 48.1166H65.2545L77.3052 41.2253C77.3463 41.2253 77.3463 41.1845 77.3463 41.1437V37.9631C77.3463 37.9224 77.3463 37.8816 77.3052 37.8816C77.2641 37.8816 77.223 37.8816 77.223 37.8816L65.1722 44.7729C65.1311 44.7729 65.1311 44.8137 65.1311 44.8544V48.035C65.1311 48.0758 65.1311 48.1166 65.1722 48.1166C65.1722 48.1166 65.1722 48.1166 65.2134 48.1166ZM65.2956 44.936L77.1818 38.1263V41.0622L65.2956 47.8719V44.936Z" fill="#1E1E1E"/>
<path d="M70.8068 42.3671C70.7656 42.3671 70.7245 42.3671 70.7245 42.3671L65.8302 45.1807C65.7891 45.1807 65.7891 45.2214 65.7891 45.2622V46.9341C65.7891 46.9748 65.7891 47.0156 65.8302 47.0156H65.8713H65.9124L70.8068 44.202C70.8479 44.202 70.8479 44.1612 70.8479 44.1205V42.4486C70.8479 42.4078 70.8068 42.3671 70.8068 42.3671ZM70.6422 44.0797L65.9536 46.771V45.303L70.6422 42.6117V44.0797Z" fill="#1E1E1E"/>
<path d="M76.6472 38.9825C76.606 38.9825 76.5649 38.9825 76.5649 38.9825L71.465 41.9185C71.4238 41.9185 71.4238 41.9593 71.4238 42V43.6719C71.4238 43.7127 71.4238 43.7534 71.465 43.7534H71.5061H71.5472L76.6472 40.8175C76.6883 40.8175 76.6883 40.7767 76.6883 40.7359V39.0641C76.7294 39.0233 76.6883 39.0233 76.6472 38.9825ZM76.5238 40.6952L71.6295 43.5088V42.0408L76.5238 39.2272V40.6952Z" fill="#1E1E1E"/>
<path d="M93.1808 32.0913H93.2219H93.263L105.314 25.2C105.355 25.2 105.355 25.1592 105.355 25.1185V21.9379C105.355 21.8971 105.355 21.8563 105.314 21.8563C105.273 21.8563 105.231 21.8563 105.231 21.8563L93.1808 28.7476C93.1396 28.7476 93.1396 28.7884 93.1396 28.8292V32.0097C93.1396 32.0505 93.1396 32.0913 93.1808 32.0913ZM93.3042 28.9107L105.19 22.101V25.0369L93.3042 31.8466V28.9107Z" fill="#1E1E1E"/>
<path d="M98.8156 26.3418C98.7744 26.3418 98.7333 26.3418 98.7333 26.3418L93.839 29.1554C93.7979 29.1554 93.7979 29.1962 93.7979 29.2369V30.9088C93.7979 30.9496 93.7979 30.9903 93.839 30.9903H93.8801H93.9212L98.8156 28.1768C98.8567 28.1768 98.8567 28.136 98.8567 28.0952V26.4234C98.8567 26.3826 98.8567 26.3826 98.8156 26.3418ZM98.651 28.0544L93.9624 30.7457V29.2777L98.651 26.5865V28.0544Z" fill="#1E1E1E"/>
<path d="M104.697 22.9573C104.656 22.9573 104.615 22.9573 104.615 22.9573L99.5148 25.8932C99.4736 25.8932 99.4736 25.934 99.4736 25.9748V27.6466C99.4736 27.6874 99.4736 27.7282 99.5148 27.7282H99.5559H99.597L104.697 24.7922C104.738 24.7922 104.738 24.7515 104.738 24.7107V23.0388C104.738 23.0388 104.697 22.9981 104.697 22.9573ZM104.532 24.6699L99.6382 27.4835V26.0155L104.532 23.2019V24.6699Z" fill="#1E1E1E"/>
<path d="M39.1376 32.9069C39.1376 32.8661 39.1376 32.8661 39.1376 32.9069C39.0965 32.8661 39.0965 32.8661 39.1376 32.9069L32.6804 29.1962C32.6393 29.1962 32.5982 29.1962 32.5982 29.1962L28.3619 31.6428C28.3619 31.6428 28.3619 31.6428 28.3208 31.6835V31.7243V33.7224L34.7369 37.3923H34.778H34.8191L39.0554 34.9457V32.9476C39.1376 32.9476 39.1376 32.9069 39.1376 32.9069ZM34.6957 37.2292L28.4442 33.6408V31.8467L34.6957 35.435V37.2292ZM34.8191 35.2719L28.5676 31.6835L32.6393 29.3593L38.8909 32.9476L34.8191 35.2719ZM38.9731 34.9049L34.9014 37.2292V35.435L38.9731 33.1107V34.9049Z" fill="#1E1E1E"/>
<path d="M46.1296 28.8292C46.1296 28.8292 46.1296 28.7884 46.1296 28.8292L39.6724 25.1185C39.6313 25.1185 39.5901 25.1185 39.5901 25.1185L35.3539 27.5651C35.3539 27.5651 35.3539 27.5651 35.3127 27.6059V27.6467V29.6447L41.7288 33.3147H41.77H41.8111L46.1296 30.9904V28.9923C46.1707 28.87 46.1707 28.87 46.1296 28.8292ZM41.7288 33.1516L35.4773 29.5632V27.769L41.7288 31.3574V33.1516ZM41.8111 31.1943L35.5595 27.6059L39.6313 25.2816L45.8828 28.87L41.8111 31.1943ZM45.9651 30.8273L41.8933 33.1516V31.3574L45.9651 29.0331V30.8273Z" fill="#1E1E1E"/>
<path d="M70.6011 16.3923C70.6011 16.3516 70.6011 16.3108 70.56 16.3108L62.4988 11.703C62.4576 11.703 62.4165 11.703 62.4165 11.703L56.8641 14.8836C56.823 14.8836 56.823 14.9244 56.823 14.9651C56.823 15.0059 56.823 15.0467 56.8641 15.0467L64.9254 19.6545H64.9665H65.0076L70.56 16.4739C70.6011 16.4739 70.6011 16.4331 70.6011 16.3923ZM64.9665 19.4914L57.6867 15.3321L62.4576 12.6001L69.7374 16.7593L64.9665 19.4914ZM69.9431 16.637L62.4988 12.3962C62.4576 12.3962 62.4165 12.3962 62.4165 12.3962L57.4811 15.2098L57.0698 14.9651L62.4165 11.9069L70.3132 16.4331L69.9431 16.637Z" fill="#1E1E1E"/>
<path d="M63.0336 11.5399L71.0948 16.1476H71.1359H71.177L76.1536 13.2933L76.7294 12.9671C76.7706 12.9671 76.7706 12.9263 76.7706 12.8855C76.7706 12.8447 76.7706 12.8039 76.7294 12.8039L68.6682 8.19617C68.6271 8.19617 68.5859 8.19617 68.5859 8.19617L63.0336 11.3768C62.9924 11.3768 62.9924 11.4175 62.9924 11.4583C62.9924 11.4991 62.9924 11.5399 63.0336 11.5399ZM71.1359 15.9845L63.8561 11.8253L68.6271 9.09326L75.9069 13.2525L71.1359 15.9845ZM68.6271 8.40005L76.5238 12.9263L76.1125 13.1709L68.6682 8.93015C68.6271 8.93015 68.5859 8.93015 68.5859 8.93015L63.6505 11.7437L63.2392 11.4991L68.6271 8.40005Z" fill="#1E1E1E"/>
<path d="M74.6318 4.68933L69.0795 7.86992C69.0383 7.86992 69.0383 7.9107 69.0383 7.95148C69.0383 7.99225 69.0383 8.03303 69.0795 8.03303L77.1407 12.6408H77.1818H77.223L82.1995 9.78643L82.7753 9.46022C82.8165 9.46022 82.8165 9.41944 82.8165 9.37866C82.8165 9.33789 82.8165 9.29711 82.7753 9.29711L74.7141 4.68933C74.7141 4.68933 74.673 4.68933 74.6318 4.68933ZM77.1818 12.4777L69.902 8.31847L74.673 5.58642L81.9528 9.74565L77.1818 12.4777ZM82.1584 9.62332L74.7141 5.38254C74.673 5.38254 74.6318 5.38254 74.6318 5.38254L69.6964 8.19614L69.2851 7.95148L74.6318 4.89322L82.5286 9.41944L82.1584 9.62332Z" fill="#1E1E1E"/>
<path d="M80.5131 21.9787L72.4519 17.371C72.4108 17.371 72.3696 17.371 72.3696 17.371L66.8173 20.5516C66.7761 20.5516 66.7761 20.5923 66.7761 20.6331C66.7761 20.6739 66.7761 20.7147 66.8173 20.7147L74.8785 25.3224H74.9196H74.9608L79.9373 22.4681L80.5131 22.1419C80.5543 22.1419 80.5543 22.1011 80.5543 22.0603C80.5543 22.0195 80.5543 22.0195 80.5131 21.9787ZM74.9196 25.1593L67.6398 21.0001L72.4108 18.2681L79.6906 22.4273L74.9196 25.1593ZM79.8962 22.305L72.4519 18.0642C72.4108 18.0642 72.3696 18.0642 72.3696 18.0642L67.4342 20.8778L67.0229 20.6331L72.3696 17.5749L80.2664 22.0603L79.8962 22.305Z" fill="#1E1E1E"/>
<path d="M86.6825 18.5127L78.6213 13.8641C78.5802 13.8641 78.5391 13.8641 78.5391 13.8641L72.9867 17.0447C72.9456 17.0447 72.9456 17.0855 72.9456 17.1263C72.9456 17.1671 72.9456 17.2078 72.9867 17.2078L81.0479 21.8156H81.089H81.1302L86.6825 18.635C86.7237 18.635 86.7237 18.5942 86.7237 18.5535C86.7237 18.5535 86.7237 18.5127 86.6825 18.5127ZM81.089 21.6525L73.8093 17.4933L78.5802 14.7612L85.86 18.9205L81.089 21.6525ZM86.0656 18.7981L78.6213 14.5573C78.5802 14.5573 78.5391 14.5573 78.5391 14.5573L73.6036 17.3709L73.1923 17.1263L78.5391 14.068L86.4358 18.5942L86.0656 18.7981Z" fill="#1E1E1E"/>
<path d="M78.9915 13.6194C78.9915 13.6602 78.9915 13.701 79.0326 13.701L87.0938 18.3495H87.135H87.1761L92.7285 15.169C92.7696 15.169 92.7696 15.1282 92.7696 15.0874C92.7696 15.0466 92.7696 15.0058 92.7285 15.0058L84.6672 10.3981C84.6261 10.3981 84.585 10.3981 84.585 10.3981L79.0326 13.5379C78.9915 13.5787 78.9915 13.5787 78.9915 13.6194ZM87.135 18.1457L79.8552 13.9457L84.6261 11.2136L91.9059 15.3728L87.135 18.1457ZM84.6261 10.5612L92.5228 15.0874L92.1115 15.3321L84.6672 11.0913C84.6261 11.0913 84.585 11.0913 84.585 11.0913L79.6495 13.9049L79.2382 13.6602L84.6261 10.5612Z" fill="#1E1E1E"/>
<path d="M100.296 31.6428C100.214 31.602 100.09 31.602 99.9671 31.6428L98.4042 32.5399C98.1986 32.6622 97.9929 32.9884 97.9929 33.2738C97.9929 33.4369 98.034 33.5593 98.1574 33.6408C98.1986 33.6816 98.2397 33.6816 98.2808 33.6816C98.3219 33.6816 98.4042 33.6816 98.4453 33.6408L100.008 32.7437C100.214 32.6214 100.42 32.2952 100.42 32.0098C100.461 31.8059 100.42 31.6835 100.296 31.6428ZM99.9671 32.5806L98.4042 33.4777C98.3631 33.4777 98.3219 33.5185 98.2808 33.4777C98.2397 33.4369 98.1986 33.3962 98.1986 33.2738C98.1986 33.0699 98.3219 32.7845 98.4865 32.703L100.049 31.8059C100.09 31.8059 100.09 31.7651 100.132 31.7651H100.173C100.214 31.8059 100.255 31.8466 100.255 31.969C100.296 32.2136 100.132 32.4583 99.9671 32.5806Z" fill="#1E1E1E"/>
<path d="M31.6934 49.0545L33.2563 49.9516C33.3385 49.9923 33.3797 49.9923 33.4208 49.9923C33.4619 49.9923 33.5031 49.9923 33.5442 49.9516C33.6676 49.9108 33.7087 49.7477 33.7087 49.5846C33.7087 49.2991 33.5442 48.9729 33.2974 48.8506L31.7345 47.9535C31.6111 47.8719 31.4877 47.8719 31.4055 47.9535C31.2821 47.9943 31.241 48.1574 31.241 48.3205C31.3232 48.6059 31.4877 48.9321 31.6934 49.0545ZM31.57 48.1574H31.6111C31.6523 48.1574 31.6934 48.1574 31.6934 48.1982L33.2563 49.0953C33.4208 49.1768 33.5442 49.4622 33.5442 49.6661C33.5442 49.7477 33.5031 49.8292 33.4619 49.87C33.4208 49.9108 33.3797 49.87 33.3385 49.87L31.7756 48.9729C31.6111 48.8914 31.4877 48.6059 31.4877 48.402C31.4877 48.2389 31.5289 48.1574 31.57 48.1574Z" fill="#1E1E1E"/>
<path d="M27.9602 66.9747L26.6365 67.7568V65.9519L27.9602 65.23V66.9747Z" fill="#D72323"/>
<path d="M17.4313 61.4398L23.9292 65.23L20.9209 66.9747L14.423 63.1845L17.4313 61.4398Z" fill="#D72323"/>
<path d="M18.9353 60.5976L21.7631 58.9733L28.261 62.7033L25.4934 64.3276L18.9353 60.5976Z" fill="#D72323"/>
<path d="M24.23 65.0495L17.7321 61.3195L18.6947 60.7179L25.1926 64.5081L24.23 65.0495Z" fill="white"/>
<path d="M17.8523 67.6365L18.6946 68.1178V69.8624L17.8523 69.3812V67.6365Z" fill="white"/>
<path d="M25.313 65.952L24.3503 66.4935V65.2902L25.313 64.7488V65.952Z" fill="white"/>
<path d="M24.1096 66.7341C24.1096 66.7943 24.1096 66.8545 24.1697 66.8545H24.2299H24.2901L25.4934 66.1325C25.5536 66.1325 25.5536 66.0724 25.5536 66.0122V64.6285L28.3813 62.944V67.3358L21.0411 71.5471V67.1553L24.0494 65.4106V66.7341H24.1096ZM26.3959 67.9975C26.3959 68.0577 26.3959 68.1179 26.456 68.1179H26.5162H26.5764L28.1407 67.2154C28.2009 67.2154 28.2009 67.1553 28.2009 67.0951V64.9895C28.2009 64.9293 28.2009 64.8691 28.1407 64.8691C28.0805 64.8691 28.0204 64.8691 28.0204 64.8691L26.456 65.7716C26.3959 65.7716 26.3959 65.8317 26.3959 65.8919V67.9975Z" fill="#F23A3A"/>
<path d="M20.8005 71.6071L14.3026 67.817V63.4252L20.8005 67.2153V71.6071ZM18.9354 68.0576C18.9354 67.9974 18.9354 67.9373 18.8752 67.9373L17.7321 67.2755C17.6719 67.2755 17.6117 67.2755 17.6117 67.2755C17.5516 67.2755 17.5516 67.3357 17.5516 67.3958V69.4413C17.5516 69.5015 17.5516 69.5616 17.6117 69.5616L18.7549 70.2234H18.8151H18.8752C18.9354 70.2234 18.9354 70.1633 18.9354 70.1031V68.0576ZM20.5599 68.96C20.5599 68.8999 20.5599 68.8397 20.4997 68.8397L19.3566 68.1779C19.2964 68.1779 19.2362 68.1779 19.2362 68.1779C19.1761 68.1779 19.1761 68.2381 19.1761 68.2983V70.3437C19.1761 70.4039 19.1761 70.4641 19.2362 70.4641L20.3794 71.1258H20.4395H20.4997C20.5599 71.1258 20.5599 71.0657 20.5599 71.0055V68.96Z" fill="#A30909"/>
<path d="M19.4769 68.5389L20.259 69.0202V70.7649L19.4769 70.2836V68.5389Z" fill="white"/>
<path d="M14.0018 63.1243C14.0018 63.1243 14.0619 63.1243 14.0018 63.1243C14.0619 63.0641 14.0619 63.0641 14.0018 63.1243L21.6428 58.6724C21.703 58.6724 21.7632 58.6724 21.7632 58.6724L28.5619 62.5829C28.5619 62.5829 28.5619 62.5829 28.6221 62.643V62.7032V67.3958L20.981 71.968H20.9208H20.8607L14.0619 68.0575V63.365C14.0018 63.1845 14.0018 63.1845 14.0018 63.1243ZM17.732 61.3195L24.23 65.0495L25.1926 64.508L18.6947 60.7179L17.732 61.3195ZM24.3503 65.2901V66.4332L25.3129 65.9519V64.7487L24.3503 65.2901ZM21.7632 58.9732L18.9354 60.5975L25.4333 64.3877L28.2611 62.7633L21.7632 58.9732ZM21.1013 71.6071L28.4416 67.3958V62.9438L25.6138 64.5682V65.9519C25.6138 66.0121 25.6138 66.0722 25.5536 66.0722L24.3503 66.7942H24.2901H24.23C24.1698 66.7942 24.1698 66.734 24.1698 66.6738V65.4104L21.1615 67.1551V71.6071H21.1013ZM20.9208 66.9746L23.9291 65.23L17.4312 61.4398L14.4229 63.1845L20.9208 66.9746ZM14.2424 67.8169L20.7403 71.6071V67.2153L14.2424 63.4251V67.8169Z" fill="#1E1E1E"/>
<path d="M20.4395 71.1259H20.3793L19.2362 70.4641C19.176 70.4641 19.176 70.404 19.176 70.3438V68.2983C19.176 68.2381 19.176 68.178 19.2362 68.178C19.2963 68.178 19.3565 68.178 19.3565 68.178L20.4996 68.8398C20.5598 68.8398 20.5598 68.8999 20.5598 68.9601V71.0056C20.5598 71.0657 20.5598 71.1259 20.4996 71.1259H20.4395ZM20.259 69.0202L19.4167 68.5389V70.2235L20.259 70.7649V69.0202Z" fill="#1E1E1E"/>
<path d="M18.815 70.2234H18.7548L17.6117 69.5617C17.5515 69.5617 17.5515 69.5015 17.5515 69.4413V67.3958C17.5515 67.3357 17.5515 67.2755 17.6117 67.2755C17.6718 67.2755 17.732 67.2755 17.732 67.2755L18.8751 67.9373C18.9353 67.9373 18.9353 67.9975 18.9353 68.0576V70.1031C18.9353 70.1633 18.9353 70.2234 18.8751 70.2234H18.815ZM18.6946 68.1178L17.8523 67.6365V69.321L18.6946 69.8023V68.1178Z" fill="#1E1E1E"/>
<path d="M28.0204 64.869C28.0806 64.869 28.1408 64.869 28.1408 64.869C28.2009 64.869 28.2009 64.9292 28.2009 64.9893V67.095C28.2009 67.1551 28.2009 67.2153 28.1408 67.2153L26.5764 68.1177H26.5163H26.4561C26.396 68.1177 26.396 68.0576 26.396 67.9974V65.8918C26.396 65.8316 26.396 65.7714 26.4561 65.7714L28.0204 64.869ZM26.6366 67.7568L27.9001 67.0348V65.2901L26.6366 65.9519V67.7568Z" fill="#1E1E1E"/>
<path d="M18.9355 72.2085L17.6721 72.9906V71.1858L18.9355 70.4639V72.2085Z" fill="#D72323"/>
<path d="M8.46668 66.6738L14.9646 70.464L11.9563 72.2087L5.45838 68.4185L8.46668 66.6738Z" fill="#D72323"/>
<path d="M9.97066 65.8315L12.7985 64.2072L19.2964 67.9973L16.4686 69.6217L9.97066 65.8315Z" fill="#D72323"/>
<path d="M15.2654 70.2834L8.70729 66.5534L9.66994 66.012L16.228 69.742L15.2654 70.2834Z" fill="white"/>
<path d="M8.88776 72.8705L9.66992 73.3518V75.0964L8.88776 74.6152V72.8705Z" fill="white"/>
<path d="M16.3484 71.186L15.3857 71.7275V70.5242L16.3484 69.9828V71.186Z" fill="white"/>
<path d="M15.145 71.9681C15.145 72.0282 15.145 72.0884 15.2051 72.0884H15.2653H15.3255L16.5288 71.3664C16.5889 71.3664 16.5889 71.3063 16.5889 71.2461V69.8624L19.4167 68.238V72.6298L12.0765 76.8411V72.4493L15.0848 70.7047V71.9681H15.145ZM17.3711 73.2314C17.3711 73.2916 17.3711 73.3518 17.4313 73.3518H17.4914H17.5516L19.1159 72.4493C19.1761 72.4493 19.1761 72.3892 19.1761 72.329V70.2234C19.1761 70.1632 19.1761 70.103 19.1159 70.103C19.0558 70.103 18.9956 70.103 18.9956 70.103L17.4313 71.0055C17.3711 71.0055 17.3711 71.0656 17.3711 71.1258V73.2314Z" fill="#F23A3A"/>
<path d="M11.8359 76.8411L5.33802 73.051V68.6592L11.8359 72.4494V76.8411ZM9.97079 73.2916C9.97079 73.2314 9.97079 73.1713 9.91063 73.1713L8.76748 72.5095C8.70731 72.5095 8.64714 72.5095 8.64714 72.5095C8.58698 72.5095 8.58698 72.5697 8.58698 72.6298V74.6753C8.58698 74.7355 8.58698 74.7956 8.64714 74.7956L9.7903 75.4574H9.85046H9.91063C9.97079 75.4574 9.97079 75.3973 9.97079 75.3371V73.2916ZM11.5953 74.194C11.5953 74.1339 11.5953 74.0737 11.5351 74.0737L10.392 73.4119C10.3318 73.4119 10.2716 73.4119 10.2716 73.4119C10.2115 73.4119 10.2115 73.4721 10.2115 73.5323V75.5777C10.2115 75.6379 10.2115 75.6981 10.2716 75.6981L11.4148 76.3598H11.4749H11.5351C11.5953 76.3598 11.5953 76.2997 11.5953 76.2395V74.194Z" fill="#A30909"/>
<path d="M10.4521 73.833L11.2944 74.3143V75.9988L10.4521 75.5175V73.833Z" fill="white"/>
<path d="M5.03715 68.3583C5.09731 68.3583 5.09731 68.2982 5.03715 68.3583L12.6782 63.9064C12.7384 63.9064 12.7986 63.9064 12.7986 63.9064L19.5973 67.8169C19.5973 67.8169 19.5973 67.8169 19.6575 67.877V67.9372V72.6298L12.0164 77.0216H11.9562H11.8961L5.09732 73.1111V68.4185C5.03715 68.4185 5.03715 68.4185 5.03715 68.3583ZM8.70727 66.5535L15.2052 70.3437L16.1678 69.8022L9.66993 66.012L8.70727 66.5535ZM15.3857 70.5241V71.6672L16.3483 71.1257V69.9827L15.3857 70.5241ZM12.7986 64.2072L9.97076 65.8315L16.4687 69.6217L19.2965 67.9974L12.7986 64.2072ZM12.0766 76.8411L19.4168 72.6298V68.238L16.589 69.8624V71.2461C16.589 71.3062 16.589 71.3664 16.5288 71.3664L15.3255 72.0883H15.2654H15.2052C15.145 72.0883 15.145 72.0282 15.145 71.968V70.7046L12.1367 72.4493V76.8411H12.0766ZM11.9562 72.2087L14.9645 70.464L8.46661 66.6738L5.45831 68.4185L11.9562 72.2087ZM5.27781 73.0509L11.7757 76.8411V72.4493L5.27781 68.6591V73.0509Z" fill="#1E1E1E"/>
<path d="M11.4749 76.3599H11.4147L10.2716 75.6981C10.2114 75.6981 10.2114 75.638 10.2114 75.5778V73.5323C10.2114 73.4721 10.2114 73.412 10.2716 73.412C10.3317 73.412 10.3919 73.412 10.3919 73.412L11.535 74.0738C11.5952 74.0738 11.5952 74.1339 11.5952 74.1941V76.2396C11.5952 76.2997 11.5952 76.3599 11.535 76.3599C11.4749 76.3599 11.4749 76.3599 11.4749 76.3599ZM11.2944 74.3144L10.4521 73.8331V75.5176L11.2944 75.9989V74.3144Z" fill="#1E1E1E"/>
<path d="M9.85037 75.4574H9.79021L8.64705 74.7956C8.58688 74.7956 8.58688 74.7355 8.58688 74.6753V72.6298C8.58688 72.5697 8.58688 72.5095 8.64705 72.5095C8.70721 72.5095 8.76738 72.5095 8.76738 72.5095L9.91054 73.1713C9.9707 73.1713 9.9707 73.2315 9.9707 73.2916V75.3371C9.9707 75.3973 9.9707 75.4574 9.91054 75.4574H9.85037ZM9.66987 73.3518L8.82755 72.8705V74.555L9.66987 75.0363V73.3518Z" fill="#1E1E1E"/>
<path d="M19.0558 70.103C19.116 70.103 19.1762 70.103 19.1762 70.103C19.2363 70.103 19.2363 70.1632 19.2363 70.2233V72.329C19.2363 72.3891 19.2363 72.4493 19.1762 72.4493L17.6118 73.3517H17.5517H17.4915C17.4314 73.3517 17.4314 73.2916 17.4314 73.2314V71.1258C17.4314 71.0656 17.4314 71.0054 17.4915 71.0054L19.0558 70.103ZM17.672 72.9908L18.9355 72.2688V70.5242L17.672 71.2461V72.9908Z" fill="#1E1E1E"/>
<path d="M35.9023 71.4266L34.6389 72.1485V70.4038L35.9023 69.6819V71.4266Z" fill="#D72323"/>
<path d="M25.4335 65.8917L31.9314 69.6819L28.9231 71.4266L22.365 67.6364L25.4335 65.8917Z" fill="#D72323"/>
<path d="M26.9375 65.0495L29.7051 63.4252L36.2632 67.1552L33.4354 68.7796L26.9375 65.0495Z" fill="#D72323"/>
<path d="M32.232 69.5014L25.6739 65.7714L26.6366 65.1698L33.1345 68.96L32.232 69.5014Z" fill="white"/>
<path d="M25.7944 72.0884L26.6367 72.5697V74.3144L25.7944 73.8331V72.0884Z" fill="white"/>
<path d="M33.2549 70.4039L32.3524 70.9454V69.7421L33.2549 69.2007V70.4039Z" fill="white"/>
<path d="M32.0517 71.1861C32.0517 71.2462 32.0517 71.3064 32.1119 71.3064H32.172H32.2322L33.4355 70.5844C33.4957 70.5844 33.4957 70.5243 33.4957 70.4641V69.0804L36.3235 67.4561V71.8478L28.9832 76.0591V71.6673L31.9915 69.9227V71.1861H32.0517ZM34.338 72.4494C34.338 72.5096 34.338 72.5698 34.3982 72.5698H34.4583H34.5185L36.0828 71.6673C36.143 71.6673 36.143 71.6072 36.143 71.547V69.4414C36.143 69.3812 36.143 69.3211 36.0828 69.3211C36.0227 69.3211 35.9625 69.3211 35.9625 69.3211L34.3982 70.2235C34.338 70.2235 34.338 70.2836 34.338 70.3438V72.4494Z" fill="#F23A3A"/>
<path d="M28.7424 76.059L22.2445 72.2689V67.8771L28.7424 71.6672V76.059ZM26.9375 72.5095C26.9375 72.4493 26.9375 72.3892 26.8773 72.3892L25.7341 71.7274C25.674 71.7274 25.6138 71.7274 25.6138 71.7274C25.5536 71.7274 25.5536 71.7876 25.5536 71.8477V73.8932C25.5536 73.9534 25.5536 74.0135 25.6138 74.0135L26.757 74.6753H26.8171H26.8773C26.9375 74.6753 26.9375 74.6152 26.9375 74.555V72.5095ZM28.5619 73.4119C28.5619 73.3518 28.5619 73.2916 28.5018 73.2916L27.3586 72.6298C27.2984 72.6298 27.2383 72.6298 27.2383 72.6298C27.1781 72.6298 27.1781 72.69 27.1781 72.7502V74.7956C27.1781 74.8558 27.1781 74.916 27.2383 74.916L28.3213 75.5777H28.3814H28.4416C28.5018 75.5777 28.5018 75.5176 28.5018 75.4574V73.4119H28.5619Z" fill="#A30909"/>
<path d="M27.4189 72.9908L28.2612 73.4721V75.2168L27.4189 74.7355V72.9908Z" fill="white"/>
<path d="M22.0039 67.5763C22.0039 67.5162 22.0039 67.5162 22.0039 67.5763L29.645 63.1244C29.7052 63.1244 29.7654 63.1244 29.7654 63.1244L36.5641 67.0349C36.5641 67.0349 36.5641 67.0349 36.6243 67.095V67.1552V71.8478L28.9832 76.2396H28.923H28.8629L22.0641 72.3291V67.6365C21.9438 67.6365 21.9438 67.5763 22.0039 67.5763ZM25.6741 65.7715L32.172 69.5617L33.1346 68.9601L26.6367 65.1699L25.6741 65.7715ZM32.3525 69.7422V70.8852L33.255 70.4039V69.2609L32.3525 69.7422ZM29.7052 63.4252L26.8774 65.0496L33.3753 68.8397L36.2633 67.1552L29.7052 63.4252ZM29.0434 76.0591L36.3836 71.8478V67.456L33.5558 69.0804V70.4641C33.5558 70.5242 33.5558 70.5844 33.4956 70.5844L32.2923 71.3063H32.2322H32.172C32.1118 71.3063 32.1118 71.2462 32.1118 71.186V69.9226L29.1035 71.6673V76.0591H29.0434ZM28.923 71.4267L31.9313 69.682L25.4334 65.8918L22.4251 67.6365L28.923 71.4267ZM22.2446 72.2689L28.7425 76.0591V71.6673L22.2446 67.8771V72.2689Z" fill="#1E1E1E"/>
<path d="M28.3816 75.5778H28.3215L27.1783 74.916C27.1181 74.916 27.1181 74.8559 27.1181 74.7957V72.7502C27.1181 72.69 27.1181 72.6299 27.1783 72.6299C27.2385 72.6299 27.2986 72.6299 27.2986 72.6299L28.4418 73.2917C28.502 73.2917 28.502 73.3518 28.502 73.412V75.4575C28.502 75.5176 28.502 75.5778 28.4418 75.5778C28.4418 75.5778 28.4418 75.5778 28.3816 75.5778ZM28.2613 73.4721L27.419 72.9909V74.6754L28.2613 75.1567V73.4721Z" fill="#1E1E1E"/>
<path d="M26.7571 74.6753H26.6969L25.5538 74.0136C25.4936 74.0136 25.4936 73.9534 25.4936 73.8932V71.8477C25.4936 71.7876 25.4936 71.7274 25.5538 71.7274C25.614 71.7274 25.6741 71.7274 25.6741 71.7274L26.8173 72.3892C26.8774 72.3892 26.8774 72.4494 26.8774 72.5095V74.555C26.8774 74.6152 26.8774 74.6753 26.8173 74.6753C26.8173 74.6753 26.8173 74.6753 26.7571 74.6753ZM26.6368 72.5697L25.7945 72.0884V73.7729L26.6368 74.3144V72.5697Z" fill="#1E1E1E"/>
<path d="M35.9623 69.3209C36.0225 69.3209 36.0827 69.3209 36.0827 69.3209C36.1428 69.3209 36.1428 69.3811 36.1428 69.4412V71.5469C36.1428 71.607 36.1428 71.6672 36.0827 71.6672L34.5183 72.5696H34.4582H34.398C34.3378 72.5696 34.3378 72.5095 34.3378 72.4493V70.3437C34.3378 70.2835 34.3378 70.2233 34.398 70.2233L35.9623 69.3209ZM34.6387 72.1485L35.9022 71.4266V69.6819L34.6387 70.4038V72.1485Z" fill="#1E1E1E"/>
<path d="M26.9375 76.6607L25.674 77.4428V75.6379L26.9375 74.916V76.6607Z" fill="white"/>
<path d="M16.4085 71.1259L22.9666 74.916L19.8981 76.6607L13.4002 72.8705L16.4085 71.1259Z" fill="#D72323"/>
<path d="M17.9126 70.2837L20.7404 68.6593L27.2383 72.4495L24.4706 74.0137L17.9126 70.2837Z" fill="#D72323"/>
<path d="M23.207 74.7355L16.7091 71.0054L17.6718 70.464L24.1697 74.194L23.207 74.7355Z" fill="white"/>
<path d="M16.8296 77.3225L17.6719 77.8038V79.5485L16.8296 79.0672V77.3225Z" fill="white"/>
<path d="M24.29 75.6381L23.3875 76.1795V74.9763L24.29 74.4348V75.6381Z" fill="white"/>
<path d="M23.0869 76.4201C23.0869 76.4802 23.0869 76.5404 23.147 76.5404H23.2072H23.2674L24.4707 75.8185C24.5308 75.8185 24.5308 75.7583 24.5308 75.6981V74.3144L27.3586 72.6901V77.0819L20.0184 81.2932V76.9014L23.0267 75.1567V76.4201H23.0869ZM25.3732 77.6835C25.3732 77.7436 25.3732 77.8038 25.4333 77.8038H25.4935H25.5537L27.118 76.9014C27.1781 76.8412 27.2383 76.781 27.2383 76.781V74.6754C27.2383 74.6152 27.2383 74.5551 27.1781 74.5551C27.118 74.5551 27.0578 74.5551 27.0578 74.5551L25.4935 75.4575C25.4333 75.4575 25.4333 75.5177 25.4333 75.5778V77.6835H25.3732Z" fill="#F23A3A"/>
<path d="M19.7776 81.2932L13.2797 77.503V73.1112L19.7776 76.9014V81.2932ZM17.9726 77.7436C17.9726 77.6835 17.9726 77.6233 17.9124 77.6233L16.7693 76.9615C16.7091 76.9615 16.649 76.9615 16.649 76.9615C16.5888 76.9615 16.5888 77.0217 16.5888 77.0819V79.1274C16.5888 79.1875 16.5888 79.2477 16.649 79.2477L17.7921 79.9095H17.8523H17.9124C17.9726 79.9095 17.9726 79.8493 17.9726 79.7891V77.7436ZM19.5369 78.6461C19.5369 78.5859 19.5369 78.5257 19.4768 78.5257L18.3336 77.864C18.2734 77.864 18.2133 77.864 18.2133 77.864C18.1531 77.864 18.1531 77.9241 18.1531 77.9843V80.0298C18.1531 80.09 18.1531 80.1501 18.2133 80.1501L19.3564 80.8119H19.4166H19.4768C19.5369 80.8119 19.5369 80.7517 19.5369 80.6916V78.6461Z" fill="#A30909"/>
<path d="M18.4541 78.285L19.2964 78.7663V80.4509L18.4541 79.9696V78.285Z" fill="white"/>
<path d="M13.0391 72.8103C13.0391 72.7502 13.0391 72.7502 13.0391 72.8103L20.6802 68.3584C20.7403 68.3584 20.8005 68.3584 20.8005 68.3584L27.5993 72.2689C27.5993 72.2689 27.5993 72.2689 27.6594 72.3291V72.3892V77.0818L20.0184 81.6541H19.9582H19.898L13.0993 77.7436V73.051C12.9789 72.8705 12.9789 72.8705 13.0391 72.8103C12.9789 72.8103 12.9789 72.8103 13.0391 72.8103ZM16.7092 71.0055L23.2071 74.7957L24.1698 74.2542L17.6719 70.464L16.7092 71.0055ZM23.3876 74.9762V76.1794L24.3503 75.6379V74.4949L23.3876 74.9762ZM20.7403 68.6592L17.9125 70.2836L24.4105 74.0737L27.2383 72.4494L20.7403 68.6592ZM20.0785 81.2931L27.4188 77.0818V72.69L24.591 74.3144V75.6981C24.591 75.7583 24.591 75.8184 24.5308 75.8184L23.3275 76.5404H23.2673H23.2071C23.147 76.5404 23.147 76.4802 23.147 76.42V75.1566L20.1387 76.9013V81.2931H20.0785ZM19.898 76.6607L22.9063 74.916L16.4084 71.1258L13.4001 72.8705L19.898 76.6607ZM13.2798 77.5029L19.7777 81.2931V76.9013L13.2798 73.1112V77.5029Z" fill="#1E1E1E"/>
<path d="M19.4168 80.8119H19.3566L18.2135 80.1501C18.1533 80.1501 18.1533 80.09 18.1533 80.0298V77.9843C18.1533 77.9242 18.1533 77.864 18.2135 77.864C18.2736 77.864 18.3338 77.864 18.3338 77.864L19.4769 78.5258C19.5371 78.5258 19.5371 78.5859 19.5371 78.6461V80.6916C19.5371 80.7517 19.5371 80.8119 19.4769 80.8119H19.4168ZM19.2964 78.7664L18.4541 78.2851V79.9697L19.2964 80.4509V78.7664Z" fill="#1E1E1E"/>
<path d="M17.7923 79.9094H17.7321L16.5889 79.2477C16.5288 79.2477 16.5288 79.1875 16.5288 79.1274V77.0819C16.5288 77.0217 16.5288 76.9615 16.5889 76.9615C16.6491 76.9615 16.7093 76.9615 16.7093 76.9615L17.8524 77.6233C17.9126 77.6233 17.9126 77.6835 17.9126 77.7436V79.7891C17.9126 79.8493 17.9126 79.9094 17.8524 79.9094C17.8524 79.9094 17.8524 79.9094 17.7923 79.9094ZM17.6719 77.8038L16.8296 77.3225V79.007L17.6719 79.4883V77.8038Z" fill="#1E1E1E"/>
<path d="M26.9977 74.5551C27.0579 74.5551 27.1181 74.5551 27.1181 74.5551C27.1782 74.5551 27.1782 74.6152 27.1782 74.6754V76.781C27.1782 76.8412 27.1782 76.9013 27.1181 76.9013L25.5537 77.8038H25.4936H25.4334C25.3732 77.8038 25.3732 77.7436 25.3732 77.6834V75.5778C25.3732 75.5176 25.3732 75.4575 25.4334 75.4575L26.9977 74.5551ZM25.6741 77.4428L26.9376 76.7209V74.9762L25.6741 75.6981V77.4428Z" fill="#1E1E1E"/>
</svg>
