<svg width="234" height="237" viewBox="0 0 234 237" fill="none" xmlns="http://www.w3.org/2000/svg">
<path opacity="0.2" d="M232 180L116.35 124L2 180L116.35 236L232 180Z" stroke="#2C59F9"/>
<path opacity="0.4" d="M226 170L116.384 117L8 170L116.384 223L226 170Z" stroke="#2C59F9"/>
<path opacity="0.6" d="M221 160L116.412 109L13 160L116.412 211L221 160Z" stroke="#2C59F9"/>
<path d="M216 150L116.441 102L18 150L116.441 198L216 150Z" stroke="#2C59F9"/>
<path d="M114.413 4.03214L32.414 43.6175C31.386 44.1136 30.7325 45.1549 30.7325 46.2964V143.703C30.7325 144.844 31.386 145.885 32.414 146.382L114.413 185.968C116.048 186.757 117.952 186.757 119.586 185.968L201.586 146.382C202.614 145.886 203.267 144.845 203.267 143.703V46.2967C203.267 45.1553 202.614 44.1143 201.586 43.6178L119.586 4.03214C117.952 3.24319 116.048 3.24319 114.413 4.03214Z" fill="#FE6666"/>
<path d="M31.2272 44.668C30.9144 45.1441 30.7325 45.7044 30.7325 46.2963V143.703C30.7325 144.845 31.386 145.885 32.414 146.382L114.413 185.968C115.231 186.363 116.115 186.56 117 186.56V86.0757L31.2272 44.668Z" fill="#D72323"/>
<path d="M202.773 44.668C203.086 45.1441 203.267 45.7044 203.267 46.2963V143.703C203.267 144.845 202.614 145.885 201.586 146.382L119.587 185.968C118.769 186.363 117.885 186.56 117 186.56V86.0757L202.773 44.668Z" fill="#F13C3C"/>
<path d="M173.706 58.6521L87.6316 17.0703L64.9421 28.068L151.209 69.7148L173.706 58.6521Z" fill="#FFE2E2"/>
<path d="M151.209 69.715V101.978C151.209 103.074 152.356 103.794 153.343 103.317L172.024 94.2989C173.053 93.8027 173.706 92.7614 173.706 91.6199V58.6523L151.209 69.715Z" fill="#FFE2E2"/>
<path d="M204.478 41.9223L118.21 0.27665C117.445 -0.0922168 116.555 -0.0922168 115.79 0.27665L29.5224 41.9223C28.5605 42.3865 27.9493 43.3606 27.9493 44.4286V145.57C27.9493 146.638 28.5605 147.612 29.5224 148.076L115.79 189.723C116.172 189.907 116.586 189.999 117 189.999C117.414 189.999 117.827 189.907 118.21 189.723L204.478 148.076C205.439 147.612 206.051 146.638 206.051 145.57V44.429C206.051 43.3606 205.439 42.3869 204.478 41.9223ZM117 5.87349L196.866 44.429L173.714 55.6056C173.568 55.4939 173.413 55.3908 173.243 55.3087L93.9198 17.0156L117 5.87349ZM87.6342 20.1625L167.384 58.6619L151.05 66.5473L71.3335 28.063L87.6342 20.1625ZM153.993 71.3077L169.25 63.9422V93.0902L153.993 100.456V71.3077ZM119.783 182.782V87.8221L139.033 78.5292C140.417 77.8608 140.997 76.1972 140.329 74.8127C139.661 73.4289 137.997 72.8477 136.613 73.5165L117 82.9849L109.283 79.2591C107.898 78.59 106.235 79.1712 105.566 80.5554C104.898 81.9395 105.478 83.6035 106.862 84.2719L114.217 87.8221V182.782L33.5157 143.823V48.8628L94.9689 78.5299C95.3589 78.7184 95.7712 78.8075 96.1768 78.8075C97.2114 78.8075 98.2052 78.2279 98.685 77.2337C99.3533 75.8495 98.7729 74.1855 97.3888 73.5172L37.1343 44.4286L64.7826 31.0811L148.388 71.4428C148.4 71.4599 148.414 71.4751 148.426 71.4918V104.89C148.426 105.848 148.919 106.738 149.73 107.247C150.181 107.53 150.695 107.673 151.21 107.673C151.623 107.673 152.036 107.581 152.42 107.396L173.243 97.3437C174.205 96.8794 174.816 95.9057 174.816 94.8373V61.2551L200.484 48.8636V143.824L119.783 182.782Z" fill="#303841"/>
<path d="M56.4843 133.029L43.8244 126.917C42.4395 126.248 40.7763 126.83 40.1079 128.214C39.4396 129.598 40.02 131.262 41.4042 131.93L54.064 138.042C54.454 138.23 54.8663 138.319 55.2719 138.319C56.3065 138.319 57.3003 137.74 57.7802 136.746C58.4489 135.361 57.8685 133.697 56.4843 133.029Z" fill="#303841"/>
<path d="M68.1356 125.445L43.8419 113.717C42.4573 113.049 40.7937 113.629 40.1254 115.014C39.4574 116.398 40.0378 118.062 41.422 118.73L65.7157 130.458C66.1057 130.646 66.518 130.736 66.9236 130.736C67.9582 130.736 68.952 130.156 69.4318 129.162C70.1001 127.777 69.5197 126.113 68.1356 125.445Z" fill="#303841"/>
</svg>
