<svg width="114" height="128" viewBox="0 0 114 128" fill="none" xmlns="http://www.w3.org/2000/svg">
<path d="M113.51 67.9497C113.388 66.5112 112.462 65.3299 111.094 64.8667L99.9968 61.1086L110.801 48.7136C111.518 47.8908 111.818 46.8028 111.624 45.7288C111.43 44.6548 110.768 43.7405 109.809 43.2205L95.8703 35.6687C94.9596 35.1755 93.822 35.5135 93.3283 36.424C92.835 37.3345 93.1733 38.4725 94.0835 38.9658L107.83 46.4138L96.3171 59.6226L59.9516 39.9193L66.6994 32.178C67.4759 32.463 68.3144 32.6185 69.1884 32.6185C71.9022 32.6185 74.2709 31.1177 75.5117 28.9034L85.9315 34.549C86.2155 34.7027 86.5212 34.7757 86.823 34.7757C87.489 34.7757 88.1338 34.4202 88.4735 33.7935C88.9668 32.883 88.6285 31.745 87.718 31.2517L76.4269 25.1344C76.2997 21.2507 73.1029 18.1299 69.1887 18.1299C65.1941 18.1299 61.9444 21.3797 61.9444 25.3742C61.9444 27.1329 62.5749 28.7467 63.6209 30.003L56.9998 37.599L45.2695 24.1417C44.162 22.8709 42.3537 22.5442 40.871 23.3472L36.2857 25.8314C35.7485 21.5827 32.1142 18.2851 27.7219 18.2851C22.9609 18.2851 19.0874 22.1587 19.0874 26.9199C19.0874 29.5525 20.2731 31.9122 22.1369 33.4972L4.19077 43.2205C3.23126 43.7405 2.56976 44.6545 2.37551 45.7288C2.18175 46.8028 2.48176 47.8908 3.19901 48.7133L14.0026 61.1084L2.90526 64.8662C1.5375 65.3294 0.611746 66.5107 0.489245 67.9492C0.366744 69.3877 1.07925 70.7087 2.34876 71.3965L15.3806 78.457V85.5343C15.3806 86.5698 16.2198 87.4093 17.2556 87.4093C18.2913 87.4093 19.1306 86.5698 19.1306 85.5343V80.4888L37.3627 90.3668C38.1405 90.7883 39.0082 91.0026 39.8792 91.0026C40.4487 91.0026 41.02 90.9108 41.568 90.7253L55.1251 86.135V123.441L19.9296 104.371C19.4369 104.104 19.1309 103.59 19.1309 103.03V94.7906C19.1309 93.7551 18.2916 92.9156 17.2558 92.9156C16.2201 92.9156 15.3808 93.7551 15.3808 94.7906V103.03C15.3808 104.968 16.4391 106.745 18.1431 107.668L54.4868 127.36C55.2738 127.787 56.1371 128 57.0003 128C57.8636 128 58.7268 127.786 59.5138 127.36L95.8576 107.668C97.5613 106.745 98.6198 104.968 98.6198 103.03V78.4567L111.651 71.3962C112.92 70.7092 113.633 69.3884 113.51 67.9497ZM61.1449 53.4441C67.7084 55.2891 72.2924 61.3416 72.2924 68.1629C72.2924 70.0624 71.9512 71.906 71.2767 73.6527L56.9998 81.388L42.723 73.6527C42.0487 71.906 41.7072 70.0624 41.7072 68.1629C41.7072 61.3206 46.3088 55.2629 52.8978 53.4316C53.8953 53.1543 54.4793 52.1206 54.2021 51.1231C53.9251 50.1253 52.8908 49.5416 51.8935 49.8186C43.6882 52.0993 37.9575 59.6426 37.9575 68.1629C37.9575 69.1904 38.0407 70.2047 38.2007 71.2027L21.1916 61.9869L57.0003 42.5853L92.8088 61.9871L75.7997 71.2029C75.9597 70.2049 76.0429 69.1907 76.0429 68.1632C76.0429 59.6689 70.3342 52.1318 62.1601 49.8341C61.1631 49.5536 60.1278 50.1351 59.8478 51.1316C59.5668 52.1286 60.1476 53.1638 61.1449 53.4441ZM69.1884 21.8804C71.1152 21.8804 72.6829 23.4479 72.6829 25.3747C72.6829 27.3014 71.1152 28.8692 69.1884 28.8692C67.2616 28.8692 65.6941 27.3014 65.6941 25.3747C65.6941 23.4479 67.2616 21.8804 69.1884 21.8804ZM27.7219 22.0357C30.4152 22.0357 32.6067 24.2269 32.6067 26.9204C32.6067 29.6137 30.4152 31.8052 27.7219 31.8052C25.0286 31.8052 22.8374 29.614 22.8374 26.9204C22.8374 24.2269 25.0286 22.0357 27.7219 22.0357ZM26.3989 35.4537C26.8304 35.5205 27.2722 35.5552 27.7219 35.5552C31.2164 35.5552 34.2302 33.4675 35.588 30.475L42.5345 26.7114L54.0476 39.9198L17.6821 59.6231L6.16878 46.4143L26.3989 35.4537ZM40.365 87.174C39.964 87.31 39.5205 87.2718 39.149 87.0703L18.1571 75.697C18.1516 75.694 18.1458 75.691 18.1403 75.688L4.48677 68.2904L17.0813 64.0257L52.329 83.1233L40.365 87.174ZM94.869 103.03C94.869 103.591 94.5628 104.105 94.0703 104.372L58.8748 123.442V86.1358L72.4319 90.7261C72.9799 90.9116 73.5512 91.0033 74.1209 91.0033C74.9914 91.0033 75.8594 90.7888 76.6372 90.3676L94.8693 80.4895V103.03H94.869ZM74.8504 87.0703C74.4789 87.2718 74.0354 87.31 73.6344 87.174L61.6706 83.1233L96.9183 64.0257L109.513 68.2904L74.8504 87.0703ZM109.892 68.4187C109.891 68.4187 109.891 68.4184 109.891 68.4184L109.892 68.4187Z" fill="#DCE0EA"/>
<path d="M71.0222 106.172L66.7209 108.503C65.8104 108.996 65.4724 110.134 65.9657 111.044C66.3052 111.671 66.9502 112.027 67.6162 112.027C67.9177 112.027 68.224 111.954 68.5077 111.8L72.809 109.469C73.7195 108.976 74.0575 107.838 73.5642 106.928C73.071 106.017 71.9335 105.679 71.0222 106.172Z" fill="#DCE0EA"/>
<path d="M34.9232 15.7899C35.2895 16.1559 35.7695 16.3392 36.2492 16.3392C36.729 16.3392 37.209 16.1562 37.5752 15.7899L39.122 14.2432L40.6687 15.7899C41.035 16.1559 41.515 16.3392 41.9947 16.3392C42.4745 16.3392 42.9545 16.1562 43.3207 15.7899C44.053 15.0577 44.053 13.8704 43.3207 13.1384L41.7737 11.5914L43.3207 10.0444C44.053 9.31219 44.053 8.12494 43.3207 7.39294C42.5882 6.66069 41.4012 6.66069 40.669 7.39294L39.1222 8.93969L37.5755 7.39294C36.843 6.66069 35.656 6.66069 34.9237 7.39294C34.1915 8.12519 34.1915 9.31244 34.9237 10.0444L36.4707 11.5914L34.9237 13.1384C34.191 13.8704 34.191 15.0577 34.9232 15.7899Z" fill="#DCE0EA"/>
<path d="M90.4339 28.0731C90.8002 28.4391 91.2802 28.6224 91.7599 28.6224C92.2397 28.6224 92.7197 28.4394 93.0859 28.0731L94.6327 26.5264L96.1794 28.0731C96.5457 28.4391 97.0257 28.6224 97.5054 28.6224C97.9852 28.6224 98.4652 28.4394 98.8314 28.0731C99.5637 27.3409 99.5637 26.1536 98.8314 25.4216L97.2844 23.8746L98.8314 22.3276C99.5637 21.5954 99.5637 20.4081 98.8314 19.6761C98.0989 18.9439 96.9119 18.9439 96.1797 19.6761L94.6329 21.2229L93.0862 19.6761C92.3537 18.9439 91.1667 18.9439 90.4344 19.6761C89.7022 20.4084 89.7022 21.5956 90.4344 22.3276L91.9814 23.8746L90.4344 25.4216C89.7017 26.1536 89.7017 27.3409 90.4339 28.0731Z" fill="#DCE0EA"/>
<path d="M80.0822 16.3377C84.5867 16.3377 88.2512 12.6733 88.2512 8.169C88.2509 3.6645 84.5864 0 80.0822 0C75.5779 0 71.9132 3.6645 71.9132 8.169C71.9132 12.6733 75.5777 16.3377 80.0822 16.3377ZM80.0822 3.75C82.5187 3.75 84.5012 5.73225 84.5012 8.169C84.5012 10.6055 82.5187 12.5878 80.0822 12.5878C77.6457 12.5878 75.6632 10.6055 75.6632 8.169C75.6632 5.73225 77.6457 3.75 80.0822 3.75Z" fill="#DCE0EA"/>
<path d="M56.7881 70.1284C54.9816 70.1284 53.2766 70.7274 51.9846 71.8169C51.1931 72.4844 51.0924 73.6674 51.7601 74.4589C52.4274 75.2507 53.6104 75.3512 54.4021 74.6837C55.0096 74.1714 55.8786 73.8782 56.7884 73.8782H56.8009C57.7151 73.8809 58.5874 74.1797 59.1946 74.6979C59.5479 74.9994 59.9806 75.1467 60.4109 75.1467C60.9406 75.1467 61.4671 74.9234 61.8379 74.4889C62.5101 73.7014 62.4166 72.5177 61.6291 71.8454C60.3381 70.7434 58.6271 70.1334 56.8116 70.1279C56.8039 70.1284 56.7959 70.1284 56.7881 70.1284Z" fill="#DCE0EA"/>
<path d="M48.8553 64.5764H48.8378C47.8013 64.5611 46.966 65.4031 46.9585 66.4384C46.9515 67.4739 47.7938 68.3191 48.8293 68.3264H48.8425C49.8718 68.3264 50.71 67.4954 50.7173 66.4644C50.7245 65.4289 49.891 64.5836 48.8553 64.5764Z" fill="#DCE0EA"/>
<path d="M64.7946 68.2877C64.8011 68.2889 64.8079 68.2897 64.8144 68.2909C64.8684 68.3014 64.9231 68.3102 64.9786 68.3159C64.9966 68.3177 65.0149 68.3177 65.0329 68.3189C65.0746 68.3219 65.1164 68.3259 65.1591 68.3262H65.1724C65.2369 68.3262 65.3006 68.3229 65.3636 68.3164C66.3103 68.2217 67.0493 67.4227 67.0493 66.4509C67.0493 65.4919 66.3291 64.7027 65.4004 64.5909C65.3919 64.5899 65.3836 64.5879 65.3751 64.5872C65.3324 64.5827 65.2886 64.5814 65.2449 64.5797C65.2249 64.5789 65.2054 64.5764 65.1851 64.5762H65.1754C65.1751 64.5762 65.1746 64.5762 65.1744 64.5762H65.1676H65.1566C65.1559 64.5762 65.1551 64.5762 65.1544 64.5762C64.1251 64.5762 63.2956 65.4072 63.2884 66.4382C63.2821 67.3489 63.9331 68.1119 64.7946 68.2877Z" fill="#DCE0EA"/>
</svg>
