<svg width="23" height="22" viewBox="0 0 23 22" fill="none" xmlns="http://www.w3.org/2000/svg">
<path d="M11.5 5.49996C14.9742 5.49996 18.0725 7.45246 19.585 10.5416C18.0725 13.6308 14.9742 15.5833 11.5 15.5833C8.02582 15.5833 4.92749 13.6308 3.41499 10.5416C4.92749 7.45246 8.02582 5.49996 11.5 5.49996ZM11.5 3.66663C6.91666 3.66663 3.00249 6.51746 1.41666 10.5416C3.00249 14.5658 6.91666 17.4166 11.5 17.4166C16.0833 17.4166 19.9975 14.5658 21.5833 10.5416C19.9975 6.51746 16.0833 3.66663 11.5 3.66663ZM11.5 8.24996C12.765 8.24996 13.7917 9.27663 13.7917 10.5416C13.7917 11.8066 12.765 12.8333 11.5 12.8333C10.235 12.8333 9.20832 11.8066 9.20832 10.5416C9.20832 9.27663 10.235 8.24996 11.5 8.24996ZM11.5 6.41663C9.22666 6.41663 7.37499 8.26829 7.37499 10.5416C7.37499 12.815 9.22666 14.6666 11.5 14.6666C13.7733 14.6666 15.625 12.815 15.625 10.5416C15.625 8.26829 13.7733 6.41663 11.5 6.41663Z" fill="#868A96"/>
</svg>

