<svg width="64" height="64" viewBox="0 0 64 64" fill="none" xmlns="http://www.w3.org/2000/svg">
<path d="M40 61H4V29H22V45H40V61Z" fill="#D04949"/>
<path d="M28 45H34V51H28V45Z" fill="#F74D4D"/>
<path d="M40 46H38.5C38.1022 46 37.7206 46.158 37.4393 46.4393C37.158 46.7206 37 47.1022 37 47.5V50.0381C36.9998 52.1497 36.1609 54.1747 34.6678 55.6678C33.1747 57.1609 31.1497 57.9998 29.0381 58H24.5C24.1022 58 23.7206 58.158 23.4393 58.4393C23.158 58.7206 23 59.1022 23 59.5V61H40V46Z" fill="#92311C"/>
<path d="M10 45H16V51H10V45Z" fill="#F74D4D"/>
<path d="M22 46H20.5C20.1022 46 19.7206 46.158 19.4393 46.4393C19.158 46.7206 19 47.1022 19 47.5V50.0381C18.9998 52.1497 18.1609 54.1747 16.6678 55.6678C15.1747 57.1609 13.1497 57.9998 11.0381 58H6.5C6.10218 58 5.72064 58.158 5.43934 58.4393C5.15804 58.7206 5 59.1022 5 59.5V61H22V46Z" fill="#92311C"/>
<path d="M10 29H16V35H10V29Z" fill="#F74D4D"/>
<path d="M22 30H20.5C20.1022 30 19.7206 30.158 19.4393 30.4393C19.158 30.7206 19 31.1022 19 31.5V34.0381C18.9998 36.1497 18.1609 38.1747 16.6678 39.6678C15.1747 41.1609 13.1497 41.9998 11.0381 42H6.5C6.10218 42 5.72064 42.158 5.43934 42.4393C5.15804 42.7206 5 43.1022 5 43.5V45H22V30Z" fill="#92311C"/>
<path d="M40 44H23V29C23 28.7348 22.8946 28.4804 22.7071 28.2929C22.5196 28.1054 22.2652 28 22 28H4C3.73478 28 3.48043 28.1054 3.29289 28.2929C3.10536 28.4804 3 28.7348 3 29V61C3 61.2652 3.10536 61.5196 3.29289 61.7071C3.48043 61.8946 3.73478 62 4 62H40C40.2652 62 40.5196 61.8946 40.7071 61.7071C40.8946 61.5196 41 61.2652 41 61V45C41 44.7348 40.8946 44.4804 40.7071 44.2929C40.5196 44.1054 40.2652 44 40 44ZM29 46H33V50H29V46ZM11 30H15V34H11V30ZM5 30H9V35C9 35.2652 9.10536 35.5196 9.29289 35.7071C9.48043 35.8946 9.73478 36 10 36H16C16.2652 36 16.5196 35.8946 16.7071 35.7071C16.8946 35.5196 17 35.2652 17 35V30H21V44H5V30ZM11 46H15V50H11V46ZM5 46H9V51C9 51.2652 9.10536 51.5196 9.29289 51.7071C9.48043 51.8946 9.73478 52 10 52H16C16.2652 52 16.5196 51.8946 16.7071 51.7071C16.8946 51.5196 17 51.2652 17 51V46H21V60H5V46ZM39 60H23V46H27V51C27 51.2652 27.1054 51.5196 27.2929 51.7071C27.4804 51.8946 27.7348 52 28 52H34C34.2652 52 34.5196 51.8946 34.7071 51.7071C34.8946 51.5196 35 51.2652 35 51V46H39V60Z" fill="#303841"/>
<g clip-path="url(#clip0)">
<path d="M34.5 22.9997C34.5 19.0305 37.5953 15.7741 41.5 15.5161V18.9997V20.2068L42.3536 19.3532L47.6869 14.0199L48.0405 13.6663L47.6869 13.3128L42.3536 7.97945L41.5 7.1259V8.33301V11.844C35.5628 12.1053 30.8334 16.9978 30.8334 22.9997C30.8334 25.1922 31.476 27.2311 32.5645 28.9474L32.8988 29.4747L33.3403 29.0332L35.2869 27.0866L35.5508 26.8227L35.3729 26.4947C34.8129 25.4618 34.5 24.2637 34.5 22.9997ZM51.4356 17.0519L51.1013 16.5247L50.6598 16.9661L48.7132 18.9128L48.4532 19.1727L48.6238 19.4983C49.176 20.5526 49.5 21.7401 49.5 22.9997C49.5 26.9689 46.4048 30.2253 42.5 30.4832V26.9997V25.7926L41.6465 26.6461L36.3132 31.9795L35.9596 32.333L36.3132 32.6866L41.6465 38.0199L42.5 38.8734V37.6663V34.1554C48.4373 33.894 53.1667 29.0016 53.1667 22.9997C53.1667 20.8072 52.524 18.7682 51.4356 17.0519Z" fill="#04CA00" stroke="#303841"/>
</g>
<path d="M35 56H37V58H35V56Z" fill="#303841"/>
<path d="M17 56H19V58H17V56Z" fill="#303841"/>
<path d="M17 40H19V42H17V40Z" fill="#303841"/>
<defs>
<clipPath id="clip0">
<rect width="32" height="32" fill="white" transform="translate(26 7)"/>
</clipPath>
</defs>
</svg>
