<svg width="20" height="20" viewBox="0 0 20 20" fill="none" xmlns="http://www.w3.org/2000/svg">
<path d="M9.99984 1.6665C5.39984 1.6665 1.6665 5.39984 1.6665 9.99984C1.6665 14.5998 5.39984 18.3332 9.99984 18.3332C14.5998 18.3332 18.3332 14.5998 18.3332 9.99984C18.3332 5.39984 14.5998 1.6665 9.99984 1.6665ZM9.99984 16.6665C6.32484 16.6665 3.33317 13.6748 3.33317 9.99984C3.33317 6.32484 6.32484 3.33317 9.99984 3.33317C13.6748 3.33317 16.6665 6.32484 16.6665 9.99984C16.6665 13.6748 13.6748 16.6665 9.99984 16.6665Z" fill="#969DAF"/>
<path d="M6.66667 13.3333C7.58714 13.3333 8.33333 12.5871 8.33333 11.6667C8.33333 10.7462 7.58714 10 6.66667 10C5.74619 10 5 10.7462 5 11.6667C5 12.5871 5.74619 13.3333 6.66667 13.3333Z" fill="#969DAF"/>
<path d="M10.0002 8.33333C10.9206 8.33333 11.6668 7.58714 11.6668 6.66667C11.6668 5.74619 10.9206 5 10.0002 5C9.07969 5 8.3335 5.74619 8.3335 6.66667C8.3335 7.58714 9.07969 8.33333 10.0002 8.33333Z" fill="#969DAF"/>
<path d="M13.3332 13.3333C14.2536 13.3333 14.9998 12.5871 14.9998 11.6667C14.9998 10.7462 14.2536 10 13.3332 10C12.4127 10 11.6665 10.7462 11.6665 11.6667C11.6665 12.5871 12.4127 13.3333 13.3332 13.3333Z" fill="#969DAF"/>
</svg>
