<svg width="15" height="21" viewBox="0 0 15 21" fill="none" xmlns="http://www.w3.org/2000/svg">
<path d="M13.0001 7.33366H12.0834V5.50033C12.0834 2.97033 10.0301 0.916992 7.50008 0.916992C4.97008 0.916992 2.91675 2.97033 2.91675 5.50033H4.75008C4.75008 3.97866 5.97841 2.75033 7.50008 2.75033C9.02175 2.75033 10.2501 3.97866 10.2501 5.50033V7.33366H2.00008C0.991748 7.33366 0.166748 8.15866 0.166748 9.16699V18.3337C0.166748 19.342 0.991748 20.167 2.00008 20.167H13.0001C14.0084 20.167 14.8334 19.342 14.8334 18.3337V9.16699C14.8334 8.15866 14.0084 7.33366 13.0001 7.33366ZM13.0001 18.3337H2.00008V9.16699H13.0001V18.3337ZM7.50008 15.5837C8.50841 15.5837 9.33341 14.7587 9.33341 13.7503C9.33341 12.742 8.50841 11.917 7.50008 11.917C6.49175 11.917 5.66675 12.742 5.66675 13.7503C5.66675 14.7587 6.49175 15.5837 7.50008 15.5837Z" fill="#868A96"/>
</svg>
