<svg width="140" height="42" viewBox="0 0 140 42" fill="none" xmlns="http://www.w3.org/2000/svg">
<path d="M35.1515 1.81836H7.27273L1.21212 8.48503V38.7881H39.3939V8.48503L35.1515 1.81836Z" fill="white"/>
<path fill-rule="evenodd" clip-rule="evenodd" d="M41.1889 8.90182C41.1812 8.81424 41.1632 8.73182 41.1374 8.64682C41.1117 8.56182 41.0808 8.48455 41.0395 8.40727C41.0317 8.39265 41.0267 8.37654 41.0218 8.36026C41.0153 8.33926 41.0088 8.31795 40.9958 8.29909L35.8442 0.571818C35.6047 0.216364 35.2029 0 34.7727 0H6.43939C6.00924 0 5.60742 0.216364 5.36788 0.574394L0.216364 8.30167C0.20298 8.321 0.196464 8.34205 0.189878 8.36333C0.185056 8.37891 0.180196 8.39461 0.172576 8.40985C0.131364 8.48712 0.100455 8.56439 0.074697 8.64939C0.0489394 8.7344 0.0309091 8.81682 0.0231818 8.90439C0.0211123 8.91888 0.0169642 8.93295 0.0127417 8.94727L0.0127411 8.94728C0.00645306 8.96861 0 8.9905 0 9.01515V38.6364C0 40.0582 1.15652 41.2121 2.57576 41.2121H38.6364C40.0556 41.2121 41.2121 40.0582 41.2121 38.6364V9.01515C41.2121 8.99104 41.206 8.96957 41.1998 8.94816C41.1954 8.93299 41.1911 8.91785 41.1889 8.90182ZM19.1198 2.57576H24.7015H34.0824L37.5185 7.72727H25.5618H18.2621H3.69364L7.1297 2.57576H19.1198ZM11.3204 29.6761C10.3373 30.6592 8.96689 35.1577 8.81794 35.6641C8.75836 35.9024 8.87752 36.1706 9.14564 36.2301C9.16053 36.2301 9.18288 36.2376 9.20522 36.245L9.20527 36.245C9.22759 36.2525 9.24992 36.2599 9.2648 36.2599C9.29459 36.2599 9.35418 36.2599 9.38397 36.2301C9.89041 36.0812 14.3888 34.7108 15.3719 33.7277C16.504 32.5956 16.504 30.7784 15.3719 29.6761C14.2697 28.5739 12.4524 28.5739 11.3204 29.6761ZM31.7868 12.7555C32.0549 12.8449 32.2635 13.0236 32.323 13.2917C32.5614 14.4834 32.6507 15.675 32.6209 16.8666C32.6209 21.3055 30.2377 23.9867 27.0798 25.9827V30.5407C27.05 31.3153 26.633 32.0005 25.9478 32.3877L21.6877 34.5327C21.5387 34.5923 21.3897 34.6221 21.2408 34.6221C20.645 34.6221 20.1981 34.1454 20.1981 33.5794V29.0809L19.215 30.064C18.649 30.6003 17.785 30.6003 17.2488 30.064L15.0443 27.8595C14.508 27.2935 14.508 26.4295 15.0443 25.8933L15.9976 24.94H11.4992C10.9331 24.94 10.4565 24.4633 10.4565 23.8973C10.4863 23.7186 10.5161 23.5696 10.5756 23.4207L12.7206 19.1308C13.1079 18.4754 13.7931 18.0285 14.5676 17.9987H19.0661C21.062 14.8409 23.7432 12.4576 28.2119 12.4576C29.4035 12.4278 30.6249 12.5172 31.7868 12.7555ZM25.3519 17.9987C25.3519 18.952 26.1265 19.7266 27.0798 19.7266C28.0331 19.7266 28.8077 18.952 28.8077 17.9987C28.8077 17.0454 28.0331 16.2708 27.0798 16.2708C26.1265 16.2708 25.3519 17.0454 25.3519 17.9987Z" fill="#D72323"/>
<path d="M62.8138 14.9165C63.8369 15.1346 64.6588 15.6461 65.2794 16.4512C65.9 17.2395 66.2103 18.1453 66.2103 19.1684C66.2103 20.6444 65.6903 21.8185 64.6504 22.6907C63.6273 23.5461 62.1932 23.9738 60.3482 23.9738H52.1212V6.31214H60.0715C61.8661 6.31214 63.2667 6.72307 64.273 7.54493C65.2962 8.36679 65.8077 9.48217 65.8077 10.8911C65.8077 11.931 65.531 12.7948 64.9775 13.4825C64.4407 14.1701 63.7195 14.6482 62.8138 14.9165ZM56.4234 13.4573H59.2412C59.9457 13.4573 60.4824 13.3063 60.8514 13.0044C61.2372 12.6858 61.43 12.2245 61.43 11.6207C61.43 11.0169 61.2372 10.5556 60.8514 10.2369C60.4824 9.91826 59.9457 9.75892 59.2412 9.75892H56.4234V13.4573ZM59.5934 20.5018C60.3147 20.5018 60.8682 20.3425 61.2539 20.0238C61.6565 19.6883 61.8578 19.2103 61.8578 18.5897C61.8578 17.9691 61.6481 17.4827 61.2288 17.1305C60.8262 16.7783 60.2643 16.6022 59.5431 16.6022H56.4234V20.5018H59.5934Z" fill="white"/>
<path d="M76.6169 24.1499C74.9564 24.1499 73.4301 23.7641 72.038 22.9926C70.6626 22.221 69.564 21.1476 68.7422 19.7722C67.9371 18.3801 67.5345 16.8202 67.5345 15.0926C67.5345 13.365 67.9371 11.8136 68.7422 10.4382C69.564 9.06286 70.6626 7.98941 72.038 7.21786C73.4301 6.44632 74.9564 6.06055 76.6169 6.06055C78.2774 6.06055 79.7954 6.44632 81.1707 7.21786C82.5628 7.98941 83.6531 9.06286 84.4414 10.4382C85.2465 11.8136 85.649 13.365 85.649 15.0926C85.649 16.8202 85.2465 18.3801 84.4414 19.7722C83.6363 21.1476 82.5461 22.221 81.1707 22.9926C79.7954 23.7641 78.2774 24.1499 76.6169 24.1499ZM76.6169 20.2251C78.0258 20.2251 79.1496 19.7554 79.9882 18.8162C80.8436 17.8769 81.2714 16.6357 81.2714 15.0926C81.2714 13.5328 80.8436 12.2916 79.9882 11.3691C79.1496 10.4298 78.0258 9.96019 76.6169 9.96019C75.1913 9.96019 74.0507 10.4214 73.1953 11.3439C72.3567 12.2664 71.9374 13.516 71.9374 15.0926C71.9374 16.6525 72.3567 17.9021 73.1953 18.8413C74.0507 19.7638 75.1913 20.2251 76.6169 20.2251Z" fill="white"/>
<path d="M97.3214 23.9738L93.7237 18.5646L90.5536 23.9738H85.6728L91.3336 14.992L85.547 6.31214H90.5536L94.1011 11.6458L97.2208 6.31214H102.102L96.4912 15.2184L102.328 23.9738H97.3214Z" fill="white"/>
<path d="M114.446 11.8974C114.128 11.3104 113.666 10.8659 113.063 10.564C112.476 10.2453 111.78 10.086 110.974 10.086C109.582 10.086 108.467 10.5472 107.628 11.4697C106.79 12.3755 106.37 13.5915 106.37 15.1178C106.37 16.7447 106.806 18.0195 107.679 18.942C108.568 19.8477 109.784 20.3005 111.327 20.3005C112.383 20.3005 113.272 20.0322 113.994 19.4955C114.732 18.9587 115.268 18.1872 115.604 17.1808H110.144V14.0108H119.503V18.0111C119.185 19.0845 118.64 20.0825 117.868 21.005C117.113 21.9275 116.149 22.6739 114.975 23.2442C113.801 23.8144 112.476 24.0996 111 24.0996C109.255 24.0996 107.695 23.7222 106.32 22.9674C104.961 22.1959 103.896 21.1308 103.125 19.7722C102.37 18.4136 101.993 16.8622 101.993 15.1178C101.993 13.3734 102.37 11.822 103.125 10.4634C103.896 9.08802 104.961 8.02295 106.32 7.26818C107.679 6.49664 109.23 6.11086 110.974 6.11086C113.088 6.11086 114.866 6.62243 116.308 7.64556C117.767 8.6687 118.732 10.086 119.201 11.8974H114.446Z" fill="white"/>
<path d="M130.008 24.1499C128.347 24.1499 126.821 23.7641 125.429 22.9926C124.053 22.221 122.955 21.1476 122.133 19.7722C121.328 18.3801 120.925 16.8202 120.925 15.0926C120.925 13.365 121.328 11.8136 122.133 10.4382C122.955 9.06286 124.053 7.98941 125.429 7.21786C126.821 6.44632 128.347 6.06055 130.008 6.06055C131.668 6.06055 133.186 6.44632 134.561 7.21786C135.954 7.98941 137.044 9.06286 137.832 10.4382C138.637 11.8136 139.04 13.365 139.04 15.0926C139.04 16.8202 138.637 18.3801 137.832 19.7722C137.027 21.1476 135.937 22.221 134.561 22.9926C133.186 23.7641 131.668 24.1499 130.008 24.1499ZM130.008 20.2251C131.417 20.2251 132.54 19.7554 133.379 18.8162C134.234 17.8769 134.662 16.6357 134.662 15.0926C134.662 13.5328 134.234 12.2916 133.379 11.3691C132.54 10.4298 131.417 9.96019 130.008 9.96019C128.582 9.96019 127.441 10.4214 126.586 11.3439C125.747 12.2664 125.328 13.516 125.328 15.0926C125.328 16.6525 125.747 17.9021 126.586 18.8413C127.441 19.7638 128.582 20.2251 130.008 20.2251Z" fill="white"/>
<path d="M57.9132 33.2703C57.7463 32.9641 57.5167 32.7311 57.2245 32.571C56.9322 32.411 56.5913 32.331 56.2017 32.331C55.7704 32.331 55.3877 32.4284 55.0537 32.6232C54.7198 32.818 54.4589 33.0963 54.271 33.4581C54.0832 33.8199 53.9892 34.2373 53.9892 34.7104C53.9892 35.1975 54.0832 35.6219 54.271 35.9837C54.4658 36.3454 54.7337 36.6237 55.0746 36.8185C55.4155 37.0134 55.8121 37.1108 56.2643 37.1108C56.8209 37.1108 57.2766 36.9647 57.6315 36.6724C57.9863 36.3733 58.2194 35.9593 58.3307 35.4305H55.826V34.3139H59.7709V35.5871C59.6735 36.095 59.4648 36.5646 59.1447 36.996C58.8247 37.4273 58.4107 37.7752 57.9028 38.0396C57.4019 38.297 56.8383 38.4257 56.2121 38.4257C55.5094 38.4257 54.8728 38.2692 54.3023 37.9561C53.7388 37.636 53.2935 37.1942 52.9665 36.6307C52.6465 36.0671 52.4864 35.4271 52.4864 34.7104C52.4864 33.9938 52.6465 33.3537 52.9665 32.7902C53.2935 32.2197 53.7388 31.7779 54.3023 31.4648C54.8728 31.1448 55.506 30.9847 56.2017 30.9847C57.0227 30.9847 57.7358 31.1865 58.3411 31.59C58.9464 31.9866 59.3639 32.5467 59.5935 33.2703H57.9132Z" fill="white"/>
<path d="M63.4191 38.457C62.8625 38.457 62.3616 38.3353 61.9163 38.0918C61.471 37.8413 61.1197 37.4899 60.8623 37.0377C60.6118 36.5855 60.4866 36.0637 60.4866 35.4723C60.4866 34.8809 60.6153 34.3591 60.8727 33.9069C61.1371 33.4546 61.4954 33.1068 61.9476 32.8632C62.3999 32.6128 62.9043 32.4875 63.4609 32.4875C64.0175 32.4875 64.5219 32.6128 64.9741 32.8632C65.4263 33.1068 65.7812 33.4546 66.0386 33.9069C66.303 34.3591 66.4352 34.8809 66.4352 35.4723C66.4352 36.0637 66.2995 36.5855 66.0282 37.0377C65.7638 37.4899 65.402 37.8413 64.9428 38.0918C64.4906 38.3353 63.9827 38.457 63.4191 38.457ZM63.4191 37.1838C63.6835 37.1838 63.9305 37.1212 64.1601 36.996C64.3966 36.8638 64.5845 36.669 64.7236 36.4115C64.8628 36.1541 64.9324 35.841 64.9324 35.4723C64.9324 34.9226 64.7863 34.5017 64.4941 34.2095C64.2088 33.9103 63.8574 33.7608 63.44 33.7608C63.0226 33.7608 62.6712 33.9103 62.3859 34.2095C62.1077 34.5017 61.9685 34.9226 61.9685 35.4723C61.9685 36.0219 62.1042 36.4463 62.3755 36.7455C62.6538 37.0377 63.0017 37.1838 63.4191 37.1838Z" fill="white"/>
<path d="M74.1264 34.627C74.5369 34.7035 74.8743 34.9087 75.1387 35.2427C75.4031 35.5766 75.5353 35.9593 75.5353 36.3907C75.5353 36.7803 75.4379 37.1247 75.243 37.4238C75.0552 37.7161 74.7804 37.9457 74.4186 38.1126C74.0568 38.2796 73.6289 38.3631 73.1349 38.3631H69.9937V31.0787H72.9993C73.4933 31.0787 73.9177 31.1587 74.2725 31.3187C74.6343 31.4787 74.9056 31.7014 75.0865 31.9866C75.2744 32.2719 75.3683 32.5954 75.3683 32.9572C75.3683 33.3816 75.2535 33.7364 75.0239 34.0217C74.8012 34.3069 74.5021 34.5087 74.1264 34.627ZM71.4547 34.0843H72.7906C73.1384 34.0843 73.4063 34.0077 73.5941 33.8547C73.782 33.6947 73.8759 33.4685 73.8759 33.1763C73.8759 32.8841 73.782 32.658 73.5941 32.498C73.4063 32.338 73.1384 32.2579 72.7906 32.2579H71.4547V34.0843ZM72.9262 37.1734C73.281 37.1734 73.5559 37.0899 73.7507 36.9229C73.9524 36.7559 74.0533 36.5194 74.0533 36.2132C74.0533 35.9002 73.949 35.6567 73.7402 35.4827C73.5315 35.3018 73.2497 35.2114 72.8949 35.2114H71.4547V37.1734H72.9262Z" fill="white"/>
<path d="M77.4407 31.8927C77.1832 31.8927 76.9676 31.8127 76.7936 31.6527C76.6267 31.4857 76.5432 31.2804 76.5432 31.0369C76.5432 30.7934 76.6267 30.5916 76.7936 30.4316C76.9676 30.2646 77.1832 30.1812 77.4407 30.1812C77.6981 30.1812 77.9103 30.2646 78.0773 30.4316C78.2512 30.5916 78.3382 30.7934 78.3382 31.0369C78.3382 31.2804 78.2512 31.4857 78.0773 31.6527C77.9103 31.8127 77.6981 31.8927 77.4407 31.8927ZM78.1608 32.5815V38.3631H76.6997V32.5815H78.1608Z" fill="white"/>
<path d="M81.8689 32.4875C82.3003 32.4875 82.6795 32.5745 83.0065 32.7484C83.3335 32.9154 83.5909 33.1346 83.7788 33.4059V32.5815H85.2503V38.4048C85.2503 38.9406 85.1424 39.4171 84.9267 39.8346C84.7111 40.259 84.3875 40.593 83.9562 40.8365C83.5248 41.0869 83.003 41.2122 82.3908 41.2122C81.5698 41.2122 80.8949 41.0208 80.3661 40.6382C79.8443 40.2555 79.5486 39.7337 79.4791 39.0728H80.9297C81.0062 39.3371 81.1697 39.5459 81.4202 39.6989C81.6776 39.8589 81.9872 39.939 82.349 39.939C82.7734 39.939 83.1178 39.8102 83.3822 39.5528C83.6466 39.3024 83.7788 38.9197 83.7788 38.4048V37.5073C83.5909 37.7787 83.33 38.0048 82.996 38.1857C82.669 38.3666 82.2933 38.457 81.8689 38.457C81.3819 38.457 80.9366 38.3318 80.5331 38.0813C80.1296 37.8309 79.8095 37.4795 79.573 37.0273C79.3434 36.5681 79.2286 36.0428 79.2286 35.4514C79.2286 34.867 79.3434 34.3487 79.573 33.8964C79.8095 33.4442 80.1261 33.0963 80.5227 32.8528C80.9262 32.6093 81.375 32.4875 81.8689 32.4875ZM83.7788 35.4723C83.7788 35.1175 83.7092 34.8148 83.57 34.5643C83.4309 34.3069 83.243 34.1121 83.0065 33.9799C82.7699 33.8408 82.516 33.7712 82.2446 33.7712C81.9733 33.7712 81.7228 33.8373 81.4932 33.9695C81.2636 34.1017 81.0758 34.2965 80.9297 34.5539C80.7905 34.8044 80.721 35.1035 80.721 35.4514C80.721 35.7993 80.7905 36.1054 80.9297 36.3698C81.0758 36.6272 81.2636 36.8255 81.4932 36.9647C81.7298 37.1038 81.9803 37.1734 82.2446 37.1734C82.516 37.1734 82.7699 37.1073 83.0065 36.9751C83.243 36.8359 83.4309 36.6411 83.57 36.3907C83.7092 36.1332 83.7788 35.8271 83.7788 35.4723Z" fill="white"/>
<path d="M94.1212 31.0787V32.2579H92.18V38.3631H90.719V32.2579H88.7778V31.0787H94.1212Z" fill="white"/>
<path d="M97.7545 38.457C97.1979 38.457 96.697 38.3353 96.2517 38.0918C95.8064 37.8413 95.455 37.4899 95.1976 37.0377C94.9472 36.5855 94.8219 36.0637 94.8219 35.4723C94.8219 34.8809 94.9506 34.3591 95.2081 33.9069C95.4724 33.4546 95.8307 33.1068 96.283 32.8632C96.7352 32.6128 97.2396 32.4875 97.7962 32.4875C98.3528 32.4875 98.8572 32.6128 99.3095 32.8632C99.7617 33.1068 100.117 33.4546 100.374 33.9069C100.638 34.3591 100.771 34.8809 100.771 35.4723C100.771 36.0637 100.635 36.5855 100.364 37.0377C100.099 37.4899 99.7374 37.8413 99.2782 38.0918C98.8259 38.3353 98.318 38.457 97.7545 38.457ZM97.7545 37.1838C98.0189 37.1838 98.2659 37.1212 98.4954 36.996C98.732 36.8638 98.9198 36.669 99.059 36.4115C99.1981 36.1541 99.2677 35.841 99.2677 35.4723C99.2677 34.9226 99.1216 34.5017 98.8294 34.2095C98.5442 33.9103 98.1928 33.7608 97.7754 33.7608C97.3579 33.7608 97.0066 33.9103 96.7213 34.2095C96.443 34.5017 96.3039 34.9226 96.3039 35.4723C96.3039 36.0219 96.4395 36.4463 96.7109 36.7455C96.9892 37.0377 97.337 37.1838 97.7545 37.1838Z" fill="white"/>
<path d="M104.107 32.4875C104.538 32.4875 104.917 32.5745 105.244 32.7484C105.571 32.9154 105.829 33.1346 106.017 33.4059V32.5815H107.488V38.4048C107.488 38.9406 107.38 39.4171 107.165 39.8346C106.949 40.259 106.626 40.593 106.194 40.8365C105.763 41.0869 105.241 41.2122 104.629 41.2122C103.808 41.2122 103.133 41.0208 102.604 40.6382C102.082 40.2555 101.787 39.7337 101.717 39.0728H103.168C103.244 39.3371 103.408 39.5459 103.658 39.6989C103.916 39.8589 104.225 39.939 104.587 39.939C105.011 39.939 105.356 39.8102 105.62 39.5528C105.885 39.3024 106.017 38.9197 106.017 38.4048V37.5073C105.829 37.7787 105.568 38.0048 105.234 38.1857C104.907 38.3666 104.531 38.457 104.107 38.457C103.62 38.457 103.175 38.3318 102.771 38.0813C102.368 37.8309 102.048 37.4795 101.811 37.0273C101.581 36.5681 101.467 36.0428 101.467 35.4514C101.467 34.867 101.581 34.3487 101.811 33.8964C102.048 33.4442 102.364 33.0963 102.761 32.8528C103.164 32.6093 103.613 32.4875 104.107 32.4875ZM106.017 35.4723C106.017 35.1175 105.947 34.8148 105.808 34.5643C105.669 34.3069 105.481 34.1121 105.244 33.9799C105.008 33.8408 104.754 33.7712 104.483 33.7712C104.211 33.7712 103.961 33.8373 103.731 33.9695C103.502 34.1017 103.314 34.2965 103.168 34.5539C103.029 34.8044 102.959 35.1035 102.959 35.4514C102.959 35.7993 103.029 36.1054 103.168 36.3698C103.314 36.6272 103.502 36.8255 103.731 36.9647C103.968 37.1038 104.218 37.1734 104.483 37.1734C104.754 37.1734 105.008 37.1073 105.244 36.9751C105.481 36.8359 105.669 36.6411 105.808 36.3907C105.947 36.1332 106.017 35.8271 106.017 35.4723Z" fill="white"/>
<path d="M114.29 35.347C114.29 35.5558 114.276 35.7436 114.248 35.9106H110.021C110.056 36.328 110.202 36.655 110.46 36.8916C110.717 37.1282 111.034 37.2464 111.409 37.2464C111.952 37.2464 112.338 37.0134 112.568 36.5472H114.144C113.977 37.1038 113.657 37.563 113.184 37.9248C112.71 38.2796 112.13 38.457 111.441 38.457C110.884 38.457 110.383 38.3353 109.938 38.0918C109.5 37.8413 109.155 37.4899 108.905 37.0377C108.661 36.5855 108.54 36.0637 108.54 35.4723C108.54 34.8739 108.661 34.3487 108.905 33.8964C109.148 33.4442 109.489 33.0963 109.928 32.8528C110.366 32.6093 110.87 32.4875 111.441 32.4875C111.99 32.4875 112.481 32.6058 112.912 32.8424C113.351 33.0789 113.688 33.4164 113.925 33.8547C114.168 34.286 114.29 34.7835 114.29 35.347ZM112.777 34.9296C112.77 34.5539 112.634 34.2547 112.37 34.0321C112.105 33.8025 111.782 33.6877 111.399 33.6877C111.037 33.6877 110.731 33.799 110.481 34.0217C110.237 34.2373 110.088 34.54 110.032 34.9296H112.777Z" fill="white"/>
<path d="M117.057 33.7816V36.5785C117.057 36.7733 117.103 36.916 117.193 37.0064C117.29 37.0899 117.45 37.1316 117.673 37.1316H118.351V38.3631H117.433C116.202 38.3631 115.586 37.7648 115.586 36.5681V33.7816H114.897V32.5815H115.586V31.1517H117.057V32.5815H118.351V33.7816H117.057Z" fill="white"/>
<path d="M122.658 32.498C123.097 32.498 123.486 32.5954 123.827 32.7902C124.168 32.978 124.433 33.2598 124.62 33.6355C124.815 34.0043 124.913 34.4495 124.913 34.9713V38.3631H123.452V35.1696C123.452 34.7104 123.337 34.3591 123.107 34.1156C122.878 33.8651 122.564 33.7399 122.168 33.7399C121.764 33.7399 121.444 33.8651 121.208 34.1156C120.978 34.3591 120.863 34.7104 120.863 35.1696V38.3631H119.402V30.6403H120.863V33.3016C121.051 33.0511 121.302 32.8563 121.615 32.7171C121.928 32.571 122.276 32.498 122.658 32.498Z" fill="white"/>
<path d="M131.677 35.347C131.677 35.5558 131.663 35.7436 131.635 35.9106H127.408C127.443 36.328 127.589 36.655 127.847 36.8916C128.104 37.1282 128.421 37.2464 128.796 37.2464C129.339 37.2464 129.725 37.0134 129.955 36.5472H131.531C131.364 37.1038 131.043 37.563 130.57 37.9248C130.097 38.2796 129.516 38.457 128.828 38.457C128.271 38.457 127.77 38.3353 127.325 38.0918C126.886 37.8413 126.542 37.4899 126.292 37.0377C126.048 36.5855 125.926 36.0637 125.926 35.4723C125.926 34.8739 126.048 34.3487 126.292 33.8964C126.535 33.4442 126.876 33.0963 127.314 32.8528C127.753 32.6093 128.257 32.4875 128.828 32.4875C129.377 32.4875 129.868 32.6058 130.299 32.8424C130.737 33.0789 131.075 33.4164 131.311 33.8547C131.555 34.286 131.677 34.7835 131.677 35.347ZM130.163 34.9296C130.156 34.5539 130.021 34.2547 129.756 34.0321C129.492 33.8025 129.168 33.6877 128.786 33.6877C128.424 33.6877 128.118 33.799 127.867 34.0217C127.624 34.2373 127.474 34.54 127.419 34.9296H130.163Z" fill="white"/>
<path d="M134.204 33.479C134.392 33.1728 134.635 32.9328 134.935 32.7589C135.241 32.5849 135.589 32.498 135.978 32.498V34.0321H135.592C135.133 34.0321 134.785 34.1399 134.549 34.3556C134.319 34.5713 134.204 34.947 134.204 35.4827V38.3631H132.743V32.5815H134.204V33.479Z" fill="white"/>
</svg>
