<svg width="58" height="60" viewBox="0 0 58 60" fill="none" xmlns="http://www.w3.org/2000/svg">
<path d="M46 5H18C16.3431 5 15 6.34315 15 8V49C15 50.6569 16.3431 52 18 52H46C47.6569 52 49 50.6569 49 49V8C49 6.34315 47.6569 5 46 5Z" fill="#04CA00"/>
<path d="M19 9H45V48H19V9Z" fill="#E3E4E2"/>
<path d="M39 9H25V5H29L28 1H36L35 5H39V9Z" fill="#38ED34"/>
<path d="M37 59H1V27H19V43H37V59Z" fill="#D04949"/>
<path d="M25 43H31V49H25V43Z" fill="#F74D4D"/>
<path d="M37 44H35.5C35.1022 44 34.7206 44.158 34.4393 44.4393C34.158 44.7206 34 45.1022 34 45.5V48.0381C33.9998 50.1497 33.1609 52.1747 31.6678 53.6678C30.1747 55.1609 28.1497 55.9998 26.0381 56H21.5C21.1022 56 20.7206 56.158 20.4393 56.4393C20.158 56.7206 20 57.1022 20 57.5V59H37V44Z" fill="#92311C"/>
<path d="M7 43H13V49H7V43Z" fill="#F74D4D"/>
<path d="M19 44H17.5C17.1022 44 16.7206 44.158 16.4393 44.4393C16.158 44.7206 16 45.1022 16 45.5V48.0381C15.9998 50.1497 15.1609 52.1747 13.6678 53.6678C12.1747 55.1609 10.1497 55.9998 8.03813 56H3.5C3.10218 56 2.72064 56.158 2.43934 56.4393C2.15804 56.7206 2 57.1022 2 57.5V59H19V44Z" fill="#92311C"/>
<path d="M7 27H13V33H7V27Z" fill="#F74D4D"/>
<path d="M19 28H17.5C17.1022 28 16.7206 28.158 16.4393 28.4393C16.158 28.7206 16 29.1022 16 29.5V32.0381C15.9998 34.1497 15.1609 36.1747 13.6678 37.6678C12.1747 39.1609 10.1497 39.9998 8.03813 40H3.5C3.10218 40 2.72064 40.158 2.43934 40.4393C2.15804 40.7206 2 41.1022 2 41.5V43H19V28Z" fill="#92311C"/>
<path d="M55.2305 30.7431L28.4055 38.7691L24 37.9996L27.2589 34.9371L54.0839 26.9111C54.592 26.759 55.1398 26.8151 55.6067 27.0669C56.0735 27.3187 56.4212 27.7457 56.5732 28.2538C56.7253 28.762 56.6692 29.3097 56.4174 29.7765C56.1656 30.2434 55.7386 30.591 55.2305 30.7431Z" fill="#E3E4E2"/>
<path d="M57.5313 27.9672C57.3032 27.205 56.7817 26.5646 56.0815 26.1868C55.3813 25.8091 54.5597 25.725 53.7974 25.953L26.9724 33.9789C26.8237 34.0234 26.6874 34.102 26.5743 34.2082L23.3153 37.2707C23.1799 37.3979 23.0827 37.5602 23.0344 37.7395C22.9861 37.9189 22.9887 38.1081 23.0419 38.286C23.0951 38.464 23.1968 38.6236 23.3356 38.7469C23.4744 38.8703 23.6448 38.9526 23.8278 38.9846L28.2332 39.7541C28.3861 39.7807 28.5432 39.7715 28.6919 39.7271L50.4579 33.2146L50.5522 35.274L43.6359 37.3432L44.2092 39.2595L51.8734 36.9662C52.0871 36.9023 52.2733 36.7689 52.4024 36.587C52.5315 36.4052 52.5961 36.1854 52.5859 35.9626L52.433 32.6246L55.5172 31.7019C56.2794 31.4738 56.9198 30.9522 57.2976 30.252C57.6753 29.5517 57.7593 28.7301 57.5313 27.9679V27.9672ZM28.345 37.7435L26.1423 37.3587L27.7718 35.8274L32.3358 34.4621L32.909 36.3781L28.345 37.7435ZM34.825 35.8046L34.2518 33.8886L50.2695 29.096L50.3638 31.1555L34.825 35.8046ZM55.5375 29.3017C55.4755 29.4175 55.3911 29.5199 55.2892 29.6028C55.1873 29.6858 55.07 29.7478 54.944 29.7851L52.3389 30.5645L52.2447 28.5051L54.3708 27.869C54.5603 27.8123 54.7623 27.8131 54.9513 27.8712C55.1404 27.9293 55.3079 28.0422 55.4328 28.1956C55.5577 28.3489 55.6343 28.5359 55.6529 28.7328C55.6716 28.9297 55.6314 29.1277 55.5375 29.3017Z" fill="#303841"/>
<path d="M37 42H20V27C20 26.7348 19.8946 26.4804 19.7071 26.2929C19.5196 26.1054 19.2652 26 19 26H1C0.734784 26 0.48043 26.1054 0.292893 26.2929C0.105357 26.4804 0 26.7348 0 27V59C0 59.2652 0.105357 59.5196 0.292893 59.7071C0.48043 59.8946 0.734784 60 1 60H37C37.2652 60 37.5196 59.8946 37.7071 59.7071C37.8946 59.5196 38 59.2652 38 59V43C38 42.7348 37.8946 42.4804 37.7071 42.2929C37.5196 42.1054 37.2652 42 37 42ZM26 44H30V48H26V44ZM8 28H12V32H8V28ZM2 28H6V33C6 33.2652 6.10536 33.5196 6.29289 33.7071C6.48043 33.8946 6.73478 34 7 34H13C13.2652 34 13.5196 33.8946 13.7071 33.7071C13.8946 33.5196 14 33.2652 14 33V28H18V42H2V28ZM8 44H12V48H8V44ZM2 44H6V49C6 49.2652 6.10536 49.5196 6.29289 49.7071C6.48043 49.8946 6.73478 50 7 50H13C13.2652 50 13.5196 49.8946 13.7071 49.7071C13.8946 49.5196 14 49.2652 14 49V44H18V58H2V44ZM36 58H20V44H24V49C24 49.2652 24.1054 49.5196 24.2929 49.7071C24.4804 49.8946 24.7348 50 25 50H31C31.2652 50 31.5196 49.8946 31.7071 49.7071C31.8946 49.5196 32 49.2652 32 49V44H36V58Z" fill="#303841"/>
<path d="M32 54H34V56H32V54Z" fill="#303841"/>
<path d="M14 54H16V56H14V54Z" fill="#303841"/>
<path d="M14 38H16V40H14V38Z" fill="#303841"/>
<path d="M16 8C16.0006 7.46976 16.2115 6.96142 16.5865 6.58648C16.9614 6.21154 17.4698 6.00063 18 6H24V8H19C18.7348 8 18.4804 8.10536 18.2929 8.29289C18.1054 8.48043 18 8.73478 18 9V24H20V10H44V26H46V9C46 8.73478 45.8946 8.48043 45.7071 8.29289C45.5196 8.10536 45.2652 8 45 8H40V6H46C46.5302 6.00063 47.0386 6.21154 47.4135 6.58648C47.7885 6.96142 47.9994 7.46976 48 8V25H50V8C49.9988 6.9395 49.577 5.92278 48.8271 5.17289C48.0772 4.423 47.0605 4.00119 46 4H36.2808L36.9701 1.2425C37.007 1.09507 37.0097 0.941188 36.9782 0.792532C36.9467 0.643876 36.8817 0.504361 36.7882 0.384584C36.6947 0.264807 36.5751 0.167919 36.4385 0.10128C36.3019 0.0346411 36.152 4.01266e-06 36 0H28C27.848 4.01266e-06 27.6981 0.0346411 27.5615 0.10128C27.4249 0.167919 27.3053 0.264807 27.2118 0.384584C27.1183 0.504361 27.0533 0.643876 27.0218 0.792532C26.9903 0.941188 26.993 1.09507 27.0299 1.2425L27.7192 4H18C16.9395 4.00119 15.9228 4.423 15.1729 5.17289C14.423 5.92278 14.0012 6.9395 14 8V24H16V8ZM26 6H29C29.152 6 29.3019 5.96536 29.4385 5.89872C29.5751 5.83208 29.6947 5.73519 29.7882 5.61542C29.8817 5.49564 29.9467 5.35612 29.9782 5.20747C30.0097 5.05881 30.007 4.90493 29.9701 4.7575L29.2808 2H34.7192L34.0299 4.7575C33.993 4.90493 33.9903 5.05881 34.0218 5.20747C34.0533 5.35612 34.1183 5.49564 34.2118 5.61542C34.3053 5.73519 34.4249 5.83208 34.5615 5.89872C34.6981 5.96536 34.848 6 35 6H38V8H26V6Z" fill="#303841"/>
<path d="M48 49C47.9994 49.5302 47.7885 50.0386 47.4135 50.4135C47.0386 50.7885 46.5302 50.9994 46 51H40V53H46C47.0605 52.9988 48.0772 52.577 48.8271 51.8271C49.577 51.0772 49.9988 50.0605 50 49V40H48V49Z" fill="#303841"/>
<path d="M46 48V41H44V47H40V49H45C45.2652 49 45.5196 48.8946 45.7071 48.7071C45.8946 48.5196 46 48.2652 46 48Z" fill="#303841"/>
<path d="M28 13C28 12.7348 27.8946 12.4804 27.7071 12.2929C27.5196 12.1054 27.2652 12 27 12H23C22.7348 12 22.4804 12.1054 22.2929 12.2929C22.1054 12.4804 22 12.7348 22 13V17C22 17.2652 22.1054 17.5196 22.2929 17.7071C22.4804 17.8946 22.7348 18 23 18H27C27.2652 18 27.5196 17.8946 27.7071 17.7071C27.8946 17.5196 28 17.2652 28 17V13ZM26 16H24V14H26V16Z" fill="#303841"/>
<path d="M27 21H23C22.7348 21 22.4804 21.1054 22.2929 21.2929C22.1054 21.4804 22 21.7348 22 22V26C22 26.2652 22.1054 26.5196 22.2929 26.7071C22.4804 26.8946 22.7348 27 23 27H27C27.2652 27 27.5196 26.8946 27.7071 26.7071C27.8946 26.5196 28 26.2652 28 26V22C28 21.7348 27.8946 21.4804 27.7071 21.2929C27.5196 21.1054 27.2652 21 27 21ZM26 25H24V23H26V25Z" fill="#303841"/>
<path d="M30 12H32V14H30V12Z" fill="#303841"/>
<path d="M30 16H42V18H30V16Z" fill="#303841"/>
<path d="M34 12H42V14H34V12Z" fill="#303841"/>
<path d="M30 21H32V23H30V21Z" fill="#303841"/>
<path d="M30 25H42V27H30V25Z" fill="#303841"/>
<path d="M34 21H42V23H34V21Z" fill="#303841"/>
</svg>
