<svg width="114" height="110" viewBox="0 0 114 110" fill="none" xmlns="http://www.w3.org/2000/svg">
<path d="M113.51 49.9497C113.388 48.5112 112.462 47.3299 111.094 46.8667L99.9968 43.1086L110.801 30.7136C111.518 29.8908 111.818 28.8028 111.624 27.7288C111.43 26.6548 110.768 25.7405 109.809 25.2205L95.8703 17.6687C94.9596 17.1755 93.822 17.5135 93.3283 18.424C92.835 19.3345 93.1733 20.4725 94.0835 20.9658L107.83 28.4138L96.3171 41.6226L59.9516 21.9193L66.6994 14.178C67.4759 14.463 68.3144 14.6185 69.1884 14.6185C71.9022 14.6185 74.2709 13.1177 75.5117 10.9034L85.9315 16.549C86.2155 16.7027 86.5212 16.7757 86.823 16.7757C87.489 16.7757 88.1338 16.4202 88.4735 15.7935C88.9668 14.883 88.6285 13.745 87.718 13.2517L76.4269 7.13443C76.2997 3.25065 73.1029 0.129883 69.1887 0.129883C65.1941 0.129883 61.9444 3.37965 61.9444 7.37418C61.9444 9.13294 62.5749 10.7467 63.6209 12.003L56.9998 19.599L45.2695 6.14167C44.162 4.87091 42.3537 4.54416 40.871 5.34716L36.2857 7.83143C35.7485 3.58265 32.1142 0.285134 27.7219 0.285134C22.9609 0.285134 19.0874 4.15866 19.0874 8.91994C19.0874 11.5525 20.2731 13.9122 22.1369 15.4972L4.19077 25.2205C3.23126 25.7405 2.56976 26.6545 2.37551 27.7288C2.18175 28.8028 2.48176 29.8908 3.19901 30.7133L14.0026 43.1084L2.90526 46.8662C1.5375 47.3294 0.611746 48.5107 0.489245 49.9492C0.366744 51.3877 1.07925 52.7087 2.34876 53.3965L15.3806 60.457V67.5343C15.3806 68.5698 16.2198 69.4093 17.2556 69.4093C18.2913 69.4093 19.1306 68.5698 19.1306 67.5343V62.4888L37.3627 72.3668C38.1405 72.7883 39.0082 73.0026 39.8792 73.0026C40.4487 73.0026 41.02 72.9108 41.568 72.7253L55.1251 68.135V105.441L19.9296 86.3711C19.4369 86.1041 19.1309 85.5901 19.1309 85.0296V76.7906C19.1309 75.7551 18.2916 74.9156 17.2558 74.9156C16.2201 74.9156 15.3808 75.7551 15.3808 76.7906V85.0296C15.3808 86.9676 16.4391 88.7449 18.1431 89.6682L54.4868 109.36C55.2738 109.787 56.1371 110 57.0003 110C57.8636 110 58.7268 109.786 59.5138 109.36L95.8576 89.6682C97.5613 88.7449 98.6198 86.9676 98.6198 85.0296V60.4567L111.651 53.3962C112.92 52.7092 113.633 51.3884 113.51 49.9497ZM61.1449 35.4441C67.7084 37.2891 72.2924 43.3416 72.2924 50.1629C72.2924 52.0624 71.9512 53.906 71.2767 55.6527L56.9998 63.388L42.723 55.6527C42.0487 53.906 41.7072 52.0624 41.7072 50.1629C41.7072 43.3206 46.3088 37.2629 52.8978 35.4316C53.8953 35.1543 54.4793 34.1206 54.2021 33.1231C53.9251 32.1253 52.8908 31.5416 51.8935 31.8186C43.6882 34.0993 37.9575 41.6426 37.9575 50.1629C37.9575 51.1904 38.0407 52.2047 38.2007 53.2027L21.1916 43.9869L57.0003 24.5853L92.8088 43.9871L75.7997 53.2029C75.9597 52.2049 76.0429 51.1907 76.0429 50.1632C76.0429 41.6689 70.3342 34.1318 62.1601 31.8341C61.1631 31.5536 60.1278 32.1351 59.8478 33.1316C59.5668 34.1286 60.1476 35.1638 61.1449 35.4441ZM69.1884 3.8804C71.1152 3.8804 72.6829 5.44792 72.6829 7.37468C72.6829 9.30144 71.1152 10.8692 69.1884 10.8692C67.2616 10.8692 65.6941 9.30144 65.6941 7.37468C65.6941 5.44792 67.2616 3.8804 69.1884 3.8804ZM27.7219 4.03566C30.4152 4.03566 32.6067 6.22692 32.6067 8.92044C32.6067 11.6137 30.4152 13.8052 27.7219 13.8052C25.0286 13.8052 22.8374 11.614 22.8374 8.92044C22.8374 6.22692 25.0286 4.03566 27.7219 4.03566ZM26.3989 17.4537C26.8304 17.5205 27.2722 17.5552 27.7219 17.5552C31.2164 17.5552 34.2302 15.4675 35.588 12.475L42.5345 8.71144L54.0476 21.9198L17.6821 41.6231L6.16878 28.4143L26.3989 17.4537ZM40.365 69.174C39.964 69.31 39.5205 69.2718 39.149 69.0703L18.1571 57.697C18.1516 57.694 18.1458 57.691 18.1403 57.688L4.48677 50.2904L17.0813 46.0257L52.329 65.1233L40.365 69.174ZM94.869 85.0304C94.869 85.5909 94.5628 86.1049 94.0703 86.3719L58.8748 105.442V68.1358L72.4319 72.7261C72.9799 72.9116 73.5512 73.0033 74.1209 73.0033C74.9914 73.0033 75.8594 72.7888 76.6372 72.3676L94.8693 62.4895V85.0304H94.869ZM74.8504 69.0703C74.4789 69.2718 74.0354 69.31 73.6344 69.174L61.6706 65.1233L96.9183 46.0257L109.513 50.2904L74.8504 69.0703ZM109.892 50.4187C109.891 50.4187 109.891 50.4184 109.891 50.4184L109.892 50.4187Z" fill="#DCE0EA"/>
</svg>
