<svg width="22" height="27" viewBox="0 0 22 27" fill="none" xmlns="http://www.w3.org/2000/svg">
<path d="M11 26.333C12.4666 26.333 13.6666 25.133 13.6666 23.6663H8.33331C8.33331 25.133 9.53331 26.333 11 26.333ZM19 18.333V11.6663C19 7.57301 16.8266 4.14634 13 3.23967V2.33301C13 1.22634 12.1066 0.333008 11 0.333008C9.89331 0.333008 8.99998 1.22634 8.99998 2.33301V3.23967C5.18665 4.14634 2.99998 7.55967 2.99998 11.6663V18.333L0.333313 20.9997V22.333H21.6666V20.9997L19 18.333ZM16.3333 19.6663H5.66665V11.6663C5.66665 8.35967 7.67998 5.66634 11 5.66634C14.32 5.66634 16.3333 8.35967 16.3333 11.6663V19.6663Z" fill="#303841"/>
</svg>
