<svg width="21" height="19" viewBox="0 0 21 19" fill="none" xmlns="http://www.w3.org/2000/svg">
<path d="M7.57137 0.619141L5.78494 2.57152H2.69042C1.61661 2.57152 0.738037 3.45009 0.738037 4.5239V16.2382C0.738037 17.312 1.61661 18.1906 2.69042 18.1906H18.3095C19.3833 18.1906 20.2618 17.312 20.2618 16.2382V4.5239C20.2618 3.45009 19.3833 2.57152 18.3095 2.57152H15.2149L13.4285 0.619141H7.57137ZM10.4999 15.262C7.80566 15.262 5.61899 13.0753 5.61899 10.381C5.61899 7.68676 7.80566 5.50009 10.4999 5.50009C13.1942 5.50009 15.3809 7.68676 15.3809 10.381C15.3809 13.0753 13.1942 15.262 10.4999 15.262Z" fill="#868A96"/>
</svg>
