<svg width="17" height="16" viewBox="0 0 17 16" fill="none" xmlns="http://www.w3.org/2000/svg">
<path d="M9.16671 4.66634H7.83337V7.33301H5.16671V8.66634H7.83337V11.333H9.16671V8.66634H11.8334V7.33301H9.16671V4.66634ZM8.50004 1.33301C4.82004 1.33301 1.83337 4.31967 1.83337 7.99967C1.83337 11.6797 4.82004 14.6663 8.50004 14.6663C12.18 14.6663 15.1667 11.6797 15.1667 7.99967C15.1667 4.31967 12.18 1.33301 8.50004 1.33301ZM8.50004 13.333C5.56004 13.333 3.16671 10.9397 3.16671 7.99967C3.16671 5.05967 5.56004 2.66634 8.50004 2.66634C11.44 2.66634 13.8334 5.05967 13.8334 7.99967C13.8334 10.9397 11.44 13.333 8.50004 13.333Z" fill="#D72323"/>
</svg>
