<svg width="18" height="18" viewBox="0 0 18 18" fill="none" xmlns="http://www.w3.org/2000/svg">
<path d="M16.3055 0.513818C16.2447 0.362019 16.1398 0.231933 16.0043 0.140346C15.8688 0.0487593 15.709 -0.000125216 15.5455 2.40875e-07H2.45455C2.29101 -0.000125216 2.13119 0.0487593 1.9957 0.140346C1.86022 0.231933 1.75529 0.362019 1.69445 0.513818L0.0580909 4.60473C0.0197473 4.70162 3.86126e-05 4.80489 0 4.90909V17.1818C0 17.3988 0.086201 17.6069 0.23964 17.7604C0.393079 17.9138 0.601187 18 0.818182 18H17.1818C17.3988 18 17.6069 17.9138 17.7604 17.7604C17.9138 17.6069 18 17.3988 18 17.1818V4.90909C18 4.80489 17.9803 4.70162 17.9419 4.60473L16.3055 0.513818ZM3.00845 1.63636H14.9915L15.9734 4.09091H2.02664L3.00845 1.63636ZM1.63636 16.3636V5.72727H16.3636V16.3636H1.63636Z" fill="#3A4750"/>
</svg>
