<svg width="23" height="22" viewBox="0 0 23 22" fill="none" xmlns="http://www.w3.org/2000/svg">
<path fill-rule="evenodd" clip-rule="evenodd" d="M16.9985 2.66614C16.4998 2.66614 16.0954 3.07049 16.0954 3.56926C16.0954 4.06803 16.4998 4.47239 16.9985 4.47239H19.6661C19.8652 4.47239 20.0275 4.63472 20.0275 4.8339V7.50147C20.0275 8.00024 20.4319 8.40459 20.9306 8.40459C21.4294 8.40459 21.8338 8.00024 21.8338 7.50147V4.8339C21.8338 3.63844 20.8615 2.66614 19.6661 2.66614H16.9985Z" fill="#868A96"/>
<path fill-rule="evenodd" clip-rule="evenodd" d="M5.33396 2.66614C4.13844 2.66614 3.1662 3.63843 3.1662 4.8339V7.50147C3.1662 8.00024 3.57055 8.40459 4.06932 8.40459C4.56815 8.40459 4.97245 8.00023 4.97245 7.50147V4.8339C4.97245 4.63475 5.13481 4.47239 5.33396 4.47239H8.00143C8.5002 4.47239 8.90456 4.06803 8.90456 3.56926C8.90456 3.07049 8.5002 2.66614 8.00143 2.66614H5.33396Z" fill="#868A96"/>
<path fill-rule="evenodd" clip-rule="evenodd" d="M4.06932 15.5957C3.57055 15.5957 3.1662 16.0001 3.1662 16.4988V19.1662C3.1662 20.3616 4.1385 21.3339 5.33396 21.3339H8.00143C8.5002 21.3339 8.90456 20.9295 8.90456 20.4308C8.90456 19.932 8.5002 19.5276 8.00143 19.5276H5.33396C5.13474 19.5276 4.97245 19.3653 4.97245 19.1662V16.4988C4.97245 16.0001 4.56809 15.5957 4.06932 15.5957Z" fill="#868A96"/>
<path fill-rule="evenodd" clip-rule="evenodd" d="M20.9306 15.5957C20.4319 15.5957 20.0275 16.0001 20.0275 16.4988V19.1662C20.0275 19.3653 19.8652 19.5276 19.6661 19.5276H16.9985C16.4998 19.5276 16.0954 19.932 16.0954 20.4308C16.0954 20.9295 16.4998 21.3339 16.9985 21.3339H19.6661C20.8615 21.3339 21.8338 20.3617 21.8338 19.1662V16.4988C21.8338 16.0001 21.4294 15.5957 20.9306 15.5957Z" fill="#868A96"/>
<path fill-rule="evenodd" clip-rule="evenodd" d="M7.62935 5.80469C6.89873 5.80469 6.30463 6.39879 6.30463 7.12941V9.79997C6.30463 10.5306 6.89876 11.1245 7.62935 11.1245H10.3C11.0307 11.1245 11.6248 10.5305 11.6248 9.79995V7.12941C11.6248 6.39879 11.0307 5.80469 10.3 5.80469H7.62935ZM8.11092 9.3183V7.61094H9.81856V9.3183H8.11092Z" fill="#868A96"/>
<path fill-rule="evenodd" clip-rule="evenodd" d="M7.62935 12.8755C6.89874 12.8755 6.30463 13.4695 6.30463 14.2002V16.8706C6.30463 17.6013 6.89874 18.1953 7.62935 18.1953H10.3C11.0307 18.1953 11.6248 17.6013 11.6248 16.8706V14.2002C11.6248 13.4695 11.0307 12.8755 10.3 12.8755H7.62935ZM8.11092 16.3891V14.6817H9.81856V16.3891H8.11092Z" fill="#868A96"/>
<path fill-rule="evenodd" clip-rule="evenodd" d="M14.7 12.8755C13.9694 12.8755 13.3753 13.4695 13.3753 14.2002V16.8706C13.3753 17.6013 13.9694 18.1953 14.7 18.1953H17.3705C18.1012 18.1953 18.6953 17.6012 18.6953 16.8706V14.2002C18.6953 13.4695 18.1011 12.8755 17.3705 12.8755H14.7ZM15.1816 16.3891V14.6817H16.889V16.3891H15.1816Z" fill="#868A96"/>
<path fill-rule="evenodd" clip-rule="evenodd" d="M14.7 5.80469C13.9694 5.80469 13.3753 6.39879 13.3753 7.12941V9.79997C13.3753 10.5306 13.9694 11.1245 14.7 11.1245H17.3705C18.1012 11.1245 18.6953 10.5305 18.6953 9.79997V7.12941C18.6953 6.39879 18.1012 5.80469 17.3705 5.80469H14.7ZM15.1816 9.3183V7.61094H16.889V9.3183H15.1816Z" fill="#868A96"/>
</svg>
