<svg width="22" height="30" viewBox="0 0 22 30" fill="none" xmlns="http://www.w3.org/2000/svg">
<path d="M11 6.99967V10.9997L16.3334 5.66634L11 0.333008V4.33301C5.10671 4.33301 0.333374 9.10634 0.333374 14.9997C0.333374 17.093 0.946707 19.0397 1.98671 20.6797L3.93337 18.733C3.33337 17.6263 3.00004 16.3463 3.00004 14.9997C3.00004 10.5863 6.58671 6.99967 11 6.99967ZM20.0134 9.31967L18.0667 11.2663C18.6534 12.3863 19 13.653 19 14.9997C19 19.413 15.4134 22.9997 11 22.9997V18.9997L5.66671 24.333L11 29.6663V25.6663C16.8934 25.6663 21.6667 20.893 21.6667 14.9997C21.6667 12.9063 21.0534 10.9597 20.0134 9.31967Z" fill="#868A96"/>
</svg>
