<svg width="17" height="16" viewBox="0 0 17 16" fill="none" xmlns="http://www.w3.org/2000/svg">
<path d="M9.16659 4.66634H7.83325V7.33301H5.16659V8.66634H7.83325V11.333H9.16659V8.66634H11.8333V7.33301H9.16659V4.66634ZM8.49992 1.33301C4.81992 1.33301 1.83325 4.31967 1.83325 7.99967C1.83325 11.6797 4.81992 14.6663 8.49992 14.6663C12.1799 14.6663 15.1666 11.6797 15.1666 7.99967C15.1666 4.31967 12.1799 1.33301 8.49992 1.33301ZM8.49992 13.333C5.55992 13.333 3.16659 10.9397 3.16659 7.99967C3.16659 5.05967 5.55992 2.66634 8.49992 2.66634C11.4399 2.66634 13.8333 5.05967 13.8333 7.99967C13.8333 10.9397 11.4399 13.333 8.49992 13.333Z" fill="white"/>
</svg>
