<svg width="72" height="29" viewBox="0 0 72 29" fill="none" xmlns="http://www.w3.org/2000/svg">
<path d="M8.82138 7.30618C9.66546 7.48607 10.3435 7.90811 10.8555 8.5723C11.3675 9.22267 11.6235 9.96989 11.6235 10.814C11.6235 12.0317 11.1945 13.0003 10.3366 13.7198C9.4925 14.4255 8.30939 14.7784 6.78727 14.7784H0V0.207562H6.55896C8.03956 0.207562 9.19499 0.546579 10.0252 1.22461C10.8693 1.90265 11.2914 2.82284 11.2914 3.98519C11.2914 4.84311 11.063 5.55574 10.6064 6.12308C10.1636 6.69041 9.5686 7.08478 8.82138 7.30618ZM3.54931 6.10232H5.874C6.45517 6.10232 6.89797 5.97778 7.2024 5.72871C7.52066 5.4658 7.67979 5.08527 7.67979 4.58712C7.67979 4.08897 7.52066 3.70844 7.2024 3.44553C6.89797 3.18262 6.45517 3.05116 5.874 3.05116H3.54931V6.10232ZM6.16459 11.9141C6.7596 11.9141 7.21623 11.7826 7.5345 11.5197C7.86659 11.2429 8.03265 10.8486 8.03265 10.3366C8.03265 9.8246 7.85968 9.42331 7.51374 9.13272C7.18164 8.84214 6.71809 8.69684 6.12308 8.69684H3.54931V11.9141H6.16459Z" fill="#303841"/>
<path d="M20.209 14.9237C18.8391 14.9237 17.5798 14.6054 16.4313 13.9689C15.2967 13.3324 14.3903 12.4468 13.7123 11.3121C13.0481 10.1636 12.716 8.87673 12.716 7.45147C12.716 6.02621 13.0481 4.74625 13.7123 3.61158C14.3903 2.4769 15.2967 1.59131 16.4313 0.954785C17.5798 0.318262 18.8391 0 20.209 0C21.5789 0 22.8312 0.318262 23.9658 0.954785C25.1143 1.59131 26.0138 2.4769 26.6641 3.61158C27.3283 4.74625 27.6604 6.02621 27.6604 7.45147C27.6604 8.87673 27.3283 10.1636 26.6641 11.3121C25.9999 12.4468 25.1005 13.3324 23.9658 13.9689C22.8312 14.6054 21.5789 14.9237 20.209 14.9237ZM20.209 11.6857C21.3713 11.6857 22.2984 11.2983 22.9903 10.5234C23.696 9.74849 24.0489 8.72452 24.0489 7.45147C24.0489 6.16459 23.696 5.14062 22.9903 4.37955C22.2984 3.60466 21.3713 3.21721 20.209 3.21721C19.0328 3.21721 18.0918 3.59774 17.3861 4.3588C16.6943 5.11986 16.3483 6.15075 16.3483 7.45147C16.3483 8.73835 16.6943 9.76925 17.3861 10.5441C18.0918 11.3052 19.0328 11.6857 20.209 11.6857Z" fill="#303841"/>
<path d="M37.2902 14.7784L34.322 10.3158L31.7068 14.7784H27.6801L32.3502 7.36845L27.5763 0.207562H31.7068L34.6334 4.60787L37.2071 0.207562H41.2338L36.6052 7.55525L41.4207 14.7784H37.2902Z" fill="#303841"/>
<path d="M51.4182 4.81544C51.1553 4.33112 50.7748 3.96443 50.2767 3.71536C49.7923 3.45245 49.2181 3.32099 48.5539 3.32099C47.4054 3.32099 46.4852 3.70152 45.7933 4.46258C45.1014 5.2098 44.7555 6.21302 44.7555 7.47223C44.7555 8.81446 45.1153 9.86611 45.8348 10.6272C46.5682 11.3744 47.5714 11.748 48.8445 11.748C49.7162 11.748 50.4496 11.5266 51.0446 11.0838C51.6535 10.641 52.0963 10.0045 52.373 9.17424H47.8689V6.55895H55.5902V9.85919C55.3273 10.7448 54.8776 11.5681 54.2411 12.3292C53.6184 13.0902 52.8227 13.706 51.8541 14.1765C50.8855 14.6469 49.7923 14.8822 48.5746 14.8822C47.1356 14.8822 45.8487 14.5708 44.714 13.9482C43.5932 13.3116 42.7145 12.433 42.078 11.3121C41.4553 10.1913 41.1439 8.91132 41.1439 7.47223C41.1439 6.03313 41.4553 4.75317 42.078 3.63233C42.7145 2.49766 43.5932 1.61898 44.714 0.996297C45.8348 0.359774 47.1148 0.0415118 48.5539 0.0415118C50.2974 0.0415118 51.7642 0.463555 52.9542 1.30764C54.1581 2.15173 54.9537 3.32099 55.3412 4.81544H51.4182Z" fill="#303841"/>
<path d="M64.2563 14.9237C62.8864 14.9237 61.6272 14.6054 60.4786 13.9689C59.344 13.3324 58.4376 12.4468 57.7596 11.3121C57.0954 10.1636 56.7633 8.87673 56.7633 7.45147C56.7633 6.02621 57.0954 4.74625 57.7596 3.61158C58.4376 2.4769 59.344 1.59131 60.4786 0.954785C61.6272 0.318262 62.8864 0 64.2563 0C65.6262 0 66.8785 0.318262 68.0132 0.954785C69.1617 1.59131 70.0611 2.4769 70.7114 3.61158C71.3756 4.74625 71.7077 6.02621 71.7077 7.45147C71.7077 8.87673 71.3756 10.1636 70.7114 11.3121C70.0472 12.4468 69.1478 13.3324 68.0132 13.9689C66.8785 14.6054 65.6262 14.9237 64.2563 14.9237ZM64.2563 11.6857C65.4186 11.6857 66.3457 11.2983 67.0376 10.5234C67.7433 9.74849 68.0962 8.72452 68.0962 7.45147C68.0962 6.16459 67.7433 5.14062 67.0376 4.37955C66.3457 3.60466 65.4186 3.21721 64.2563 3.21721C63.0801 3.21721 62.1391 3.59774 61.4334 4.3588C60.7416 5.11986 60.3956 6.15075 60.3956 7.45147C60.3956 8.73835 60.7416 9.76925 61.4334 10.5441C62.1391 11.3052 63.0801 11.6857 64.2563 11.6857Z" fill="#303841"/>
<path d="M4.77838 22.448C4.64062 22.1955 4.45121 22.0032 4.21013 21.8712C3.96906 21.7392 3.6878 21.6732 3.36637 21.6732C3.01049 21.6732 2.6948 21.7535 2.41929 21.9142C2.14377 22.075 1.92853 22.3045 1.77355 22.603C1.61857 22.9015 1.54108 23.2459 1.54108 23.6362C1.54108 24.038 1.61857 24.3881 1.77355 24.6866C1.93427 24.9851 2.15525 25.2147 2.43651 25.3754C2.71776 25.5361 3.04493 25.6165 3.41803 25.6165C3.87722 25.6165 4.25318 25.4959 4.54591 25.2548C4.83865 25.008 5.03093 24.6665 5.12277 24.2303H3.05641V23.309H6.31093V24.3594C6.23057 24.7784 6.05837 25.1659 5.79434 25.5218C5.5303 25.8776 5.18878 26.1646 4.76977 26.3827C4.3565 26.5951 3.89157 26.7013 3.37498 26.7013C2.79525 26.7013 2.27005 26.5722 1.79938 26.3139C1.33445 26.0498 0.967096 25.6853 0.697322 25.2204C0.433287 24.7555 0.30127 24.2274 0.30127 23.6362C0.30127 23.045 0.433287 22.5169 0.697322 22.052C0.967096 21.5813 1.33445 21.2168 1.79938 20.9585C2.27005 20.6945 2.79238 20.5625 3.36637 20.5625C4.04367 20.5625 4.63201 20.7289 5.13138 21.0619C5.63075 21.389 5.97515 21.8511 6.16456 22.448H4.77838Z" fill="#3A4750"/>
<path d="M9.32073 26.7271C8.86154 26.7271 8.44827 26.6267 8.08092 26.4258C7.71357 26.2191 7.4237 25.9293 7.21133 25.5562C7.00469 25.1831 6.90137 24.7526 6.90137 24.2647C6.90137 23.7768 7.00756 23.3463 7.21994 22.9732C7.43805 22.6002 7.73366 22.3132 8.10675 22.1123C8.47984 21.9056 8.89598 21.8023 9.35517 21.8023C9.81436 21.8023 10.2305 21.9056 10.6036 22.1123C10.9767 22.3132 11.2694 22.6002 11.4818 22.9732C11.6999 23.3463 11.809 23.7768 11.809 24.2647C11.809 24.7526 11.697 25.1831 11.4732 25.5562C11.2551 25.9293 10.9566 26.2191 10.5778 26.4258C10.2047 26.6267 9.78567 26.7271 9.32073 26.7271ZM9.32073 25.6767C9.53885 25.6767 9.74262 25.6251 9.93203 25.5218C10.1272 25.4127 10.2822 25.252 10.397 25.0396C10.5118 24.8272 10.5692 24.5689 10.5692 24.2647C10.5692 23.8113 10.4486 23.464 10.2075 23.2229C9.97221 22.9761 9.68235 22.8527 9.33795 22.8527C8.99356 22.8527 8.7037 22.9761 8.46836 23.2229C8.23877 23.464 8.12397 23.8113 8.12397 24.2647C8.12397 24.7182 8.2359 25.0683 8.45975 25.3151C8.68935 25.5562 8.97634 25.6767 9.32073 25.6767Z" fill="#3A4750"/>
<path d="M18.1542 23.5673C18.4929 23.6305 18.7713 23.7998 18.9894 24.0753C19.2075 24.3508 19.3165 24.6665 19.3165 25.0224C19.3165 25.3438 19.2362 25.6279 19.0755 25.8748C18.9205 26.1158 18.6938 26.3052 18.3953 26.443C18.0968 26.5808 17.7438 26.6496 17.3363 26.6496H14.7447V20.64H17.2244C17.6319 20.64 17.982 20.706 18.2748 20.838C18.5732 20.97 18.7971 21.1537 18.9463 21.389C19.1013 21.6244 19.1788 21.8913 19.1788 22.1897C19.1788 22.5399 19.0841 22.8326 18.8947 23.068C18.711 23.3033 18.4642 23.4697 18.1542 23.5673ZM15.9501 23.1196H17.0522C17.3392 23.1196 17.5601 23.0565 17.7151 22.9302C17.8701 22.7982 17.9476 22.6116 17.9476 22.3706C17.9476 22.1295 17.8701 21.9429 17.7151 21.8109C17.5601 21.6789 17.3392 21.6129 17.0522 21.6129H15.9501V23.1196ZM17.1641 25.6681C17.4568 25.6681 17.6835 25.5992 17.8443 25.4615C18.0107 25.3237 18.0939 25.1286 18.0939 24.876C18.0939 24.6177 18.0078 24.4168 17.8356 24.2733C17.6635 24.1241 17.431 24.0495 17.1383 24.0495H15.9501V25.6681H17.1641Z" fill="#3A4750"/>
<path d="M20.8885 21.3115C20.6761 21.3115 20.4982 21.2455 20.3547 21.1135C20.2169 20.9758 20.1481 20.8064 20.1481 20.6055C20.1481 20.4046 20.2169 20.2382 20.3547 20.1062C20.4982 19.9684 20.6761 19.8995 20.8885 19.8995C21.1009 19.8995 21.2759 19.9684 21.4137 20.1062C21.5572 20.2382 21.629 20.4046 21.629 20.6055C21.629 20.8064 21.5572 20.9758 21.4137 21.1135C21.2759 21.2455 21.1009 21.3115 20.8885 21.3115ZM21.4826 21.8798V26.6496H20.2772V21.8798H21.4826Z" fill="#3A4750"/>
<path d="M24.5418 21.8023C24.8977 21.8023 25.2105 21.8741 25.4803 22.0176C25.7501 22.1553 25.9625 22.3361 26.1174 22.56V21.8798H27.3314V26.6841C27.3314 27.126 27.2424 27.5192 27.0645 27.8636C26.8866 28.2138 26.6197 28.4893 26.2638 28.6902C25.9079 28.8968 25.4774 29.0001 24.9723 29.0001C24.295 29.0001 23.7382 28.8423 23.302 28.5266C22.8715 28.2109 22.6276 27.7804 22.5702 27.2351H23.7669C23.8301 27.4532 23.965 27.6254 24.1716 27.7517C24.384 27.8837 24.6394 27.9497 24.9379 27.9497C25.288 27.9497 25.5721 27.8435 25.7903 27.6312C26.0084 27.4245 26.1174 27.1088 26.1174 26.6841V25.9436C25.9625 26.1675 25.7472 26.354 25.4717 26.5033C25.2019 26.6525 24.892 26.7271 24.5418 26.7271C24.14 26.7271 23.7727 26.6238 23.4398 26.4172C23.1069 26.2105 22.8428 25.9207 22.6477 25.5476C22.4583 25.1687 22.3635 24.7354 22.3635 24.2475C22.3635 23.7653 22.4583 23.3377 22.6477 22.9646C22.8428 22.5915 23.104 22.3045 23.4312 22.1037C23.7641 21.9028 24.1343 21.8023 24.5418 21.8023ZM26.1174 24.2647C26.1174 23.972 26.06 23.7223 25.9452 23.5157C25.8304 23.3033 25.6755 23.1426 25.4803 23.0335C25.2851 22.9187 25.0756 22.8613 24.8518 22.8613C24.6279 22.8613 24.4213 22.9158 24.2319 23.0249C24.0425 23.134 23.8875 23.2947 23.7669 23.5071C23.6521 23.7137 23.5947 23.9605 23.5947 24.2475C23.5947 24.5345 23.6521 24.787 23.7669 25.0052C23.8875 25.2175 24.0425 25.3811 24.2319 25.4959C24.427 25.6107 24.6337 25.6681 24.8518 25.6681C25.0756 25.6681 25.2851 25.6136 25.4803 25.5045C25.6755 25.3897 25.8304 25.229 25.9452 25.0224C26.06 24.81 26.1174 24.5575 26.1174 24.2647Z" fill="#3A4750"/>
<path d="M34.6499 20.64V21.6129H33.0485V26.6496H31.8431V21.6129H30.2417V20.64H34.6499Z" fill="#3A4750"/>
<path d="M37.6474 26.7271C37.1882 26.7271 36.7749 26.6267 36.4076 26.4258C36.0402 26.2191 35.7504 25.9293 35.538 25.5562C35.3314 25.1831 35.228 24.7526 35.228 24.2647C35.228 23.7768 35.3342 23.3463 35.5466 22.9732C35.7647 22.6002 36.0603 22.3132 36.4334 22.1123C36.8065 21.9056 37.2226 21.8023 37.6818 21.8023C38.141 21.8023 38.5572 21.9056 38.9303 22.1123C39.3034 22.3132 39.5961 22.6002 39.8085 22.9732C40.0266 23.3463 40.1356 23.7768 40.1356 24.2647C40.1356 24.7526 40.0237 25.1831 39.7999 25.5562C39.5817 25.9293 39.2833 26.2191 38.9044 26.4258C38.5313 26.6267 38.1123 26.7271 37.6474 26.7271ZM37.6474 25.6767C37.8655 25.6767 38.0693 25.6251 38.2587 25.5218C38.4539 25.4127 38.6088 25.252 38.7236 25.0396C38.8384 24.8272 38.8958 24.5689 38.8958 24.2647C38.8958 23.8113 38.7753 23.464 38.5342 23.2229C38.2989 22.9761 38.009 22.8527 37.6646 22.8527C37.3202 22.8527 37.0304 22.9761 36.795 23.2229C36.5654 23.464 36.4506 23.8113 36.4506 24.2647C36.4506 24.7182 36.5626 25.0683 36.7864 25.3151C37.016 25.5562 37.303 25.6767 37.6474 25.6767Z" fill="#3A4750"/>
<path d="M42.8882 21.8023C43.244 21.8023 43.5569 21.8741 43.8266 22.0176C44.0964 22.1553 44.3088 22.3361 44.4638 22.56V21.8798H45.6777V26.6841C45.6777 27.126 45.5888 27.5192 45.4108 27.8636C45.2329 28.2138 44.966 28.4893 44.6101 28.6902C44.2543 28.8968 43.8238 29.0001 43.3186 29.0001C42.6413 29.0001 42.0846 28.8423 41.6483 28.5266C41.2179 28.2109 40.9739 27.7804 40.9165 27.2351H42.1133C42.1764 27.4532 42.3113 27.6254 42.5179 27.7517C42.7303 27.8837 42.9857 27.9497 43.2842 27.9497C43.6343 27.9497 43.9185 27.8435 44.1366 27.6312C44.3547 27.4245 44.4638 27.1088 44.4638 26.6841V25.9436C44.3088 26.1675 44.0935 26.354 43.818 26.5033C43.5482 26.6525 43.2383 26.7271 42.8882 26.7271C42.4864 26.7271 42.119 26.6238 41.7861 26.4172C41.4532 26.2105 41.1892 25.9207 40.994 25.5476C40.8046 25.1687 40.7099 24.7354 40.7099 24.2475C40.7099 23.7653 40.8046 23.3377 40.994 22.9646C41.1892 22.5915 41.4503 22.3045 41.7775 22.1037C42.1104 21.9028 42.4806 21.8023 42.8882 21.8023ZM44.4638 24.2647C44.4638 23.972 44.4064 23.7223 44.2916 23.5157C44.1768 23.3033 44.0218 23.1426 43.8266 23.0335C43.6315 22.9187 43.422 22.8613 43.1981 22.8613C42.9743 22.8613 42.7676 22.9158 42.5782 23.0249C42.3888 23.134 42.2338 23.2947 42.1133 23.5071C41.9985 23.7137 41.9411 23.9605 41.9411 24.2475C41.9411 24.5345 41.9985 24.787 42.1133 25.0052C42.2338 25.2175 42.3888 25.3811 42.5782 25.4959C42.7734 25.6107 42.98 25.6681 43.1981 25.6681C43.422 25.6681 43.6315 25.6136 43.8266 25.5045C44.0218 25.3897 44.1768 25.229 44.2916 25.0224C44.4064 24.81 44.4638 24.5575 44.4638 24.2647Z" fill="#3A4750"/>
<path d="M51.2891 24.1614C51.2891 24.3336 51.2776 24.4886 51.2546 24.6263H47.7676C47.7963 24.9707 47.9169 25.2405 48.1293 25.4357C48.3416 25.6308 48.6028 25.7284 48.9128 25.7284C49.3605 25.7284 49.679 25.5361 49.8684 25.1515H51.1685C51.0308 25.6107 50.7667 25.9896 50.3764 26.288C49.9861 26.5808 49.5068 26.7271 48.9386 26.7271C48.4794 26.7271 48.0661 26.6267 47.6988 26.4258C47.3372 26.2191 47.053 25.9293 46.8464 25.5562C46.6455 25.1831 46.545 24.7526 46.545 24.2647C46.545 23.7711 46.6455 23.3377 46.8464 22.9646C47.0473 22.5915 47.3285 22.3045 47.6902 22.1037C48.0518 21.9028 48.4679 21.8023 48.9386 21.8023C49.392 21.8023 49.7967 21.8999 50.1526 22.095C50.5142 22.2902 50.7926 22.5686 50.9877 22.9302C51.1886 23.2861 51.2891 23.6965 51.2891 24.1614ZM50.0406 23.817C50.0349 23.5071 49.923 23.2602 49.7049 23.0766C49.4867 22.8871 49.2198 22.7924 48.9041 22.7924C48.6057 22.7924 48.3531 22.8843 48.1465 23.068C47.9456 23.2459 47.8222 23.4956 47.7763 23.817H50.0406Z" fill="#3A4750"/>
<path d="M53.5723 22.8699V25.1774C53.5723 25.3381 53.6096 25.4557 53.6842 25.5304C53.7646 25.5992 53.8966 25.6337 54.0803 25.6337H54.6399V26.6496H53.8822C52.8663 26.6496 52.3583 26.156 52.3583 25.1688V22.8699H51.79V21.8798H52.3583V20.7002H53.5723V21.8798H54.6399V22.8699H53.5723Z" fill="#3A4750"/>
<path d="M58.1931 21.8109C58.5547 21.8109 58.8762 21.8913 59.1574 22.052C59.4387 22.207 59.6568 22.4394 59.8118 22.7494C59.9725 23.0536 60.0529 23.421 60.0529 23.8514V26.6496H58.8475V24.015C58.8475 23.6362 58.7528 23.3463 58.5634 23.1454C58.3739 22.9388 58.1156 22.8355 57.7885 22.8355C57.4556 22.8355 57.1915 22.9388 56.9964 23.1454C56.807 23.3463 56.7122 23.6362 56.7122 24.015V26.6496H55.5069V20.2784H56.7122V22.4739C56.8672 22.2672 57.0739 22.1065 57.3321 21.9917C57.5904 21.8712 57.8774 21.8109 58.1931 21.8109Z" fill="#3A4750"/>
<path d="M65.6332 24.1614C65.6332 24.3336 65.6217 24.4886 65.5987 24.6263H62.1117C62.1404 24.9707 62.261 25.2405 62.4734 25.4357C62.6857 25.6308 62.9469 25.7284 63.2569 25.7284C63.7046 25.7284 64.0231 25.5361 64.2125 25.1515H65.5126C65.3749 25.6107 65.1108 25.9896 64.7205 26.288C64.3302 26.5808 63.8509 26.7271 63.2827 26.7271C62.8235 26.7271 62.4102 26.6267 62.0429 26.4258C61.6813 26.2191 61.3971 25.9293 61.1905 25.5562C60.9896 25.1831 60.8891 24.7526 60.8891 24.2647C60.8891 23.7711 60.9896 23.3377 61.1905 22.9646C61.3914 22.5915 61.6726 22.3045 62.0343 22.1037C62.3959 21.9028 62.812 21.8023 63.2827 21.8023C63.7361 21.8023 64.1408 21.8999 64.4967 22.095C64.8583 22.2902 65.1367 22.5686 65.3318 22.9302C65.5327 23.2861 65.6332 23.6965 65.6332 24.1614ZM64.3847 23.817C64.379 23.5071 64.2671 23.2602 64.049 23.0766C63.8308 22.8871 63.5639 22.7924 63.2482 22.7924C62.9498 22.7924 62.6972 22.8843 62.4906 23.068C62.2897 23.2459 62.1663 23.4956 62.1204 23.817H64.3847Z" fill="#3A4750"/>
<path d="M67.7184 22.6202C67.8733 22.3677 68.0742 22.1697 68.321 22.0262C68.5736 21.8827 68.8606 21.8109 69.182 21.8109V23.0766H68.8635C68.4846 23.0766 68.1976 23.1655 68.0025 23.3435C67.8131 23.5214 67.7184 23.8314 67.7184 24.2733V26.6496H66.513V21.8798H67.7184V22.6202Z" fill="#3A4750"/>
</svg>
