<svg width="128" height="128" viewBox="0 0 128 128" fill="none" xmlns="http://www.w3.org/2000/svg">
<path d="M120.51 67.9497C120.388 66.5112 119.462 65.3299 118.094 64.8667L106.997 61.1086L117.801 48.7136C118.518 47.8908 118.818 46.8028 118.624 45.7288C118.43 44.6548 117.768 43.7405 116.809 43.2205L102.87 35.6687C101.96 35.1755 100.822 35.5135 100.328 36.424C99.835 37.3345 100.173 38.4725 101.084 38.9658L114.83 46.4138L103.317 59.6226L66.9516 39.9193L73.6994 32.178C74.4759 32.463 75.3144 32.6185 76.1884 32.6185C78.9022 32.6185 81.2709 31.1177 82.5117 28.9034L92.9315 34.549C93.2155 34.7027 93.5212 34.7757 93.823 34.7757C94.489 34.7757 95.1338 34.4202 95.4735 33.7935C95.9668 32.883 95.6285 31.745 94.718 31.2517L83.4269 25.1344C83.2997 21.2507 80.1029 18.1299 76.1887 18.1299C72.1941 18.1299 68.9444 21.3797 68.9444 25.3742C68.9444 27.1329 69.5749 28.7467 70.6209 30.003L63.9998 37.599L52.2695 24.1417C51.162 22.8709 49.3537 22.5442 47.871 23.3472L43.2857 25.8314C42.7485 21.5827 39.1142 18.2851 34.7219 18.2851C29.9609 18.2851 26.0874 22.1587 26.0874 26.9199C26.0874 29.5525 27.2731 31.9122 29.1369 33.4972L11.1908 43.2205C10.2313 43.7405 9.56976 44.6545 9.37551 45.7288C9.18175 46.8028 9.48176 47.8908 10.199 48.7133L21.0026 61.1084L9.90526 64.8662C8.5375 65.3294 7.61175 66.5107 7.48925 67.9492C7.36674 69.3877 8.07925 70.7087 9.34876 71.3965L22.3806 78.457V85.5343C22.3806 86.5698 23.2198 87.4093 24.2556 87.4093C25.2913 87.4093 26.1306 86.5698 26.1306 85.5343V80.4888L44.3627 90.3668C45.1405 90.7883 46.0082 91.0026 46.8792 91.0026C47.4487 91.0026 48.02 90.9108 48.568 90.7253L62.1251 86.135V123.441L26.9296 104.371C26.4369 104.104 26.1309 103.59 26.1309 103.03V94.7906C26.1309 93.7551 25.2916 92.9156 24.2558 92.9156C23.2201 92.9156 22.3808 93.7551 22.3808 94.7906V103.03C22.3808 104.968 23.4391 106.745 25.1431 107.668L61.4868 127.36C62.2738 127.787 63.1371 128 64.0003 128C64.8636 128 65.7268 127.786 66.5138 127.36L102.858 107.668C104.561 106.745 105.62 104.968 105.62 103.03V78.4567L118.651 71.3962C119.92 70.7092 120.633 69.3884 120.51 67.9497ZM68.1449 53.4441C74.7084 55.2891 79.2924 61.3416 79.2924 68.1629C79.2924 70.0624 78.9512 71.906 78.2767 73.6527L63.9998 81.388L49.723 73.6527C49.0487 71.906 48.7072 70.0624 48.7072 68.1629C48.7072 61.3206 53.3088 55.2629 59.8978 53.4316C60.8953 53.1543 61.4793 52.1206 61.2021 51.1231C60.9251 50.1253 59.8908 49.5416 58.8935 49.8186C50.6882 52.0993 44.9575 59.6426 44.9575 68.1629C44.9575 69.1904 45.0407 70.2047 45.2007 71.2027L28.1916 61.9869L64.0003 42.5853L99.8088 61.9871L82.7997 71.2029C82.9597 70.2049 83.0429 69.1907 83.0429 68.1632C83.0429 59.6689 77.3342 52.1318 69.1601 49.8341C68.1631 49.5536 67.1278 50.1351 66.8478 51.1316C66.5668 52.1286 67.1476 53.1638 68.1449 53.4441ZM76.1884 21.8804C78.1152 21.8804 79.6829 23.4479 79.6829 25.3747C79.6829 27.3014 78.1152 28.8692 76.1884 28.8692C74.2616 28.8692 72.6941 27.3014 72.6941 25.3747C72.6941 23.4479 74.2616 21.8804 76.1884 21.8804ZM34.7219 22.0357C37.4152 22.0357 39.6067 24.2269 39.6067 26.9204C39.6067 29.6137 37.4152 31.8052 34.7219 31.8052C32.0286 31.8052 29.8374 29.614 29.8374 26.9204C29.8374 24.2269 32.0286 22.0357 34.7219 22.0357ZM33.3989 35.4537C33.8304 35.5205 34.2722 35.5552 34.7219 35.5552C38.2164 35.5552 41.2302 33.4675 42.588 30.475L49.5345 26.7114L61.0476 39.9198L24.6821 59.6231L13.1688 46.4143L33.3989 35.4537ZM47.365 87.174C46.964 87.31 46.5205 87.2718 46.149 87.0703L25.1571 75.697C25.1516 75.694 25.1458 75.691 25.1403 75.688L11.4868 68.2904L24.0813 64.0257L59.329 83.1233L47.365 87.174ZM101.869 103.03C101.869 103.591 101.563 104.105 101.07 104.372L65.8748 123.442V86.1358L79.4319 90.7261C79.9799 90.9116 80.5512 91.0033 81.1209 91.0033C81.9914 91.0033 82.8594 90.7888 83.6372 90.3676L101.869 80.4895V103.03H101.869ZM81.8504 87.0703C81.4789 87.2718 81.0354 87.31 80.6344 87.174L68.6706 83.1233L103.918 64.0257L116.513 68.2904L81.8504 87.0703ZM116.892 68.4187C116.891 68.4187 116.891 68.4184 116.891 68.4184L116.892 68.4187Z" fill="#DCE0EA"/>
<path d="M78.0222 106.172L73.7209 108.503C72.8104 108.996 72.4724 110.134 72.9657 111.044C73.3052 111.671 73.9502 112.027 74.6162 112.027C74.9177 112.027 75.224 111.954 75.5077 111.8L79.809 109.469C80.7195 108.976 81.0575 107.838 80.5642 106.928C80.071 106.017 78.9335 105.679 78.0222 106.172Z" fill="#DCE0EA"/>
<path d="M41.9232 15.7899C42.2895 16.1559 42.7695 16.3392 43.2492 16.3392C43.729 16.3392 44.209 16.1562 44.5752 15.7899L46.122 14.2432L47.6687 15.7899C48.035 16.1559 48.515 16.3392 48.9947 16.3392C49.4745 16.3392 49.9545 16.1562 50.3207 15.7899C51.053 15.0577 51.053 13.8704 50.3207 13.1384L48.7737 11.5914L50.3207 10.0444C51.053 9.31219 51.053 8.12494 50.3207 7.39294C49.5882 6.66069 48.4012 6.66069 47.669 7.39294L46.1222 8.93969L44.5755 7.39294C43.843 6.66069 42.656 6.66069 41.9237 7.39294C41.1915 8.12519 41.1915 9.31244 41.9237 10.0444L43.4707 11.5914L41.9237 13.1384C41.191 13.8704 41.191 15.0577 41.9232 15.7899Z" fill="#DCE0EA"/>
<path d="M97.4339 28.0731C97.8002 28.4391 98.2802 28.6224 98.7599 28.6224C99.2397 28.6224 99.7197 28.4394 100.086 28.0731L101.633 26.5264L103.179 28.0731C103.546 28.4391 104.026 28.6224 104.505 28.6224C104.985 28.6224 105.465 28.4394 105.831 28.0731C106.564 27.3409 106.564 26.1536 105.831 25.4216L104.284 23.8746L105.831 22.3276C106.564 21.5954 106.564 20.4081 105.831 19.6761C105.099 18.9439 103.912 18.9439 103.18 19.6761L101.633 21.2229L100.086 19.6761C99.3537 18.9439 98.1667 18.9439 97.4344 19.6761C96.7022 20.4084 96.7022 21.5956 97.4344 22.3276L98.9814 23.8746L97.4344 25.4216C96.7017 26.1536 96.7017 27.3409 97.4339 28.0731Z" fill="#DCE0EA"/>
<path d="M87.0822 16.3377C91.5867 16.3377 95.2512 12.6733 95.2512 8.169C95.2509 3.6645 91.5864 0 87.0822 0C82.5779 0 78.9132 3.6645 78.9132 8.169C78.9132 12.6733 82.5777 16.3377 87.0822 16.3377ZM87.0822 3.75C89.5187 3.75 91.5012 5.73225 91.5012 8.169C91.5012 10.6055 89.5187 12.5878 87.0822 12.5878C84.6457 12.5878 82.6632 10.6055 82.6632 8.169C82.6632 5.73225 84.6457 3.75 87.0822 3.75Z" fill="#DCE0EA"/>
<path d="M63.7881 70.1284C61.9816 70.1284 60.2766 70.7274 58.9846 71.8169C58.1931 72.4844 58.0924 73.6674 58.7601 74.4589C59.4274 75.2507 60.6104 75.3512 61.4021 74.6837C62.0096 74.1714 62.8786 73.8782 63.7884 73.8782H63.8009C64.7151 73.8809 65.5874 74.1797 66.1946 74.6979C66.5479 74.9994 66.9806 75.1467 67.4109 75.1467C67.9406 75.1467 68.4671 74.9234 68.8379 74.4889C69.5101 73.7014 69.4166 72.5177 68.6291 71.8454C67.3381 70.7434 65.6271 70.1334 63.8116 70.1279C63.8039 70.1284 63.7959 70.1284 63.7881 70.1284Z" fill="#DCE0EA"/>
<path d="M55.8553 64.5764H55.8378C54.8013 64.5611 53.966 65.4031 53.9585 66.4384C53.9515 67.4739 54.7938 68.3191 55.8293 68.3264H55.8425C56.8718 68.3264 57.71 67.4954 57.7173 66.4644C57.7245 65.4289 56.891 64.5836 55.8553 64.5764Z" fill="#DCE0EA"/>
<path d="M71.7946 68.2877C71.8011 68.2889 71.8079 68.2897 71.8144 68.2909C71.8684 68.3014 71.9231 68.3102 71.9786 68.3159C71.9966 68.3177 72.0149 68.3177 72.0329 68.3189C72.0746 68.3219 72.1164 68.3259 72.1591 68.3262H72.1724C72.2369 68.3262 72.3006 68.3229 72.3636 68.3164C73.3103 68.2217 74.0493 67.4227 74.0493 66.4509C74.0493 65.4919 73.3291 64.7027 72.4004 64.5909C72.3919 64.5899 72.3836 64.5879 72.3751 64.5872C72.3324 64.5827 72.2886 64.5814 72.2449 64.5797C72.2249 64.5789 72.2054 64.5764 72.1851 64.5762H72.1754C72.1751 64.5762 72.1746 64.5762 72.1744 64.5762H72.1676H72.1566C72.1559 64.5762 72.1551 64.5762 72.1544 64.5762C71.1251 64.5762 70.2956 65.4072 70.2884 66.4382C70.2821 67.3489 70.9331 68.1119 71.7946 68.2877Z" fill="#DCE0EA"/>
</svg>
