<svg width="34" height="34" viewBox="0 0 34 34" fill="none" xmlns="http://www.w3.org/2000/svg">
<path fill-rule="evenodd" clip-rule="evenodd" d="M33.9809 7.344C33.9745 7.27175 33.9596 7.20375 33.9384 7.13363C33.9171 7.0635 33.8916 6.99975 33.8576 6.936C33.8511 6.92393 33.8471 6.91065 33.8429 6.89721C33.8377 6.87988 33.8323 6.86231 33.8215 6.84675L29.5715 0.47175C29.3739 0.1785 29.0424 0 28.6875 0H5.3125C4.95763 0 4.62613 0.1785 4.4285 0.473875L0.1785 6.84888C0.167458 6.86482 0.162083 6.88219 0.156649 6.89975C0.152671 6.9126 0.148662 6.92555 0.142375 6.93812C0.108375 7.00187 0.082875 7.06563 0.061625 7.13575C0.040375 7.20588 0.0255 7.27387 0.019125 7.34612C0.0174176 7.35808 0.0139953 7.36969 0.0105117 7.3815L0.0105113 7.3815C0.00532369 7.3991 0 7.41716 0 7.4375V31.875C0 33.048 0.954125 34 2.125 34H31.875C33.0459 34 34 33.048 34 31.875V7.4375C34 7.41761 33.9949 7.3999 33.9898 7.38224L33.9898 7.38217C33.9862 7.36967 33.9826 7.3572 33.9809 7.344ZM15.7739 2.125H20.3787H28.118L30.9528 6.375H21.0885H15.0662H3.04725L5.882 2.125H15.7739ZM9.33931 24.483C8.52825 25.2941 7.39769 29.0053 7.2748 29.4231C7.22565 29.6197 7.32396 29.8409 7.54515 29.8901C7.55744 29.8901 7.57587 29.8962 7.59431 29.9024C7.61274 29.9085 7.63117 29.9147 7.64346 29.9147C7.66804 29.9147 7.7172 29.9147 7.74177 29.8901C8.15959 29.7672 11.8708 28.6366 12.6819 27.8256C13.6158 26.8916 13.6158 25.3924 12.6819 24.483C11.7725 23.5737 10.2733 23.5737 9.33931 24.483ZM26.2241 10.5231C26.4453 10.5968 26.6173 10.7442 26.6665 10.9654C26.8631 11.9485 26.9369 12.9316 26.9123 13.9148C26.9123 17.5768 24.9461 19.7888 22.3409 21.4355V25.1958C22.3163 25.8349 21.9722 26.4001 21.4069 26.7196L17.8923 28.4892C17.7694 28.5384 17.6465 28.563 17.5237 28.563C17.0321 28.563 16.6634 28.1697 16.6634 27.7027V23.9915L15.8524 24.8026C15.3854 25.245 14.6727 25.245 14.2303 24.8026L12.4115 22.9839C11.9691 22.5169 11.9691 21.8041 12.4115 21.3617L13.198 20.5753H9.4868C9.01983 20.5753 8.62659 20.182 8.62659 19.715C8.65116 19.5676 8.67574 19.4447 8.7249 19.3218L10.4945 15.7826C10.814 15.2419 11.3793 14.8733 12.0183 14.8487H15.7295C17.3762 12.2435 19.5882 10.2773 23.2748 10.2773C24.2579 10.2527 25.2656 10.3264 26.2241 10.5231ZM20.9154 14.8487C20.9154 15.6352 21.5544 16.2742 22.3409 16.2742C23.1273 16.2742 23.7663 15.6352 23.7663 14.8487C23.7663 14.0622 23.1273 13.4232 22.3409 13.4232C21.5544 13.4232 20.9154 14.0622 20.9154 14.8487Z" fill="#D72323"/>
</svg>
